<svg id="_ÎÓÈ_1" data-name="—ÎÓÈ_1" xmlns="http://www.w3.org/2000/svg" viewBox="0 0 595.28 595.28"><title>Plan de travail 2</title><path d="M186.67,244.78h0c-2.74,5.56-7.44,12.5-14.15,20.42L37.86,424.66H217.4c5.51-12.26,17.45-27.87,43.1-41.83a153.69,153.69,0,0,1-20.59-38.7H212.6l21-23.14a153.74,153.74,0,0,1,37-131.87,83.65,83.65,0,0,0-8.3-13.85A89.4,89.4,0,0,0,249,161h0a99.14,99.14,0,0,0-34.88-19.46c-13.13-4.25-27.6-6.28-43.31-6.28-16.17,0-31,2.29-44.47,7.12a96.19,96.19,0,0,0-35.26,22l.52-.52-.52.52A94.31,94.31,0,0,0,68.65,199.2c-4.93,13.29-7.28,28-7.27,44.07v14.29h87.84V241.85A52.26,52.26,0,0,1,151,227.39a27.36,27.36,0,0,1,1.92-4.92,19.36,19.36,0,0,1,2.4-3.63h0a16.13,16.13,0,0,1,2.82-2.65,16.93,16.93,0,0,1,5.4-2.59,28.84,28.84,0,0,1,8-1,23.17,23.17,0,0,1,8.3,1.35,15.66,15.66,0,0,1,5.63,3.65,15.86,15.86,0,0,1,3.67,5.6,21.9,21.9,0,0,1,1.32,8,23.65,23.65,0,0,1-.85,6.06A40.68,40.68,0,0,1,186.67,244.78Z" fill="#8ab326"/><path d="M322.41,360.73a97.39,97.39,0,1,1,137.47-5.15c23.83,4.73,41.54,12.09,53.64,18.61a150.23,150.23,0,0,0,26.14-84.85c0-83.31-67.78-151.09-151.09-151.09S237.47,206,237.47,289.34a150.3,150.3,0,0,0,29.81,90C281.59,372.38,299.65,366,322.41,360.73Z" fill="#ee7626"/><path d="M486,289.34a97,97,0,0,1-26.07,66.25c23.83,4.73,41.54,12.09,53.64,18.61a150.23,150.23,0,0,0,26.14-84.85c0-83.31-67.78-151.09-151.09-151.09h-.41V192h.41A97.5,97.5,0,0,1,486,289.34Z" fill="#8ab326"/><path d="M212.89,446.43S242.41,384.86,353.61,366c131.15-22.23,180.3,22,180.3,22s-54.61-53.12-183.44-32.67C204.09,378.58,212.89,446.43,212.89,446.43Z" fill="#8ab326"/><g id="Calque_2" data-name="Calque 2"><path d="M295.57,415.57H283.3v9.19h14.33v4.14H278.12V399H297.5v4.18H283.3v8.24h12.26Z" fill="#0863b5"/><path d="M312.14,409.83,318.41,399h6l-9,14.81,9.23,15.05h-6l-6.42-11-6.44,11h-6l9.25-15.05-9-14.81h6Z" fill="#0863b5"/><path d="M333.63,417.82V428.9h-5.19V399h11.42a11.55,11.55,0,0,1,7.95,2.61,8.77,8.77,0,0,1,2.94,6.9,8.47,8.47,0,0,1-2.88,6.84q-2.88,2.44-8.07,2.44Zm0-4.18h6.23a6.14,6.14,0,0,0,4.22-1.3,4.78,4.78,0,0,0,1.46-3.76,5.17,5.17,0,0,0-1.48-3.87,5.7,5.7,0,0,0-4.06-1.49h-6.38Z" fill="#0863b5"/><path d="M372.74,415.57H360.47v9.19h14.33v4.14H355.29V399h19.38v4.18H360.47v8.24h12.26Z" fill="#0863b5"/><path d="M390,417.41h-5.78V428.9H379V399h10.5q5.17,0,8,2.32a8.2,8.2,0,0,1,2.81,6.71,8.41,8.41,0,0,1-1.45,5,9.2,9.2,0,0,1-4,3.11l6.71,12.43v.27H396Zm-5.78-4.18h5.33a5.93,5.93,0,0,0,4.1-1.32,4.62,4.62,0,0,0,1.48-3.62,4.91,4.91,0,0,0-1.36-3.71,5.79,5.79,0,0,0-4.07-1.35h-5.48Z" fill="#0863b5"/><path d="M410.72,428.9h-5.17V399h5.17Z" fill="#0863b5"/><path d="M434.55,415.57H422.29v9.19h14.33v4.14H417.1V399h19.38v4.18H422.29v8.24h12.26Z" fill="#0863b5"/><path d="M464.53,428.9h-5.19L446,407.71V428.9h-5.19V399H446l13.35,21.27V399h5.15Z" fill="#0863b5"/><path d="M493.45,419.18a10.78,10.78,0,0,1-3.53,7.46,12,12,0,0,1-8.18,2.68,11.65,11.65,0,0,1-6.29-1.69,11.11,11.11,0,0,1-4.19-4.81,17.35,17.35,0,0,1-1.54-7.24v-2.79a17.48,17.48,0,0,1,1.5-7.44,11.29,11.29,0,0,1,4.3-5,12,12,0,0,1,6.47-1.74,11.55,11.55,0,0,1,8,2.68,11.19,11.19,0,0,1,3.51,7.58h-5.17a7.38,7.38,0,0,0-1.88-4.64,6.2,6.2,0,0,0-4.42-1.43,6.06,6.06,0,0,0-5.2,2.47q-1.81,2.47-1.86,7.26v2.65q0,4.84,1.73,7.39a5.75,5.75,0,0,0,5.08,2.54,6.71,6.71,0,0,0,4.59-1.37,7.16,7.16,0,0,0,1.95-4.57Z" fill="#0863b5"/><path d="M515.53,415.57H503.27v9.19h14.33v4.14H498.08V399h19.38v4.18H503.27v8.24h12.26Z" fill="#0863b5"/><path d="M321.8,287.74H308.1L305,296.3h-4.45l12.49-32.7h3.77l12.51,32.7h-4.42Zm-12.4-3.53h11.12l-5.57-15.3Z" fill="#0863b5"/><path d="M358.88,296.3h-4.33l-16.46-25.2v25.2h-4.33v-32.7h4.33l16.51,25.31V263.59h4.29Z" fill="#0863b5"/><path d="M391.67,296.3h-4.33l-16.46-25.2v25.2h-4.33v-32.7h4.33l16.51,25.31V263.59h4.29Z" fill="#0863b5"/><path d="M417.82,281.18H403.65v11.59h16.46v3.53H399.33v-32.7h20.55v3.53H403.65v10.53h14.17Zm-6.33-26.62h5l-6,6.6h-3.35Z" fill="#0863b5"/><path d="M444,281.18H429.79v11.59h16.46v3.53H425.48v-32.7H446v3.53H429.79v10.53H444Z" fill="#0863b5"/><path d="M461.26,281.72q-5.55-1.6-8.07-3.92a7.49,7.49,0,0,1-2.53-5.74,7.91,7.91,0,0,1,3.09-6.39,12.27,12.27,0,0,1,8-2.53,13.41,13.41,0,0,1,6,1.3,9.89,9.89,0,0,1,4.09,3.59,9.2,9.2,0,0,1,1.45,5H469a6,6,0,0,0-1.89-4.68,7.67,7.67,0,0,0-5.32-1.7,7.86,7.86,0,0,0-5,1.41A4.7,4.7,0,0,0,455,272a4.22,4.22,0,0,0,1.7,3.39,16.66,16.66,0,0,0,5.77,2.53,26.83,26.83,0,0,1,6.38,2.53,9.71,9.71,0,0,1,3.41,3.22,8.23,8.23,0,0,1,1.11,4.33,7.64,7.64,0,0,1-3.1,6.37,13.21,13.21,0,0,1-8.29,2.39,15.38,15.38,0,0,1-6.29-1.29,10.58,10.58,0,0,1-4.5-3.54,8.63,8.63,0,0,1-1.58-5.1H454a5.63,5.63,0,0,0,2.19,4.68,9.22,9.22,0,0,0,5.85,1.72,8.47,8.47,0,0,0,5.23-1.39,4.52,4.52,0,0,0,1.82-3.8,4.44,4.44,0,0,0-1.68-3.72A19.39,19.39,0,0,0,461.26,281.72Z" fill="#0863b5"/></g></svg>