<svg id="Calque_1" data-name="Calque 1" xmlns="http://www.w3.org/2000/svg" viewBox="0 0 1000 1000"><defs><style>.cls-1{fill:#89b33c;}.cls-2{fill:#ee7626;}.cls-3{font-size:22.15px;}.cls-19,.cls-3{fill:#fff;font-family:Roboto-Bold, Roboto;font-weight:700;}.cls-4{letter-spacing:0.01em;}.cls-5{letter-spacing:-0.01em;}.cls-6{letter-spacing:-0.01em;}.cls-7{letter-spacing:0.01em;}.cls-8{letter-spacing:-0.06em;}.cls-9{letter-spacing:-0.09em;}.cls-10{letter-spacing:-0.07em;}.cls-11{letter-spacing:0.01em;}.cls-12{letter-spacing:-0.03em;}.cls-13{letter-spacing:-0.04em;}.cls-14{letter-spacing:0em;}.cls-15{letter-spacing:-0.03em;}.cls-16{letter-spacing:-0.03em;}.cls-17{letter-spacing:-0.01em;}.cls-18{letter-spacing:-0.01em;}.cls-19{font-size:19.69px;}</style></defs><title>Plan de travail 1</title><path class="cls-1" d="M592.35,356.49a4.93,4.93,0,0,1-1.14,3.27c-.65.85-3.37,2.34-3.74,3.47s-.65,2-1.4,2-1.69-.65-1.78.57-1,3-.37,3.37,2.62,2.05,1.77,2.62-2.06.84-1.49,1.78,1.12,4.21.37,4.21-1.87-.65-2.72.28-2.71,2.91-3.56,2.44a5.14,5.14,0,0,0-2.8-.75c-.84.09-2-.28-2.25.55s-2,4.69-.94,4.69,2.16-.56,2.16.09-1.12,1.22.93,2.15,3.19.94,2.62,1.69-1.12,2,0,2.07,2.35.65,1.42,1.3-.85,1.78-.85,3-.19,1.69.56,2.24,2.62,1.88,2.24,2.62-.83,1.79-1.4,1.6-2.15-1-2.71-.56a3,3,0,0,1-1.88.85c-.93.08-3.64-.2-2.89,1.3s2.7,2.05,2.8,3.27a8,8,0,0,0,1.22,3.94c.75.94,2.14,3.34,1.77,4.41a13.23,13.23,0,0,1-2.15,4.3c-1.12,1.59-2.62,4.31-2,5.9s.94,1.3,2.63,2.8,4.77,3.09,4.77,4.69-.85.84.27,3.74,3.84,7.58,3.57,10.87-2.35,3.82-.75,5.71,5,2.52,4.21,4.21-1.5,2.8-1.22,3.74,1.87,3.08,1.12,3.93-2,2.91-1.59,3.56a27.61,27.61,0,0,1,.85,7.49,6.23,6.23,0,0,1-1.22,2.91,4.14,4.14,0,0,0-1.55,2.72H585a13.46,13.46,0,0,0-2.62-.47,11.13,11.13,0,0,0-3.38.75,20.18,20.18,0,0,0-4.58,3c-.76.84-1.59.84-1.88,1.87s.76,1.87-.93,1.69-2.52-1.14-3.46-.2-1.6,2.44-2.35,1.13-2.62-2.72-3.37-2.07a23,23,0,0,0-2,2.44c-.85,1-.56,1.79-2.25,2.25s-2.72.84-2.34,1.22,1.87,3.18.09,2.71-4.86-.19-4.21.38,2.9.65,2,1.69-1.69,4-1,4.12,1.87.65,1.87,1.49,1.5,2.35-.09,3.55-3.65,3.1-5.16,2.82a15.78,15.78,0,0,0-3.74-.38,34.06,34.06,0,0,0-3.47.66c-.55.19-4.2.74-4.67.94s-2,.18-2.25,1.69.19,2.8-.75,2.8-2.06-.38-2.53.84a17.86,17.86,0,0,0-1.07,4.33c-.33,0-6.78-.41-7.89-.41a24.23,24.23,0,0,0-3.48.52c-.72.1-.72,1.23-2.67,1.12s-5-1.94-7.07-2.56-1.44-.1-3.08.21-1.54-.21-2.56-.62-4.31.82-5.44.82-1.75-1.12-2.77-2.66-1.44.1-2.56.5-.51,2.27-.51,3.29-1,2.15-1.64,2.86-2.36-1.11-3.49-2.15-2.56,2.36-3.7,2.67-1-1.84-1-3.07-3.07,1.63-4.1,2.36-1-.21-1.13-1.44-.51-1.54-1.23-1.54-1.94,1.75-2.77,2.77-2.36,1.75-3.17,2.56-1.23,1.84-2.15,2.15-4.21-4.1-5-5-2.46,2.06-3.17,2.56-1.54,0-3.08-.1-1,.52-1.44,1-.92.12-2-1.32-1.23-.52-2.06-.72.41-1.65.72-2.36a5.23,5.23,0,0,1,1.13-1.75c.52-.5-.71-.92-1.33-.81s-1.44-1.13-2.36-1.75a3,3,0,0,1-1.13-3c.3-.71-.1-1.84.11-2.77s-2.46-2.15-3.29-3-3.08-.31-4.4-.31-1.44-1.44-1.44-2.67-2.87-.92-4-1-2.56-2-3.6-3.19a4.44,4.44,0,0,1-1.23-2.86c-.19-1.14.62-1.64,1.14-2.16s-.1-1.84-.31-3.28.61-1.23,1-1.74-.81-2.15-1.33-3.28a2.68,2.68,0,0,0-2.15-1.44c-.72-.2-2.67-3.28-4-4.93s-.72-2.15-.72-3.17-1.13-1.94-1.34-3-1.12-1.43-2.56-2.15-3.17-2.77-3.9-3.27.21-5-.4-6.77-3.49-2.06-4.41-2.46a5.44,5.44,0,0,1-2.15-2c-.83-1-1.13,0-2.67.21s-.21,1.64.82,2.36a2,2,0,0,1,1.12,2.16c-.1.81-1.43.4-3.41.33a47.53,47.53,0,0,0-5.15.31c-1.69.14-2.07,1.46-2.61,2s-4.31-.69-5.46-1.15-1.78.62-3,1.07-1.52-.45-1.92-1.84a17.17,17.17,0,0,1,.08-5.54,23.94,23.94,0,0,0,.46-3.85c0-1.23-1.61-.38-2.6-.38s-.78-.76-.62-1.47-.54-.76-1.55-1.23-1.23.94-2.3,1.85-1.69-.3-2.39-1.45.47-1.63.92-2.39-.3-1.38-1.07-1.92-.7.46-1.39.69-1.61-.76-2.38-2.15-2.15.3-2.85.61-.53-1.3-.53-2.3-1-1-1.62-1.62a1,1,0,0,1-.27-.87,8.43,8.43,0,0,0,1-2.28,3.39,3.39,0,0,0-.64-2c-.47-.65.83-1.49,1.29-2.22s0-1.86,0-2.61a14.37,14.37,0,0,1,1-3.62,10.28,10.28,0,0,1,1.39-2.88c.75-.84,1.4-2.13,2-2.41s.74-1.31.83-2.23.74-1,1.58-1.57.47-.75-.09-2.51.56-1.39,1.58-2.14.18-3.71.18-5.11,2.14-4.09,2.33-4.64.27-1-1.49-3.25,1.11-3.53,1.67-4.27a7.53,7.53,0,0,0,.84-2.78c.27-1.12,2-.1,2.41.82s2.13.84,3.53,1,1.58.83,1.95,1.58,2.69.66,3.71-.1-.75-3.15-1.77-4.27-.18-1.39.75-2.41,1.58.74,2.6,1.68,2.88-.75,3.53-1.59,2.31-.92,3.43-1.29a11.41,11.41,0,0,0,3.17-1.49c.64-.56,1.94-.65,3.06-1.21s-.65-2.41-1.12-3.53,1.21-1.21,2-1.76.65-1.21,1.12-2.14,1.76-.74,2.6-1.21a6,6,0,0,1,2.13-.65c.65-.08.56-.64.38-1.57s.55-.84,1.11-1.21a6.8,6.8,0,0,0,2-2.41,3.34,3.34,0,0,1,1.77-2c.83-.37.46-1.76-.38-2.78s-.09-2.23-.09-3.62,2.51-1.12,3.53-.18.56-2.51.64-3.82.94-.73,2.05-1-.74-3.15-1.48-4.73,1-2,1.39-3.62-1.49-1.29-3-1.39-.45-1.76-.45-2.6,1.76-.93,2.88-.93.08-2.23-1-2.88.73-.84,1.57-1.21,1-2.31,1.11-3,2-.36,3.06-.46-.27-1.86-1.1-2.33a9.51,9.51,0,0,0-3.44-.55c-.7,0-2.87-2.61-3.14-2.93,1-.68,1.87-1.39,2.17-1.65.69-.63-2.34-4.39-2.74-5.43a3,3,0,0,1,.55-2.6c.33-.69-1.45-1.1-2.55-1.58s2.55-4.05,3.17-4.33a4.19,4.19,0,0,1,2.19-.41,6.71,6.71,0,0,0,3.29-1.17,30.5,30.5,0,0,0,4.26-3.7c.75-.83.54-1.86.62-2.61s1.16-1.38,1.85-1.65-1.72-1.78-2.61-2.95.55-1.38,1.17-1.71,0-1.8-.2-2.34.48-1,.75-1.65-.69-1-1.72-1.51-.28-1.31-.07-2-1.17-1.23-2.4-1.71a14.41,14.41,0,0,0-3-.89c-1.36-.27-.82-1.24-.82-2.54s-.75-.75-1.78-1.17-.27-1.57,0-2.61-.14-1.17-.55-2.13-.12-1.23-.12-1.23c-.11-1.33,1.74-1.73,3-2.15s.92-1.54,1.54-2.56,3,.41,3.8.71,2.35-1.42,3.38-2.15,1.54-.31,3.08-.5,1.43-1.23,2.25-2.06,3,.1,4.21.1.61-1.94.71-3.27,2.25.19,2.67,1,1.95.61,3.08.92,1.84.1,2.25-.41,1.64,0,2.36.72.72.1,2.25-.41,1.75.41,3.08.41,1.44-2.06,2.56-2.15-.5-2.37-1.23-3.7.62-1.23,2-2.15,1.33-1.54,1.85-2.36,1.23-.62,3-.81,1.43-1,1.54-2.67-.31-1.85-.93-3.08.41-1.23.93-1.64,3-.28,3-.28-.7,1.45.15,1.54,2-.16,2,.76-.53,1.16.15,1.7,2.16,1,1.4,1.68-2.17,1.7-1,1.92,2,.24,2.31,1,1.16,3.08.61,4a3.58,3.58,0,0,0-.84,2.54c0,1.46-.55,2.46.84,3.07s2.92,2.16,2.39,2.92-3,3.47-2.24,4.08,1.47.93,1.31,1.78-.69,1.52,0,2.22,1.93.77,2.38,1.76,1.31,2.93,2.32,3,3.76.3,3.3,1.15-1.31,2.16-.69,2.7,3.38-.16,3.69.61,2.46,2,2.08,2.77a4.42,4.42,0,0,0-.69,3.3c.31,1.7.92,4.92,1.92,5.08s1.92-.16,2.15.54.85,1.92,2,2.08,1.94.46,2.7,0,1.39-1.46,2-.85,1.23,1.31.92,2.23-2,2.08-.47,2.39,3.31,0,3,.61-.54,1.46-.16,1.85a1.52,1.52,0,0,1,.54,1.92c-.45.92-.83,1.61-.45,2.46s.76,2.61.31,2.84-1.16.93-.85,1.54,1,1.31,2.84,1.16a19.22,19.22,0,0,0,3.77-.54,22.78,22.78,0,0,0,3.16-1.07c.85-.39.76.23,2,.38s1.32.76,1.85-.08,1.31-1.23,1.77-1.77.92-2.53,1.92-2.15,2.55.23,2.55,1.3-.24,2.23.52,2,1.4-.78,1.78-.54,1.84,1.08,2.15.07,1-2.77,1.77-1.77,1.61,2.16,2.77,1.84,1.69-1.37,2.77-.61,1.45,1,1.45,2.08-1,3.31.4,3.85,3.22.22,3.45.92,0,1.15.62,1.23,1.77.24,2,.77,1.15,2.84.69,3.38-1.08-.22-.92,1.3.92,2.55-.16,2.7-1.77-.07-2.39.85-3.15,3-1.52,3.07,3.6.24,4.22-.07.77-1.77,2.08-1.77,1.61-.15,2.15.47.54.91,2,.69,2.37-1.16,3-.55.77,1.23,2.38,1.31,2.31.16,3-.54.31-.91,1.07-1,1.46.31,1.54-.85-.46-1.76.54-1.92,4.07-.76,3.85.08a7.15,7.15,0,0,0-.32,2.46,1.31,1.31,0,0,0,2,.93c.93-.7,1.69-2.31,2.7-2.39s4.76-.84,4.76-.84a1.37,1.37,0,0,1,1.26.2c.56.47,1.41.47,2.35.85s3.27,1.31,2.9,2.06-1,.85-.1,1.4.84.75,1.31,1.87.66,3.57,1.5,3.84,2.07.47,2.07.85.27,1.3.83,1.5,1.32.55,1,1.12-.85.84-.29,1.59A5.71,5.71,0,0,1,592.35,356.49Z"/><path class="cls-1" d="M488.76,225.81c-.48,1-1.23,1.49-1.38,2.72a36.59,36.59,0,0,1-.92,5.15A11.3,11.3,0,0,1,485,237.3c-.62.78-1.47,1.39-1.55,2.3s.39,1.94-.91,2a5.54,5.54,0,0,0-2.86.54,6.41,6.41,0,0,1-2.77.62c-.38,0-.45-.78-1.46.07s-1,2.08-2,1.92-3-1.54-2.61.16,2.68,3.76,2,4.85-2,2.84-.76,2.75,4.07-.69,3.3.16-1.31,1-.93,1.85a6.58,6.58,0,0,1,.7,2.08s-2.52-.14-3,.28-1.54.41-.93,1.64,1,1.44.93,3.08.19,2.46-1.54,2.67-2.46,0-3,.81-.41,1.44-1.85,2.36-2.76.82-2,2.15,2.36,3.6,1.23,3.7-1.23,2.15-2.56,2.15-1.54-.92-3.08-.41-1.53,1.12-2.25.41-1.95-1.23-2.36-.72-1.13.72-2.25.41-2.67-.1-3.08-.92-2.57-2.36-2.67-1,.52,3.27-.71,3.27-3.39-.92-4.21-.1-.71,1.85-2.25,2.06-2.06-.21-3.08.5-2.57,2.46-3.38,2.15-3.19-1.73-3.8-.71-.31,2.15-1.54,2.56-3.08.82-3,2.15c0,0-.29.27.12,1.23s.83,1.11.55,2.13-1,2.21,0,2.61,1.78-.13,1.78,1.17-.54,2.27.82,2.54a14.41,14.41,0,0,1,3,.89c1.23.48,2.61,1,2.4,1.71s-1,1.52.07,2,2,.82,1.72,1.51-1,1.1-.75,1.65.82,2,.2,2.34-2.06.54-1.17,1.71,3.29,2.68,2.61,2.95-1.78.89-1.85,1.65.13,1.78-.62,2.61a30.5,30.5,0,0,1-4.26,3.7,6.71,6.71,0,0,1-3.29,1.17,4.19,4.19,0,0,0-2.19.41c-.62.28-4.26,3.85-3.17,4.33s2.88.89,2.55,1.58a3,3,0,0,0-.55,2.6c.4,1,3.43,4.8,2.74,5.43-.3.26-1.18,1-2.17,1.65-1.35,1-2.89,1.86-3.32,1.5a20.94,20.94,0,0,1-3.16-4.26c-1.1-1.78-1.65-3-2.26-3.49s-2.48-1.44-2.75-.48-.42,1.71-1.3,1.84-4.47.29-5.15-.54-1-1.92-1.72-2.06-2.26-.68-2-1.44.21-2.33-.68-2.33-2.55.54-3-.07-.48-1.52-1.51-1.52-2.17,0-2.61-.67a5.21,5.21,0,0,1-.61-3.24,36.59,36.59,0,0,0-.55-3.84,8.17,8.17,0,0,1,.41-2.88c.21-1-.41-1.44-.9-2.82s-4.18-2.88-5.89-3.57-1.31-.07-2.75.69-4.67,1.17-5.5,1.5-1.23,1.65-1.5,2.42-1.65.4-2.54.48-1,1.3-1.1,2.13-1.17.47-2.2.67-.83,1.11-1.23,1.93-1.23.68-1.92.55A3.2,3.2,0,0,1,365.5,314c-.54-.75-1.1.07-1.71.62a2.55,2.55,0,0,1-2.06.75c-1,0-.21-3.7-.21-4.25a16.9,16.9,0,0,1,.35-3c.21-.82-2.07-.54-2.74-.13a4.39,4.39,0,0,1-3,.13c-.89-.27-1.52-2.13-1.52-3.43s-.48-1-1.09-2.13.42-1.3,1.17-1.78-1.31-1.79-2.06-2.19a5.07,5.07,0,0,1-1.92-2.06c-.34-.76-2.27-.34-3.29-.28s0,1.65.34,2.74-.63,1.25-1.3,1.73-.56.4-.9,1.16-1.52-.68-2.35-1.15c-.62-.35-2.23,1.77-3.15,3s-1.77-.07-2.46-1-3-1.23-3.77-1.39a3,3,0,0,0-2.08.7c-.61.39-1.23.3-2.69.3s-3.46,2.78-3.77,3.08-1.68.16-3.07.39-2.85,2.07-3.77,2.39-.54-1.63-.69-2.93-1-.15-1.92.61-1.32.08-2.69.08-.31,1.23.14,1.92-1.84,1.15-3,1.31-1.15-1.08-1.23-2.22-.7-.24-2.31.22-.69-.76-.92-2-1.07-1.46-2-2.31-2,.24-2.76.47-1.31-.23-2.16-.92-.91-1.16-2.07-1.09-1.39,1.54-2.46,2.23-2.39-.15-3.62-1.14a2.86,2.86,0,0,0-2.77-.78,1.06,1.06,0,0,1-.32,0,11.36,11.36,0,0,1-2.83-.95c-1-.38-.92-.24-2.62,0s-2.15-1.31-3.07-1.47a31.58,31.58,0,0,0-4.38-.69c-1.38,0-1.92,2.86-2.16,3.39s-2.84,1.39-3.61,1.77-1.31,1.92-2.23,3.08-3.31.3-4.16,0a3.36,3.36,0,0,1-1.76-1.85c-.09-.45-1.32-.85-2.7-1.16s-2.76-4.38-3.22-5.3-.16-2.08-.09-3-1.14-2.54-1.3-3.39-1.23-1.23-1.85-1.76,0-1.73,0-1.83c1.6-.2,3.06.54,4.83.54a58.24,58.24,0,0,0,8.4-.81c2.46-.42,0-1.85-2.67-2.46a11.41,11.41,0,0,1-6.35-3.69c-2.26-2.27-1.44-2.67-2.88-4.31s-1-1.65-1.23-3.49a29.52,29.52,0,0,0-1-6.16c-.82-3.07,1.23-5.53,1.44-8.61s.2-6.15.41-10.25-1.23-.21-2.46.21-1-4.31-1-6.57a21.7,21.7,0,0,1,.41-5.33,9.88,9.88,0,0,0-.41-4.92,8.78,8.78,0,0,1,.62-4.72c.41-1.23-3.49-1.23-4.11-2.87s-3.08-6.56-4.71-10-3.69-2.87-6.56-4.11-.83-8-2.27-10-1.23-3.07-3.07-5.34.21-3.07,2.67-4.92-.21-5.12-.83-8-2.65-1.42-5.12-2.25-1.44-2.25-1-4.52,1.85-.81,4.11,0,2.46.42,4.5,1.85,3.29,1,5.54,1.65,3.69,1,7.19,2,5.94.21,9-.19,2.25-1.65,4.1-3.91,12.51.62,14.36,1.23,2.05,6.77,1.63,7.79-2.66,3.9-4.5,4.52.4,4.1,1.64,6.36a61,61,0,0,0,7.38,9.23c1.23,1,.61,3.69.4,5.54s1.85,1.84,3.29,2.25,1.64-2,2.25-3.48,2.27-1.44,3.5-1.65,3.69.21,5.32.21,3.08,1,5.33,1.44,4.73,2.66,9.44,3.07,12.92.62,15.79.62a92.71,92.71,0,0,1,11.28,1.23c2.46.41,5.13,2.46,8.21,3.89s4.5.82,8.2.61,10.87-2.86,14.56-4.5,4.1-3.08,6.77-5.54,7-3.9,11.08-4.11,10.25-2.25,11.48-3.27-5.13.41-9.23.41-6.77-1.64-10.46-2.06-4.92-2.66-5.94-4.31,3.27-9.63,4.92-12.5a18.52,18.52,0,0,0,2.25-6.36c.41-1.85,6.36-4.31,8.61-4.92s3.08-1.44,5.54-2.67,7.18-3.69,8.82-4.31,7.39-4.5,10.46-5.94,6-1,10.25-1,8.62-2.67,11.48-4.11,5.34-1.23,11.08-2.05,9.23-3.9,11.49-5.95c2-1.77,6.41-5.27,10-7.78a1.29,1.29,0,0,0,1.62.39c.92-.5,2.77-2.25,3.29-1.12s-.1,2,.82,2.77,3.18,1.85,3.69,2.66.2,1.34,1.33,2.06,2.36.61,3.08,2.25a8.75,8.75,0,0,0,3.69,3.8c1.13.5,3.17.62,3.69,1.85s2.77,2.35,2.87,3.88.52,7.08,2.15,8.83,3.39,3.69,2.46,3.69-1.63-.71-1.94.52-.21,2-.83,2.15-1.23.41-1.32.92a3.23,3.23,0,0,1-.83,1.85c-.61.61-2.15,1.54-1.33,2s1.44.82,2.06.31,3-.2,2,.72-.92.72-1.43,1.64-1.75,1.33-1.23,2.56,1.12,2.26.31,3.08-1.34,1-1.13,1.74,2.25,3.08,2,3.9-1.23,1,0,1.74,2,1.44,1.33,2.05-2.77.93-1.94,1.85,1.23,1.94,1.94,1.13.71-2.15,1.85-1.34,1.44.62.82,1.75a16.73,16.73,0,0,1-2.36,3,9.42,9.42,0,0,0-2.06,3.48c-.19,1-1.42,1.94.42,3.69a7,7,0,0,1,2.25,3.9,26,26,0,0,1,.52,3.08c.31,1.63,0,2.86.81,3.17a2.07,2.07,0,0,1,1.44,2.06c.1,1.23-.3,4.09-1.13,3.17s-1-1.75-2-1.84-2.71-.23-3,.3a22.85,22.85,0,0,0-.85,2.61q-.07.2-.15.36Z"/><path class="cls-1" d="M622.15,289.19c1.13.51,1.85.82.73,1.23s-2.37.41-2.47,1.12,0,1.44-.72,1.54-2.46,1-2.15,2.57.82,2.35.11,3.28-.93,1.54-2.37,1-4.4-.82-2.86.51,3.38,2.67,1.84,3.18-3.8-.51-2.77,1.54,1.74,3.27,1.12,3.69-2.15.31-1,1.33,2.36,1,2.25,1.75-.32,1.67-.38,2.67h-.12a21,21,0,0,1-2.46-.82c-.92-.41-1.44,1.54-2.16,2.26s-1.34.3-2.46.2-1.53-.3-2.36-.41-1.64.61-2.46,1.23-1.85,0-2.87,0-1.13-.31-2.57-.82-1.54.1-3.1.18c-.85.05-1.23.85-1.85,1.23s-1.37-.08-1.84-.38-1.45,0-2.39.23-.83,1.85-1.07,3.3a3.41,3.41,0,0,1-.92,2.08c-.31.47.31,2.15.61,3s.62.85,1,1.54-.31,1.77-.85,2-1,1.77-1.3,2.86-1.16.69-2.54,1.61-2.39,1.84-3,2.3-.31,2-.31,2-3.76.77-4.76.84-1.77,1.69-2.7,2.39a1.31,1.31,0,0,1-2-.93,7.15,7.15,0,0,1,.32-2.46c.22-.84-2.86-.23-3.85-.08s-.46.78-.54,1.92-.77.78-1.54.85-.38.31-1.07,1-1.39.61-3,.54-1.77-.69-2.38-1.31-1.54.31-3,.55-1.47-.08-2-.69-.85-.47-2.15-.47-1.47,1.46-2.08,1.77-2.61.15-4.22.07.91-2.15,1.52-3.07,1.32-.69,2.39-.85.31-1.15.16-2.7.46-.76.92-1.3-.46-2.84-.69-3.38-1.39-.69-2-.77-.38-.54-.62-1.23-2.08-.38-3.45-.92-.4-2.77-.4-3.85-.38-1.31-1.45-2.08-1.62.32-2.77.61-2-.83-2.77-1.84-1.46.77-1.77,1.77-1.77.16-2.15-.07-1,.3-1.78.54-.52-.93-.52-2-1.55-.92-2.55-1.3-1.47,1.61-1.92,2.15-1.23.92-1.77,1.77-.62.22-1.85.08-1.14-.77-2-.38a22.78,22.78,0,0,1-3.16,1.07,19.22,19.22,0,0,1-3.77.54c-1.85.15-2.53-.54-2.84-1.16s.38-1.3.85-1.54.07-2-.31-2.84,0-1.54.45-2.46a1.52,1.52,0,0,0-.54-1.92c-.38-.39-.14-1.23.16-1.85s-1.46-.3-3-.61.16-1.47.47-2.39-.31-1.61-.92-2.23-1.23.39-2,.85-1.54.15-2.7,0-1.75-1.39-2-2.08-1.16-.38-2.15-.54-1.61-3.38-1.92-5.08a4.42,4.42,0,0,1,.69-3.3c.38-.77-1.77-2-2.08-2.77s-3.08-.08-3.69-.61.23-1.85.69-2.7-2.31-1.08-3.3-1.15-1.85-2-2.32-3-1.68-1.07-2.38-1.76-.15-1.39,0-2.22-.53-1.16-1.31-1.78,1.7-3.31,2.24-4.08-1-2.3-2.39-2.92-.84-1.61-.84-3.07a3.58,3.58,0,0,1,.84-2.54c.55-.92-.3-3.23-.61-4s-1.16-.77-2.31-1,.23-1.23,1-1.92-.71-1.15-1.4-1.68-.15-.78-.15-1.7-1.15-.69-2-.76-.15-1.54-.15-1.54a6.58,6.58,0,0,0-.7-2.08c-.38-.85.16-1,.93-1.85s-2.07-.23-3.3-.16.07-1.68.76-2.75-1.61-3.16-2-4.85,1.61-.31,2.61-.16,1-1.07,2-1.92,1.08-.07,1.46-.07a6.41,6.41,0,0,0,2.77-.62,5.54,5.54,0,0,1,2.86-.54c1.3-.07.83-1.07.91-2s.93-1.52,1.55-2.3a11.3,11.3,0,0,0,1.45-3.62,36.59,36.59,0,0,0,.92-5.15c.15-1.23.9-1.74,1.38-2.72h0c.25-.1,1-.36,1.46,0s2,.38,1.08,1.61-1.23.77-.76,1.68,1.07,2.78,2.14,2.39.85-1.3,2.16-.69,3,2,4.15,1.61,2.53-.69,2.77-.23a1.84,1.84,0,0,0,2,.85c1.08-.15,2.86.09,4-.85s1.76-1.38,2.38-1a1.29,1.29,0,0,0,1.7.09c.84-.47,4.76-4.09,5.06-2.7s-.38,2,1.16,1.92,4.07-.38,4,.62-.47,2.15.76,1.61.94-.61,1.85-.76,3.4.15,2.86.69-1.4,2,.38,1.84,2.91-.07,3.45-1,1.4-3.55,2.46-2.16,1.54,2.77,2.39,2.69a5.37,5.37,0,0,1,2.23,0,22,22,0,0,0,4,1.39c1.23.16,2.15,1.15,3,1.23s2.15.85,1.7,1.3-1.46,1.32-.16,1.61,2,1,2.15.16,1.54-2.84,1.7-1.77a3.63,3.63,0,0,0,.53,2c.54.92,1.32,2.61,2.08,2s2.08-2.84,3.31-2.39,2.37.24,3.08,1.63.53,2.68,1.3,2.22,1.61-2.15,2-1.07.83,1.76,2,1.62a2.19,2.19,0,0,0,1.92-1.39c.16-.55,1.3-2.23,2.15-1.92s2.16.23,3,1.23.77,1.53,1.61,1a5.9,5.9,0,0,1,3.31-.92c1.23.07,2.38-1.85,3.07-.92s1.31,2.54,2,1.61.91-1.38,1.45-1.45,3.47.61,3.62-.08.23-2.31,1.16-2.46,6.22.3,6.22,1.23-.38,1.23.08,1.85,2.93,3.08,2.08,3.91-2.23,2.86-1.39,3.24,1.23-.09,1.93.85,3.69,2.91,3.84,3.53c.38,1.54.85,2.15.85,2.92s1.37.23,2.76-.08,1.31.47,1.39,1.7,0,1,.53,1.69,1.7.08,2.85-.69,1.08,1.53.77,2.3.69,1.93,1.54,2.46,2.61,1.23,3.15,1.62a7.8,7.8,0,0,1,1.39,1.54c.2.25,1.3-1,1.91-1.78h0a14.58,14.58,0,0,1,.1,1.84c0,1.14.52,2.56-.41,2.56s-.51.42-1.84.42-3.9-.3-2.87.51,2.35,1.95,1.43,2.15-1.95.11-2.46,1.54-.93,1.84.3,1.84,1.44-.4,1.65.31-.21,1.44.92,1.44,1.24,0,1.43.72,1.65,3.9.62,4.3-2.46.93-1.85,2.46,1.13,1.14,1,2.06,0,1.54,1,1.33,3.59-1.74,3.59-.81S621,288.68,622.15,289.19Z"/><path class="cls-2" d="M973.6,870.57c.38,2,1.85,7.38,1.77,9s-.47,2.54-.54,4.22-.07,4.47,0,5.54.62,5.77,0,7.38-3.08,4.78-3.77,6.15-3.47,5.7-4.08,6.77-1.61,3.31-2.3,3.78-2.08-.23-1.16,1.47,1.39,1.91,1.16,3a23,23,0,0,0-1,4c-.09,1.47.76,4.09.53,5.39a21,21,0,0,0-.62,4c0,1.54.09,3.77.09,4.54s-.16,4.53-.16,4.53a3.34,3.34,0,0,1-1.68,2.46c-.94.62.07,2.16.29,3s-1.23,1.15-2.3,1.3-.23,1.16-.62,1.54-1.61.16-2.62.16-1.3,1.23-1.68,1.84a1.3,1.3,0,0,0,.85,1.78c.76.22,1.3-1.09,1.61-1.63s2.3.4,2.92.92-.15,1.62-.46,2.47a2.5,2.5,0,0,1-1.61,1.46c-.62.23-1.23,1.23-2,1.92s-.69.92-1.46,1.54-.15,2.77-.08,4.16-.45,1.68-1.53,2.46a17.78,17.78,0,0,0-2.38,1.92c-.61.61-.54,1.77-.54,2.69s1.38.08,2.15-.77.77,1.08.46,1.93-1.54,3.37-2,4.15-2.93.23-3.39-.39a17.59,17.59,0,0,0-2.93-2.62c-.92-.61-1-.23-2.37-.23s.91-3.37,1.3-4.22-1.54-.78-2.93-.92-.54-2-.38-3-1.16.08-1.77.93-1.69-.24-2-.69-2.39-.7-2.93-1.09a7.92,7.92,0,0,0-3-.84c-1.23-.15-1.32-.39-1.7-.84a3.52,3.52,0,0,0-2.23-1.16,5.34,5.34,0,0,1-2.08-1,2,2,0,0,1-.76-2c.07-.84-1.23-.76-2.39-1s-1.3-1.61-1.39-2.3a13.76,13.76,0,0,0-.76-2.62,4.66,4.66,0,0,1,.61-3.53c.39-.78,1.07-.85,1.69-1a33,33,0,0,0,4-1.54c.7-.38.47-1.38,1.77-2.3s1.39-.61,1.54-1.3-3.31-1.32-4.54-1.32a2.53,2.53,0,0,1-2.46-1.23c-.38-.76-1.23.16-2.38.31s-.7-2.23-.7-3.08-3.76.85-4.69,1.3-1.08-.29-1.08-1.14-1.07-.31-2.46-1,1.16-1,1.93-1,1.54-1.08,2.15-2.07-.3-1.55-.39-2.31,1.16-.77,2.31-1.16a5.78,5.78,0,0,0,2.47-1.31c.76-.69-.85-1.53-1.54-2.53s1.07-.92,1.68-1,.09-2,0-2.76.54-.85,1.23-1.55-1.84-3.6-3.22-4-1.23.91-2.39,2.14-3.15.32-4.38.23a6.7,6.7,0,0,0-3.15.62c-1.23.46-.31-2.85,0-3.39s-.85-1.38-2.08-2.61,1.77-.69,3.15-.69,1.77-1.39,2.08-2.16.07-.84-.61-1.53,1.08-1.55,1.61-2.16,1.61-.69,2.23-.84a5.17,5.17,0,0,0,2.31-1.54c.61-.77-.47-1.77-1.47-2.31s-.76-2.38-1.37-3.61-2-.16-2.77-.16-.92-.3-1.23-1.46-2.86-1.07-3.62-1.07-.85-.85-.85-1.77-.53-1.31-.76-2.16a2.46,2.46,0,0,1,.45-2.15c.47-.78-.31-1.92-.61-3.24s-.54-.61-1.45-1.76,1.45-.77,2.3-.92a9.29,9.29,0,0,0,2.38-1.16c1.07-.54,3.23-.76,4.22-1.23s0-1.84-.29-2.46-1.32-1-2.7-2-1.84-.16-2.62-1,.69-.69,2-1.07-1.16-2.23-2.23-2.69-1.15.76-2.46,1.37-.7-2.46-.7-3.3,2.77-1.39,3.69-1.84.47-1.39.47-2.24,1.54-.62,2.91-.62,1-1.84,1-2.91.62-1.16,1.31-2-.16-1.07-1.63-1.23.32-3.22.85-3.84a6.51,6.51,0,0,1,2.62-1.3c.62-.16.69-3.08.77-4.23s1.39-.55,2.53-.24a4.11,4.11,0,0,0,2.86.09c.76-.4,1.37-2.7,1.61-3.4s3.85-2,4.69-2.3a26.29,26.29,0,0,0,3-1.61c.54-.31,4.23-.4,5.61-.69a17.06,17.06,0,0,0,4.09-2.17c.76-.45.52-2.22.76-2.91s2.84-2.62,3.69-3.31a4.92,4.92,0,0,1,3.22-.69c1.23,0,4.24.23,6,.47s2.69,3.37,3.08,4.38,1.3-.16,1.91-1a6.37,6.37,0,0,0,1-2.3,14.7,14.7,0,0,1,1.15-2.08c.47-.93.16-5.38-.08-6.46a34.55,34.55,0,0,0-1.68-3.77c-.47-1.16,1.07-2.77,1.38-3.76s-.15-2-.47-3.24,1.16-2,1.77-2.61.24-2.39,0-3.69a26,26,0,0,1-.69-3.93c-.07-1.68,2.93-1.23,3.62-1.3a4.58,4.58,0,0,1,2.68.31c.85.45,2.17,1.15,2.17,2.15s-.09,2.54,0,3.08a11.92,11.92,0,0,1,.45,2.69c0,1.31.62,5.92.78,6.77s1.45,5.38.91,7.22-1.23,4-1.61,5.47a51.89,51.89,0,0,0-1,7.15,14,14,0,0,1-.38,3c-.16.61,0,.45.23,2.23a8.37,8.37,0,0,0,1.07,3.15,6.35,6.35,0,0,0,1.31,2.38c.61.46,1.61,1,1.61.16a11.57,11.57,0,0,0-.91-3.85c-.47-.77-.16-2.62.61-1.07a24.6,24.6,0,0,1,2.15,4.92c.61,2.14,1.15,3.15.54,4.69s-.31,3.22-.15,5,1,4.23.54,6.38S973.21,868.56,973.6,870.57Z"/><path class="cls-2" d="M429.91,338.13a9.51,9.51,0,0,0-3.44-.55c-.7,0-2.87-2.61-3.14-2.93-1.35,1-2.89,1.86-3.32,1.5a20.94,20.94,0,0,1-3.16-4.26c-1.1-1.78-1.65-3-2.26-3.49s-2.48-1.44-2.75-.48-.42,1.71-1.3,1.84-4.47.29-5.15-.54-1-1.92-1.72-2.06-2.26-.68-2-1.44.21-2.33-.68-2.33-2.55.54-3-.07-.48-1.52-1.51-1.52-2.17,0-2.61-.67a5.21,5.21,0,0,1-.61-3.24,36.59,36.59,0,0,0-.55-3.84,8.17,8.17,0,0,1,.41-2.88c.21-1-.41-1.44-.9-2.82s-4.18-2.88-5.89-3.57-1.31-.07-2.75.69-4.67,1.17-5.5,1.5-1.23,1.65-1.5,2.42-1.65.4-2.54.48-1,1.3-1.1,2.13-1.17.47-2.2.67-.83,1.11-1.23,1.93-1.23.68-1.92.55A3.2,3.2,0,0,1,365.5,314c-.54-.75-1.1.07-1.71.62a2.55,2.55,0,0,1-2.06.75c-1,0-.21-3.7-.21-4.25a16.9,16.9,0,0,1,.35-3c.21-.82-2.07-.54-2.74-.13a4.39,4.39,0,0,1-3,.13c-.89-.27-1.52-2.13-1.52-3.43s-.48-1-1.09-2.13.42-1.3,1.17-1.78-1.31-1.79-2.06-2.19a5.07,5.07,0,0,1-1.92-2.06c-.34-.76-2.27-.34-3.29-.28s0,1.65.34,2.74-.63,1.25-1.3,1.73-.56.4-.9,1.16-1.52-.68-2.35-1.15c-.62-.35-2.23,1.77-3.15,3s-1.77-.07-2.46-1-3-1.23-3.77-1.39a3,3,0,0,0-2.08.7c-.61.39-1.23.3-2.69.3s-3.46,2.78-3.77,3.08-1.68.16-3.07.39-2.85,2.07-3.77,2.39-.54-1.63-.69-2.93-1-.15-1.92.61-1.32.08-2.69.08-.31,1.23.14,1.92-1.84,1.15-3,1.31-1.15-1.08-1.23-2.22-.7-.24-2.31.22-.69-.76-.92-2-1.07-1.46-2-2.31-2,.24-2.76.47-1.31-.23-2.16-.92-.91-1.16-2.07-1.09-1.39,1.54-2.46,2.23-2.39-.15-3.62-1.14a2.86,2.86,0,0,0-2.77-.78,1.06,1.06,0,0,1-.32,0,8,8,0,0,0,0,2.36c.23,1.08,1.23,2.15.69,3s-1.85,2.23-1.23,3.84,1.62,2.31,1.69,3.77-.3,2.78.22,4.15,1.16,1.78.24,2.54-2.92,3-3.08,3.85-1,2.23-.15,4,1.08,2,1.08,3.15-.69,2.7,0,4.31,1.39,2.15,1.46,3.84-.31,4.23,1.16,5.85,1.68,1.46,1.46,2.76-1,1.55-.32,2.78,1.55,2.61.78,3.53a4,4,0,0,1-2.92,1.47c-1,0-3.31-.78-3.78-.4s-1.07,1.85-1.68,1.94a2.18,2.18,0,0,0-1.92,1.84c-.24,1.31-.32,5.3-1.39,5.85s-2.23,0-1.69,1.68.84,2.16.15,2.31-1.08.08-1.23,1.47.15,2-.54,2.37-.23.78-.55,2.08a21.7,21.7,0,0,1-.91,2.85s-7.61-1.69-8.39-2.85-.92-2.22-2.07-2.53-3.23-.31-4.39-.62-2.15-.54-2.08.46,1.32,2.77.09,2.84-2.23-.15-2.55.24-.29,1.23-1.69,1.39a6.92,6.92,0,0,0-3.23.76c-.76.54-.62,1-1.45,1.23s-1.78.31-2,1.16,0,2.84-.76,3.38-1.16,1.23-1.93,1.16-1.46-.47-2,0-.38,1.46-1.61,1.07-2.08-.84-2.77-.38a3.19,3.19,0,0,1-2.62.61c-1.46-.16-4-1.46-5-.45s-1.15,1.14-2.15,1.23-2.61.14-3.46.83-1.93,1.92-2.15,1.16-.54-2.54-1.3-1.85.29,1.85-1.85,1.92-2.62.08-2.69.69-.31,1.7-1.16,1.7-2.62.62-2.39,1.31,1.32,2,.7,2.85a3.67,3.67,0,0,0-1,2.14c0,.78.08,3.16.08,4.09s0,1.77-.91,1.92-2.32,0-2.7,1.08-.85,2.76-1.46,2.92-1.08-.39-1.23-1a1.29,1.29,0,0,0-1.92-.69c-.85.53-3.15,1.76-3.31,1.14s-1.77-2.15-2.39-1.46a5.13,5.13,0,0,0-1.3,2.62c-.16,1.07-.31,2.54-1.07,2.84s-2.86-.38-3.78-.07-1.69.92-2.23.31-.76-1.92-1.7-1.54-2.06,1.08-1.92,2.46v.13c.36,0,.53.09.53.63,0,1.23-.92,2.46.77,2.62s1.7,2.62.32,2.46-3.4-.92-4.47-.61-4.47,2-3.69,2.77,2,1.7,2.15,2.61.47,2.62,1.54,2.62,3.38-.16,3.53,1.39.16,3.22-1.68,2.46-5.85-1.7-5.09-.78,6.62,4.77,7.55,4-.16-2.31,2-2.31,2.76.32,3.84,1.23,3.08,3.54,4.62,3.24,6-2.3,6.46-3.7.92-3.69,2.46-3.69,3.38,1.07,5.07.46,2.46-1.23,4.3-1.23a6.64,6.64,0,0,1,3.86.77,7.78,7.78,0,0,0,3.07,1.23c1.39.31,1.54-.3,4,1.54s5.85,4.62,4.31,4.92-4.31.47-5.23-1.08-.78-2.61-2.15-2.61a37.83,37.83,0,0,1-4.93-.76,7.57,7.57,0,0,0-3.38-.94c-1.39.16-3.53.62-4.62.62s-4,.77-4.15,2.31-.77,2.93-.15,4.46,1.08,5.69-.31,5.85-6.15,2.15-4.15,3.08,3.54,1.07,6.77,1.69,6,1.23,7.84,3.69,3.38,4.92,2.46,5.54-1.84.3-2.3,2.46-.62,4.61-1.55,5.08-2.61.91-3.08,2.14-.29,1.55-1.23,2.62-1.84.92-2,3.39-2.15,4.15,1.7,7.07,8.61,5.85,8.91,7.54.32,3.54,1.84,3.84,2.62.77,2.93,1.38.92,3.08,2.15,4.16a16,16,0,0,1,3.08,3.84c1.07,1.7,1.07,5.54,1.39,6.62s1.69,8.47,2.61,7.08.92-2.31,2.77-.78,4.76,4.31,6.31,4.31,3.37-.62,3.22.16-1.37,2.62.93,2.91,6.22-.85,7.69.47,2.15,1.54,2.61,3.55.16,4.45,1.7,4.6,5.84-1.69,7.07-.46,3.24,1.39,4.62,3.24,5.07,5.68,5.07,4-.15-4.3,2.16-4.45c1.92-.12,4.15-.68,4.94,0l0-.06a1.4,1.4,0,0,1,2.23-.47c1.59,1,1.31-2,2-2.8s3.53-1.29,4.55-1.29a5,5,0,0,0,2.5-.65,2.51,2.51,0,0,1,1.67-.37c.84,0-.37,2-.83,3.53s.36,1.66,2.41,1.76,1.59-.37,2.42-1.12,1.39.29,2.31.57.76-1.21,1.21-2,2.41.37,2.79,1.39,3.25,2.13,4.36,2.13,1.59-.74,2.23-1.3,2.69.27,3.44.37,1.86-1.49,2.23-2.22,1.21-1.12,2-2,1.21-.64,2.5-.74.94-1.12,1.59-2.14-.29-1-1.21-1.39a9.24,9.24,0,0,1-2.51-1.21c-1.49-.92-1.3,1-2.32,1.39s-.37-2.78-.37-4,.55-1.21,1.39-2-.37-2.41-.65-3.43a6.54,6.54,0,0,0-1.39-3c-.93-1.1,1.2-1.76,2.14-1.86s.46-3.06-.66-4.45.1-1.11.37-1.94,0-1.21-.55-2.33-.18-.74.47-1.49-2-1.39-2.8-1.67.57-1.58.94-2.5-1-1.59-1.86-1.77-.1-1.11.55-1.86-.92-2-1.67-2.6a1.77,1.77,0,0,1-.74-1.94c.19-.65-.75-.65-1.77-1s-.27-2.7-.27-3.45a4.13,4.13,0,0,1,1.86-2.5c.92-.65-2-1.77-3.82-1.95s-4.08-3.9-5-5.56-.47-2.88-.1-4.19-2.32-2-3.62-2.59-.74-1.21-.47-2.51,1.77-.66,2.33-1.31.46-.27,1.57-.65,1.21-.74,2-1.29,1.2,0,1.86.74,1.66.36,2.68.18,1,.1,2.51.18,1.59-.45,2.14-.73,2.78.18,4.64.37,3.25-3.07,3.8-3.81-.08-2.41-.27-3.16,3.53-2.31,5.76-2.5.19,1.39-.38,2.6,1.59-.1,2.61-.75a4.59,4.59,0,0,1,2.78-.37c.55,0,.74-1,1.12-1.76s1.29-.19,1.86-.1a6.92,6.92,0,0,1,2,.38c.37.27,1.29-.19,2.68-1.22s2.88-.36,3.45-.36a3.38,3.38,0,0,1,2.31.75c.65.64,1.3,0,2.41-1.12s2.14.18,3.07.37-1.11,1.85-2,3.06.74.93,2,.75,1.12.27,1.49.84.83-.1,1.39-.66.83-2.79,1-3.43,3.44.37,4.27.46.1-1.76-.27-2.78,1.94-3.81,2.51-4.93,2-.18,2.86.56c.34.29.71,0,1.05-.5a8.43,8.43,0,0,0,1-2.28,3.39,3.39,0,0,0-.64-2c-.47-.65.83-1.49,1.29-2.22s0-1.86,0-2.61a14.37,14.37,0,0,1,1-3.62,10.28,10.28,0,0,1,1.39-2.88c.75-.84,1.4-2.13,2-2.41s.74-1.31.83-2.23.74-1,1.58-1.57.47-.75-.09-2.51.56-1.39,1.58-2.14.18-3.71.18-5.11,2.14-4.09,2.33-4.64.27-1-1.49-3.25,1.11-3.53,1.67-4.27a7.53,7.53,0,0,0,.84-2.78c.27-1.12,2-.1,2.41.82s2.13.84,3.53,1,1.58.83,1.95,1.58,2.69.66,3.71-.1-.75-3.15-1.77-4.27-.18-1.39.75-2.41,1.58.74,2.6,1.68,2.88-.75,3.53-1.59,2.31-.92,3.43-1.29a11.41,11.41,0,0,0,3.17-1.49c.64-.56,1.94-.65,3.06-1.21s-.65-2.41-1.12-3.53,1.21-1.21,2-1.76.65-1.21,1.12-2.14,1.76-.74,2.6-1.21a6,6,0,0,1,2.13-.65c.65-.08.56-.64.38-1.57s.55-.84,1.11-1.21a6.8,6.8,0,0,0,2-2.41,3.34,3.34,0,0,1,1.77-2c.83-.37.46-1.76-.38-2.78s-.09-2.23-.09-3.62,2.51-1.12,3.53-.18.56-2.51.64-3.82.94-.73,2.05-1-.74-3.15-1.48-4.73,1-2,1.39-3.62-1.49-1.29-3-1.39-.45-1.76-.45-2.6,1.76-.93,2.88-.93.08-2.23-1-2.88.73-.84,1.57-1.21,1-2.31,1.11-3,2-.36,3.06-.46S430.74,338.6,429.91,338.13Z"/><path class="cls-2" d="M290.88,351.9c-.69-1.23.09-1.46.32-2.78s0-1.14-1.46-2.76-1.09-4.16-1.16-5.85-.78-2.23-1.46-3.84,0-3.15,0-4.31-.23-1.38-1.08-3.15,0-3.15.15-4,2.16-3.08,3.08-3.85.31-1.16-.24-2.54-.14-2.69-.22-4.15-1.08-2.15-1.69-3.77.68-3,1.23-3.84-.46-1.92-.69-3a8,8,0,0,1,0-2.36,11.36,11.36,0,0,1-2.83-.95c-1-.38-.92-.24-2.62,0s-2.15-1.31-3.07-1.47a31.58,31.58,0,0,0-4.38-.69c-1.38,0-1.92,2.86-2.16,3.39s-2.84,1.39-3.61,1.77-1.31,1.92-2.23,3.08-3.31.3-4.16,0a3.36,3.36,0,0,1-1.76-1.85c-.09-.45-1.32-.85-2.7-1.16s-2.76-4.38-3.22-5.3-.16-2.08-.09-3-1.14-2.54-1.3-3.39-1.23-1.23-1.85-1.76,0-1.73,0-1.83a4.59,4.59,0,0,0-1.94.75,14.85,14.85,0,0,1-7.8,2.06c-2,0-9.64.81-10.25-.42a5.9,5.9,0,0,1-.62-4.51c.41-2.46,1-3.69-.21-3.69s-2.25-1-5.12,0A24.82,24.82,0,0,0,221,285c-.81.4-2,.82-1.64,3.07s.21,6.56-.82,4.92-1.23-4.51-3.28-4.51-4.1-.81-4.92.61-1.65,4.52-3.69,4.92-2.88,0-3.28-1.84-.62-4.5-2.47-3.27-4.71,1.63-3.48-.42,1.64-5.12-.42-3.89-2.65,3.27-5.53,3.08-4.1-1-5.12.4-1,2.25-3.29,3.48a24,24,0,0,0-6.36,5.14,16.65,16.65,0,0,1-6.15,4.3c-1.85.62-2.25,0-2.46-1.23a3.12,3.12,0,0,0-1.43-2.46c-1-.82-5.13-3.29-5.75-5.13s0-4.1-1.23-5.54a30,30,0,0,0-3.9-3.27c-1.43-1.23-3.69-2.27-3.69-4.31s.42-2.88-.81-2.88-6.36-1-5.54-3.69.62-3.69-1.23-3.89-2.67,0-2.88-2.05-3.08-1.44-4.31-.62-3.69,3.48-4.3,2.06-1.64-3.5-2.66-2.27a6.09,6.09,0,0,1-4.31,2.46c-2,.21-3.49-.4-5.13,1.23S117,272.47,116,271s-2.87-3.9-4.71-2.67-3.9,3.08-4.31,4.1-1.44,1-.42,2.88,2.88,3.48,1.23,3.89-2,.42-2,1.84.4,3.5-1.23,3.29A22.94,22.94,0,0,1,99,283.14a36.3,36.3,0,0,0-7.8-2.06c-2.25-.19-5.12.21-5.12,2.67s1.23,7-.42,5.75-1.84-4.72-3.69-3.9-4.1,1.44-4.1-.61-.21-5.95-1.63-5.75-3.5,4.72-6.37,4.11-4.29-.1-5.74-.21c-2-.15-4.1,1.54-4.1,2.46s.31,1.85-.92,2a9.9,9.9,0,0,0-3.69.78c-1.08.61-4.15,1.39-3.39,0s1.85-2,.31-2.62-.46-1.38-2.92-.46-4,.93-4.77,2.16-3.55,2.76-4.92,2.46-5.07-.77-4.93.46.93,2.47-.46,2.31-2.92-.31-2.92.45,1.07,2.46-.46,2.31a25.78,25.78,0,0,0-4.77-.14c-1.38.14-2.15,1.07-4.31,3.07s-4.45,3.23-3.07,4.93,1.54,2.14,1.08,3.53-2.46,3.07-1.7,4.92,2.16,3.38,1.38,4.15-1.23.16-1.07,2.16A3,3,0,0,0,23,320.2c1.68-1.07-1.7-2.91,2.75-2s4.31,1.85,7.24.47a74.11,74.11,0,0,1,10.31-4.31c3.22-.93,5.22-2.31,6.92-2.31s3.54.14,1.84.76-5.07,1.55-6,2.62-4,3.53-3.54,4.47,3.54,1.84,4.47.91,1.07-2,3.08-2,4.92-.46,4,.47-3.38,2.3-1.69,2.46A20,20,0,0,1,57.08,323c.78.3,1.39,2.61-.61,2.3s-2.61-.61-3.84-.45-6.46,2.92-7.08,1.53-2.15-1.53-3.69-1.38-6,1.7-6-.47-1.39-5.69-2-3.37,0,4.45-1.39,4.45-5.54,1.85-2.76,2.32,6,.76,5.22,1.37a2.43,2.43,0,0,0-.76,2.77c.31,1.39.76,6.61,2.77,4s1.68-5.68,3.69-5.54a15.63,15.63,0,0,1,5.38,1.7c1.69.77,3.07.77,4.62,1.38a5.18,5.18,0,0,1,2.76,3.22c.47,1.24,1.85,2.32,1.39,3.86s-.31,4.92-2.46,4.3a12.39,12.39,0,0,0-5.7-.3,53.43,53.43,0,0,1-7.38,1.53c-3.08.31-7.68,2.16-9.53,2.16s-4.62.14-5.53.76-2,2.62-.32,3.08,3.69-.62,5.39.46,4,3.39,5.53,2.61,1.7-1.68,3.55-.76a29.15,29.15,0,0,1,8.29,8.15c2,3.23,4.16,8.61,3.24,9.38s-4,3.24-1.85,3.86a18.21,18.21,0,0,0,6.15.61c3.08,0,4.15,1.53,6.16-.16s3.38-1.23,2.46-2.62-1.85-4.6-1.07-4.15,1.07,1.07,2.61.78,2-.78,1.69-2-.61-2.62.62-1.39,1.85,2,3.37,2.46,5.86,1.85,6,.47-.77-3.54.92-3.38,2.46,1.39,3.85,2.91,2.14,3.7,3.23,4.93A7.78,7.78,0,0,0,89.07,377c1.85,0,3.4-.93,4.78-.62s4,1.54,5.07,1.69a57.66,57.66,0,0,0,6.15,1.08c2.32.15,4-.47,4.92,1.38s3.4,6.47,4.93,6.31a18.45,18.45,0,0,1,2.78-.31c1.38,0,2.91.31,2.91-.92a2.82,2.82,0,0,1,1.69-2.77c1.23-.61,3.69-.92,2.62.15a5,5,0,0,0-1.69,2.78,2.22,2.22,0,0,0,2.15,2.61c1.39.15,3.07.47,3.54,1.38s1.38,1.84,2.15,1.08a12.06,12.06,0,0,0,2.16-2.77l1.53-3.07c.62-1.24.93-2,1.85-1.69s2.62,1.23,1.69,2.92a11,11,0,0,1-3.08,3.38c-1.07.92-2.76,3.84-2,4.61s3.84,3.08,4,6.61a21.07,21.07,0,0,1-.46,5.39c0,.76.3,3.08,1.07,3.84s2.92,1.7,2.62.32-1.23-2.31-1.23-3.54-1.23-6.3.15-6.3a15.07,15.07,0,0,0,4-.62c2-.47,3.85-1.08,4.46-.16a3.61,3.61,0,0,0,2.61,1.69c.93,0,2.16-.91,1.7-1.38s-2-2.31-1.55-3.23,1.23-1.39,2-.31,1.39,1.23,2.91,1.08,3.24-2,4.47-2.32a7.3,7.3,0,0,1,4,.16c1.08.46,1.7,1.69,3.08,1.54s4-2.93,3.38-.76-2,3.69-2.3,4.92-.94,2.61-2.62,2.46-1.54-.46-3.39-.46-2.61.92-3.69,0-5.23-1.7-3.69-.31,3.22,2.3,3.54,3.53,2.76,3.85,4.46,3.08,2.46-1.85,4-1.85,3.69.78,4.3.32-2-2.62,2.16-2.17,3.54,1.39,5.39.47,2.91-2.46,4.92-1.08,5.07,3.39,4.15,3.54-3.69.15-3.39,1.7-.92,3.08.93,3.08a12.91,12.91,0,0,0,2.23-.34V413c-.14-1.38,1-2.08,1.92-2.46s1.16.92,1.7,1.54,1.31,0,2.23-.31,3,.38,3.78.07S198,410,198.14,409a5.13,5.13,0,0,1,1.3-2.62c.62-.69,2.23.85,2.39,1.46s2.46-.61,3.31-1.14a1.29,1.29,0,0,1,1.92.69c.15.61.61,1.15,1.23,1s1.08-1.85,1.46-2.92,1.76-.94,2.7-1.08.91-1,.91-1.92-.08-3.31-.08-4.09a3.67,3.67,0,0,1,1-2.14c.62-.85-.46-2.17-.7-2.85S215.13,392,216,392s1.07-1.08,1.16-1.7.52-.61,2.69-.69,1.07-1.23,1.85-1.92,1.07,1.09,1.3,1.85,1.3-.47,2.15-1.16,2.46-.76,3.46-.83,1.16-.24,2.15-1.23,3.54.29,5,.45a3.19,3.19,0,0,0,2.62-.61c.69-.46,1.54,0,2.77.38s1.07-.62,1.61-1.07,1.23-.09,2,0,1.15-.62,1.93-1.16.53-2.54.76-3.38,1.16-.93,2-1.16.69-.69,1.45-1.23a6.92,6.92,0,0,1,3.23-.76c1.4-.16,1.4-1,1.69-1.39s1.32-.15,2.55-.24,0-1.84-.09-2.84.94-.76,2.08-.46,3.24.31,4.39.62,1.31,1.38,2.07,2.53,8.39,2.85,8.39,2.85a21.7,21.7,0,0,0,.91-2.85c.32-1.3-.14-1.69.55-2.08s.39-1,.54-2.37.54-1.32,1.23-1.47.38-.61-.15-2.31.62-1.14,1.69-1.68,1.15-4.54,1.39-5.85a2.18,2.18,0,0,1,1.92-1.84c.61-.09,1.23-1.54,1.68-1.94s2.77.4,3.78.4a4,4,0,0,0,2.92-1.47C292.43,354.51,291.58,353.13,290.88,351.9Z"/><path class="cls-2" d="M267.5,562.32c-1.53-1.23-4.6-2.31-3.69-.77s1.85,2.62,1.85,3.85-1.24,3.84.61,5.21a46.44,46.44,0,0,1,6.31,5.7c1.23,1.54,2.77,3.39,2.92,4.92s1.23,4.93,2.16,3.7S278.43,582,279,580s.62-3.38,0-4.3-3.22-2.63-3.07-3.86-.47-5.68-1.38-5.68a9.58,9.58,0,0,1-4.47-1.54C269.35,563.85,267.5,562.32,267.5,562.32Z"/><path class="cls-2" d="M255.2,544.48c2.31-.16,4-1.23,7.08.76s7.39,4.45,8.62,4.45,3.22-.45,2.46-1.84-1.7-3.22-3.55-3.69-3.22-.3-4.92-.91-2.93-2.17-3.84-1.55-1.7,1.23-2.46.93c-1.23-.49-2.78-1.23-1.55-1.55s2.78-1.52,1.39-1.68-4.92-.31-5.08.92S252.89,544.63,255.2,544.48Z"/><path class="cls-2" d="M553.91,565.1c-.67-1.16,0-1.91.24-3.15s-1.32-1.89-2.64-2.89-1.33-4.47-1-6.62,1-3.24,1.17-4.64-1.25-1.57-2.13-2.09c-1.11-.67-1.4-2.91-1.69-5.34s-1-1.69-1.87-2.06-.83-1.4-.83-3-2.72-.75-3.56-.37-.85-.65-.75-2.15-.65-1.69-1.59-2.07-.38.2-1.6,1.32-3.84-2.06-4.39-2.34.37-3,1.4-3.56-1.4-1.13-2.35-1.13-1-.28-1.4-2.34a7.32,7.32,0,0,1,0-1.94c-.33,0-6.78-.41-7.89-.41a24.23,24.23,0,0,0-3.48.52c-.72.1-.72,1.23-2.67,1.12s-5-1.94-7.07-2.56-1.44-.1-3.08.21-1.54-.21-2.56-.62-4.31.82-5.44.82-1.75-1.12-2.77-2.66-1.44.1-2.56.5-.51,2.27-.51,3.29-1,2.15-1.64,2.86-2.36-1.11-3.49-2.15-2.56,2.36-3.7,2.67-1-1.84-1-3.07-3.07,1.63-4.1,2.36-1-.21-1.13-1.44-.51-1.54-1.23-1.54-1.94,1.75-2.77,2.77-2.36,1.75-3.17,2.56-1.23,1.84-2.15,2.15-4.21-4.1-5-5-2.46,2.06-3.17,2.56-1.54,0-3.08-.1-1,.52-1.44,1-.92.12-2-1.32-1.23-.52-2.06-.72.41-1.65.72-2.36a5.23,5.23,0,0,1,1.13-1.75c.52-.5-.71-.92-1.33-.81s-1.44-1.13-2.36-1.75a3,3,0,0,1-1.13-3c.3-.71-.1-1.84.11-2.77s-2.46-2.15-3.29-3-3.08-.31-4.4-.31-1.44-1.44-1.44-2.67-2.87-.92-4-1-2.56-2-3.6-3.19a4.44,4.44,0,0,1-1.23-2.86c-.19-1.14.62-1.64,1.14-2.16s-.1-1.84-.31-3.28.61-1.23,1-1.74-.81-2.15-1.33-3.28a2.68,2.68,0,0,0-2.15-1.44c-.72-.2-2.67-3.28-4-4.93s-.72-2.15-.72-3.17-1.13-1.94-1.34-3-1.12-1.43-2.56-2.15-3.17-2.77-3.9-3.27.21-5-.4-6.77-3.49-2.06-4.41-2.46a5.44,5.44,0,0,1-2.15-2c-.83-1-1.13,0-2.67.21s-.21,1.64.82,2.36a2,2,0,0,1,1.12,2.16c-.1.81-1.43.4-3.41.33a47.53,47.53,0,0,0-5.15.31c-1.69.14-2.07,1.46-2.61,2s-4.31-.69-5.46-1.15-1.78.62-3,1.07-1.52-.45-1.92-1.84a17.17,17.17,0,0,1,.08-5.54,23.94,23.94,0,0,0,.46-3.85c0-1.23-1.61-.38-2.6-.38s-.78-.76-.62-1.47-.54-.76-1.55-1.23-1.23.94-2.3,1.85-1.69-.3-2.39-1.45.47-1.63.92-2.39-.3-1.38-1.07-1.92-.7.46-1.39.69-1.61-.76-2.38-2.15-2.15.3-2.85.61-.53-1.3-.53-2.3-1-1-1.62-1.62a1,1,0,0,1-.27-.87c-.34.5-.71.79-1.05.5-.82-.74-2.31-1.68-2.86-.56s-2.88,3.9-2.51,4.93,1.1,2.87.27,2.78-4.09-1.11-4.27-.46-.46,2.87-1,3.43-1,1.21-1.39.66-.28-1-1.49-.84-2.78.46-2-.75,2.88-2.88,2-3.06-2-1.48-3.07-.37-1.76,1.76-2.41,1.12a3.38,3.38,0,0,0-2.31-.75c-.57,0-2.05-.66-3.45.36s-2.31,1.49-2.68,1.22a6.92,6.92,0,0,0-2-.38c-.57-.09-1.49-.64-1.86.1s-.57,1.76-1.12,1.76a4.59,4.59,0,0,0-2.78.37c-1,.65-3.16,2-2.61.75s2.61-2.79.38-2.6-5.94,1.76-5.76,2.5.84,2.41.27,3.16-1.94,4-3.8,3.81-4.09-.66-4.64-.37-.65.83-2.14.73-1.49-.36-2.51-.18-2,.57-2.68-.18-1.12-1.3-1.86-.74-.84.92-2,1.29-1,0-1.57.65-2.05,0-2.33,1.31-.84,1.94.47,2.51,4,1.29,3.62,2.59-.84,2.51.1,4.19,3.24,5.37,5,5.56,4.74,1.3,3.82,1.95a4.13,4.13,0,0,0-1.86,2.5c0,.75-.75,3.07.27,3.45s2,.37,1.77,1a1.77,1.77,0,0,0,.74,1.94c.75.56,2.33,1.86,1.67,2.6s-1.39,1.67-.55,1.86,2.23.84,1.86,1.77-1.77,2.23-.94,2.5,3.44.93,2.8,1.67-1,.37-.47,1.49.84,1.49.55,2.33-1.49.55-.37,1.94,1.58,4.37.66,4.45-3.07.76-2.14,1.86a6.54,6.54,0,0,1,1.39,3c.28,1,1.48,2.6.65,3.43s-1.39.84-1.39,2-.65,4.37.37,4,.83-2.31,2.32-1.39a9.24,9.24,0,0,0,2.51,1.21c.92.37,1.86.37,1.21,1.39s-.29,2-1.59,2.14-1.66-.1-2.5.74-1.67,1.2-2,2-1.49,2.31-2.23,2.22-2.79-.93-3.44-.37-1.11,1.3-2.23,1.3-4-1.11-4.36-2.13-2.32-2.23-2.79-1.39-.27,2.31-1.21,2-1.48-1.31-2.31-.57S301,532.1,299,532s-2.88-.28-2.41-1.76,1.67-3.53.83-3.53a2.51,2.51,0,0,0-1.67.37,5,5,0,0,1-2.5.65c-1,0-3.9.47-4.55,1.29s-.37,3.82-2,2.8a1.4,1.4,0,0,0-2.23.47l0,.06a.84.84,0,0,1,.28.58c.16,1.53,1.23,5.06-.15,5.84s-5.39,2.46-5.39,3.85a6.15,6.15,0,0,1-.76,3.08c-.62,1.52-3.08,2.75-.47,3.22s2.78,0,4.16,1.09,1.54,3.53,2.61,4.6,1.7,5.24,2.62,5.53a2.45,2.45,0,0,1,1.68,2.63c-.14,1.39-1.37,2.91-1.84,2.76s-2.76.77-2.14,1.54a10.57,10.57,0,0,1,2,3.69c.47,1.69,1.38,5.7,0,5.7s-1.84-1.23-2.46.15-2.15,3.69-2.15,4.92,1.84,5.85,4.46,8.15,6.61,6,4.31,4.77-4.63-1.08-6.31-3.38-1.23-4.15-3.39-4.15-5.84,0-5.84,1.69a24.11,24.11,0,0,1-.16,4.92c-.3,1.23-1.85,3.24.32,3.24s2.46-.62,3.37.45,1.39,3.24,4.31,4,3.69,1.08,4.77,2.15,3.55,1.39,4.92,4.15,2,3.4,3.39,4.16,5.54,3.08,6.93,4.45,6,4.93,7.38,10.17,3.22,14.6,4.45,21.68,2.46,13.84,4,15.38,2,2.15,4.31,2.61,5.23,2,3.38,2-5.23-.31-3.69.77,2.61.3,2.61,3.23-1.53,6.46-1.53,5.06.92-4.3-1.84-6.3-7.85-8.3-8.93-10.92-1.08-11.08-2-14.45-3.54-11.69-5.23-13.24-3.69-2.76-4.3-3.69-3.54-5.22-4.77-5.69a40.24,40.24,0,0,1-5.53-3.22c-1.09-.77-3.55-2.31-3.4-3.69s.47-6.62-1.23-4.16-4.15,4.92-4.31,6.46-.76,5.38-.91,10.46-.16,18-1.55,21.37-2.76,11.85-2.76,13.54-1.55,16.32-1.84,20.16-.94,9.69-1.08,12-1.38,7.08-1.38,8.62.76,6.46,1.07,4.46.45-4.92,1.54-6.76,1.84-4.93,3.22-6.32.94-2.3,2.78-.77,5.22,4,5.38,5.08,4.47,5.38,2,6.31-3.54,2.3-5.69,1.23-3.53-2.78-4.62-.16-1.08,4.31-2.46,5.85-3.07,3.54-2.61,5.68a44.36,44.36,0,0,1,.15,12.16c-.61,4-3.08,18.46-3.84,25.23S266.12,781,265,785.66,262,802,261.2,805.8s-2.77,15.08-3.84,16.78-4.47,4.92-5.24,6.3a41.15,41.15,0,0,1-2.46,4.61,10.06,10.06,0,0,1-5.54,3.69c-2.92.62-7.53,1.69-7.53,1.69s-2.15,1.7.15,2.93,3.07,1.54,3.07,2.61.16,4.3,1.39,3.39,1.39-1.55,2.63-1.55,4.76-.91,4.3.94-.93,4.92,1.69,4.6,2.3-1.38,3.23-2.46.77-2.46,2.61-1.38,1.7,2.61,4.62,2.15,5.23,0,5.53,1.07,1.4,5.7.16,7.09a6.85,6.85,0,0,0-2.16,4.15c-.3,2,1.08,2-.76,3.38s-3.39,2.77-3.39,3.84a5.13,5.13,0,0,0,2.92,4c1.84.77,5.7,2.14,5.7,1.07s-.62-3.38.16-5.08.29-2.75,2.3-3.22,5.37-.31,3.69.76a4.25,4.25,0,0,0-2,3.85c.16.93-.29,2.16,1.55,2.16s2.61-.62,3.53-.15,2.16,2,3.7,2,2.15,2.46,3.69,2a4.85,4.85,0,0,1,3.85.94c.61.46,4.15,1.23,4.92,2.3s3.08,2.92,4.76,2.92,2.3.47,4.15.77,3.4,1.07,4.92.31,3.24-2.31,4.63-1.23a4.48,4.48,0,0,1,1.85,4.16c-.32,1.38-1.7,3.81.29,4,1.7.16,2.93-.91,3.54.16s2.77,1.84,3.7,2.91.92,3.4,1.84,3.85,2,0,2.16,1.39,0,2.92,1.68,1.69,2.62-4.15,4-2.92,5.54,3.7,7.23,1.69A11.47,11.47,0,0,1,342,897a4.38,4.38,0,0,1,2.25-.87V896c.33-2.58-.66-5.8-.91-7.29s1.57-1.73,3-2.48-.58-2.9-1.17-5.71,1.5-1.66,2.32-2.33.58-1.16.74-2.23,1-.5,1.75-.5.91-.74,1.57-1.16.16-1.32-.17-2,.17-1.33.42-1.66-.33-1.07-.42-2.31,2.49-1.83,3.4-2.33,1.82-3.89,2.31-4.55,1.91-.58,2.91-.67.49-2.31.57-4,.67-1.08,1.33-1.24,1.65-2.49,2.23-4-.58-1.57-1.32-2.32.83-3,1.23-4.05.91-.33,1.58,0,.84-.26,1.75-1.91-.34-1.15-1.25-2.07a4,4,0,0,1-.91-3,4.55,4.55,0,0,1,.83-2.81c.66-.84-.67-.91-1.25-2.41s-2.06,2.15-2.89,3.32-1-4.31-.66-4.89,1.4-.91,2.56-1.08-.91-2.15-1.49-3.31.17-.82.24-1.33-.4-1.24-1.07-2.4-.57-.82-1.73-.82-.75-2.24-.51-3.56-4-.5-4.71-.42a1.62,1.62,0,0,1-1.75-1c-.32-.74-3.8,0-4.88.17s-.32-1.42-.25-2.57-.66-.67-1.57-.74-.74-.58-.65-1.75,1-1.24,2.4-2.23.16-1.66-.84-2.23.08-.67.84-1.49-.09-1.16-.09-1.74,2.4-1.66,3.31-2.82-.25-1.24-.74-1.41,0-.83.07-1.9a34.86,34.86,0,0,0-.4-3.56c-.09-1.41.65-1.16,1.49-1.16s.24-1.58.33-2.23a3,3,0,0,0-.66-2.24c-.67-1,.49-1,.16-2.57s-1.16-1-2.56-1.65.07-.91,1.89-1.66,1.24-1.07,1.75-1.74,2.56-1.08,3.55-1.08,1.09.42,1.83,1,1.48-.16,1.66-1.25,1.4-.9,2.4-1.82a2.39,2.39,0,0,0,1.07-1.9c.17-.83,3,1.74,3.31,2.32s-.49,1.65-1.25,2.4,1.91,2.32,2.75,2.89a2.12,2.12,0,0,0,2.8-.16c1-.82.18-2.9-.16-4.13s-.41-2.41.41-3.24a2.72,2.72,0,0,1,2-1c.74-.08.83-.5,1.82-1.23s1.08.49,1.25,1.48.74.74,1.49.58.75-1.24.82-2.57,1.82-1.4,3.24-1.91,1.07.18,1.07.75.42,1,1.41,1.07a15.49,15.49,0,0,1,3.56,1.17c.74.34,1.33-.57,1.73-1.41s2.82-.74,3.89-.49,1.49-.75,2.4-1.66,1.84-.5,2.75-.67.91-1.82,1.23-2.64,4.81-.09,5.79-.09a5.44,5.44,0,0,0,3.15-1.56c.91-.84,2.82,1.31,3.49,2.06a23.69,23.69,0,0,0,2.31,2.82c.91.74,1.24-1,1.82-1.82s2.57-1.82,3.06-2.41a13.9,13.9,0,0,0,1.49-3.22,3.59,3.59,0,0,1,2.24-1.91c.74-.08.49-1.9.49-2.89s3.73.82,5,1.73,1.73-2.89,2-4.13-1.49-.26-2.16-1.42,2.33-1.4,3.07-1.57,1.24-1.83,1.57-3.31a9.22,9.22,0,0,0,.33-2.65c.09-1.57.42-1.4,1.16-2.07s-1.32-2.15-2-2.73-1.33-.25-1.91-.17-1-.74-1.4-1.49.25-2.15,1.24-3.06-.08-1.91-.26-2.82,1-1.07,2-1.4,2.07,1.9,2.31,2.64,1.17.09,1.82-.24,1.75-.34,2.33-.58a13.83,13.83,0,0,1,3.22,0c.83,0,1.08-3.56,1.08-5.29s-1.24-2.08-2.07-2.49-1.25-4.55-1.25-6.06-.74-2.14-1.73-3.71,1-1.49,2-1.24,2-1.25,2.89-2.07a3.53,3.53,0,0,1,2.65-1.08c1.41-.16.42-1.91.42-2.82s2.81-2.89,3.31-3.64.33-1.9.33-3,.25-1.07,1.73-1.74,2.42-.24,3.4-.33,1.08-1.49,1.82-2.32a3.92,3.92,0,0,1,2.82-1.08c.82,0,.66-1.4,1-2.23s1.31-1.32,1.4-2.56-1.16-1.67-1.16-3.07,3.15-1.82,4.06-1.82.49-1.91.49-3,1.58-.83,2.24-1.08.67-.82.92-1.74,1.31-1,2-1.15-.5-2.24-1.74-3.31.67-1.33,1.82-1.66-.49-2.07-1.24-3.15-.67-4.14-.58-5.47,2.24-1.07,4.14-1.4S476,665.2,477,665.2s.58.5.74,1.32,1.24-.16,1.9-.91,3.4.66,4.64.91,3,2.91,3.72,3.64a5.09,5.09,0,0,1,1.5,2.49c0,.58,2.65,1.4,3.22,1.82s.34,1.16.34,2.15,1.9,1.16,3.06,1.16a3.31,3.31,0,0,0,2.31-1.32,13.87,13.87,0,0,1,3.31-1.74c.84-.25,1.58-2.49,3.24-3s1.49,2,1.82,3,2.73-2,3.22-2.32a10.19,10.19,0,0,1,3.49-.75c1.65-.16,1.82.91,1.82.91s1.07-.49,2.07-.91a4.23,4.23,0,0,1,2.23-.07c.34,0,.5-.75.74-1.58a1.61,1.61,0,0,0-.82-2.06c-.83-.34-.91-1.42-1.49-3.66s1.32-2.23,2.07-2.8a6.11,6.11,0,0,1,3-1c.76,0,.67-2.31.84-4.14s.58-1.08,1.4-1.16.83-2.23,1.74-2.65.09-1.07-1.24-1.58-.91-2.64-.91-3.72,1.82-2.14,2.9-3.14,1.58-3.06,2.31-3.89.58-.5,1.67-.5,1.24-1.58,1.73-3,1.49-1.07,2.4-1.33,1.08-4.31,1.08-5.46a9,9,0,0,0-1-3.31c-.5-1.25,1.15-.5,2.39-.25s2.16,1.57,3.56,2.24,4.06,1.49,5,1.32,1.66-.74,1.66-1.49-1.41-1.82-2.48-2.65,1-5.38,1.49-7.37.08-5-.09-6.46-2.48-2.65-3.22-3.89.49-1.24,1.15-1.91.25-.91.42-2.31,1.07-.91,1.9-.91.5-2.65.33-3.31.33-1.33.75-2.15-.42-2.82-1.91-4.48a14.28,14.28,0,0,0-4.22-3.23c-1.41-.75-.58-1.07-.58-2.4s-.66-.91-2.24-2.64-.82-1.33-.57-2.33,1.9-.4,3.15-1.15.91-1.41,1.15-2.32,2-.17,2.65,0,.91-.83,1.41-1.82,1.74-1.57,2.65-2.48.58-.67-.09-1.58.91-1.73,1.58-2.73,1.49-1.33,2.89-1.91S554.57,566.26,553.91,565.1ZM357.35,844.44c.18-.49.83-.58,1.58-.66s0-1.07-.33-1.56-.67-.76-.42-1.49,1.08-.26,1.75.16c0,0,.33.57,1,1.57s-.5,3.22-.91,4.31-1.91-.09-2.41-.67A1.59,1.59,0,0,1,357.35,844.44Zm0,3.64c.91-.73,1.3,1.1,1.42,1.58a4.32,4.32,0,0,0,1.24,2.15c.83.75-.33.67-1.08,1.49s-.67.58-1.58,1.16-1.65-2.81-1.65-3.64A4.3,4.3,0,0,1,357.35,848.08Z"/><path class="cls-2" d="M355.7,850.82c0,.83.74,4.22,1.65,3.64s.83-.33,1.58-1.16,1.91-.74,1.08-1.49a4.32,4.32,0,0,1-1.24-2.15c-.12-.48-.51-2.31-1.42-1.58A4.3,4.3,0,0,0,355.7,850.82Z"/><path class="cls-2" d="M358.93,843.78c-.75.08-1.4.17-1.58.66a1.59,1.59,0,0,0,.25,1.66c.5.58,2,1.74,2.41.67s1.56-3.31.91-4.31-1-1.57-1-1.57c-.67-.42-1.49-.91-1.75-.16s.08,1,.42,1.49S359.68,843.7,358.93,843.78Z"/><path class="cls-2" d="M716.87,774.12c0-.85-.38-.92-1.53-1.16s-1.61-2.53-2.3-3.91-1.62-1.93-2.39-2.93-1.23-.15-2.08,0-1-1.23-1.38-2.7.31-2.15.92-3,.15-4,0-4.78-.46-.92-1.23-1.16.15-1.07.39-1.84-1.31-.46-2-.46-.32-1-.32-2.08-1.38-1.92-2.07-2.84a2.14,2.14,0,0,1,0-2.12h-2.1c-.9,0-2.6-1.14-3.57-1.78s-1.37-.81-1.77-1.86-1.79-1.3-3.17-2a3.58,3.58,0,0,0-3.23-.16c-.89.32-.57,3.48-.73,4.86s-2.19,1-3.64.41-.25-2.19.32-3.48.25-1-.25-2.2-3.39.16-4.36.25-.82.64-1,1.54-1,1-2,1.38-1.47,2.83-2.11,4.37-3.73-1.86-4.21-2.51-2-1.06-2.35-1.7-1.38-.49-2.19-.65-.88-.82-.88-1.62-1-.24-2.19-.24a4.84,4.84,0,0,0-3.08,1.2c-.73.66-1,.58-1.45-.07s.23-1.47.81-2.83,0-1.79-.49-3.25.4-1.52,1.13-1.7-.64-2.18-1.38-2.58-.16-1.22-.07-2.11-1.47-.89-2.35-1.21-1.54-1.62-1.86-2.51,0-2.59,0-4-1.87-4.29-2.19-5.34-1-.56-1.7-.56-1.62-2.51-1.94-3.82a16.12,16.12,0,0,1-.66-3.55c-.07-1.54-.4-1.06-1.13-2.51a3.25,3.25,0,0,1-.4-2.92c.24-1.38-.73-1.29-1-2.58s.25-1.14.66-1.72S645,696.35,644.1,696s-.08-1.14.32-1.95-1.78-.48-2.58-.23-.9-.73-1.13-1.63-.34-.63-1.54-1.45-1.63-2.59-2.19-3.48-3.8.64-5,.64-.41-1,.16-2.58-1-1.7-2.18-2.43a3.41,3.41,0,0,0-3.25.16c-.73.32-.73,3.89-1.37,4.62s-4.13.16-4.94.16-1.13,1.61-1.86,2.26-3.08-4.69-3.24-6.56-1-2-1.46-3.31a15.85,15.85,0,0,1-.57-4.45c0-.9-1.2-.81-1.94-.81s-.57-.73-.8-2.2-1.13.41-1.47,1.38-.88.57-1.69.73-2.92,2.28-3.65,2.51-.81-.41-1.78-1.38-.8,1.47-.64,2.44-.57.72-1.46,1.45,0,1.13.08,2.35-1.86,1.13-3.16,1.62-2.42-2.19-3.31-3.4-1.71.65-2.19,1.3-1,4.53-1.06,5.18-2.83,2.34-3.4,2.9-.07,2.92,0,3.82-.56,1.36-1,2.1-.16,2.51-.09,3.15-.88.82-1.78,1.38-1.13,4.46-1.7,5.75-1.38.16-2.58-1.79A14.15,14.15,0,0,1,577.8,700a5.71,5.71,0,0,1,.41-2.84c.4-1.29-.32-1.29-.65-2.18s.33-.65,1.46-1.54-2.35-1.38-3-1.22-1-.07-1.54-1.37A38,38,0,0,1,573,684c0-1.13-3.24-.64-4.14-.57s-.8,1.06-1.45,1.47-1,.16-1.13-.41.56-2.67.64-4.54-2-3.15-3-3.24-1.13,1.29-1.45,2.27S561,680,560,680.07s-.82.81-1.14,1.78-1.14,1.06-1.94,1.3-1.06,1.13-1.54,2.67-.65,1.62-.65,2.27-.81,2.59-.89,3.31-1,1.13-2.1,1.87-1,5-1,5.91-3.33,3.4-4,4-.48.81-.56,2-1.77,1.78-2.59,1.94a16,16,0,0,1-4.37-.09,5,5,0,0,0-2.91.41c-.81.25-1.31-1.21-1.38-1.94s-2.83-.48-3.8-.48-1.31.56-2.19,1.21-1.54.08-2.83,1,0,1.69.07,2.74-2.51-.57-3.4-2.34.25-2.91.41-4-.73-1.29-1.06-1.7-.72-.32-1.77-.73.57-1.37,1.13-2.43.16-2.27.16-3.56.09-.81,1-1.86.41-1.46.41-3.07-1.29-1.47-2.19-1.63-.89-1.86-1-2.75-2.35-2-2.91-3.56.81-2.6,1.54-3.24-1.3-2-2-2.51-.24-1-.24-1.85a4.7,4.7,0,0,0-.87-2.1s-.17-1.07-1.82-.91a10.19,10.19,0,0,0-3.49.75c-.49.34-2.89,3.31-3.22,2.32s-.17-3.47-1.82-3-2.4,2.73-3.24,3a13.87,13.87,0,0,0-3.31,1.74,3.31,3.31,0,0,1-2.31,1.32c-1.16,0-3.06-.16-3.06-1.16s.24-1.73-.34-2.15-3.22-1.24-3.22-1.82a5.09,5.09,0,0,0-1.5-2.49c-.74-.73-2.48-3.39-3.72-3.64s-4-1.65-4.64-.91-1.73,1.74-1.9.91.24-1.32-.74-1.32-2.91,2.32-4.81,2.65-4.05.09-4.14,1.4-.17,4.4.58,5.47,2.4,2.81,1.24,3.15-3.06.58-1.82,1.66,2.4,3.14,1.74,3.31-1.74.24-2,1.15-.25,1.49-.92,1.74-2.24,0-2.24,1.08.42,3-.49,3-4.06.41-4.06,1.82,1.24,1.82,1.16,3.07-1.07,1.73-1.4,2.56-.18,2.23-1,2.23a3.92,3.92,0,0,0-2.82,1.08c-.74.83-.82,2.23-1.82,2.32s-1.89-.33-3.4.33-1.73.67-1.73,1.74.17,2.24-.33,3-3.31,2.73-3.31,3.64,1,2.66-.42,2.82a3.53,3.53,0,0,0-2.65,1.08c-.91.82-1.9,2.31-2.89,2.07s-3-.34-2,1.24,1.73,2.23,1.73,3.71.42,5.64,1.25,6.06,2.07.74,2.07,2.49-.25,5.29-1.08,5.29a13.83,13.83,0,0,0-3.22,0c-.58.24-1.66.24-2.33.58s-1.56,1-1.82.24-1.32-3-2.31-2.64-2.16.49-2,1.4,1.25,1.91.26,2.82-1.66,2.32-1.24,3.06.82,1.58,1.4,1.49,1.25-.41,1.91.17,2.73,2.07,2,2.73-1.07.5-1.16,2.07a9.22,9.22,0,0,1-.33,2.65c-.33,1.48-.82,3.15-1.57,3.31s-3.72.41-3.07,1.57,2.42.17,2.16,1.42-.74,5-2,4.13-5-2.73-5-1.73.25,2.81-.49,2.89a3.59,3.59,0,0,0-2.24,1.91,13.9,13.9,0,0,1-1.49,3.22c-.49.59-2.48,1.57-3.06,2.41s-.91,2.56-1.82,1.82a23.69,23.69,0,0,1-2.31-2.82c-.67-.75-2.58-2.9-3.49-2.06a5.44,5.44,0,0,1-3.15,1.56c-1,0-5.46-.74-5.79.09s-.32,2.48-1.23,2.64-1.83-.24-2.75.67-1.31,1.9-2.4,1.66-3.47-.34-3.89.49-1,1.75-1.73,1.41a15.49,15.49,0,0,0-3.56-1.17c-1-.07-1.41-.49-1.41-1.07s.33-1.24-1.07-.75-3.15.58-3.24,1.91-.07,2.4-.82,2.57-1.33.41-1.49-.58-.25-2.24-1.25-1.48-1.08,1.15-1.82,1.23a2.72,2.72,0,0,0-2,1c-.82.83-.74,2-.41,3.24s1.16,3.31.16,4.13a2.12,2.12,0,0,1-2.8.16c-.84-.57-3.48-2.14-2.75-2.89s1.58-1.82,1.25-2.4-3.14-3.15-3.31-2.32a2.39,2.39,0,0,1-1.07,1.9c-1,.92-2.24.75-2.4,1.82s-.91,1.83-1.66,1.25-.83-1-1.83-1-3.06.42-3.55,1.08.08,1-1.75,1.74-3.31,1-1.89,1.66,2.22.07,2.56,1.65-.83,1.57-.16,2.57a3,3,0,0,1,.66,2.24c-.09.65.49,2.23-.33,2.23s-1.58-.25-1.49,1.16a34.86,34.86,0,0,1,.4,3.56c-.07,1.07-.57,1.74-.07,1.9s1.65.26.74,1.41-3.31,2.24-3.31,2.82.82.91.09,1.74-1.83.91-.84,1.49,2.24,1.24.84,2.23-2.33,1.08-2.4,2.23-.26,1.66.65,1.75,1.66-.42,1.57.74-.82,2.73.25,2.57,4.56-.91,4.88-.17a1.62,1.62,0,0,0,1.75,1c.74-.08,5-.91,4.71.42s-.66,3.56.51,3.56,1.07-.33,1.73.82,1.16,1.91,1.07,2.4-.82.17-.24,1.33,2.64,3.15,1.49,3.31-2.23.51-2.56,1.08-.17,6.05.66,4.89,2.32-4.81,2.89-3.32,1.91,1.57,1.25,2.41a4.55,4.55,0,0,0-.83,2.81,4,4,0,0,0,.91,3c.91.92,2.16.41,1.25,2.07s-1.09,2.23-1.75,1.91-1.16-1.08-1.58,0-2,3.31-1.23,4.05,1.9.83,1.32,2.32-1.58,3.81-2.23,4-1.24-.42-1.33,1.24.42,3.89-.57,4-2.4,0-2.91.67-1.4,4.06-2.31,4.55-3.48,1.08-3.4,2.33.67,2,.42,2.31-.75,1-.42,1.66.83,1.58.17,2-.83,1.16-1.57,1.16-1.58-.58-1.75.5.09,1.58-.74,2.23-2.9-.49-2.32,2.33,2.57,5,1.17,5.71-3.24,1-3,2.48,1.24,4.71.91,7.29v.12a1.87,1.87,0,0,1,1,.26c1.07.61,2.3,1.68,3.08,1.68a2.64,2.64,0,0,1,2.15,1.39c.62.91,1.38,2.31,2.61,1.85s3.24-1.23,3.24-.47-1.54,1.23-.16,2.61,1.55,1.23,1.7,2.17,0,2.75,1.37,2.75,2.93.62,2.93,1.39,2.16,1.39,2.77,2.3,1.54.78,2.3,0a4,4,0,0,1,2.46-1.37c1.09-.15,2.32-1.7,3.55-1.7s2.46.32,3.69-.3,2.46-2,3.84-1.69,4.92,1.53,4.92,2.46,1.08,4.16,2.17,4a3.29,3.29,0,0,0,2.14-1.85c.47-.78,4-3.85,4.62-2.62s2.15,2.78,3.7,2.31,2.46-1.08,3.07-.76.77,1.07,2.61.91,4.78.16,5.69-.3,5.53.46,6-.16.15-4-.47-4.92-1.52-2.91-.91-4,1.53-2.15,1.53-3.38.32-2.92,1.55-3.53a3,3,0,0,1,3.22,0,7.36,7.36,0,0,0,3.55,1.07,11.4,11.4,0,0,1,3.53.77c1.23.46,3.85.77,4.76,2s.94,3.07,2.17,2.46,1.52-1.54,3.22-.62a13,13,0,0,0,5.69,1.38,7.7,7.7,0,0,1,4,.94c.91.61,1.84,1.23,2,2s.62,4.31,2.93,4,3.08-.62,4.15-.62,3.69-.3,5.08-.16,3.07-.45,3.07.78,0,2.15.92,2.3a3,3,0,0,1,2.62,1.84c.77,1.56,1.39,3.4,2.15,5.09s3.69,5.37,3.84,3.07,0-4.76,1.55-4.76,5.22-2,6-.32a4.37,4.37,0,0,0,4.15,2.62c1.84,0,6.77-.3,6.62,1.23s-1.08,2.3.76,2.62,4,1.38,2.93,1.69-2.93-.78-3.38,1.39-1.39,6.45,0,6.61,5.69-.62,7.22,1.07,3.85,3.54,4.63,3.54,4.76.62,4.76,1.85-.62,2.15.31,4.77a6.37,6.37,0,0,0,5.53,3.84,7,7,0,0,0,3.84-1.7c.94-.91,1.23-2.6,2.62-3.83a4.2,4.2,0,0,1,3.54-1.38,7.76,7.76,0,0,0,2.92-.32c1.09-.3,3.08-1.38,4.46-.91s5.7,2.91,7.23,3.22,3.08.47,3.55,1.23,2.91,4,4.45,4.62,2.32,1.39,3.69.77,1.7-2.31,3.23-1.85,6.93,2.47,6.93,1.24-.93-3.24-.31-4.16,3.07-3.84,4.92-3.23,2.93,1.07,4,.3,3.24-4.6,5.23-4.46,3.22.76,3.84,0,1.39-2.93,2.46-2.15a4.72,4.72,0,0,0,3.69.77c1.08-.32,1.7-1.39,3.4.46s1.38,4,2.91,3.69,1.69-1.39,3.39-.61a9.15,9.15,0,0,0,3.38.77c.31-1.7-1.44-4.56-2.67-6s-1-.93-1.73-3.18-2.47-1.13-3.9-2.67-1.33-9.44-1.44-11.38-1.12-1.23-2.35-2.15,1.42-1.33,2.46-1.14.4-4.71.4-7,.31-4.73.52-7.29-.21-2.56-.21-4.21-1.23,2.06-1.33,3.91-.11,1-.72,1.44-2.47-.31-3.79-.93-.62-2-.62-3,1.64-1.64,2.67-2.47.92-1.53,1.12-3.17.92-.52,1.85-.42,1-.2,1.13-1.64-1.54-1.53-3-2.25-.41-2-.1-3.28,1.64.21,1.54,1.33,1,.41,1.64-.62.82-4.19.92-5.43.61-1.13,2-2.67-.51-1.74-1.94-1.84-1.34-1.85-1.44-2.87a29.31,29.31,0,0,1,0-3c0-1.44,1.94-.61,3-.4s.4,1.23-.31,2.15.1,1.33.31,2,1.54-.83,1.73-1.75.73-.72,1.85-3,3.59-5.74,4.31-7a9,9,0,0,1,2.87-2.47,27.13,27.13,0,0,0,3.18-2.56c1.13-1.13,3.69-2.88,5.94-4.82s6.27,0,7.5,0,1.84-1.84,2.35-3.29,2.67-3,3.59-4a17.29,17.29,0,0,0,2.25-3.08c.52-.92,3.9-2,5.44-2.35s2.56-2,3.69-2.27a18.26,18.26,0,0,0,5.33-3.69c1.13-1.23,3.39-3.69,4.52-4.71s2.46-2.46,3.79-3.9-2.35.31-3.69,1.44-4.41,4.82-5.23,5.75a10.88,10.88,0,0,1-5.23,2.65c-1.95.31,1.13-1.42,3-2.77s1.75-1.94,2.16-3.57,1.44-1.35,2.46-1.44,1.94-2.26,3.07-3.39a7.58,7.58,0,0,1,4.41-1.64c1.23-.11,3.19-1.74,4.42-2.36a31.91,31.91,0,0,1,6-1.33c1.23-.21.11,1.23-.31,2.46s-4,.93-6.25,1.33-.82,1.54,0,1.23a21.09,21.09,0,0,1,5.64-.21,6.56,6.56,0,0,1,4.11,2.77,7.94,7.94,0,0,1,.92,4.31c0,.73,1.73,2.46,3.17,2.77.58.13,1.74.27,2.94.39a32.29,32.29,0,0,1,.61-4c.38-1.63,3.69-1.77,4.53-2.08s.92-2.31,1-3.16,1,.23,1.45.54,1.62-.54,2.62-1.23a11.67,11.67,0,0,1,2.61-1.07c.47-.24.47-1.32,1.31-2.08s1.46-.47,2-.62a3.42,3.42,0,0,0,1.61-1.7c.47-.83-1.38-.69-3-.83s.22-4,.69-5,1.07-1.23,2.15-1.84.62-1.39,1.07-2.24,2.24-.39,3.39-.39a9.63,9.63,0,0,1,4.23,1.69c1.3.85,1.77-1.61,1.54-2.61a8.59,8.59,0,0,1,.07-3.15c.16-1.08,1.85-3.47,2.39-4.38s.07-3.85-.15-4.77.62-.93,1.23-1.38.08-1.08-1-1.7,1-1.85,1.77-2.23a7.11,7.11,0,0,0,2.47-1.7,14.53,14.53,0,0,0,2.46-2.91c.54-1.08,1.08-.85,1.61-1.08a9,9,0,0,0,2.39-1.46,7,7,0,0,0,1.3-3.23c.09-.85.31-.38,1.39-.62S716.87,775,716.87,774.12Zm-203.72,164c-.46.61-2-.17-2.92-1.23s.15-2.77.62-4.15,1.38,0,1.52,1.07a4.39,4.39,0,0,0,.47,2.46C513.46,937,513.61,937.47,513.15,938.09Z"/><path class="cls-2" d="M921.38,762.43c-.93-.83,0-4,.21-5.54s-1.44-1.13-2.77-1-1.23,1.23-1.65,2.35-3.48.92-5.23.92-4.1,1.34-4.51,1.44a16.69,16.69,0,0,0-3.69,1.33c-.92.62-3.59-.1-4.61-.2s-1-.92-1.23-2.46-3.6-.3-5.13-.51-2.67-2.16-3.9-2.56a6.71,6.71,0,0,1-3.18-3.08c-.41-1-1.84-.73-3.28-.21s-4.1-2.36-4.62-3.28-2.66,0-3.69.21-1.85-2.06-2.77-4.41-.61-1.23-1.64-1.85-.71-1.65-1.44-3.28-.92-1-1.84-2.06a29.79,29.79,0,0,1-1.74-2.65c-.72-.93.62-4.31.72-5s1.44-.92,2.36-.92-.82-2.56-2.36-3.79-1.54-2.67-2.46-5,.71-3.29,1.74-4.11a19.57,19.57,0,0,0,3.7-3.48,3.57,3.57,0,0,0,.81-2.77c0-1,.92-1.13.92-2.46s-.71-2.06,1.23-4.41,4.73-1.13,6.26-.72-.92-4.81-1.84-5.74a2.24,2.24,0,0,1-.52-2.67c.31-1,0-1.54-.52-3.07s.12-1.85.62-2.87-3.08-3.39-4.41-3.8a5.63,5.63,0,0,0-3.69.51c-1,.41-5.33-1.44-6.15-2.46s-4.92-2.36-5.54-3.9a10.13,10.13,0,0,1-.21-4.5,7.63,7.63,0,0,0-.61-3.39c-.41-.82-.1-1.34,0-2.67s-3.18-1.33-4.81-1.33-1.44-2.76-1.44-4.41-.72-1.33-2.56-3.58c-.52-.64-.64-1.06-.52-1.33-.27-.13-1.89-.8-2.63-.07s-1.63,2.59-2.6,2.11-1.78-.9-2.35-.74-1.7.25-1.54,1.22.57,2.26.18,3-1.79,1.94-2.6,1.14-.57-1-1.61-1-4,.32-4.14-1a6.24,6.24,0,0,0-1.06-3.16c-.64-1.13-.64-2.76-2-2s-2.67,2.18-3.24,1.29-.41-1.62-1.7-1.22-3,1-2.43,2,1,2.67.56,2.83-1.13.74-1.2,1.3-1.95,4.69-.9,5.42,2.1,2.1,3.57,1.62,4.2-1.78,4.28-.57-.57,4.53.49,5,2-.09,2.19,1.29-.09,4.7-.09,5.74.32,3.33-.72,3.65a1.85,1.85,0,0,1-2.27-1c-.33-.72-1.94-1.45-2.68-.88s-.8,1.61-2.5,1.45-3.72.25-4.45-.07-2-1.22-2.76-.57a15.45,15.45,0,0,1-3.07,2.9c-1.86,1.22-2.51,2.35-3.24,1.63s-2.51-2.67-2.83-1.63-.65,1.38-1.62,1.47-3.4.56-2.59,1.45,1.77,1.78,1.13,2.35-1.78,2.35-2.84,2.35-2,0-2.26.41-1.38,1.38-2.11.88-2.74-2.42-3.15-.88a21.33,21.33,0,0,1-.81,3.07c-.41,1-1.29,1.46-.49,2.18s1.38,1.7.81,2-1.38.57-1.54,1.29-.16,2.83-1.13,2.43-1.45-1.21-2.35-.4-1.45,1.54-2.34,1.37-6.15-2.18-5.76-.32.41,2.42-.16,3.48-4.05,7.13-3.15,7.37a4.18,4.18,0,0,1,2.75,1.46c.89,1.13,2.91,2.83,1.87,2.83s-1.7-.57-2.19.33-1.38,3.8-2.67,3.07-4.14-2.35-5.27-2.35a6.59,6.59,0,0,1-2.67-.24c-.64-.32-1.45-.48-1.61.16s-.74,3.64.32,4.05,2.51,1.37,1.86,1.78-.64,1.38-1.78.89-4-.82-3.4.4,1.62,2.35,1.37,3.16-1.13,1.86-.16,2.27,1,.25,1.7,1.38,2,2.67,2.51,2,2.19-1.69,2.43-.63.33,1.2,1.87,1.2,5.25-.07,4.84.73-1.61,1.62-.47,1.94,1.78.81,1.62,1.54.72,2.84,1.21,2.44,2.35-.09,2,.64-.74.4-.5,1.46.16,1.13.34,2.18,1,3.73.32,3.73-1.79,0-2,.32-1.22,2-.16,2.35,2.27.4,2,1.13.32,1.38-1.54,1.06-1.95-.09-2-.81a6.21,6.21,0,0,0-.89-2,1.9,1.9,0,0,0-2.42-1.2c-1.22.48-1.71,1-1.38,1.45s.48,1.86.07,2.1a8.24,8.24,0,0,0-1.7,1.22c-.65.64-2.19,2.35-3.15,2.51s-3,.73-3.48-.4a28.16,28.16,0,0,0-1.3-2.51c-.24-.66-2.27-1.13-3.31-1.29S756,755,756,754.15s-1.61-1.79-2.26-1.38-1.14.32-2.67.16-3.72-1.95-4.62-2.35-.64.81-.81,1.78-5.59-1-6.23-2.35.25-1.38.89-2.1-.32-1.54-1.13-2.18,1.21-1.78,1.85-2.51-.64-1.54-1.13-1.54-1.77,2.18-2.67,3-1.61.65-2.67.49-1.38-1.21-1.61-2.19-4.95,1.79-5.76,2.19-3.88,1.94-4.28,2.27-2.19-.25-3.4-.57-3.89,3.72-4.38,3.72-1.13-6.72-1.13-7.69-2.27-1.86-3.48-2.11a7.63,7.63,0,0,0-3.24.25,4.19,4.19,0,0,1-2.35-.16,7.88,7.88,0,0,1-1.94-.73l-.08,5a2.14,2.14,0,0,0,0,2.12c.69.92,2.07,1.76,2.07,2.84s-.38,2.08.32,2.08,2.23-.31,2,.46-1.16,1.62-.39,1.84,1.07.4,1.23,1.16.62,3.93,0,4.78-1.31,1.52-.92,3,.54,2.85,1.38,2.7,1.3-1,2.08,0,1.68,1.54,2.39,2.93,1.14,3.69,2.3,3.91,1.53.31,1.53,1.16.62,1.92-.45,2.15-1.3-.23-1.39.62a7,7,0,0,1-1.3,3.23,9,9,0,0,1-2.39,1.46c-.53.23-1.07,0-1.61,1.08a14.53,14.53,0,0,1-2.46,2.91,7.11,7.11,0,0,1-2.47,1.7c-.76.38-2.84,1.61-1.77,2.23s1.63,1.23,1,1.7-1.46.45-1.23,1.38.69,3.83.15,4.77-2.23,3.3-2.39,4.38a8.59,8.59,0,0,0-.07,3.15c.23,1-.24,3.46-1.54,2.61a9.63,9.63,0,0,0-4.23-1.69c-1.15,0-2.92-.45-3.39.39s0,1.62-1.07,2.24-1.7.83-2.15,1.84-2.32,4.84-.69,5,3.46,0,3,.83a3.42,3.42,0,0,1-1.61,1.7c-.54.15-1.16-.15-2,.62s-.84,1.84-1.31,2.08a11.67,11.67,0,0,0-2.61,1.07c-1,.69-2.15,1.54-2.62,1.23s-1.38-1.38-1.45-.54-.16,2.85-1,3.16-4.15.45-4.53,2.08a32.29,32.29,0,0,0-.61,4c1.78.19,3.7.33,4.24.33A46,46,0,0,1,683,833c2.16.52,4.41,0,6.67,0H695c1.53,0,2.15.93,2.15-.09s.41-1.85-.51-1.75a14.74,14.74,0,0,1-2.66.52c-1.23,0-3.19.4-3-.41s.82-1.54-.52-1.44-2.25-.1-2.25-.71-.21-2.06.83-2.46a4.3,4.3,0,0,0,2.46-2.06c.81-1.33,2.25-3.9,3.48-4.1s4.82-.21,5.94,1.33,2.57,1.33.83,2.87-3.39,2.46-2,2.57,3.58-.42,2.77.71-3.69,3.08-3.18,3.9,1.74.62,2,1.74,1,3.19-.1,2.26-2.88-2.57-2.57-1.13a3.65,3.65,0,0,1-.31,2.77c-.31.62-2,3.08-1.12,4s1.64,1.44,5.23,1.75a59.21,59.21,0,0,0,10.25.1c1.85-.31,3.08-1.14,1.85-2s-6.06-3.19-6.15-4.21a46.77,46.77,0,0,1,.3-7.69c.09-.81.72-3.17.93-1.44a35.31,35.31,0,0,1,0,4.73c0,1.23-.72,2.46.82,3.69s4.71,3.48,5.73,4.1,2.47,1.23,2.37.3-2.46-2.55-1-3.38,1.94-1.94,4.09-1.94,4.21-.31,4.41.5a1.51,1.51,0,0,0,2.15,1.13c1.34-.4,4-1.63,4-2.36s.73-3.58-.31-4-2.86-.71-3-1.23a28.14,28.14,0,0,1,.1-3.27,4.86,4.86,0,0,0,.51-2.16c.1-.82.2-2.46,1-1.53a4,4,0,0,0,3.38,1.84c1.84,0,3.28-.42,3,.81s-1.34.83-.11,2.67,2,2.67,3.38,2.37,3.49-2.27,3.9-1.75,1.13,2.25.52,2.87-2.06.72-2.37,1.74a6.46,6.46,0,0,1-1.84,2.46c-.62.62-.31,1.14-2.87,1.14s-3.38-.42-4.3.1-4.31,1.53-3.91,3.38,1,4.52,3.08,4.71a39.75,39.75,0,0,0,4.92.11c1.75,0,5.54.2,7.08,0s3.28-2.15,5.44-2.36,4.3.31,4.3,2.56-.92,3.49-.3,4.52,2.65,1.44,1.63,2.67-2.15,2.76-1.63,3.88,2.35,1.85,4,1.85,3.69-.81,4.5-.2,2.77,1.23,3.49.81,2.56-2,2.77-.5,1.74,3.27,2.87,3.18.82-1.23,3-.93,4.1,0,4,1-.31,1.75.4,2.37a8.86,8.86,0,0,0,2.16,1.13c.92.61,1.53.1,2.46-.11s1.33.72,1.63,1.95.83,1,2,1.12-.82,1.14-2.15,1.75-.62,2.06,1,2.36,1.44.51,2.36,1.64a2.32,2.32,0,0,0,2.56.83c.82-.12,1.13-.93,1.75-2s1.23-.81,2.77-.81-.11-1.35-1.23-2.06-1-.92-2-1.54,1.85-1.33,3.19-1.53,1.12.71,1.23,1.53,3.27.1,4.61,0,1.74.83,2.56,1.54,1.33,0,2.77-.21a2.79,2.79,0,0,1,3,2.15c.1,1.14-.93,2-2.06,2.37s-.92.71-.4,1.33,4.3,0,5.94-.2.21-1.34-.52-1.54-.71-1.13-.71-2.26a7,7,0,0,1,1.33-4c.92-1.12,3.9-.41,5.75-.41a14.27,14.27,0,0,1,3.28.21c1.23.2,1.64,1.95,1.94,2.77s.41.92,2.77.92.62-.72.52-1.84a20.09,20.09,0,0,1-.21-3.5c.1-1,3.29-2.15,4.21-2.46a51,51,0,0,1,5.12-.61c1.54-.2,1.95-1.64,2.57-2s1.94-.42,3.58-.42,1.65,1,2.06,2.27,1.13-.31,2.05-.82.62-.72.81-1.64,1.23-1.34,2.27-1.75-.11-1.84-.83-2.25,1.23-2.77,2.06-3.69-.73-1.44-2.27-1.44-3.07.52-4.92.61,2.36-2.56,3.69-3.07a2.54,2.54,0,0,0,1.85-2.67c0-1.33,1.84-2,2.46-2.35s1.44-2.27,2-3.5-.3-2.46.41-3.58,3.19-.11,4.73.1a6.38,6.38,0,0,0,4.3-1.33c.82-.73,2.66-1.13,3.79-2s0,0,.93-2.56a11.09,11.09,0,0,1,1.63-3.29,4.47,4.47,0,0,0,.42-2.56c0-.92,1.64-1.13,3.27-2.05s2.47-.41,3.5-.52,1.54-.71,2.87-1.33,1.94.31,2.36.83.92-2.37,1.12-3.19.11-3.69.61-5.64,1-1.23,4.73-2.25,1.54-1.75,1.94-2.77,4.21-.82,5.13-.92,1,.31,1.74,1.23,1.13-1.44,1.34-2.36,2.46-.93,3.27-.93,1.85-1.63,2.67-2.25a8.94,8.94,0,0,1,2.67-1.65c.72-.1,1.12-1.63,1.54-2.35s3.48.81,3.48.81-2.55-7.17-3.28-9.42,3.59-4.42,3.9-4.62a12.64,12.64,0,0,0,1.23-4.61c0-1.34,1.13-1.34,1.94-1.34s3.6-3.39,4.42-4.1.93-2.77,1-4,2.26-2.46,2.87-3.69S922.3,763.25,921.38,762.43Z"/><path class="cls-2" d="M720.68,739.17c-.57.73-1,3.4-.16,3.31s1.13-.48,2.19-.07,4.93,1.54,4.93.65a2.3,2.3,0,0,1,.48-1.87c.57-.81,1.31-1.21,1.38-2.18s-.56-2.19.65-2.28a2.82,2.82,0,0,0,2.35-.88c.57-.65,1.7-1.22,0-1.63s-2.43-.07-2.67-1.13-2-2.58-2-2.58c-1-.32-1.38-1.22-2.19-.41s-3.23,1.54-3.31,2.11.24,1.62-.24,2.1-3.33,2.83-2.43,3.56S721.24,738.45,720.68,739.17Z"/><path class="cls-1" d="M530.88,520.73A17.86,17.86,0,0,1,532,516.4c.47-1.22,1.59-.84,2.53-.84s.47-1.32.75-2.8,1.78-1.51,2.25-1.69,4.12-.75,4.67-.94a34.06,34.06,0,0,1,3.47-.66,15.78,15.78,0,0,1,3.74.38c1.51.28,3.56-1.6,5.16-2.82s.09-2.7.09-3.55-1.22-1.41-1.87-1.49.09-3.1,1-4.12-1.32-1.14-2-1.69,2.44-.85,4.21-.38.28-2.34-.09-2.71.66-.75,2.34-1.22,1.4-1.22,2.25-2.25a23,23,0,0,1,2-2.44c.75-.65,2.62.76,3.37,2.07s1.4-.18,2.35-1.13,1.77,0,3.46.2.65-.67.93-1.69,1.12-1,1.88-1.87a20.18,20.18,0,0,1,4.58-3,11.13,11.13,0,0,1,3.38-.75,13.46,13.46,0,0,1,2.62.47h.23a3.28,3.28,0,0,0,.05,1c.37,2,.75,3.94,3.37,4.77s2.91-.75,4.31,1.41,3.65,5.42,5,4.87,3.74-3.47,5.15-3.47,1.87-.19,2.16,1,3.09,2.91,4.11,1.69.85-2.54,2.25-2.54,2.34-.37,2.8.75,1.79,1,1.41,2.07-.75,3.27.38,3.27,1-.36,2.24-1.21,1.13-2.24,3-2,2.72.46,2.24-.47-1.67-2.15-.27-2.52,2.9.18,2.62-1.32-1.32-3.17.09-3.17,2-.67,2.53,1.12,1.12,3.74,1.12,3.74c.21.82.89,1.24,1.48,2.17s1.88,1.89,2.21,2.74,1.87,2.46,1.79,3.65-.59,1.45-.08,1.79,1,.08,1.27,1a6.87,6.87,0,0,1,.35,3.4c-.26,1.54-1.37,2.31-.18,2.65s1.79.07,2.65.85,1.61,2,2.55,1.53,2.3-1.53,2.38-.85-.08,1.95.77,1.95,1.36-.08,1.28,1,.76,2.56,1.61,2a3.65,3.65,0,0,1,2.73-.93c1.53,0,1.44.84,2.46.93s3.67,1.28,3.24,2.47.08,1.53-.94,3.75-1.28,3.14-1,3.66a12.39,12.39,0,0,1,.51,2.55c.08.59.34,3.91-.25,4s-2,0-2,.43a7.27,7.27,0,0,1-1.46,2.46c-.43.26-2.63,1-2.54,1.54s.85,2.46.5,3.48-1.11,2.47-.85,3.24a2.15,2.15,0,0,0,2.13,1.28c1,0,2.81-.51,3,.43s2.46,4.59,3.57,3.74a11,11,0,0,1,3-2.13c1.45-.59,3.49-2.13,4-.94a3.8,3.8,0,0,0,2.54,2.13c.85.18,1.46.94,2.39-.08s1.44-2.64,2.13-1.61,1.44,1.43,2.22,1,2-.52,1.61.59-.77,2.21.17,2.21,1.87-1.36,2.8-1.54,1.62-.76,2.39-.93,2.46.34,2.22-.85-.86-1.87.07-2.22a2.62,2.62,0,0,0,1.37-2.54c-.09-.85-.26-5.37.93-6a5.4,5.4,0,0,1,3.58-.78c.85.26,2.29.09,2.89,1.37s1,2,2,2,1.87,0,2-.93,1.2-2.64,1.7-1.61,1,2.37,1.88,2.37,1.53-.09,1.62-.59,1.28-2.56,2-2.65,1.2-.07,1.79-.16,3.06.51,3.06,1.44.09,1-.59,1.54-2.13,1.36-.85,2,2.38.51,2.72,1.7.59,1.28.26,2.22a5.1,5.1,0,0,0-.43,2.72c.17.93.93,1.62,3.67,1.62,0,0,2.37-8.69,3.06-9.71a7.24,7.24,0,0,0,.94-2.63c.17-.69,1.26-2.82,1.52-3.75s-.33-2.46.43-3.49a12.66,12.66,0,0,0,2-4.17c.26-1.28.68-4.34,1.28-5s.94-.43,1-2.13.41-3.41,1-4,1.35-.34,1.87-.43.26-.41,1.61-.5,1.45-.09,2.13.68,3.15,2.63,4.08,2.38,1.7-1.19,2.48-1a2.33,2.33,0,0,0,2.12-.43,7.77,7.77,0,0,1,3.16-1.37c.84,0,1.69.09,2.11.94s1.19,2.82,1.71,3.58a7.41,7.41,0,0,0,3.74,2.22c1.37.25,3.33,1.35,3.07,1.95s-1.11,1.37-.26,2.39,2.82.59,3.41,1.27.76.43.76,1.62a2.85,2.85,0,0,0,.69,2.22c.42.41.42-.26.68,1.35s.51,3.49,1.19,2.39,1.53-3.07,1.78-1.87-.41,2.72.94,2.37,2.8-.25,2,.94-2.13,3.84-.5,4.34a8,8,0,0,0,4.67.26c1.11-.43,2-2.47,2.89-2.72s1.8-.52,2.05-1.11a8,8,0,0,1,1.54-2.82c.84-.76.25-2.46,1.52-1s2,2.3,3,2.48,2.3.25,2.3,1,.17,4.76,1.71,4.43,1.61-.77,3-.52a26.15,26.15,0,0,0,4.76.43c.68-.08,2.81-2.21,3.57-2.21a1.82,1.82,0,0,0,1.54-1c0-.25.17-1.61.76-1.78s1.28,0,2-1.11,1.54-3.91,2.38-4.34a36.34,36.34,0,0,0,4.09-3.5c.85-.76,2.89-2.89,2.89-2.89l.16,0a2.75,2.75,0,0,0,1,1.51c1.54,1.44,4.71,3.08,4,4.42s-3.18,7.07-2.87,8.4,2,4,.31,4.1-2.67-.5-4.61.21-7.7,4-6,5.23,3,2,2,3.07-2.15,3.08-.82,3a9.49,9.49,0,0,0,3.38-.51c2-.62,3.19-1.14,3.7-.52s1.64.52,3.49.11,4-.73,4.1-2.15,0-2.58,1-2.88,7.19-3.89,7.08-5,.72-.93-1.64-1.64-3.18-1.75-2.46-2.36.31-1.23-.21-2.16-1.43-1-.41-3.17,3.29-7,6.06-7,5,.62,7.17-1,4.31-4.82,6.67-4.82,6.25.71,7.58.21,6,.3,7.69.71,5.65,2.15,5.85,3.59.41,2.77-.62,3.89-2.56,2.15-1.54,3.29,6,6.46,4.92,8.09-3.88,2.77-3.48,4.73.92,2.35.41,3.58-2.77,4.11-.41,4.92,7,1.23,6.67,2.57a31.73,31.73,0,0,1-.82,3.7c-.41,1-1.64,4.09.1,3.57s3.59-1.23,4.2-.61,5.54,5,5.54,6.15-1.13,1.75.21,3.08a4.81,4.81,0,0,1,.92,4.42c-.3.61-.61,4.09-2,5.23s-4.92,2.65-6.25,2.56-1.75-.72-2.37-.21-.4,2-1.84,2-2.56.1-3.08,1.64-.51,8.72,1,11a8.14,8.14,0,0,0,4.21,3.17c.62.21,1.75.11,1.85,1.34s.31,2,1.75,1.85,4.71,1,4.09,2-1.13,2.88-.82,3.69a7.31,7.31,0,0,1,.61,2.67c0,1,.21,5.64.83,5.85s3.38.4,3.38,1.63a1.72,1.72,0,0,0,1.85,2,2.54,2.54,0,0,1,2.46,1.64c.21.82.21,2.76,1.75,3.38s4.5,1.64,4,2.87a14.72,14.72,0,0,1-1.44,3.07,24.12,24.12,0,0,0-1.75,2.46c-.31.62-1.85.83-1.54,2.27s1.44,4,1.34,5.42-.11,2.27-1.44,3.08-1.94,3.59-2.87,3a3,3,0,0,0-2.67-.31c-1,.21-4,.52-4.92,1.75s-.31,3-2.15,3.17-3.29-.09-3.48,1.33-.11,2.77-1.44,3.19-1.44.2-3.08-.92-4.82-3.29-5.64-2.27-1.23,1.85-2.26,1.85-1.64-.62-2.66.21-1,1.84-2.15,2.15c-.81.22-2.68,0-3,.73-.27-.13-1.89-.8-2.63-.07s-1.63,2.59-2.6,2.11-1.78-.9-2.35-.74-1.7.25-1.54,1.22.57,2.26.18,3-1.79,1.94-2.6,1.14-.57-1-1.61-1-4,.32-4.14-1a6.24,6.24,0,0,0-1.06-3.16c-.64-1.13-.64-2.76-2-2s-2.67,2.18-3.24,1.29-.41-1.62-1.7-1.22-3,1-2.43,2,1,2.67.56,2.83-1.13.74-1.2,1.3-1.95,4.69-.9,5.42,2.1,2.1,3.57,1.62,4.2-1.78,4.28-.57-.57,4.53.49,5,2-.09,2.19,1.29-.09,4.7-.09,5.74.32,3.33-.72,3.65a1.85,1.85,0,0,1-2.27-1c-.33-.72-1.94-1.45-2.68-.88s-.8,1.61-2.5,1.45-3.72.25-4.45-.07-2-1.22-2.76-.57a15.45,15.45,0,0,1-3.07,2.9c-1.86,1.22-2.51,2.35-3.24,1.63s-2.51-2.67-2.83-1.63-.65,1.38-1.62,1.47-3.4.56-2.59,1.45,1.77,1.78,1.13,2.35-1.78,2.35-2.84,2.35-2,0-2.26.41-1.38,1.38-2.11.88-2.74-2.42-3.15-.88a21.33,21.33,0,0,1-.81,3.07c-.41,1-1.29,1.46-.49,2.18s1.38,1.7.81,2-1.38.57-1.54,1.29-.16,2.83-1.13,2.43-1.45-1.21-2.35-.4-1.45,1.54-2.34,1.37-6.15-2.18-5.76-.32.41,2.42-.16,3.48-4.05,7.13-3.15,7.37a4.18,4.18,0,0,1,2.75,1.46c.89,1.13,2.91,2.83,1.87,2.83s-1.7-.57-2.19.33-1.38,3.8-2.67,3.07-4.14-2.35-5.27-2.35a6.59,6.59,0,0,1-2.67-.24c-.64-.32-1.45-.48-1.61.16s-.74,3.64.32,4.05,2.51,1.37,1.86,1.78-.64,1.38-1.78.89-4-.82-3.4.4,1.62,2.35,1.37,3.16-1.13,1.86-.16,2.27,1,.25,1.7,1.38,2,2.67,2.51,2,2.19-1.69,2.43-.63.33,1.2,1.87,1.2,5.25-.07,4.84.73-1.61,1.62-.47,1.94,1.78.81,1.62,1.54.72,2.84,1.21,2.44,2.35-.09,2,.64-.74.4-.5,1.46.16,1.13.34,2.18,1,3.73.32,3.73-1.79,0-2,.32-1.22,2-.16,2.35,2.27.4,2,1.13.32,1.38-1.54,1.06-1.95-.09-2-.81a6.21,6.21,0,0,0-.89-2,1.9,1.9,0,0,0-2.42-1.2c-1.22.48-1.71,1-1.38,1.45s.48,1.86.07,2.1a8.24,8.24,0,0,0-1.7,1.22c-.65.64-2.19,2.35-3.15,2.51s-3,.73-3.48-.4a28.16,28.16,0,0,0-1.3-2.51c-.24-.66-2.27-1.13-3.31-1.29S756,755,756,754.15s-1.61-1.79-2.26-1.38-1.14.32-2.67.16-3.72-1.95-4.62-2.35-.64.81-.81,1.78-5.59-1-6.23-2.35.25-1.38.89-2.1-.32-1.54-1.13-2.18,1.21-1.78,1.85-2.51-.64-1.54-1.13-1.54-1.77,2.18-2.67,3-1.61.65-2.67.49-1.38-1.21-1.61-2.19-4.95,1.79-5.76,2.19-3.88,1.94-4.28,2.27-2.19-.25-3.4-.57-3.89,3.72-4.38,3.72-1.13-6.72-1.13-7.69-2.27-1.86-3.48-2.11a7.63,7.63,0,0,0-3.24.25,4.19,4.19,0,0,1-2.35-.16,7.88,7.88,0,0,1-1.94-.73l-.08,5h-2.1c-.9,0-2.6-1.14-3.57-1.78s-1.37-.81-1.77-1.86-1.79-1.3-3.17-2a3.58,3.58,0,0,0-3.23-.16c-.89.32-.57,3.48-.73,4.86s-2.19,1-3.64.41-.25-2.19.32-3.48.25-1-.25-2.2-3.39.16-4.36.25-.82.64-1,1.54-1,1-2,1.38-1.47,2.83-2.11,4.37-3.73-1.86-4.21-2.51-2-1.06-2.35-1.7-1.38-.49-2.19-.65-.88-.82-.88-1.62-1-.24-2.19-.24a4.84,4.84,0,0,0-3.08,1.2c-.73.66-1,.58-1.45-.07s.23-1.47.81-2.83,0-1.79-.49-3.25.4-1.52,1.13-1.7-.64-2.18-1.38-2.58-.16-1.22-.07-2.11-1.47-.89-2.35-1.21-1.54-1.62-1.86-2.51,0-2.59,0-4-1.87-4.29-2.19-5.34-1-.56-1.7-.56-1.62-2.51-1.94-3.82a16.12,16.12,0,0,1-.66-3.55c-.07-1.54-.4-1.06-1.13-2.51a3.25,3.25,0,0,1-.4-2.92c.24-1.38-.73-1.29-1-2.58s.25-1.14.66-1.72S645,696.35,644.1,696s-.08-1.14.32-1.95-1.78-.48-2.58-.23-.9-.73-1.13-1.63-.34-.63-1.54-1.45-1.63-2.59-2.19-3.48-3.8.64-5,.64-.41-1,.16-2.58-1-1.7-2.18-2.43a3.41,3.41,0,0,0-3.25.16c-.73.32-.73,3.89-1.37,4.62s-4.13.16-4.94.16-1.13,1.61-1.86,2.26-3.08-4.69-3.24-6.56-1-2-1.46-3.31a15.85,15.85,0,0,1-.57-4.45c0-.9-1.2-.81-1.94-.81s-.57-.73-.8-2.2-1.13.41-1.47,1.38-.88.57-1.69.73-2.92,2.28-3.65,2.51-.81-.41-1.78-1.38-.8,1.47-.64,2.44-.57.72-1.46,1.45,0,1.13.08,2.35-1.86,1.13-3.16,1.62-2.42-2.19-3.31-3.4-1.71.65-2.19,1.3-1,4.53-1.06,5.18-2.83,2.34-3.4,2.9-.07,2.92,0,3.82-.56,1.36-1,2.1-.16,2.51-.09,3.15-.88.82-1.78,1.38-1.13,4.46-1.7,5.75-1.38.16-2.58-1.79A14.15,14.15,0,0,1,577.8,700a5.71,5.71,0,0,1,.41-2.84c.4-1.29-.32-1.29-.65-2.18s.33-.65,1.46-1.54-2.35-1.38-3-1.22-1-.07-1.54-1.37A38,38,0,0,1,573,684c0-1.13-3.24-.64-4.14-.57s-.8,1.06-1.45,1.47-1,.16-1.13-.41.56-2.67.64-4.54-2-3.15-3-3.24-1.13,1.29-1.45,2.27S561,680,560,680.07s-.82.81-1.14,1.78-1.14,1.06-1.94,1.3-1.06,1.13-1.54,2.67-.65,1.62-.65,2.27-.81,2.59-.89,3.31-1,1.13-2.1,1.87-1,5-1,5.91-3.33,3.4-4,4-.48.81-.56,2-1.77,1.78-2.59,1.94a16,16,0,0,1-4.37-.09,5,5,0,0,0-2.91.41c-.81.25-1.31-1.21-1.38-1.94s-2.83-.48-3.8-.48-1.31.56-2.19,1.21-1.54.08-2.83,1,0,1.69.07,2.74-2.51-.57-3.4-2.34.25-2.91.41-4-.73-1.29-1.06-1.7-.72-.32-1.77-.73.57-1.37,1.13-2.43.16-2.27.16-3.56.09-.81,1-1.86.41-1.46.41-3.07-1.29-1.47-2.19-1.63-.89-1.86-1-2.75-2.35-2-2.91-3.56.81-2.6,1.54-3.24-1.3-2-2-2.51-.24-1-.24-1.85a4.7,4.7,0,0,0-.87-2.1s1.07-.49,2.07-.91a4.23,4.23,0,0,1,2.23-.07c.34,0,.5-.75.74-1.58a1.61,1.61,0,0,0-.82-2.06c-.83-.34-.91-1.42-1.49-3.66s1.32-2.23,2.07-2.8a6.11,6.11,0,0,1,3-1c.76,0,.67-2.31.84-4.14s.58-1.08,1.4-1.16.83-2.23,1.74-2.65.09-1.07-1.24-1.58-.91-2.64-.91-3.72,1.82-2.14,2.9-3.14,1.58-3.06,2.31-3.89.58-.5,1.67-.5,1.24-1.58,1.73-3,1.49-1.07,2.4-1.33,1.08-4.31,1.08-5.46a9,9,0,0,0-1-3.31c-.5-1.25,1.15-.5,2.39-.25s2.16,1.57,3.56,2.24,4.06,1.49,5,1.32,1.66-.74,1.66-1.49-1.41-1.82-2.48-2.65,1-5.38,1.49-7.37.08-5-.09-6.46-2.48-2.65-3.22-3.89.49-1.24,1.15-1.91.25-.91.42-2.31,1.07-.91,1.9-.91.5-2.65.33-3.31.33-1.33.75-2.15-.42-2.82-1.91-4.48a14.28,14.28,0,0,0-4.22-3.23c-1.41-.75-.58-1.07-.58-2.4s-.66-.91-2.24-2.64-.82-1.33-.57-2.33,1.9-.4,3.15-1.15.91-1.41,1.15-2.32,2-.17,2.65,0,.91-.83,1.41-1.82,1.74-1.57,2.65-2.48.58-.67-.09-1.58.91-1.73,1.58-2.73,1.49-1.33,2.89-1.91-.16-2.15-.82-3.31,0-1.91.24-3.15-1.32-1.89-2.64-2.89-1.33-4.47-1-6.62,1-3.24,1.17-4.64-1.25-1.57-2.13-2.09c-1.11-.67-1.4-2.91-1.69-5.34s-1-1.69-1.87-2.06-.83-1.4-.83-3-2.72-.75-3.56-.37-.85-.65-.75-2.15-.65-1.69-1.59-2.07-.38.2-1.6,1.32-3.84-2.06-4.39-2.34.37-3,1.4-3.56-1.4-1.13-2.35-1.13-1-.28-1.4-2.34A7.32,7.32,0,0,1,530.88,520.73ZM732.5,735.85c.57-.65,1.7-1.22,0-1.63s-2.43-.07-2.67-1.13-2-2.58-2-2.58c-1-.32-1.38-1.22-2.19-.41s-3.23,1.54-3.31,2.11.24,1.62-.24,2.1-3.33,2.83-2.43,3.56,1.61.58,1,1.3-1,3.4-.16,3.31,1.13-.48,2.19-.07,4.93,1.54,4.93.65a2.3,2.3,0,0,1,.48-1.87c.57-.81,1.31-1.21,1.38-2.18s-.56-2.19.65-2.28A2.82,2.82,0,0,0,732.5,735.85Z"/><path class="cls-1" d="M953.68,252.28c1.84.5,7.69.92,6.56,2.25s-4.51,6.67-5.23,9-3.18,8.51-4,8.72-2.77.62-3.08,1.43-1,2.88-1.73,2.88-2.16.1-2.47.71-.3,3.08-2.05,4.72-6.87,5-7.48,5.74a24.69,24.69,0,0,0-2.36,6.06c-.31,1.73.71,7.27-.21,8.09s-1.74.41-2,2.06,0,2.56-.51,3.69-2.36,3.79-1.95,7,1.75,5.64.21,6.46-3.59.61-3.59,3.18,1,3.69-.41,5.43a33.72,33.72,0,0,0-4.31,6c-.92,1.94-.92,4.09-2,5a4.59,4.59,0,0,0-1.74,3.48c-.31,2.05-1.56,6.46-.31,7.9.72.82,4.51,3.17,3.7,4.82s-2.58,3.28-2.58,4.92,1.24,3.08-.3,4.1-2.25,1.75-2.16,2.46,1,1.85.42,3.49-3.07,3.59-2.26,7.38,1.75,4.42.51,5.75-3,2.25-1.74,4.09,3.18,2.77,4.21,4.73a16.5,16.5,0,0,1,1.23,5.33,1.65,1.65,0,0,0-1.95.51,4.11,4.11,0,0,1-2.26,1.64c-1.33.52-2.16.71-1.64,1.75a2.36,2.36,0,0,1,.31,2.35c-.31,1.23,0,4.3-1.54,3.9s-5.13-2.77-4.31-.1.62,3.48-1,4.81-2.26.73-5.13.92a14.79,14.79,0,0,0-4.61.83c-1.33.4-3.49,1.13-3.49.4s-.3-1.23-2-1.42-3.08.61-2.35-1.54,2.86-4.62.92-4.62a11,11,0,0,1-3.7-.64l0-.11s.15-1.61.24-2.91-.78-1.39-1.47-1.85a2,2,0,0,1-.92-1.92c0-.93-.39-1.08-1.08-1.39s-.77-.92-.84-2.15S878,397,876.54,397s-.69.61-1.54,1.08-.69-1-1-2.08a5.36,5.36,0,0,1,.31-3.08c.31-1.15.92-1,1.84-1.68s.39-1.39.39-2.32a4.51,4.51,0,0,0-1-2.53c-.46-.54.07-1.31.54-2s-1.77-1.76-2.55-2.15a9.41,9.41,0,0,1-3.45-2.15c-1.85-1.69-4.77-1.76-5.92-2.16s-1.61-2.46-1.85-3.29-2.61-.78-3.15-1-1.08-1.54-1.16-2-1.69-1.15-2.15-1.39a11.72,11.72,0,0,1-3.46-2.08c-1-1.07-4.16-2.53-4.7-3.22s-.76-1.61-1.68-3-1.85-.84-3.08-.08-2.3,2.61-2.92,3.23-1.31.61-2.31.77-1.46.92-2,1.07-1.23-1-1.47-1.76a26.19,26.19,0,0,0-.85-2.62c-.38-.92-1.3-1.15-2.15-1.38s-.92-.46-1.77-1.3-1.54-.7-2.54-.78-2.15,1.16-3,1.39a4.94,4.94,0,0,1-2.61-.39c-.7-.22-2.31,1.92-2.93,2.24a2.26,2.26,0,0,1-2.53-1.32c-.38-1.07-2.62-1.3-3.31-1.61s-.22-1.3.23-2.15-.07-.92-.54-1.85a7.46,7.46,0,0,0-1.68-2.3c-.4-.23-1.63.22-2.32.53s-2.53.23-3.91.85-2.7,4.23-3,4.69-1.16.7-2.32.92-.61,1.16-1.3,1.77-1.38-.76-1.38-1.38a4.08,4.08,0,0,1,.91-2.31c.7-1-.53-.92-1.53-.38s-.77,1.92-1,3-.69.7-1.54,1.23-.31,1.85-.38,2.93-1.7.47-2.54.61-1.62,2.47-2.08,3.08,0,1.54-.23,2.46-2.16-.38-2.54-.92-1.46,0-2.46.31-.47,2.22-.69,3.15-2.31.23-3.54.07-.76,2.55-1,3.85.54,1.77,1.47,1.92.45,1.54.45,2.77-.92,1.46-1.54,2.62.69,2.61.62,3.08-1.31.23-2.68.38-2.7.92-3.85.76-1.47-1.38-2-2.75-2.3,2.06-3.3,2.91-2.31-.31-3.76-.77-1.16.7-2.17,1.15-1.92-.38-3-.69-.47,2.08-.7,3.31-.69,1.23-1.31,1.69-.61,1.62-1,2.77-.62.7-1.54,1-.92-.77-1.16-1.69-.76.07-1.77.62-2.07,2.07-2.76,2.69-1.23-.47-1.77-1.3,0-1.24.54-2.7-1.15-.7-2-1.85-1.77-.84-2.54-1.53-.61-1.09-.61-2.16-.16-.92-1-.7-1.84,2-2.62,2.7-4.61-1.23-4.92-1.76a4.47,4.47,0,0,1-.69-2c0-.69-.7-.77-1.85-1.68s-2,1.23-2.84,1.68-1.84-.69-2.55-1.77.24-1.3.78-1.85.07-2.69-.16-3.45-.76-.69-2.15-.47-.62-1.15-.31-2.38,3.07-1.77,4.23-2.31-.38-2.92-1.07-3.46a3.05,3.05,0,0,1-.93-2.38c-.08-1-1.31-1.16-2-1.54s-.76-2.38-1.3-3.61-.69-1.16-1.77-1.23-1.62,1.38-2.23,2.3-1.77-.45-2-1.3,1.39-1.77,2.16-2.77.23-1.23-.46-2.15-3.62-.55-4.61-.85.3-1.62,1-2.16-.23-1-.85-1.92-3.83-.23-4.54-.3-1.07-.55-2-1.16-1.08.07-1.85.23a3.06,3.06,0,0,1-2.22-.54,9.45,9.45,0,0,0-3.24-.69c-.92-.08-3.38,2.38-4,2.92s.47,2.15.78,2.85-2.93.62-4.31.62a5.52,5.52,0,0,0-3.24,1.14c-.92.62-1.37-.38-2.3-1.23s-4,1.16-4.77,1.23a9.52,9.52,0,0,1-2.54-.23c-1-.15-1.3,1.77-1.3,2.78s-1.47.76-2.46.76a3.14,3.14,0,0,1-2.32-1.08c-.61-.61-.54-1.76-.54-2.76s-.14-1.08-1.07-1.31-.85,1.15-.85,2.15-.07.78-.61,1.08-.93-.69-1.07-1.62-3.46,3.08-4.4,3.4-1.84-1-2.37-1.85-2.15.69-2.7,1.23-2.84-.23-3.31-.61-1.07.07-1.76.52-1.46.09-3.07-.07-1.23.31-2.46.46.38-3.92.69-4.84-.24-1.7-1.31-2.15-1.08,1.23-1.55,1.84-1.61-.77-2-1.7.38-.92,1.38-1.07-1.92-3.16-2.61-3.85-.31-1.84-.31-2.77-.62-1.14-1.46-1.84,0-1.23.3-1.85-1.61-2-2.46-2.69-1.14-.22-2-.22-.23-1.63.07-2.86-.3-1.14-1.23-1.38-.69,1.16-.92,1.85-2.46,1.3-3.22,1.38-2.08-3.38-2.93-4.84-1.38.23-2.23.69-.85.54-1.61-.23,2.3-3.3,2.75-3.84,0-1.16-1.07-2.16.85-1.31,1.61-1.84-1.68-2.46-2.38-2.7-.84-1.15-1.07-2.15-1.07-.85-1.69-1.69-.77-.7-1.08-1.62-1-1.45-2.36-3.05c-.85-1-1.23-.82-2.26-.82s-1.44.2-3.17.93-1.13-.93-1.13-2.06c0-.16,0-.33,0-.5.06-1,.3-2.06.38-2.67s-1.12-.73-2.25-1.75.41-.92,1-1.33-.1-1.65-1.12-3.69,1.23-1,2.77-1.54-.31-1.84-1.84-3.18,1.42-1,2.86-.51,1.64-.11,2.37-1,.19-1.74-.11-3.28,1.44-2.46,2.15-2.57.61-.81.72-1.54,1.33-.71,2.47-1.12.4-.72-.73-1.23-1.12-.61-1.12-1.53-2.57.61-3.59.81-1.14-.41-1-1.33-.42-.52-1-2.06.83-2,1.85-2.46-.41-3.58-.62-4.3-.31-.72-1.43-.72-.72-.71-.92-1.44-.42-.31-1.65-.31-.81-.4-.3-1.84,1.53-1.33,2.46-1.54-.41-1.33-1.43-2.15,1.54-.51,2.87-.51.92-.42,1.84-.42.41-1.42.41-2.56a14.58,14.58,0,0,0-.1-1.84h0l.32-.45c.38-.61.69-.61,1.23-.77s.61-2.84,1.23-3.77,2.77-.92,3.46-1,.3-1.55.38-2,.85-.61,1.46-.69.24-1.08.24-2.08.85-.61,1.61-.92.38-1.39.85-2.62,1.38-.91,2.46-1.15.23-2.22-.77-3.23-2.31.16-4.15.16-.93-1-.55-2.23,1.92-1.55,2.77-1.62-1.14-4-1.76-5.31,1-1.77,1.53-2.46,2.46,0,3.85-.31,1.39-.07,2.23.47,2.85-1.7,3.15-2.46-1.69-.93-2.76-.85-.7-.77-1-2.15-1.45-.54-2.77-1.09-.07-1.3.85-2.06-.3-1.47-.69-2a4.27,4.27,0,0,1-.39-2.46c0-1.16-.84-1.84-1.3-2.77s.54-1.3,1.3-2.23,3.08-1.39,4.54-1.77,1-.61,1.7-1.46,3.38-.84,4.54-.92,2.68,1.23,3.6,1.61-.23-3.23.09-3.69,3.46-1.92,4.69-2.38,1.61,1.07,2.15,2,1.61.55,2.54.55,1.7,1.39,2.15,1.92,1.92-3.93,1.92-5.07a9.33,9.33,0,0,0-.53-3c-.32-.92,1.23-1.07,1.69-1.46s-.24-1-1.07-2.23-.24-1.84-.16-3.15,1.23-2.08,2.22-2.93-.76-1.84-1.68-2.15.45-.69,1.3-1.61,0-.93-.77-1.69,0,0-.08-1.62-1.07-1.16-2-2.3.22-1.32,1.16-1.94,2.22.09,3.15.78,1.68-.31,2.46-1.3.22-2.32.45-3.55,2.46-1.92,3.46-2.53,1-1.07,1.39-1.92,1.39-1.16,2.08-1.54.84-1.39,1.38-2.31-1.3-1.85-2.46-2,0-1.3.77-2,.24-.77-.3-2.23,1.15-3.31,1.84-4.07,1.16-3.86,1.16-4.85-2-1.31-2.93-2.08.86-3.91,1.07-4.53h.16c1.38,0,5.54-1.08,6.46-.32s3.53.94,5.08,1.7a12.65,12.65,0,0,0,5.22.92A7,7,0,0,0,694,150.1a8.54,8.54,0,0,1,3.85-1.85c1.23-.32,6-1.08,6.61-2.31a13.57,13.57,0,0,0,.92-5.69c-.15-1.7-1.08-4,.61-4.77s2.93.61,3.84-1.23.62-2.47,2-3.39,4-4.3,4-2.77.76,2.46,2,2.32,2.17-.94,2.17,1.37-.78,2.77-1.55,4-.91,3.54-1.69,4.77a12.5,12.5,0,0,0-1.23,3.85c-.31,1.23-1.23,2.62-1.54,3.53s-.46,3.08.77,3.08,2.31-.3,3.23.93,2.16,3.53,1.54,4.6-1.85,2-1.54,3.55a17,17,0,0,1,.46,3.54c0,1.07-1.07,2.46-.3,3.08a4.43,4.43,0,0,0,4.46.91c2.15-.77,4.45-2.61,5.23-.91s4.14,3.37,5.08,3.22,3.38-.2,3.69,1.23c.25,1.23.25,3,1.17,3.48a3.71,3.71,0,0,1,1.65,1.35c.5.71,2.15,1.32,3.07,1.63s2,.83,3,.41,1.85-1.23,3.08-.31,3.49,3,2.88,3.69-1.65,2.06-1.35,3.08,1.54,1.84,2.37,1.23.82-1.64,2.25-1.23,4.11,2,4.42,3a42.75,42.75,0,0,0,2.56,4.71c.82,1.44,1.23,1.65.92,2.36s-1.64,2-.31,2.77,2.06.62,3.38-.1,2.77-2.57,4-1.75,2.26,2.56,3.18,1.33,1.13-4.61,2.88-4.09,3.79,2.86,4.61,2.25,2.77-3.39,4.2-2.46,3.19,1,3.59,2,.52,4,2.67,4.1,7.89,0,7.89,1-.71,3,.92,3.39a6.7,6.7,0,0,0,3.8-.21c1.24-.31,1.24-1.13,2.66-.41s1.85.62,2.67-.31,3-4,4.21-4.11,5-.92,6.15-.09,5,4.4,7.28,4.2,1.53-1.74,4.11-.92a21.72,21.72,0,0,1,4.61,1.64c1.54.82,5,2.67,5,3.59s-1,1.54.72,2.56,4.3,2.67,3,3.29-2.36,1.42-1.63,2.35,1,2.46,2.35,3.38,2.46,1.13,3,2.67.31,2.67,1.14,3.08,1.84,0,1.94,1.33.1,2.67,1,2.67,3.5,0,2.57,1.32-2.05,4.42-.61,4.52,2.46-.61,4.1.1,3.38,1.44,4.2.42,1.43-1.23,1.12-2.37-1.63-3.9-.09-3.59,2.25.92,3.59.31,1.85-1.74,2.56-.62a3.71,3.71,0,0,0,2.67,2c1.33.31,3.08.31,3.17,1.74s.83,8.51,2.26,7.69,2.05-4.41,3.49-3.49,1.54,2,3.08,1.85,3.07,1,4.4.41,2.06-1,3.29-.2,2.25,1.54,3,.81,1.85-2.77,2.77-2.77a2.75,2.75,0,0,0,2.77-1.23c.73-1.23,3.19-3.58,4.42-2.56a7.27,7.27,0,0,0,3.38,1.64c1,.21,1.74.61,1.74,2s.51,1.84,1.34,3.27,1.73,3.38,3.58,3.38,3.19-.4,3.59.42,1.75,3.58,2.77,3.27,3.08-1,3.79-.61a4.17,4.17,0,0,0,3,.42c.92-.31,1.23-2.57,3.08-1.44s3.79,2.67,4.71,2.46,5.13-2.56,6-1.44,1.64,2.36,2.36,2.46,3.18.52,3.79,1A27.94,27.94,0,0,0,953.68,252.28Z"/><path class="cls-1" d="M882.23,403c.69.46,1.54.54,1.47,1.85s-.24,2.91-.24,2.91l0,.11-.51-.18a2.36,2.36,0,0,0-2.46.1,2.74,2.74,0,0,1-3.28.21c-1.43-.83-4.1-.41-4.1,1s1.94,3.38.4,4.31-3.88,1.13-4.19,2.57-.42,2.35-1.13,2.77-5.64,3.48-3.08,4a20.41,20.41,0,0,0,7.28-.31c1.33-.31,2.26-.93,3.28-.62s3.07,2.66,2.05,3.18-2.25.21-2.67,1.33.52,2.46-.81,2.57-3.59.19-3.8,1.73,0,5.75-1.85,6.46-5.63,3.08-6.35,4.62-3.18,5-4.21,5.23-2.67-.41-2.76,1.65.09,2.56-1,2.76-2.57-.11-2.36,1.74,2.25,3.69.21,3.9-1.65-.82-3.08.92-1.68,2.49-3.49,3.29c-1.64.71-3.18,2.15-4.41,2.25s-3.38,0-4.4.52-4.31,3-3.69,4.81,2.66,4.31,1.73,6.05-2.86,4.21-1.94,6.25,1.84,3.6.61,4.42-2.56.41-3.48,1.74-2.15,3.28-3.59,3.8-2.87.41-4.52,1.94S809.3,503.31,809.71,504s3,2.25,2.15,3.08a7.33,7.33,0,0,0-2.06,2.76,13.12,13.12,0,0,1-1.94,3.79c-1,1.35-1.33.42-1.23,2a32.12,32.12,0,0,1,.41,3.48,4.66,4.66,0,0,0-.19,1.36l-.16,0s-2,2.13-2.89,2.89a36.34,36.34,0,0,1-4.09,3.5c-.84.43-1.69,3.24-2.38,4.34s-1.36.94-2,1.11-.76,1.53-.76,1.78a1.82,1.82,0,0,1-1.54,1c-.76,0-2.89,2.13-3.57,2.21a26.15,26.15,0,0,1-4.76-.43c-1.37-.25-1.45.17-3,.52s-1.71-3.67-1.71-4.43-1.37-.85-2.3-1-1.7-1-3-2.48-.68.26-1.52,1a8,8,0,0,0-1.54,2.82c-.25.59-1.11.85-2.05,1.11s-1.78,2.29-2.89,2.72a8,8,0,0,1-4.67-.26c-1.63-.5-.26-3.15.5-4.34s-.68-1.27-2-.94-.68-1.18-.94-2.37-1.1.76-1.78,1.87-.94-.77-1.19-2.39-.26-.94-.68-1.35a2.85,2.85,0,0,1-.69-2.22c0-1.19-.16-.93-.76-1.62s-2.55-.25-3.41-1.27,0-1.8.26-2.39-1.7-1.7-3.07-1.95a7.41,7.41,0,0,1-3.74-2.22c-.52-.76-1.28-2.72-1.71-3.58s-1.27-.94-2.11-.94a7.77,7.77,0,0,0-3.16,1.37,2.33,2.33,0,0,1-2.12.43c-.78-.17-1.54.76-2.48,1s-3.41-1.62-4.08-2.38-.77-.77-2.13-.68-1.11.42-1.61.5-1.28-.17-1.87.43-.95,2.29-1,4-.44,1.44-1,2.13-1,3.74-1.28,5a12.66,12.66,0,0,1-2,4.17c-.76,1-.17,2.55-.43,3.49s-1.35,3.06-1.52,3.75a7.24,7.24,0,0,1-.94,2.63c-.69,1-3.06,9.71-3.06,9.71-2.74,0-3.5-.69-3.67-1.62a5.1,5.1,0,0,1,.43-2.72c.33-.94.09-1-.26-2.22s-1.45-1-2.72-1.7.17-1.53.85-2,.59-.6.59-1.54-2.46-1.52-3.06-1.44-1.11.09-1.79.16-1.87,2.13-2,2.65-.77.59-1.62.59-1.36-1.35-1.88-2.37-1.61.67-1.7,1.61-.93.85-2,.93-1.46-.67-2-2-2-1.11-2.89-1.37a5.4,5.4,0,0,0-3.58.78c-1.19.67-1,5.19-.93,6a2.62,2.62,0,0,1-1.37,2.54c-.93.35-.33,1-.07,2.22s-1.45.68-2.22.85-1.45.76-2.39.93-1.87,1.54-2.8,1.54-.6-1.11-.17-2.21-.85-1-1.61-.59-1.54,0-2.22-1-1.19.59-2.13,1.61-1.54.26-2.39.08a3.8,3.8,0,0,1-2.54-2.13c-.52-1.19-2.56.35-4,.94a11,11,0,0,0-3,2.13c-1.11.85-3.4-2.81-3.57-3.74s-2-.43-3-.43a2.15,2.15,0,0,1-2.13-1.28c-.26-.77.51-2.22.85-3.24s-.43-3-.5-3.48,2.11-1.28,2.54-1.54a7.27,7.27,0,0,0,1.46-2.46c.08-.43,1.44-.35,2-.43s.33-3.41.25-4a12.39,12.39,0,0,0-.51-2.55c-.26-.52,0-1.45,1-3.66s.51-2.55.94-3.75-2.22-2.38-3.24-2.47-.93-.93-2.46-.93a3.65,3.65,0,0,0-2.73.93c-.85.6-1.7-.85-1.61-2s-.43-1-1.28-1-.68-1.28-.77-1.95-1.45.34-2.38.85-1.7-.77-2.55-1.53-1.45-.52-2.65-.85-.08-1.11.18-2.65a6.87,6.87,0,0,0-.35-3.4c-.25-.94-.76-.68-1.27-1s0-.6.08-1.79-1.44-2.81-1.79-3.65-1.61-1.8-2.21-2.74-1.27-1.35-1.48-2.17c0,0-.56-2-1.12-3.74s-1.13-1.12-2.53-1.12-.37,1.68-.09,3.17-1.22.94-2.62,1.32-.2,1.58.27,2.52-.37.75-2.24.47-1.78,1.13-3,2-1.12,1.21-2.24,1.21-.75-2.25-.38-3.27-.94-.93-1.41-2.07-1.4-.75-2.8-.75-1.22,1.32-2.25,2.54-3.84-.47-4.11-1.69-.75-1-2.16-1-3.84,2.9-5.15,3.47-3.56-2.72-5-4.87-1.69-.57-4.31-1.41-3-2.8-3.37-4.77a3.28,3.28,0,0,1-.05-1,4.14,4.14,0,0,1,1.55-2.72,6.23,6.23,0,0,0,1.22-2.91,27.61,27.61,0,0,0-.85-7.49c-.37-.65.85-2.72,1.59-3.56s-.84-3-1.12-3.93.47-2.06,1.22-3.74-2.62-2.34-4.21-4.21.47-2.44.75-5.71-2.44-8-3.57-10.87-.27-2.15-.27-3.74-3.09-3.19-4.77-4.69-2-1.22-2.63-2.8.84-4.31,2-5.9a13.23,13.23,0,0,0,2.15-4.3c.37-1.07-1-3.47-1.77-4.41a8,8,0,0,1-1.22-3.94c-.1-1.22-2.06-1.77-2.8-3.27s2-1.22,2.89-1.3a3,3,0,0,0,1.88-.85c.56-.47,2.16.38,2.71.56s1-.85,1.4-1.6-1.49-2.05-2.24-2.62-.56-1-.56-2.24-.09-2.34.85-3S579.14,391,578,391s-.55-1.32,0-2.07-.55-.75-2.62-1.69-.93-1.49-.93-2.15-1.12-.09-2.16-.09.67-3.84.94-4.69,1.41-.46,2.25-.55a5.14,5.14,0,0,1,2.8.75c.85.47,2.72-1.5,3.56-2.44s2-.28,2.72-.28.18-3.27-.37-4.21.65-1.21,1.49-1.78-1.12-2.25-1.77-2.62.28-2.16.37-3.37,1-.57,1.78-.57,1-.84,1.4-2,3.09-2.62,3.74-3.47a4.93,4.93,0,0,0,1.14-3.27,5.71,5.71,0,0,0-1-3c-.56-.75,0-1,.29-1.59s-.47-.93-1-1.12-.83-1.13-.83-1.5-1.22-.57-2.07-.85-1-2.71-1.5-3.84-.47-1.3-1.31-1.87-.28-.65.1-1.4-2-1.69-2.9-2.06-1.79-.38-2.35-.85a1.37,1.37,0,0,0-1.26-.2s-.31-1.54.31-2,1.62-1.38,3-2.3,2.23-.54,2.54-1.61.77-2.62,1.3-2.86,1.23-1.3.85-2-.69-.69-1-1.54-.92-2.53-.61-3a3.41,3.41,0,0,0,.92-2.08c.24-1.45.16-3.08,1.07-3.3s1.93-.54,2.39-.23,1.23.77,1.84.38,1-1.18,1.85-1.23c1.56-.08,1.67-.69,3.1-.18s1.54.82,2.57.82,2,.61,2.87,0,1.64-1.33,2.46-1.23,1.23.3,2.36.41,1.74.51,2.46-.2,1.24-2.67,2.16-2.26a21,21,0,0,0,2.46.82h.12c0,.17,0,.34,0,.5,0,1.13-.62,2.77,1.13,2.06s2.15-.93,3.17-.93,1.41-.17,2.26.82c1.36,1.6,2,2.13,2.36,3.05s.47.77,1.08,1.62,1.45.69,1.69,1.69.38,1.92,1.07,2.15,3.16,2.16,2.38,2.7-2.68.85-1.61,1.84,1.54,1.61,1.07,2.16-3.53,3.07-2.75,3.84.76.68,1.61.23,1.38-2.15,2.23-.69,2.15,4.92,2.93,4.84,3-.69,3.22-1.38,0-2.08.92-1.85,1.54.15,1.23,1.38-.92,2.86-.07,2.86,1.14-.47,2,.22,2.77,2.08,2.46,2.69-1.14,1.16-.3,1.85,1.46.92,1.46,1.84-.38,2.08.31,2.77,3.62,3.69,2.61,3.85-1.76.15-1.38,1.07,1.54,2.32,2,1.7.47-2.31,1.55-1.84,1.61,1.23,1.31,2.15-1.92,5-.69,4.84.83-.62,2.46-.46,2.37.54,3.07.07,1.31-.92,1.76-.52,2.77,1.14,3.31.61,2.16-2.08,2.7-1.23,1.46,2.14,2.37,1.85,4.24-4.31,4.4-3.4.53,1.93,1.07,1.62.61-.07.61-1.08-.07-2.39.85-2.15,1.07.31,1.07,1.31-.07,2.15.54,2.76a3.14,3.14,0,0,0,2.32,1.08c1,0,2.46.24,2.46-.76s.31-2.93,1.3-2.78a9.52,9.52,0,0,0,2.54.23c.77-.07,3.85-2.08,4.77-1.23s1.38,1.85,2.3,1.23a5.52,5.52,0,0,1,3.24-1.14c1.38,0,4.61.07,4.31-.62s-1.39-2.31-.78-2.85,3.08-3,4-2.92a9.45,9.45,0,0,1,3.24.69,3.06,3.06,0,0,0,2.22.54c.77-.16.93-.85,1.85-.23s1.3,1.08,2,1.16,3.93-.62,4.54.3,1.54,1.38.85,1.92-2,1.85-1,2.16,3.92-.08,4.61.85,1.23,1.14.46,2.15-2.38,1.92-2.16,2.77,1.39,2.22,2,1.3,1.14-2.39,2.23-2.3,1.23,0,1.77,1.23.61,3.23,1.3,3.61,1.92.54,2,1.54a3.05,3.05,0,0,0,.93,2.38c.69.54,2.23,2.93,1.07,3.46s-3.92,1.08-4.23,2.31-1.07,2.61.31,2.38,1.92-.3,2.15.47.7,2.92.16,3.45-1.47.78-.78,1.85,1.7,2.23,2.55,1.77,1.69-2.62,2.84-1.68,1.85,1,1.85,1.68a4.47,4.47,0,0,0,.69,2c.31.53,4.15,2.46,4.92,1.76s1.77-2.46,2.62-2.7,1-.38,1,.7-.16,1.47.61,2.16,1.69.38,2.54,1.53,2.53.39,2,1.85-1.08,1.85-.54,2.7,1.07,1.92,1.77,1.3,1.76-2.15,2.76-2.69,1.55-1.54,1.77-.62.31,2,1.16,1.69,1.16.16,1.54-1,.38-2.3,1-2.77,1.09-.46,1.31-1.69-.38-3.61.7-3.31,2,1.16,3,.69.7-1.61,2.17-1.15,2.75,1.62,3.76.77,2.77-4.3,3.3-2.91.85,2.6,2,2.75,2.46-.61,3.85-.76,2.61.07,2.68-.38-1.23-1.93-.62-3.08,1.54-1.39,1.54-2.62.47-2.61-.45-2.77-1.7-.61-1.47-1.92-.23-4,1-3.85,3.31.85,3.54-.07-.3-2.85.69-3.15,2.08-.85,2.46-.31,2.32,1.84,2.54.92-.22-1.84.23-2.46,1.23-2.93,2.08-3.08,2.46.47,2.54-.61-.47-2.39.38-2.93,1.31-.15,1.54-1.23,0-2.46,1-3,2.23-.62,1.53.38a4.08,4.08,0,0,0-.91,2.31c0,.62.69,2,1.38,1.38s.15-1.54,1.3-1.77,2-.45,2.32-.92,1.61-4.08,3-4.69,3.22-.54,3.91-.85,1.92-.76,2.32-.53a7.46,7.46,0,0,1,1.68,2.3c.47.93,1,1,.54,1.85s-.92,1.84-.23,2.15,2.93.54,3.31,1.61a2.26,2.26,0,0,0,2.53,1.32c.62-.32,2.23-2.46,2.93-2.24a4.94,4.94,0,0,0,2.61.39c.85-.23,2-1.46,3-1.39s1.69-.07,2.54.78.92,1.07,1.77,1.3,1.77.46,2.15,1.38a26.19,26.19,0,0,1,.85,2.62c.24.77.93,1.92,1.47,1.76s1-.91,2-1.07,1.7-.16,2.31-.77,1.69-2.46,2.92-3.23,2.15-1.3,3.08.08,1.15,2.31,1.68,3,3.69,2.15,4.7,3.22a11.72,11.72,0,0,0,3.46,2.08c.46.24,2.08.93,2.15,1.39s.62,1.77,1.16,2,2.92.16,3.15,1,.69,2.91,1.85,3.29,4.07.47,5.92,2.16a9.41,9.41,0,0,0,3.45,2.15c.78.39,3,1.46,2.55,2.15s-1,1.47-.54,2a4.51,4.51,0,0,1,1,2.53c0,.93.54,1.62-.39,2.32s-1.53.53-1.84,1.68A5.36,5.36,0,0,0,874,396c.31,1.07.15,2.53,1,2.08s.08-1.08,1.54-1.08,2.76-.69,2.85.54.15,1.84.84,2.15,1.08.46,1.08,1.39A2,2,0,0,0,882.23,403Z"/><path class="cls-1" d="M674.51,156.09c0,1-.47,4.07-1.16,4.85s-2.39,2.6-1.84,4.07,1.07,1.54.3,2.23-1.93,1.84-.77,2,3,1.07,2.46,2-.69,1.92-1.38,2.31-1.7.69-2.08,1.54-.38,1.3-1.39,1.92-3.22,1.3-3.46,2.53.31,2.55-.45,3.55-1.54,2-2.46,1.3-2.24-1.39-3.15-.78-2.08.78-1.16,1.94,1.92.69,2,2.3-.69.85.08,1.62,1.62.76.77,1.69-2.22,1.3-1.3,1.61,2.69,1.3,1.68,2.15-2.15,1.62-2.22,2.93-.69,1.92.16,3.15,1.52,1.85,1.07,2.23-2,.54-1.69,1.46a9.33,9.33,0,0,1,.53,3c0,1.14-1.46,5.61-1.92,5.07s-1.23-1.92-2.15-1.92-2,.38-2.54-.55-.92-2.46-2.15-2-4.39,1.92-4.69,2.38.84,4.08-.09,3.69-2.46-1.69-3.6-1.61-3.85.08-4.54.92-.23,1.08-1.7,1.46-3.76.85-4.54,1.77-1.76,1.31-1.3,2.23,1.3,1.61,1.3,2.77a4.27,4.27,0,0,0,.39,2.46c.39.54,1.62,1.23.69,2s-2.15,1.52-.85,2.06,2.46-.3,2.77,1.09-.07,2.22,1,2.15,3.08.07,2.76.85-2.3,3-3.15,2.46-.84-.77-2.23-.47-3.31-.38-3.85.31-2.14,1.16-1.53,2.46,2.61,5.23,1.76,5.31-2.37.39-2.77,1.62-1.3,2.23.55,2.23,3.15-1.16,4.15-.16,1.85,3,.77,3.23-2-.08-2.46,1.15-.08,2.31-.85,2.62-1.61-.07-1.61.92.38,2-.24,2.08-1.38.24-1.46.69.32,1.92-.38,2-2.85.07-3.46,1-.69,3.61-1.23,3.77-.85.16-1.23.77l-.32.45c-.61.8-1.71,2-1.91,1.78a7.8,7.8,0,0,0-1.39-1.54c-.54-.39-2.3-1.08-3.15-1.62s-1.85-1.69-1.54-2.46.38-3.08-.77-2.3-2.3,1.39-2.85.69-.45-.46-.53-1.69,0-2-1.39-1.7-2.76.85-2.76.08-.47-1.38-.85-2.92c-.15-.62-3.15-2.62-3.84-3.53s-1.09-.47-1.93-.85.54-2.39,1.39-3.24-1.62-3.3-2.08-3.91-.08-.94-.08-1.85-5.3-1.39-6.22-1.23-1,1.76-1.16,2.46-3.08,0-3.62.08-.76.54-1.45,1.45-1.32-.69-2-1.61-1.84,1-3.07.92a5.9,5.9,0,0,0-3.31.92c-.84.54-.77,0-1.61-1s-2.16-.93-3-1.23-2,1.37-2.15,1.92a2.19,2.19,0,0,1-1.92,1.39c-1.16.14-1.61-.55-2-1.62s-1.23.62-2,1.07-.61-.84-1.3-2.22-1.85-1.16-3.08-1.63-2.55,1.78-3.31,2.39-1.54-1.07-2.08-2a3.63,3.63,0,0,1-.53-2c-.16-1.07-1.55.92-1.7,1.77s-.85.16-2.15-.16-.31-1.14.16-1.61-.85-1.23-1.7-1.3-1.77-1.07-3-1.23a22,22,0,0,1-4-1.39,5.37,5.37,0,0,0-2.23,0c-.85.08-1.3-1.31-2.39-2.69s-1.91,1.23-2.46,2.16-1.68.85-3.45,1-.93-1.3-.38-1.84-1.92-.85-2.86-.69-.62.22-1.85.76-.83-.61-.76-1.61-2.46-.69-4-.62-.85-.54-1.16-1.92-4.22,2.23-5.06,2.7a1.29,1.29,0,0,1-1.7-.09c-.62-.38-1.23.09-2.38,1s-2.93.7-4,.85a1.84,1.84,0,0,1-2-.85c-.24-.46-1.61-.15-2.77.23s-2.84-1-4.15-1.61-1.08.31-2.16.69-1.69-1.45-2.14-2.39-.16-.45.76-1.68-.54-1.16-1.08-1.61-1.21-.14-1.46,0q.08-.17.15-.36a22.85,22.85,0,0,1,.85-2.61c.27-.53,1.94-.4,3-.3s1.23.92,2,1.84,1.23-1.94,1.13-3.17a2.07,2.07,0,0,0-1.44-2.06c-.81-.31-.5-1.54-.81-3.17a26,26,0,0,0-.52-3.08,7,7,0,0,0-2.25-3.9c-1.84-1.75-.61-2.67-.42-3.69a9.42,9.42,0,0,1,2.06-3.48,16.73,16.73,0,0,0,2.36-3c.62-1.13.31-.92-.82-1.75s-1.14.52-1.85,1.34-1.13-.21-1.94-1.13,1.33-1.23,1.94-1.85-.1-1.32-1.33-2.05-.21-.92,0-1.74-1.84-3.18-2-3.9.3-.92,1.13-1.74.2-1.85-.31-3.08.72-1.64,1.23-2.56.51-.71,1.43-1.64-1.43-1.23-2-.72-1.23.21-2.06-.31.72-1.43,1.33-2a3.23,3.23,0,0,0,.83-1.85c.09-.51.71-.82,1.32-.92s.52-.92.83-2.15,1-.52,1.94-.52-.81-2-2.46-3.69-2-7.29-2.15-8.83-2.35-2.65-2.87-3.88-2.56-1.35-3.69-1.85a8.75,8.75,0,0,1-3.69-3.8c-.72-1.64-1.95-1.54-3.08-2.25s-.82-1.23-1.33-2.06-2.77-1.84-3.69-2.66-.31-1.65-.82-2.77-2.37.62-3.29,1.12a1.29,1.29,0,0,1-1.62-.39c.53-.37,1-.71,1.52-1,3.69-2.46,4.72-8.42,5.13-10.67s3.49-3.48,5.33-4.31,4.31,1.64,7,2.87.2-3.08-3.08-5.74-2.05-2.26-4.3-3.07.19-5.34.61-7a3.48,3.48,0,0,1,2.87-2.87c1.64-.41-.83-2.26-2.06-3.07s.21-4.31.62-7.39a37.53,37.53,0,0,1,2-8c.62-1.44,0-1.23-1-3.9s-1.23-3.91-1.23-7.6,1.64-7.17,2.25-11.48-.21-6.56-.82-9.23.61-2.25,3.08-2.86,5.74-5.14,7-6,10.06-4.71,12.92-5.12,14.77-2.67,17-3.08,7.8-3.28,9.65-3.69a57.73,57.73,0,0,1,8.81-.41c2.67,0,10.46-3.89,10.46-3.89A10.73,10.73,0,0,1,550.68,35c.16,1.53-.16,3.23.78,4.31s1.68,1.23,2.91,2.46,1.85,3.53,1.39,4.45-2.16,1.23-1.7,2.93,1.09,2.92.93,4-.78,1.55-.16,3.24.32,3.69,2,3.38,2.77-.76,4-.47,1.54,2.62,2.61,3.4,2.93,2,3.24,3.53.61,2.92,1.84,3.08,2.62-.62,4,.61,2.16,3.08,4.16,1.69,1.53-4.46,2.76-4.92,3.23-.62,4.92-1.38,1.85-.62,4-.93,3.37-2.3,4.76-1.53,2.92,3.38,3.24,4.61S595,69.64,597.75,70s4.61,2,4,3.08-1.54,2.15-1.23,3.69,2.62,6,2.62,7.22-.62,3.69.45,5.39,5.23,4.16,6.93,4.16a8.81,8.81,0,0,0,4.92-1.39c1.23-.92.91-2.15,2.76-2.15s2.93-.31,2.31,1.08-2,2.92-.14,2.76a29,29,0,0,1,5.07-.15,6.74,6.74,0,0,1,4.3,2.15c.62.93,1.85,1.39,1.85,3.53s.92,4.78.31,5.7a4.27,4.27,0,0,0-.16,3.69c.46,1.54,2.46,5.08,3.07,4s1.08-3.22,2.32-3.54,7.23-1.38,8-.46,2.32,2.46,4.31,1.69a41.29,41.29,0,0,1,6.3-1.53c1.55-.32,2.78-.46,3.4.46s1.84,2.91,3.07,3.23a3.6,3.6,0,0,1,2.76,3.08c.16,1.69.77,3.22,1.7,2.61s1.08-1.54,2.61-1.38a2,2,0,0,1,1.84,2.61c-.45.92-3.84,3.22-3.84,4.31a9.17,9.17,0,0,1-.61,4.3c-.77,1.54-2.32,4.31-.47,4s3.85-.92,3.85,0-.31,1.85.31,2.77,1.7,2.31.76,3.55-2.46,1.52-3.69,3.07a3.83,3.83,0,0,0-.91,3.23c0,.76-.93,2-.16,2.6s2.77.16,3.24,1.09,1.73,1.07,3.06,1.08c-.21.62-1.94,3.81-1.07,4.53S674.51,155.09,674.51,156.09Z"/><text class="cls-3" transform="translate(463.57 166.19)"><tspan class="cls-4">H</tspan><tspan class="cls-5" x="15.84" y="0">A</tspan><tspan x="30.56" y="0">U</tspan><tspan class="cls-6" x="45.14" y="0">T</tspan><tspan x="58.67" y="0">S-DE-FRANCE</tspan></text><text class="cls-3" transform="translate(278.16 269.11)">NORMANDIE</text><text class="cls-3" transform="translate(68.29 343.74)">BR<tspan class="cls-7" x="28.27" y="0">E</tspan><tspan class="cls-8" x="40.95" y="0">T</tspan><tspan x="53.35" y="0">AGNE</tspan></text><text class="cls-3" transform="translate(232.85 354.72)"><tspan class="cls-9">P</tspan><tspan class="cls-10" x="12.36" y="0">A</tspan><tspan class="cls-6" x="25.64" y="0">Y</tspan><tspan x="39.16" y="0">S DE </tspan><tspan class="cls-11" x="90.66" y="0">L</tspan><tspan x="102.86" y="0">A </tspan><tspan class="cls-12" x="123.28" y="0">L</tspan><tspan x="134.58" y="0">OIRE</tspan></text><text class="cls-3" transform="translate(383.58 427.26)">CENTRE-<tspan class="cls-13" x="91.47" y="0">V</tspan><tspan class="cls-14" x="105.14" y="0">AL DE </tspan><tspan class="cls-15" x="169.93" y="0">L</tspan><tspan x="181.23" y="0">OIRE</tspan></text><text class="cls-3" transform="translate(473.72 276.76)">LE-DE-FRANCE</text><text class="cls-3" transform="translate(748.74 299.21)">GRAND-ES<tspan class="cls-16" x="108.82" y="0">T</tspan></text><text class="cls-3" transform="translate(669.79 432.8)">BOURGOGNE<tspan x="-24.29" y="26.58">FRANCHE COMT</tspan></text><text class="cls-3" transform="translate(674.44 619.81)"><tspan class="cls-17">A</tspan><tspan x="14.72" y="0">UVERGNE</tspan><tspan x="-17.73" y="26.58">RHNE-ALPES</tspan></text><text class="cls-3" transform="translate(703.8 782.95)">PR<tspan class="cls-18" x="28.42" y="0">O</tspan><tspan x="43.48" y="0">VENCE-ALPES</tspan><tspan x="19.86" y="26.58">CTE D</tspan><tspan class="cls-8" x="95.71" y="26.58"></tspan><tspan x="99.5" y="26.58">AZURE</tspan></text><text class="cls-3" transform="translate(292.75 599.29)">NOUVELLE -AQUI<tspan class="cls-8" x="174.23" y="0">T</tspan><tspan x="186.64" y="0">AINE</tspan></text><text class="cls-3" transform="translate(454.81 796.53)">OCCI<tspan class="cls-8" x="50.73" y="0">T</tspan><tspan x="63.14" y="0">ANIE</tspan></text><text class="cls-19" transform="translate(908.55 878.76)">CORSE</text></svg>