<svg id="Calque_4" data-name="Calque 4" xmlns="http://www.w3.org/2000/svg" viewBox="0 0 1417.32 1417.32"><title>Plan de travail 1</title><path d="M845,361.7c6.69-12,8-22.72,18.72-32.09s42.79-26.73,49.47-14.7,29.43,69.52,36.1,53.48,20.06-36.1,24.07-26.75,20.06,25.41,24.07,20.06,5.36-21.39,21.4-28.08,10.69-13.37,26.73-10.69,33.44,12,33.44-1.35-4-32.09,9.35-29.41,13.37,4,34.77,4,57.49-2.68,58.82,10.7,9.37,34.75,22.74,26.73,20.06-17.38,34.77-12,44.12,21.4,38.76,30.76-41.44,28.08-29.41,38.78,33.42,17.38,28.08,28.08-16,18.71-9.35,29.41,21.39,21.39,33.42,14.71,41.44-21.4,42.79-14.71,25.4,25.4,33.42,37.43,17.38,25.41,13.37,33.44-9.35,45.45-13.37,53.48-28.08,29.41-25.4,46.8,22.72,30.74,13.37,40.11-20.06,21.39-22.74,9.35-13.37-32.09-26.73-33.42-37.45-1.35-28.08,10.69,16,30.76,4,34.77-12,9.35-20.06,18.72-20.06,32.09-6.69,37.43,40.11,26.75,22.74,34.77-50.81,4-60.17,12-20.06,20.06-14.71,32.09,14.71,41.44,8,44.12-24.07,13.37-38.78,12-37.43-4-37.43,8-5.34,30.74-12,38.76S1109.7,942,1108.36,950s0,29.41-18.72,36.1-40.11,0-52.15,5.34-26.73,13.38-41.44,13.38-42.79-1.35-42.79,13.37,10.7,28.08-4,34.77-26.73,25.4-38.76,17.38-28.08-14.71-32.09,1.33-16,13.38-18.72,37.45,0,36.1-9.35,38.76-37.45,9.37-42.79,13.38a72.85,72.85,0,0,0-10.7,10.69" fill="none" stroke="#4b6376" stroke-miterlimit="10" stroke-width="10"/><path d="M94.54,341c20.06,2,49.14,10,56.16,2s3-17,16-20.06,19.05-5,25.07-13,6-20.06,21.06-20.06,43.12-5,46.13-14-6-40.11,13-23.06,17,28.08,25.07,21.06,11-35.1,21.06-21.06,15,24.07,31.09,24.07,55.15,6,63.18-3,34.09-40.11,43.12-28.08,8,29.08,26.07,32.09,52.15,5,54.15,20.06,9,36.1,17,47.13,16,24.07,25.07,16,11-23.06,18.05-27.08,14-1,17-11,4-25.07,17-18.05,8,22.06,24.07,25.07,34.09,8,44.12,11,24.07,11,26.07,0,2-46.13,19.05-46.13,24.07-2,32.09,12,12,28.08,28.08,31.09,38.77,17,38.77,17" fill="none" stroke="#4b6376" stroke-miterlimit="10" stroke-width="10"/><path d="M94.54,341s0,24.07-5,28.08-16,8-11,17,13,15,6,19.05-21.06,16-12,19.05,59.16-6,63.18,4,10,31.09,18.05,26.07,28.08-18.05,37.1-12,5,12,5,26.07,8,54.15,15,56.16,32.09,15,31.09,25.07-9,26.07-8,39.11,10,12,12,29.08,4,28.08,13,32.09,18.05,6,27.08,13,30.08,16,25.07,22.06-23.06,4-28.08,2-32.09-11-25.07,5S282.07,716,278.05,720s-8,18.05-9,29.08,1,39.11,11,40.11,18.05-3,19.05,4,3,18.05,15,21.06,24.07,7,15,15-19.05,32.09-3,38.11" fill="none" stroke="#4b6376" stroke-miterlimit="10" stroke-width="10"/><path d="M798.56,1170.92c-11.61-4.23-21.48-19.88-16.2-30.44s-23.22-6.33-33.78-3.16-11.61-9.5-14.78-21.11-4.21-8.44-20.06-19-21.11-33.78-28.5-45.39-49.61,8.44-65.43,8.44-5.28-12.66,2.1-33.77-12.66-22.17-28.48-31.67-32.73-2.11-42.23,2.1-9.5,50.67-17.94,60.17-53.84,2.11-64.4,2.11-14.78,21.11-24.27,29.55-40.11-61.22-42.23-85.49-12.66-26.39-19-43.28-7.4-46.44-7.4-58.05-15.82-10.56-25.32-10.56-7.39-9.5-10.56-28.5-9.68-8.08-13.91,4.57" fill="none" stroke="#4b6376" stroke-miterlimit="10" stroke-width="10"/><path d="M371.2,561.38h11.17v77.09h36.95v9.37H371.2Z" fill="#4b6476"/><path d="M435.9,618.85c.25,15.26,10,21.53,21.29,21.53,8.08,0,13-1.41,17.19-3.2l1.93,8.08c-4,1.79-10.78,3.85-20.65,3.85-19.12,0-30.54-12.57-30.54-31.31s11-33.5,29.13-33.5c20.26,0,25.65,17.83,25.65,29.27a43.79,43.79,0,0,1-.38,5.26ZM469,610.77c.13-7.21-2.95-18.36-15.65-18.36-11.41,0-16.42,10.53-17.31,18.36Z" fill="#4b6476"/><path d="M521.51,562.38a131.77,131.77,0,0,1,21.44-1.66c11,0,19.12,2.57,24.24,7.18,4.75,4.11,7.57,10.4,7.57,18.11s-2.3,14-6.67,18.46c-5.89,6.3-15.51,9.5-26.42,9.5a37.43,37.43,0,0,1-9-.78v34.66H521.51Zm11.17,41.71a38.25,38.25,0,0,0,9.23.88c13.48,0,21.69-6.52,21.69-18.46,0-11.41-8.08-16.92-20.4-16.92a47.72,47.72,0,0,0-10.51.88Z" fill="#4b6476"/><path d="M639.45,630.88c0,6.42.13,12.06.5,17H630l-.64-10.15H629a23.33,23.33,0,0,1-20.53,11.56c-9.75,0-21.42-5.39-21.42-27.2V585.73h11.3v34.41c0,11.78,3.59,19.74,13.85,19.74,7.57,0,12.83-5.26,14.88-10.28a16.33,16.33,0,0,0,1-5.77V585.73h11.3Z" fill="#4b6476"/><path d="M662.33,585.73l13.6,36.7c1.41,4.11,2.94,9,4,12.69h.27c1.14-3.7,2.43-8.46,4-12.94l12.31-36.45h11.92L691.44,630c-8.08,21.28-13.6,32.18-21.29,38.86a30.28,30.28,0,0,1-13.85,7.3l-2.82-9.46a30.11,30.11,0,0,0,9.87-5.51,34.18,34.18,0,0,0,9.5-12.6,7.9,7.9,0,0,0,.89-2.7,9.79,9.79,0,0,0-.77-2.95l-23-57.22Z" fill="#4b6476"/><path d="M744.32,608.95v8.34H712.64v-8.34Z" fill="#4b6476"/><path d="M342.06,739.19c.25,15.26,10,21.53,21.29,21.53,8.08,0,13-1.41,17.19-3.2l1.93,8.08c-4,1.79-10.78,3.85-20.65,3.85-19.12,0-30.54-12.57-30.54-31.31s11-33.5,29.13-33.5c20.26,0,25.65,17.83,25.65,29.27a44.26,44.26,0,0,1-.38,5.26Zm33.09-8.08c.13-7.21-2.95-18.36-15.65-18.36-11.41,0-16.42,10.53-17.31,18.36Z" fill="#4b6476"/><path d="M400.08,722.89c0-6.42-.13-11.69-.52-16.83h10l.63,10.28h.27c3.07-5.89,10.26-11.69,20.53-11.69,8.59,0,21.94,5.14,21.94,26.45v37.07h-11.3V732.39c0-10-3.71-18.36-14.37-18.36a16.06,16.06,0,0,0-15.14,11.56,16.47,16.47,0,0,0-.77,5.23v37.35H400.08Z" fill="#4b6476"/><path d="M497.49,729.28v8.34H465.81v-8.34Z" fill="#4b6476"/><path d="M528.69,768.17l-28.22-86.46h12L526,724.3c3.73,11.66,6.93,22.19,9.24,32.31h.25c2.45-10,6-20.9,9.87-32.18L560,681.71h11.92L541,768.17Z" fill="#4b6476"/><path d="M583,739.19c.25,15.26,10,21.53,21.29,21.53,8.08,0,13-1.41,17.19-3.2l1.93,8.08c-4,1.79-10.78,3.85-20.65,3.85-19.12,0-30.54-12.57-30.54-31.31s11-33.5,29.13-33.5c20.26,0,25.65,17.83,25.65,29.27a44.13,44.13,0,0,1-.38,5.26Zm33.09-8.08c.13-7.21-2.95-18.36-15.65-18.36-11.41,0-16.42,10.53-17.31,18.36Z" fill="#4b6476"/><path d="M641,677.07h11.28v91.1H641Z" fill="#4b6476"/><path d="M705.68,768.17l-.89-7.83h-.39a23.11,23.11,0,0,1-19,9.24c-12.57,0-19-8.87-19-17.83,0-15,13.33-23.22,37.32-23.1v-1.28c0-5.14-1.41-14.38-14.12-14.38a31,31,0,0,0-16.15,4.64l-2.57-7.46c5.14-3.32,12.58-5.52,20.4-5.52,19,0,23.6,13,23.6,25.41v23.22a87.46,87.46,0,0,0,1,14.88ZM704,736.49c-12.31-.28-26.31,1.91-26.31,14,0,7.3,4.87,10.78,10.65,10.78a15.47,15.47,0,0,0,15-10.4,12.16,12.16,0,0,0,.64-3.61Z" fill="#4b6476"/><path d="M736.25,706.06l13.6,36.7c1.41,4.11,2.95,9,4,12.69h.27c1.14-3.7,2.43-8.46,4-12.94l12.32-36.45H782.3l-16.94,44.28c-8.08,21.28-13.6,32.18-21.29,38.86a30.28,30.28,0,0,1-13.85,7.3L727.4,787a30.12,30.12,0,0,0,9.87-5.51,34.18,34.18,0,0,0,9.5-12.6,7.91,7.91,0,0,0,.89-2.7,9.81,9.81,0,0,0-.77-2.95l-23-57.22Z" fill="#4b6476"/><path d="M657.62,410.08v39h19.79v-39h18.93v97.36H677.41V466.71H657.62v40.74H638.71V410.08Z" fill="#d37336"/><path d="M743,507.45l-1-6.92h-.28a18.45,18.45,0,0,1-15.61,8.08c-10.69,0-18.63-9-18.63-21.53,0-18.49,16.33-26.14,32.36-26.29v-1.6c0-5.48-3.32-9.53-10-9.53a26.48,26.48,0,0,0-14.45,4L711.92,441c3.9-2.29,12.13-5.33,22-5.33,21.53,0,25,15,25,29.33v26.29A93.64,93.64,0,0,0,760,507.45Zm-2.6-34.38c-6.36.13-15,2.16-15,12,0,7.08,3.9,9.68,6.8,9.68a8.22,8.22,0,0,0,7.79-6,12.19,12.19,0,0,0,.44-3.32Z" fill="#d37336"/><path d="M824,485.92c0,7.52.3,14.89.58,21.53H808.25l-1-7.52h-.28a20,20,0,0,1-16.33,8.68c-13.43,0-18.93-10-18.93-29V436.81h19.07v40.74c0,9.24,1.74,15.17,7.08,15.17,3.18,0,5.2-2.48,6.06-4.8a14.12,14.12,0,0,0,1.16-6V436.81H824Z" fill="#d37336"/><path d="M859.8,417.73v19.09h13.87v13.41H859.8v32.21c0,8.24,3.46,10.28,7.22,10.28a26.28,26.28,0,0,0,4.9-.44l.14,14.73a44.77,44.77,0,0,1-11.55,1.29c-5.48,0-10.26-1.29-13.58-4.45-3.9-3.76-6.06-9.12-6.06-20.24V450.22h-8.38V436.81h8.38v-14.6Z" fill="#d37336"/><path d="M897.34,478.84c.28,11,6.64,15,15,15a41.58,41.58,0,0,0,13.43-2.29l2.6,13.57a58.6,58.6,0,0,1-19.51,3.17c-19.21,0-29.75-12.69-29.75-34.78,0-23.69,12.28-37.86,28.31-37.86,15.17,0,24,12,24,33.37a50.71,50.71,0,0,1-.58,9.81Zm16.89-13.29c0-9.09-2.3-16.17-7.94-16.17-6.2,0-8.67,9.09-8.81,16.17Z" fill="#d37336"/><path d="M970.1,460.79v13.57H941.37V460.79Z" fill="#d37336"/><path d="M982.81,410.08h18.91V491.4h25v16h-43.9Z" fill="#d37336"/><path d="M1086.79,471.91c0,29.46-16.33,36.7-27,36.7-16.89,0-27-13.29-27-36.26,0-25.45,13.29-36.7,27.31-36.7C1076.68,435.65,1086.79,449.66,1086.79,471.91Zm-35.24,0c0,12.13,1.88,22.25,8.66,22.25,6.06,0,7.66-11.85,7.66-22.25,0-9.68-1.6-22-8-22C1053,449.94,1051.55,462.23,1051.55,471.91Z" fill="#d37336"/><path d="M1116.39,418a9.64,9.64,0,0,1-10,10.25c-5.2,0-9.54-4.2-9.4-10.25-.14-6.36,4.48-10.28,9.68-10.28C1112.19,407.76,1116.39,411.68,1116.39,418Zm-18.93,89.4V436.81h18.93v70.63Z" fill="#d37336"/><path d="M1129.52,458c0-7.08-.3-14.73-.58-21.22h16.47l1,10.25h.44c3.18-7.52,8.81-11.41,14-11.41a16.21,16.21,0,0,1,4,.28v18.77a17.41,17.41,0,0,0-4-.28c-4,0-9.39,2.76-11.55,10.12a28.27,28.27,0,0,0-.72,7.08v35.82h-19.07Z" fill="#d37336"/><path d="M1187.29,478.84c.28,11,6.64,15,15,15a41.58,41.58,0,0,0,13.43-2.29l2.6,13.57a58.53,58.53,0,0,1-19.51,3.17c-19.21,0-29.75-12.69-29.75-34.78,0-23.69,12.28-37.86,28.31-37.86,15.17,0,24,12,24,33.37a50.75,50.75,0,0,1-.58,9.81Zm16.91-13.29c0-9.09-2.32-16.17-8-16.17-6.21,0-8.67,9.09-8.81,16.17Z" fill="#d37336"/><path d="M863.9,551.88c-8.38,13.16-15.31,31.93-15.31,58.94,0,26.14,6.92,44.78,15.31,58.35H850.32c-8.09-10.84-16.61-30.62-16.61-58.51.58-28.17,8.52-47.82,16.61-58.79Z" fill="#d37336"/><path d="M900.14,651.85V629.44H867.93v-13L898.7,558h18.21v56.31h9.38v15.17h-9.38v22.41Zm0-37.57V595.07c0-5,.58-10.53,1-15.45h-.58c-2.16,5.2-4,9.4-6.5,14.6L884,614v.28Z" fill="#d37336"/><path d="M934.07,633.92a29.31,29.31,0,0,0,14,3.61c9.09,0,14.15-5.61,14.15-13.57,0-10.4-7.94-14.89-17.63-14.89H942V595.22h1.88c6.94-.16,15.89-3,15.89-12.13,0-6.8-4.33-10.84-11-10.84A23,23,0,0,0,937,576l-2.46-14.29c3.9-2.48,11.56-4.92,19.35-4.92,16.47,0,24.71,10.69,24.71,22.66a22.89,22.89,0,0,1-13.44,21.09v.31c9.1,3,16,11.13,16,23.82,0,14.32-11,28.33-31.35,28.33-7.65,0-14.29-1.88-18.49-4.2Z" fill="#d37336"/><path d="M991.84,669.18c8.37-13.29,15.31-32.65,15.31-58.94s-6.94-45.06-15.31-58.35h13.57c8.1,10.56,16.61,29.77,16.61,58.35-.56,28.61-8.51,47.66-16.61,58.94Z" fill="#d37336"/><path d="M894,751.28a30.09,30.09,0,1,1-30.09-30.09A30.08,30.08,0,0,1,894,751.28Z" fill="#8ab43c" stroke="#8ab43c" stroke-width="10"/></svg>