<svg id="Calque_4" data-name="Calque 4" xmlns="http://www.w3.org/2000/svg" viewBox="0 0 2267.72 1417.32"><title>Plan de travail 1</title><path d="M915.48,718v-8.78a7.68,7.68,0,0,1,7.93-7.94h11.72c11.7,0,19.64-5.44,19.64-47.65,0-40.12-9.2-46.39-21.74-46.39-18.39,0-21.31,17.55-20.06,38,.41,8.78-2.1,13.8-8.36,13.8h-10c-5.44,0-10.46-2.93-10.46-11.29,0-51,16.72-66.87,50.16-66.87,31.34,0,50.57,20.9,50.57,72.72,0,31.76-8.36,49.74-20.49,58.93,14.21,9.62,23.41,29.25,23.41,64.78,0,58.09-22.15,76.49-53.5,76.49-33.44,0-50.16-16.31-50.16-71.47,0-8.36,5-11.29,10.46-11.29h10c6.26,0,8.77,5,8.36,13.8-1.25,24.66,2.51,42.63,20.9,42.63,14.62,0,23.82-4.18,23.82-50.15S948.08,726,935.12,726H923.41A7.68,7.68,0,0,1,915.48,718Z" fill="#fff"/><path d="M1010.79,717.2c0-112.84,18.82-136.24,53.5-136.24s53.5,23.4,53.5,136.24-18.8,136.67-53.5,136.67S1010.79,830.05,1010.79,717.2Zm76.91,0c0-99.89-8.36-109.08-23.41-109.08s-23.4,9.19-23.4,109.08,8.36,109.5,23.4,109.5S1087.7,817.09,1087.7,717.2Z" fill="#fff"/><path d="M1137,644.91c0-43.47,13.8-65.62,41.39-65.62,28.41,0,41.37,22.15,41.37,65.62,0,43-13,65.61-41.37,65.61C1150.83,710.52,1137,688,1137,644.91Zm17.56,198.52,117.43-252c2.1-4.6,5.87-7.95,10.46-7.95h8.36c4.59,0,7.52,3.35,5.44,7.95l-117.45,252c-2.08,4.59-5.85,7.94-10.44,7.94H1160C1155.44,851.36,1152.49,848,1154.59,843.42Zm40.54-198.52c0-28.43-2.92-43-16.72-43-13.38,0-16.72,14.62-16.72,43,0,28,3.34,43,16.72,43C1192.21,688,1195.14,672.9,1195.14,644.91Zm35.93,145c0-43.47,13.8-65.62,41.39-65.62,28.42,0,41.37,22.15,41.37,65.62,0,43-13,65.61-41.37,65.61C1244.86,855.54,1231.07,833,1231.07,789.93Zm58.11,0c0-28.43-2.94-43-16.72-43-13.38,0-16.72,14.62-16.72,43,0,28,3.34,43,16.72,43C1286.23,833,1289.17,817.93,1289.17,789.93Z" fill="#fff"/><path d="M1098.38,1228.47c-276.8,0-502-225.2-502-502s225.2-502,502-502,502,225.2,502,502S1375.18,1228.47,1098.38,1228.47Zm0-968.77C841,259.7,631.61,469.09,631.61,726.47S841,1193.25,1098.38,1193.25s466.77-209.39,466.77-466.77S1355.76,259.7,1098.38,259.7Z" fill="#93caeb"/><path d="M1651.19,906.46l-184.22-60a387.07,387.07,0,0,0,18.92-120c0-213.67-173.83-387.51-387.51-387.51V145.21c320.51,0,581.26,260.75,581.26,581.26A580.15,580.15,0,0,1,1651.19,906.46Z" fill="#fff"/></svg>