<svg id="Calque_2" data-name="Calque 2" xmlns="http://www.w3.org/2000/svg" viewBox="0 0 560.74 560.93"><defs><style>.cls-1{fill:#496174;}.cls-2{fill:#ee7626;}</style></defs><title>icon-porcentage-precarite3</title><path class="cls-1" d="M191.4,218.88h35.41a3.47,3.47,0,0,1,3.59,3.59v4.92a3.48,3.48,0,0,1-3.59,3.6H201.06v34.07c1.7-1.89,6.43-3.59,9.85-3.59,14.57,0,20.44,12.3,20.44,39.94s-6.25,39.94-22.91,39.94c-17.79,0-22.72-10.79-22.72-30.29,0-3.78,2.28-5.11,4.74-5.11H195c2.84,0,4,2.28,3.79,6.25-.38,5.87-1.52,17.41,9.08,17.41,6.25,0,10.61-4.34,10.61-28.2,0-23.66-3.41-28.59-10.42-28.59-6.43,0-9.08,5.31-9.08,11.36,0,3.6-.76,5.68-3.41,5.68h-3.22c-2.27,0-4.55-1.13-4.55-4.54V222.47A3.48,3.48,0,0,1,191.4,218.88Z"/><path class="cls-1" d="M253,279.83v-4a3.48,3.48,0,0,1,3.59-3.6h5.3c5.3,0,8.9-2.45,8.9-21.57,0-18.18-4.17-21-9.85-21-8.32,0-9.65,8-9.08,17.22.19,4-.95,6.25-3.79,6.25h-4.54c-2.46,0-4.74-1.33-4.74-5.12,0-23.09,7.58-30.28,22.72-30.28,14.2,0,22.91,9.47,22.91,32.94,0,14.38-3.79,22.53-9.28,26.69,6.44,4.35,10.6,13.25,10.6,29.34,0,26.32-10,34.64-24.23,34.64-15.14,0-22.72-7.38-22.72-32.37,0-3.78,2.28-5.11,4.74-5.11H248c2.84,0,4,2.28,3.79,6.25-.57,11.16,1.14,19.31,9.47,19.31,6.62,0,10.79-1.9,10.79-22.72s-4.36-23.28-10.23-23.28h-5.3A3.47,3.47,0,0,1,253,279.83Z"/><path class="cls-1" d="M293.09,246.7c0-19.69,6.25-29.72,18.74-29.72,12.87,0,18.74,10,18.74,29.72,0,19.5-5.87,29.72-18.74,29.72C299.34,276.42,293.09,266.2,293.09,246.7Zm8,89.92,53.19-114.15c.95-2.08,2.65-3.59,4.74-3.59h3.79c2.08,0,3.4,1.51,2.46,3.59L312,336.62c-.94,2.09-2.65,3.6-4.73,3.6H303.5C301.42,340.22,300.09,338.71,301,336.62Zm18.37-89.92c0-12.87-1.33-19.49-7.58-19.49-6.06,0-7.57,6.62-7.57,19.49,0,12.68,1.51,19.5,7.57,19.5C318.08,266.2,319.41,259.38,319.41,246.7Zm16.27,65.69c0-19.69,6.25-29.72,18.75-29.72,12.87,0,18.74,10,18.74,29.72,0,19.5-5.87,29.72-18.74,29.72C341.93,342.11,335.68,331.89,335.68,312.39Zm26.32,0c0-12.87-1.33-19.5-7.57-19.5-6.06,0-7.57,6.63-7.57,19.5,0,12.68,1.51,19.5,7.57,19.5C360.67,331.89,362,325.07,362,312.39Z"/><path class="cls-1" d="M277.94,510C152.57,510,50.56,408,50.56,282.65s102-227.38,227.38-227.38,227.38,102,227.38,227.38S403.32,510,277.94,510Zm0-438.8c-116.58,0-211.42,94.85-211.42,211.43s94.84,211.42,211.42,211.42,211.42-94.84,211.42-211.42S394.52,71.22,277.94,71.22Z"/><path class="cls-2" d="M277.94,545.93a265.29,265.29,0,0,1-49.31-4.62L245,455.09a176.88,176.88,0,0,0,32.92,3.08c96.78,0,175.52-78.74,175.52-175.52S374.72,107.13,277.94,107.13V19.36c145.18,0,263.28,118.11,263.28,263.29S423.12,545.93,277.94,545.93Z"/></svg>