<svg xmlns="http://www.w3.org/2000/svg" viewBox="0 0 1417.32 1417.32"><title>Plan de travail 1</title><g id="Calque_2" data-name="Calque 2"><rect id="_Tracé_" data-name="&lt;Tracé&gt;" x="489.14" y="927.66" width="43.55" height="39.93" fill="#2264aa"/><path id="_Tracé_2" data-name="&lt;Tracé&gt;" d="M532.69,248a19.93,19.93,0,0,0-19.91-19.92H509A19.93,19.93,0,0,0,489.14,248V906.22h43.55Z" fill="#2264aa"/><path id="_Tracé_3" data-name="&lt;Tracé&gt;" d="M896.76,644.92A19.93,19.93,0,0,0,876.84,625h-3.73a19.93,19.93,0,0,0-19.91,19.92v9.26h43.55Z" fill="#d47436"/><polygon id="_Tracé_4" data-name="&lt;Tracé&gt;" points="618.02 1070.18 632.87 1228.06 685.51 1228.06 660.77 1070.18 618.02 1070.18" fill="#2264aa"/><polygon id="_Tracé_5" data-name="&lt;Tracé&gt;" points="489.45 1070.18 484.5 1228.06 537.32 1228.06 532.37 1070.18 489.45 1070.18" fill="#2264aa"/><polygon id="_Tracé_6" data-name="&lt;Tracé&gt;" points="682.68 1070.18 707.42 1228.06 759.86 1228.06 725.22 1070.18 682.68 1070.18" fill="#2264aa"/><polygon id="_Tracé_7" data-name="&lt;Tracé&gt;" points="553.82 1070.18 558.76 1228.06 611.54 1228.06 596.69 1070.18 553.82 1070.18" fill="#2264aa"/><polygon id="_Tracé_8" data-name="&lt;Tracé&gt;" points="747.17 1070.18 781.8 1228.06 833.96 1228.06 789.42 1070.18 747.17 1070.18" fill="#2264aa"/><polygon id="_Tracé_9" data-name="&lt;Tracé&gt;" points="410.28 1228.06 463.06 1228.06 468 1070.18 425.13 1070.18 410.28 1228.06" fill="#2264aa"/><polygon id="_Tracé_10" data-name="&lt;Tracé&gt;" points="247.81 1070.18 232.4 1070.18 187.87 1228.06 240.02 1228.06 274.66 1070.18 247.81 1070.18" fill="#2264aa"/><path id="_Tracé_11" data-name="&lt;Tracé&gt;" d="M795.71,1070.19h278.46c34.8,0,65.74,17.77,77,44.22a10.85,10.85,0,0,0,.61,1.21l65.63,112.45h-10.86l-110.94-58.67a94.86,94.86,0,0,0-44.16-11h-235l-24.89-88.25Z" fill="#d47436"/><path id="_Tracé_12" data-name="&lt;Tracé&gt;" d="M1085.56,1188.34l75.1,39.72H836.09l-13.59-48.19h228.92A73.33,73.33,0,0,1,1085.56,1188.34Z" fill="#d47436"/><polygon id="_Tracé_13" data-name="&lt;Tracé&gt;" points="296.61 1070.18 261.97 1228.06 314.41 1228.06 339.15 1070.18 296.61 1070.18" fill="#2264aa"/><path id="_Tracé_14" data-name="&lt;Tracé&gt;" d="M805.13,1048.75v-3.11A56.67,56.67,0,0,0,748.53,989H273.29a56.67,56.67,0,0,0-56.6,56.61v3.11H805.13Z" fill="#2264aa"/><polygon id="_Tracé_15" data-name="&lt;Tracé&gt;" points="336.11 1228.06 388.75 1228.06 403.6 1070.18 360.85 1070.18 336.11 1228.06" fill="#2264aa"/><rect id="_Tracé_16" data-name="&lt;Tracé&gt;" x="853.21" y="667.37" width="43.55" height="402.57" fill="#d47436"/></g></svg>