<svg id="Calque_2" data-name="Calque 2" xmlns="http://www.w3.org/2000/svg" viewBox="0 0 1417.32 1417.32"><title>Plan de travail 1</title><path d="M726.28,1212.38H284.91a97,97,0,0,1-68.23-27.94,94.89,94.89,0,0,1-28.55-67.79V277.2c0-23.91,9-45.64,21.52-62.07,15.72-20.64,38.32-33.65,57.52-33.65H442.58l-6.38,30.91a65.1,65.1,0,0,0-1,6.48c-.17,1.67-.26,3.8-.26,6.41A57.5,57.5,0,0,0,452.63,267a64.22,64.22,0,0,0,44.8,17.56H729.3c17.65,0,33.51-6.67,44.82-17.7a59,59,0,0,0,17.65-42.65h.1a58.69,58.69,0,0,0-.35-6c-.23-2.24-.53-4.21-.88-5.95l-6.21-30.81H924.07c33.54,0,60.57,9.36,79.94,24.63,22.64,17.84,34.61,43.1,34.61,71.1V811.12a281.94,281.94,0,0,0-51.55-6.52V277.2a38.18,38.18,0,0,0-14.87-30.62c-10.66-8.4-26.82-13.55-48.13-13.55H843a109.93,109.93,0,0,1-33,70.69,115,115,0,0,1-80.65,32.4H497.43A115.55,115.55,0,0,1,417,304a108.67,108.67,0,0,1-33.3-71H267.16c-3.92,0-10.43,5.15-16.64,13.32a51.53,51.53,0,0,0-10.85,30.86v839.46a43.55,43.55,0,0,0,13,31.14,45.68,45.68,0,0,0,32.19,13H706.37a279.9,279.9,0,0,0,19.9,51.55Z" fill="#2064ab"/><path d="M703.51,179.56H682.25A46.62,46.62,0,0,1,650,166.65v-.1a44.78,44.78,0,0,1-14.08-32.43v-.67A19,19,0,0,0,630,119.72l-.05.05a23.12,23.12,0,0,0-16.06-6.23h-1.1a23.06,23.06,0,0,0-16.05,6.13,19,19,0,0,0-5.94,13.78v.66a44.78,44.78,0,0,1-14.08,32.44,46.68,46.68,0,0,1-32.26,13v-.1H523.23v.1A16.22,16.22,0,0,0,512,183.9a12.57,12.57,0,0,0-4,9.1v.8a12.57,12.57,0,0,0,4,9.1,16.21,16.21,0,0,0,11.28,4.34H703.51A16.18,16.18,0,0,0,714.78,203a12.69,12.69,0,0,0,4-9.21V193a12.69,12.69,0,0,0-4-9.21,16.21,16.21,0,0,0-11.27-4.34v.1ZM687.25,128h16.27v.1a67.46,67.46,0,0,1,46.71,18.63A63.85,63.85,0,0,1,770.28,193v.8a63.84,63.84,0,0,1-20.06,46.25,67.5,67.5,0,0,1-46.71,18.74H523.23a67.47,67.47,0,0,1-46.71-18.64,64,64,0,0,1-20.06-46.35V193a64,64,0,0,1,20.06-46.35A67.47,67.47,0,0,1,523.23,128v.1h16.26a70.4,70.4,0,0,1,21.84-45.5A74.4,74.4,0,0,1,612.82,62h1.1a74.37,74.37,0,0,1,51.5,20.53v.1A70.41,70.41,0,0,1,687.25,128Z" fill="#2064ab"/><path d="M876.43,1065.29A25.77,25.77,0,0,0,840,1101.74l77.32,77.32h0a25.77,25.77,0,0,0,36.45,0l.14-.15,154.49-154.49A25.77,25.77,0,1,0,1071.94,988L935.53,1124.39l-59.1-59.1Z" fill="#d47437"/><path d="M394.3,465a25.77,25.77,0,0,0,0,51.55H832.43a25.77,25.77,0,0,0,0-51.55Z" fill="#2064ab"/><path d="M394.3,645.38a25.77,25.77,0,1,0,0,51.55H832.43a25.77,25.77,0,1,0,0-51.55Z" fill="#2064ab"/><path d="M394.3,825.79a25.77,25.77,0,1,0,0,51.55H788.56a281.1,281.1,0,0,1,62.91-43.15,25.71,25.71,0,0,0-19-8.39Z" fill="#2064ab"/><path d="M394.3,1006.2a25.77,25.77,0,0,0,0,51.55H697.59a280.83,280.83,0,0,1,10-51.55Z" fill="#2064ab"/><path d="M977.5,881.75a204,204,0,1,0,144.23,59.74A203.33,203.33,0,0,0,977.5,881.75ZM796.83,905A255.51,255.51,0,1,1,722,1085.72,254.71,254.71,0,0,1,796.83,905Z" fill="#d47437"/></svg>