<svg id="Calque_2" data-name="Calque 2" xmlns="http://www.w3.org/2000/svg" viewBox="0 0 560.74 560.93"><defs><style>.cls-1{fill:#496174;}.cls-2{fill:#ee7626;}</style></defs><title>icon-porcentage-precarite1</title><path class="cls-1" d="M239.92,309.39c0,24.38-8.87,33.8-23.27,33.8s-23.27-9.42-23.27-33.8c0-15.51,4.06-24.38,10.34-28.63-5.36-4.06-9.05-12-9.05-26,0-22.72,8.5-32.14,22-32.14s22,9.24,22,32.14c0,14-3.69,22-9.05,26C235.85,285,239.92,293.69,239.92,309.39Zm-13.3,0c0-20.31-4.25-22.71-10-22.71s-10,2.4-10,22.71,4.24,22.72,10,22.72S226.62,329.7,226.62,309.39Zm-1.3-54.66c0-18.65-3.5-21.06-8.67-21.06S208,236.08,208,254.73s3.5,21,8.68,21S225.32,273.38,225.32,254.73Z"/><path class="cls-1" d="M258.22,342.08h-6.1a3.2,3.2,0,0,1-3.32-3.32,36.7,36.7,0,0,1,1.48-7.39l24.93-95.85H247.88a3.41,3.41,0,0,1-3.52-3.51v-4.8a3.41,3.41,0,0,1,3.52-3.51h37.3A3.2,3.2,0,0,1,288.5,227v4.43a33.29,33.29,0,0,1-1.1,5.92L261.91,338.94C261.36,341,260.25,342.08,258.22,342.08Z"/><path class="cls-1" d="M292.94,250.84c0-19.2,6.1-29,18.29-29,12.56,0,18.28,9.79,18.28,29,0,19-5.72,29-18.28,29C299,279.84,292.94,269.87,292.94,250.84Zm7.76,87.73,51.89-111.36c.93-2,2.6-3.51,4.63-3.51h3.69c2,0,3.32,1.48,2.4,3.51l-51.9,111.36c-.92,2-2.58,3.51-4.61,3.51h-3.7C301.07,342.08,299.78,340.6,300.7,338.57Zm17.92-87.73c0-12.55-1.29-19-7.39-19-5.91,0-7.39,6.46-7.39,19,0,12.38,1.48,19,7.39,19C317.33,269.87,318.62,263.22,318.62,250.84Zm15.88,64.09c0-19.21,6.09-29,18.28-29,12.56,0,18.29,9.78,18.29,29,0,19-5.73,29-18.29,29C340.59,343.93,334.5,334,334.5,314.93Zm25.67,0c0-12.56-1.3-19-7.39-19-5.91,0-7.38,6.46-7.38,19,0,12.37,1.47,19,7.38,19C358.87,334,360.17,327.3,360.17,314.93Z"/><path class="cls-1" d="M278.57,514.93c-125.72,0-228-102.29-228-228s102.28-228,228-228,228,102.28,228,228S404.29,514.93,278.57,514.93Zm0-440c-116.9,0-212,95.1-212,212s95.1,212,212,212,212-95.11,212-212S395.47,74.93,278.57,74.93Z"/><path class="cls-2" d="M279.47,545.93c-144.33,0-261.75-117.42-261.75-261.75A260.76,260.76,0,0,1,88.67,105l63.59,59.74A173.85,173.85,0,0,0,105,284.18c0,96.22,78.28,174.5,174.5,174.5S454,380.4,454,284.18s-78.28-174.5-174.5-174.5V22.43c144.33,0,261.75,117.42,261.75,261.75S423.8,545.93,279.47,545.93Z"/></svg>