<svg id="Calque_1" data-name="Calque 1" xmlns="http://www.w3.org/2000/svg" viewBox="0 0 1417.32 1417.32"><title>Plan de travail 1</title><path d="M767.37,367.19a527.1,527.1,0,0,0-115.61,0c-260.57,28.87-463.9,250.4-463.9,518.52,0,139.34,54.28,270.36,152.81,368.89s229.55,152.81,368.89,152.81,270.34-54.28,368.89-152.81q11.73-11.73,22.63-24.07c84.18-95.32,130.18-216.55,130.18-344.82C1231.26,617.59,1027.94,396.06,767.37,367.19Zm269.37,806.65c-80,90.7-197,148-327.17,148-240.5,0-436.16-195.65-436.16-436.15S469.06,449.56,709.57,449.56s436.15,195.65,436.15,436.16A434.32,434.32,0,0,1,1036.74,1173.85Z" fill="#2064ab"/><path d="M709.57,493.21v392.5l294.54,259.41a390.94,390.94,0,0,0,98-259.41C1102.07,668.94,926.34,493.21,709.57,493.21Z" fill="#d47437"/><path d="M612.46,209.84a107,107,0,1,1,194.21,0A64.44,64.44,0,0,1,825.22,250a142.71,142.71,0,0,0,28-85.06c0-79.21-64.43-143.64-143.64-143.64S565.92,85.75,565.92,165a142.71,142.71,0,0,0,28,85.06A64.43,64.43,0,0,1,612.46,209.84Z" fill="#2064ab"/><path d="M651.76,317.31V350a535.54,535.54,0,0,1,115.61,0V317.31H651.76Z" fill="#2064ab"/><path d="M805.4,271.85a46.51,46.51,0,0,0,3-16.45,47.65,47.65,0,0,0-47.58-47.59H658.36a47.64,47.64,0,0,0-47.58,47.59,46.51,46.51,0,0,0,3,16.45,47.66,47.66,0,0,0,38,30.67,45.27,45.27,0,0,0,6.6.46H760.77a45.32,45.32,0,0,0,6.6-.46A47.67,47.67,0,0,0,805.4,271.85Z" fill="#2064ab"/></svg>