<svg id="Calque_2" data-name="Calque 2" xmlns="http://www.w3.org/2000/svg" viewBox="0 0 2267.72 1417.32"><title>Plan de travail 1</title><path d="M1718.72,344.91H556.44c-6.54,0-11.84-4.19-11.84-9.37V306.2c0-5.17,5.3-9.37,11.84-9.37H1718.72c6.54,0,11.84,4.19,11.84,9.37v29.35C1730.56,340.72,1725.26,344.91,1718.72,344.91Z" fill="#fff"/><path d="M557.76,296.84h-1.32c-6.54,0-11.84,4.19-11.84,9.37v29.35c0,5.17,5.3,9.37,11.84,9.37h1.32Z" fill="#fff"/><path d="M1717.4,344.91h1.32c6.54,0,11.84-4.19,11.84-9.37V306.2c0-5.17-5.3-9.37-11.84-9.37h-1.32Z" fill="#fff"/><path d="M1718.72,1127.29H556.44c-6.54,0-11.84-4.19-11.84-9.37v-29.35c0-5.17,5.3-9.37,11.84-9.37H1718.72c6.54,0,11.84,4.19,11.84,9.37v29.35C1730.56,1123.1,1725.26,1127.29,1718.72,1127.29Z" fill="#fff"/><path d="M909.7,1188.74l-49.46,35.51a22.55,22.55,0,0,1-26.3,0l-49.46-35.51a22.55,22.55,0,0,1-9.4-18.32V260.05a22.55,22.55,0,0,1,8-17.22L832.53,201a22.55,22.55,0,0,1,29.13,0l49.46,41.85a22.55,22.55,0,0,1,8,17.22v910.36A22.55,22.55,0,0,1,909.7,1188.74Z" fill="#fff"/><path d="M882.41,1188.74l-27.9,35.51c-4.43,5.64-10.4,5.64-14.84,0l-27.9-35.51c-3.33-4.24-5.3-11.06-5.3-18.32V260.05c0-6.63,1.65-12.93,4.5-17.22L838.88,201c4.74-7.11,11.69-7.11,16.43,0l27.9,41.85c2.86,4.28,4.5,10.58,4.5,17.22v910.36C887.71,1177.68,885.74,1184.5,882.41,1188.74Z" fill="#fff"/><path d="M1104.95,1188.74l-49.46,35.51a22.55,22.55,0,0,1-26.3,0l-49.46-35.51a22.55,22.55,0,0,1-9.4-18.32V260.05a22.55,22.55,0,0,1,8-17.22L1027.78,201a22.55,22.55,0,0,1,29.13,0l49.46,41.85a22.55,22.55,0,0,1,8,17.22v910.36A22.55,22.55,0,0,1,1104.95,1188.74Z" fill="#fff"/><path d="M1077.66,1188.74l-27.9,35.51c-4.43,5.64-10.4,5.64-14.84,0l-27.9-35.51c-3.33-4.24-5.3-11.06-5.3-18.32V260.05c0-6.63,1.65-12.93,4.5-17.22l27.9-41.85c4.74-7.11,11.69-7.11,16.43,0l27.9,41.85c2.86,4.28,4.5,10.58,4.5,17.22v910.36C1083,1177.68,1081,1184.5,1077.66,1188.74Z" fill="#fff"/><path d="M1300.2,1188.74l-49.46,35.51a22.55,22.55,0,0,1-26.3,0L1175,1188.74a22.55,22.55,0,0,1-9.4-18.32V260.05a22.55,22.55,0,0,1,8-17.22L1223,201a22.55,22.55,0,0,1,29.13,0l49.46,41.85a22.55,22.55,0,0,1,8,17.22v910.36A22.55,22.55,0,0,1,1300.2,1188.74Z" fill="#fff"/><path d="M1272.91,1188.74l-27.9,35.51c-4.43,5.64-10.4,5.64-14.84,0l-27.9-35.51c-3.33-4.24-5.3-11.06-5.3-18.32V260.05c0-6.63,1.65-12.93,4.5-17.22l27.9-41.85c4.74-7.11,11.69-7.11,16.43,0l27.9,41.85c2.86,4.28,4.5,10.58,4.5,17.22v910.36C1278.21,1177.68,1276.24,1184.5,1272.91,1188.74Z" fill="#fff"/><path d="M1495.45,1188.74,1446,1224.24a22.55,22.55,0,0,1-26.3,0l-49.46-35.51a22.55,22.55,0,0,1-9.4-18.32V260.05a22.55,22.55,0,0,1,8-17.22L1418.27,201a22.55,22.55,0,0,1,29.13,0l49.46,41.85a22.55,22.55,0,0,1,8,17.22v910.36A22.55,22.55,0,0,1,1495.45,1188.74Z" fill="#fff"/><path d="M1468.16,1188.74l-27.9,35.51c-4.43,5.64-10.4,5.64-14.84,0l-27.9-35.51c-3.33-4.24-5.3-11.06-5.3-18.32V260.05c0-6.63,1.65-12.93,4.5-17.22l27.9-41.85c4.74-7.11,11.69-7.11,16.43,0l27.9,41.85c2.86,4.28,4.5,10.58,4.5,17.22v910.36C1473.46,1177.68,1471.48,1184.5,1468.16,1188.74Z" fill="#fff"/><path d="M1691.16,1188.74l-49.46,35.51a22.55,22.55,0,0,1-26.3,0l-49.46-35.51a22.55,22.55,0,0,1-9.4-18.32V260.05a22.55,22.55,0,0,1,8-17.22L1614,201a22.55,22.55,0,0,1,29.13,0l49.46,41.85a22.55,22.55,0,0,1,8,17.22v910.36A22.55,22.55,0,0,1,1691.16,1188.74Z" fill="#fff"/><path d="M1663.87,1188.74l-27.9,35.51c-4.43,5.64-10.4,5.64-14.84,0l-27.9-35.51c-3.33-4.24-5.3-11.06-5.3-18.32V260.05c0-6.63,1.65-12.93,4.5-17.22l27.9-41.85c4.74-7.11,11.69-7.11,16.43,0l27.9,41.85c2.86,4.28,4.5,10.58,4.5,17.22v910.36C1669.17,1177.68,1667.19,1184.5,1663.87,1188.74Z" fill="#fff"/><path d="M712.75,1188.74l-49.46,35.51a22.55,22.55,0,0,1-26.3,0l-49.46-35.51a22.55,22.55,0,0,1-9.4-18.32V260.05a22.55,22.55,0,0,1,8-17.22L635.58,201a22.55,22.55,0,0,1,29.13,0l49.46,41.85a22.55,22.55,0,0,1,8,17.22v910.36A22.55,22.55,0,0,1,712.75,1188.74Z" fill="#fff"/><path d="M685.46,1188.74l-27.9,35.51c-4.43,5.64-10.4,5.64-14.84,0l-27.9-35.51c-3.33-4.24-5.3-11.06-5.3-18.32V260.05c0-6.63,1.65-12.93,4.5-17.22L641.93,201c4.74-7.11,11.69-7.11,16.43,0l27.9,41.85c2.86,4.28,4.5,10.58,4.5,17.22v910.36C690.76,1177.68,688.79,1184.5,685.46,1188.74Z" fill="#fff"/><rect x="522.6" y="1095.21" width="30.46" height="18.46" fill="#fff"/><circle cx="507.6" cy="1104.44" r="30.23" fill="#fff"/><circle cx="507.6" cy="1104.44" r="13.62" fill="#fff"/><rect x="1723.17" y="1094.02" width="30.46" height="18.46" fill="#fff"/><circle cx="1768.64" cy="1103.25" r="30.23" fill="#fff"/><circle cx="1768.64" cy="1103.25" r="13.62" fill="#fff"/></svg>