<svg id="Vrstva_1" data-name="Vrstva 1" xmlns="http://www.w3.org/2000/svg" xmlns:xlink="http://www.w3.org/1999/xlink" viewBox="0 0 841.89 595.28"><defs><clipPath id="clip-path"><rect width="841.89" height="595.28" fill="none"/></clipPath></defs><title>Plan de travail 2</title><g clip-path="url(#clip-path)"><polygon points="583.91 158.12 420.54 93.25 259.57 158.12 259.57 187.83 583.91 186.97 583.91 158.12" fill="#0863b5"/><rect x="259.57" y="158.34" width="324.34" height="207.61" fill="#0863b5"/><rect x="259.89" y="364.89" width="324.34" height="175.38" fill="#ee7626"/><rect x="293.7" y="222.69" width="46.17" height="70.29" fill="#fff"/><rect x="345.39" y="222.69" width="46.17" height="70.29" fill="#fff"/><rect x="451.92" y="222.69" width="46.17" height="70.29" fill="#fff"/><rect x="503.6" y="222.69" width="46.17" height="70.29" fill="#fff"/><rect x="329.58" y="397.55" width="191.12" height="18.02" fill="#fff"/><rect x="329.58" y="420.38" width="191.12" height="18.02" fill="#fff"/><rect x="329.58" y="443.2" width="191.12" height="18.02" fill="#fff"/><rect x="329.58" y="466.03" width="191.12" height="18.02" fill="#fff"/><rect x="329.58" y="488.85" width="191.12" height="18.02" fill="#fff"/><rect x="329.58" y="511.68" width="191.12" height="18.02" fill="#fff"/><path d="M429.53,52.11c-2-4.79-7.74-7-12.89-4.83L219.19,128.43c0,.2,0,20.13,0,20.13l204.58-84C428.92,62.49,431.5,56.9,429.53,52.11Z" fill="#0863b5"/><path d="M632.1,136.07l-207.58-89a9.53,9.53,0,0,0-12.43,5.19h0a9.53,9.53,0,0,0,5.19,12.43L632.69,154.9" fill="#0863b5"/><polygon points="536.36 104.38 479.17 78.69 479.14 33.69 536.36 33.69 536.36 104.38" fill="#0863b5"/><rect x="471.11" y="12.47" width="73.28" height="14.26" fill="#0863b5"/><path d="M233.56,158.57a13.81,13.81,0,0,1-27.62,0Z"/><path d="M238.35,199.79l-20.57-8.93a5.4,5.4,0,0,1-3.25-4.81h0l-.45-16.63-.15-5.4,10.81-.29.5,18.59,20.67,9a5.41,5.41,0,0,1,3.25,5h0l.15,170.56H238.5l-.15-167Z" fill="#0863b5"/><path d="M233.56,158.57a13.81,13.81,0,0,1-27.62,0Z" fill="#0863b5"/><path d="M245.9,363.28a5.41,5.41,0,0,1,3.25,5h0l.15,170.56H238.5V352" fill="#0863b5"/><rect x="259.89" y="364.89" width="324.34" height="10.11" fill="#8ab326"/></g></svg>