<svg id="Calque_2" data-name="Calque 2" xmlns="http://www.w3.org/2000/svg" viewBox="0 0 841.89 595.28"><title>Plan de travail 2</title><polygon points="443.84 332.54 280.47 267.68 119.5 332.54 119.5 364 443.83 364.99 443.84 332.54" fill="#0863b5"/><rect x="119.5" y="332.76" width="324.34" height="207.61" fill="#0863b5"/><rect x="443.83" y="364.99" width="323.34" height="175.38" fill="#ee7626"/><rect x="153.63" y="397.12" width="46.17" height="70.29" fill="#fff"/><rect x="205.32" y="397.12" width="46.17" height="70.29" fill="#fff"/><rect x="311.85" y="397.12" width="46.17" height="70.29" fill="#fff"/><rect x="363.53" y="397.12" width="46.17" height="70.29" fill="#fff"/><rect x="501.51" y="397.65" width="191.12" height="18.02" fill="#fff"/><rect x="501.51" y="420.48" width="191.12" height="18.02" fill="#fff"/><rect x="501.51" y="443.3" width="191.12" height="18.02" fill="#fff"/><rect x="501.51" y="466.13" width="191.12" height="18.02" fill="#fff"/><rect x="501.51" y="488.95" width="191.12" height="18.02" fill="#fff"/><rect x="501.51" y="511.77" width="191.12" height="18.02" fill="#fff"/><path d="M289.47,226.53c-2-4.79-7.74-7-12.89-4.83L79.12,302.85c0,.2,0,20.13,0,20.13L283.7,239C288.85,236.92,291.43,231.32,289.47,226.53Z" fill="#0863b5"/><path d="M272,226.72a9.53,9.53,0,0,0,5.19,12.43L464.66,316.2A9.53,9.53,0,0,0,477.09,311h0a9.53,9.53,0,0,0-5.19-12.43L284.45,221.53A9.53,9.53,0,0,0,272,226.72Z" fill="#0863b5"/><path d="M478,345.55c0,4.18-3.8,7.56-8.5,7.56h0c-4.69,0-8.5-3.39-8.5-7.56V306c0-4.18,3.8-7.56,8.5-7.56h0c4.69,0,8.5,3.39,8.5,7.56Z" fill="#0863b5"/><polygon points="396.29 278.81 339.1 253.12 339.07 208.12 396.29 208.12 396.29 278.81" fill="#0863b5"/><rect x="331.04" y="186.9" width="73.28" height="14.26" fill="#0863b5"/><path d="M93.49,333a13.81,13.81,0,0,1-27.62,0Z" fill="#136ad5"/><path d="M93.49,333a13.81,13.81,0,0,1-27.62,0Z" fill="#0863b5"/><path d="M98.28,374.21l-20.57-8.93a5.4,5.4,0,0,1-3.25-4.81h0L74,343.84l-.14-5.4,10.81-.29.5,18.59,20.67,9a5.41,5.41,0,0,1,3.25,5h0l.15,170.56H98.43l-.15-167Z" fill="#0863b5"/><rect x="361.62" y="448.51" width="175" height="10.11" transform="translate(-4.45 902.68) rotate(-90)" fill="#8ab326"/></svg>