<svg id="Calque_2" data-name="Calque 2" xmlns="http://www.w3.org/2000/svg" viewBox="0 0 2267.72 1417.32"><title>Plan de travail 1</title><path d="M997.71,145.21,947.3,234.53l31.17-.31a103,103,0,0,0,8.15,24c2.54,5.48,3.49,7.54,3.49,13.92,0,10.66-4.46,19-10.1,29.62-6.81,12.79-15.29,28.68-15.29,50.55,0,25.37,5.91,40.64,15.47,57.08a20.57,20.57,0,0,0,35.57-20.67c-6.69-11.55-9.9-19.92-9.9-36.41,0-11.59,4.62-20.24,10.46-31.2,7-13.13,14.93-28,14.93-49,0-15.41-3.86-23.76-7.26-31.14-1.05-2.26-2-4.6-3-7.2l28.86-.29Z" fill="#fff"/><path d="M1150,145.21l-50.4,89.32,31.16-.31a102.09,102.09,0,0,0,8.16,24c2.53,5.5,3.49,7.56,3.49,13.94,0,10.66-4.46,19-10.1,29.62-6.8,12.79-15.3,28.68-15.3,50.55,0,25.37,5.95,40.62,15.49,57.08a20.57,20.57,0,0,0,35.56-20.67c-6.71-11.55-9.91-19.94-9.91-36.41,0-11.59,4.63-20.24,10.46-31.2,7-13.13,14.95-28,14.95-49,0-15.41-3.86-23.76-7.26-31.14-1-2.26-2-4.6-3-7.2l28.85-.29Z" fill="#fff"/><path d="M1335.85,272.15c0-15.41-3.86-23.76-7.25-31.14-1-2.26-2-4.6-3-7.2l28.84-.29-52.13-88.31-50.41,89.32,31.15-.31a101.16,101.16,0,0,0,8.18,24c2.51,5.5,3.48,7.56,3.48,13.94,0,10.66-4.46,19.06-10.1,29.62-6.81,12.79-15.3,28.68-15.3,50.55,0,25.37,5.93,40.64,15.49,57.08a20.57,20.57,0,0,0,35.57-20.67c-6.72-11.55-9.92-19.92-9.92-36.41,0-11.59,4.63-20.24,10.47-31.2C1327.92,308,1335.85,293.08,1335.85,272.15Z" fill="#fff"/><path d="M1591.17,562.6h-872c-4.91,0-8.88-3.15-8.88-7v-22c0-3.88,4-7,8.88-7h872c4.91,0,8.88,3.15,8.88,7v22C1600.05,559.45,1596.08,562.6,1591.17,562.6Z" fill="#fff"/><path d="M720.18,526.53h-1c-4.9,0-8.88,3.15-8.88,7v22c0,3.88,4,7,8.88,7h1Z" fill="#fff"/><path d="M1590.18,562.6h1c4.91,0,8.88-3.15,8.88-7v-22c0-3.88-4-7-8.88-7h-1Z" fill="#fff"/><path d="M1591.17,1149.56h-872c-4.91,0-8.88-3.15-8.88-7v-22c0-3.88,4-7,8.88-7h872c4.91,0,8.88,3.15,8.88,7v22C1600.05,1146.42,1596.08,1149.56,1591.17,1149.56Z" fill="#fff"/><path d="M984.22,1195.66l-37.1,26.64a16.92,16.92,0,0,1-19.73,0l-37.1-26.64a16.92,16.92,0,0,1-7.05-13.74v-683a16.92,16.92,0,0,1,6-12.92l37.1-31.39a16.92,16.92,0,0,1,21.86,0L985.28,486a16.92,16.92,0,0,1,6,12.92v683A16.92,16.92,0,0,1,984.22,1195.66Z" fill="#fff"/><path d="M963.74,1195.66l-20.93,26.64c-3.33,4.23-7.81,4.23-11.13,0l-20.93-26.64c-2.5-3.18-4-8.29-4-13.74v-683c0-5,1.24-9.7,3.38-12.92l20.93-31.39c3.56-5.34,8.77-5.34,12.33,0L964.34,486c2.14,3.21,3.38,7.94,3.38,12.92v683C967.72,1187.37,966.24,1192.48,963.74,1195.66Z" fill="#fff"/><path d="M1130.7,1195.66l-37.1,26.64a16.92,16.92,0,0,1-19.73,0l-37.1-26.64a16.92,16.92,0,0,1-7.05-13.74v-683a16.92,16.92,0,0,1,6-12.92l37.1-31.39a16.92,16.92,0,0,1,21.86,0l37.1,31.39a16.92,16.92,0,0,1,6,12.92v683A16.92,16.92,0,0,1,1130.7,1195.66Z" fill="#fff"/><path d="M1110.23,1195.66l-20.93,26.64c-3.33,4.23-7.81,4.23-11.13,0l-20.93-26.64c-2.5-3.18-4-8.29-4-13.74v-683c0-5,1.24-9.7,3.38-12.92l20.93-31.39c3.56-5.34,8.77-5.34,12.33,0L1110.82,486c2.14,3.21,3.38,7.94,3.38,12.92v683C1114.2,1187.37,1112.72,1192.48,1110.23,1195.66Z" fill="#fff"/><path d="M1277.18,1195.66l-37.1,26.64a16.92,16.92,0,0,1-19.73,0l-37.1-26.64a16.92,16.92,0,0,1-7.05-13.74v-683a16.92,16.92,0,0,1,6-12.92l37.1-31.39a16.92,16.92,0,0,1,21.86,0l37.1,31.39a16.92,16.92,0,0,1,6,12.92v683A16.92,16.92,0,0,1,1277.18,1195.66Z" fill="#fff"/><path d="M1256.71,1195.66l-20.93,26.64c-3.33,4.23-7.81,4.23-11.13,0l-20.93-26.64c-2.5-3.18-4-8.29-4-13.74v-683c0-5,1.24-9.7,3.38-12.92L1224,454.62c3.56-5.34,8.77-5.34,12.33,0L1257.31,486c2.14,3.21,3.38,7.94,3.38,12.92v683C1260.69,1187.37,1259.2,1192.48,1256.71,1195.66Z" fill="#fff"/><path d="M1423.66,1195.66l-37.1,26.64a16.92,16.92,0,0,1-19.73,0l-37.1-26.64a16.92,16.92,0,0,1-7.05-13.74v-683a16.92,16.92,0,0,1,6-12.92l37.1-31.39a16.92,16.92,0,0,1,21.86,0l37.1,31.39a16.92,16.92,0,0,1,6,12.92v683A16.92,16.92,0,0,1,1423.66,1195.66Z" fill="#fff"/><path d="M1403.19,1195.66l-20.93,26.64c-3.33,4.23-7.81,4.23-11.13,0l-20.93-26.64c-2.5-3.18-4-8.29-4-13.74v-683c0-5,1.24-9.7,3.38-12.92l20.93-31.39c3.56-5.34,8.77-5.34,12.33,0L1403.79,486c2.14,3.21,3.38,7.94,3.38,12.92v683C1407.17,1187.37,1405.69,1192.48,1403.19,1195.66Z" fill="#fff"/><path d="M1570.49,1195.66l-37.1,26.64a16.92,16.92,0,0,1-19.73,0l-37.1-26.64a16.92,16.92,0,0,1-7.05-13.74v-683a16.92,16.92,0,0,1,6-12.92l37.1-31.39a16.92,16.92,0,0,1,21.86,0l37.1,31.39a16.92,16.92,0,0,1,6,12.92v683A16.92,16.92,0,0,1,1570.49,1195.66Z" fill="#fff"/><path d="M1550,1195.66l-20.93,26.64c-3.33,4.23-7.81,4.23-11.13,0L1497,1195.66c-2.5-3.18-4-8.29-4-13.74v-683c0-5,1.24-9.7,3.38-12.92l20.93-31.39c3.56-5.34,8.77-5.34,12.33,0L1550.62,486c2.14,3.21,3.38,7.94,3.38,12.92v683C1554,1187.37,1552.52,1192.48,1550,1195.66Z" fill="#fff"/><path d="M836.46,1195.66l-37.1,26.64a16.92,16.92,0,0,1-19.73,0l-37.1-26.64a16.92,16.92,0,0,1-7.05-13.74v-683a16.92,16.92,0,0,1,6-12.92l37.1-31.39a16.92,16.92,0,0,1,21.86,0L837.52,486a16.92,16.92,0,0,1,6,12.92v683A16.92,16.92,0,0,1,836.46,1195.66Z" fill="#fff"/><path d="M816,1195.66l-20.93,26.64c-3.33,4.23-7.81,4.23-11.13,0L763,1195.66c-2.5-3.18-4-8.29-4-13.74v-683c0-5,1.24-9.7,3.38-12.92l20.93-31.39c3.56-5.34,8.77-5.34,12.33,0L816.58,486c2.14,3.21,3.38,7.94,3.38,12.92v683C820,1187.37,818.48,1192.48,816,1195.66Z" fill="#fff"/><rect x="693.8" y="1125.49" width="22.86" height="13.85" fill="#fff"/><circle cx="682.55" cy="1132.42" r="22.68" fill="#fff"/><circle cx="682.55" cy="1132.42" r="10.22" fill="#fff"/><rect x="1594.51" y="1124.6" width="22.86" height="13.85" fill="#fff"/><circle cx="1628.62" cy="1131.53" r="22.68" fill="#fff"/><circle cx="1628.62" cy="1131.53" r="10.22" fill="#fff"/></svg>