<svg id="Calque_1" data-name="Calque 1" xmlns="http://www.w3.org/2000/svg" viewBox="0 0 1038.89 538.48"><title>Plan de travail 1</title><path d="M96.83,506.43c-.63,1.12,1,2.93-1.1,3.6-8.48.36-17,0-25.46.17a26.48,26.48,0,0,0-5.71.2l-28.46,0c-4.35,0-4.36,0-4.35-4.45q.1-81.93.2-163.87c0-1-.1-2-.15-3a7.48,7.48,0,0,0,.2-3q0-68.61,0-137.22a10.47,10.47,0,0,1,.14-3c.19-3.89,2.49-6.39,5.42-8.59q19.3-14.48,38.53-29.06c12.95-9.85,25.8-19.81,38.74-29.67,7.82-6,15.75-11.75,23.57-17.7,8.81-6.7,17.53-13.52,26.34-20.22,7.82-6,15.73-11.81,23.56-17.76,8.81-6.7,17.57-13.48,26.38-20.19,7.83-6,15.72-11.86,23.56-17.81,3.69-2.8,7.29-5.71,11.14-8.31,7.35-5,18.84-4.58,26.09.77,17.76,13.09,35.58,26.07,53.37,39.11q25.9,19,51.78,38Q406.94,123.83,433.3,143q14.23,10.39,28.45,20.79c1.13.82,1.68,1.41.52,2.89-6.95,8.85-13.76,17.81-20.61,26.74q-8.38,10.93-16.73,21.89c-.89,1.17-1.51,1.28-2.8.31-8.27-6.25-16.65-12.37-25-18.56q-15.32-11.38-30.61-22.81c-7-5.27-13.86-10.8-21-15.89-8.92-6.35-17.57-13.07-26.39-19.55-10.2-7.49-20.29-15.12-30.43-22.7-7.33-5.48-14.64-11-22-16.47-2.63-2-6-1.84-8.86.33q-19.26,14.47-38.49,29-21.91,16.49-43.84,33-26,19.6-51.89,39.26c-7.72,5.84-15.43,11.71-23.2,17.5a7.18,7.18,0,0,0-3.22,6.07Q97.15,293,97,361.28a14.06,14.06,0,0,0,.15,1.48,7.48,7.48,0,0,0-.2,3q0,68.86,0,137.73A9.68,9.68,0,0,1,96.83,506.43Z" fill="#fff"/><path d="M163.87,249c2,.2,3.93-.4,5.89-.63,1.19-.42,2.47.13,3.65-.36h3.66c1.35.51,2.79-.06,4.15.36,3.92.84,8,1.13,11.71,2.78,8.57,3.78,14.16,10,15.85,19.43.12.65.35,1.27.54,1.91.42,1-.11,2.13.38,3.14q0,34.7,0,69.39c0,3.48-.29,7,.2,10.45a3.59,3.59,0,0,0,2.19.25q46.67,0,93.34,0a3.63,3.63,0,0,0,2.19-.25,6.59,6.59,0,0,0,.24-3q0-49.32,0-98.63c0-3.74,0-3.74,3.67-4.31l1.23-.19c.82-.41,1.77.11,2.58-.39,2.18.21,4.28-.46,6.42-.63,1.35-.42,2.78.17,4.12-.36h3.22c1.34.53,2.77-.07,4.12.37,4.4,1,8.89,1.45,13,3.56,8.42,4.31,13.41,10.93,14.52,20.39.16,1.39.38,2.77.57,4.16a8.67,8.67,0,0,1,.15,2.73q0,114.41,0,228.81c0,1,.28,2-.26,2.93-16.91,0-33.82-.05-50.72.07-2.33,0-2.68-.72-2.68-2.81.06-35.81,0-71.63.09-107.44,0-2.18-.41-2.93-2.81-2.93q-46.35.14-92.7,0c-2.14,0-2.77.44-2.77,2.7.08,35.81,0,71.63.11,107.44,0,2.37-.51,3-3,3-16.82-.12-33.65-.07-50.47-.08-.55-.75-.28-1.62-.28-2.42q0-128.07,0-256.14c0-.8-.3-1.67.32-2.4a.72.72,0,0,0,.43-.09c.84-.4,1.8.07,2.63-.38l1.87-.12C162.09,249,163.05,249.46,163.87,249Z" fill="#ee7626"/><path d="M907.15,383c1.63-7.52,5.37-11.6,14.61-12.6a7.15,7.15,0,0,1,2.48-.15q48.43,0,96.86,0c.87,0,1.83-.37,2.62.35l.1,1.39c.38.84-.08,1.8.37,2.63a56.38,56.38,0,0,1-.15,6.47c-.84,6.32-4.52,10.3-10.68,11.88-.72.18-1.43.4-2.14.6-1.17.42-2.44-.15-3.6.37-8.41,0-16.83,0-25.24-.1-1.43,0-1.9.48-1.84,1.88.09,1.91,0,3.83,0,5.75q0,53.37.06,106.74c0,2.35-.68,2.87-2.91,2.83-8.66-.13-17.33-.05-26,0a7.2,7.2,0,0,1-.2-3q0-55.49,0-111a5.79,5.79,0,0,0-.24-2.94,5.68,5.68,0,0,0-2.7-.24c-12.7,0-25.41-.07-38.11,0-2.33,0-3.57-.42-3.27-3A41.19,41.19,0,0,1,907.15,383Z" fill="#ee7626"/><path d="M742.74,394.07a5.68,5.68,0,0,0-2.7-.24c-12.7,0-25.41-.07-38.11,0-2.33,0-3.57-.42-3.27-3a41.19,41.19,0,0,1,0-8c1.63-7.52,5.37-11.6,14.61-12.6a7.15,7.15,0,0,1,2.48-.15q48.43,0,96.86,0c.87,0,1.83-.37,2.62.35l.11,1.4c.38.84-.08,1.8.37,2.63a56.34,56.34,0,0,1-.14,6.47c-.84,6.32-4.52,10.3-10.68,11.88-.72.18-1.43.4-2.15.6-1.17.42-2.44-.15-3.6.37-8.41,0-16.83,0-25.24-.1-1.43,0-1.9.48-1.84,1.88.09,1.91,0,3.83,0,5.75q0,53.37.06,106.74c0,2.35-.68,2.87-2.91,2.83-8.66-.13-17.33-.05-26,0a7.2,7.2,0,0,1-.2-3q0-55.49,0-111A5.79,5.79,0,0,0,742.74,394.07Z" fill="#ee7626"/><path d="M683.77,510.95H655.29c-.54-.76-.28-1.62-.28-2.43q0-67.81,0-135.63c0-.81-.26-1.67.28-2.43,2-.26,3.92-.57,5.9-.77,6.3-.63,12.38-.1,17.64,3.9,2.91,2.21,4.15,5.45,5,8.87a6.6,6.6,0,0,1,.17,2.47q0,61.78,0,123.56A5.15,5.15,0,0,1,683.77,510.95Z" fill="#ee7626"/><path d="M506.24,322.4c5.52.4,11,.43,15.5-3.49a4.32,4.32,0,0,1,1.43-1.47l.65-1.33c-.22-1.41.52-2.83,0-4.24l0,0c-.92-.48-.45-1.65-1.11-2.26l-.62-.68c-.59-.52-1.48-.63-1.87-1.41l-2-1.14c-.86.15-1.32-.62-2-.88a3.63,3.63,0,0,1-2-.58,9,9,0,0,1-3.5-.93l-9.94-2.1a8.61,8.61,0,0,1-5.06-1.39c-5.07-1.31-9.76-3.29-13.11-7.57a6.11,6.11,0,0,1-2.38-3.08l-1.1-5.44a22.59,22.59,0,0,1,0-6c.56-5.81,4-9.53,8.74-12.49,5.17-3.27,11-3.93,16.86-4.61a31.69,31.69,0,0,1,7,0c6.5.88,12.83,2.15,18,6.66a22.67,22.67,0,0,1,7.42,13.33c.22,1.16-.31,1.43-1.36,1.43q-6.62,0-13.24,0a1.39,1.39,0,0,1-1.6-1.18c-1.25-5.15-5.09-7-9.83-7.82a23.94,23.94,0,0,0-10.86.58c-2.93.87-5.39,2.26-5.74,5.75-.3,3,1.16,5.11,4.71,6.9,4.37,2.19,9.17,2.88,13.87,3.92,6.25,1.38,12.52,2.6,18.14,6,10.46,6.25,10.42,20.64,3.72,28.11a27.19,27.19,0,0,1-14.74,8.37c-1.83.41-3.58,1.2-5.51,1.14-1.35.49-2.8-.15-4.14.39h-4.19c-1.52-.55-3.13.11-4.65-.39l-6-1.08c-.68.32-1.09-.11-1.5-.54a24.74,24.74,0,0,1-14.55-11.45c-.32-.45-.72-.87-.47-1.49-.52-2-1.57-3.86-1.52-6a1.52,1.52,0,0,1-.32-1.15c.34-.74-.21-1.65.44-2.33,4.21,0,8.43.08,12.64,0,1.71,0,2.71.17,2.88,2.3a7.75,7.75,0,0,0,2.56,5.17c.58.56,1.59.62,1.81,1.6a10,10,0,0,0,6,2.43C504.47,322.54,505.51,321.58,506.24,322.4Z" fill="#fff"/><path d="M462.73,332.94H446.2a5.8,5.8,0,0,1-.19-2.46q0-45.81,0-91.62c0-.8-.28-1.67.3-2.41h16.33c.61.63.33,1.43.33,2.14q0,46.07,0,92.14A3.64,3.64,0,0,1,462.73,332.94Z" fill="#fff"/><path d="M647.18,284.78c0,15.24,0,30.48,0,45.72,0,1.93-.43,2.58-2.45,2.49-3.66-.17-7.33-.13-11,0-1.61.05-2.08-.4-2.08-2.05q.08-46.22,0-92.44c0-1.75.63-2,2.16-2,3.66.09,7.33.13,11,0,1.86-.08,2.38.45,2.37,2.34C647.15,254.14,647.18,269.46,647.18,284.78Z" fill="#fff"/><path d="M633.83,468c-1.15-17.17-11.13-26.77-27.67-31.24,13.35-6.27,20.18-16.3,21.18-30.29a6.18,6.18,0,0,0,0-3c-.19-1.64-.39-3.28-.58-4.92-1.19-10.29-6.29-17.87-15.58-22.59-8.47-4.31-17.68-5.54-26.95-6.59-1.35-.45-2.79.16-4.12-.37H561.92c-1.69.54-3.46-.1-5.15.37l-4.33.13c-1,.45-2.14,0-3.16.35l-3.37.14c-1,.47-2.12,0-3.13.36l-2.85.15c-.84.42-1.8,0-2.65.35l-4,.61c-.56.75-.29,1.61-.29,2.42q0,67.32,0,134.64c0,.81-.27,1.67.29,2.42l50.8,0c1.51-.55,3.11.09,4.62-.38l1.92-.11c.81-.48,1.75,0,2.58-.37,2.13-.13,4.2-.67,6.3-1a49.16,49.16,0,0,0,17.14-5.94A31.82,31.82,0,0,0,630.44,488c2.33-5.3,3-10.91,3.4-16.59A8.12,8.12,0,0,0,633.83,468ZM562.06,409.1c0-5.75,0-11.49,0-17.24,0-1.32.13-2.24,1.77-2.35,7.49-.5,14.95-.69,22.29,1.4,8.06,2.3,11.76,7.08,11.73,15.44,0,9.13-3.38,16.36-11.94,20.49-3.29,1.59-6.88,1.89-10.46,2-3.74.12-7.5-.07-11.24.07-1.86.07-2.19-.7-2.17-2.33C562.11,420.76,562.06,414.93,562.06,409.1Zm42,64.43c-1.29,8.46-6.56,13.7-15.41,15.39-8.31,1.59-16.74,1.07-25.13,1.19-1.3,0-1.49-.64-1.49-1.71q0-19.47,0-38.94c0-1.23.49-1.55,1.63-1.53,3,.05,6,0,9.89,0,5.26-.1,11.38.09,17.34,2,9,2.9,13.21,8.4,13.41,17.84A33.46,33.46,0,0,1,604.07,473.53Z" fill="#ee7626"/><path d="M511.28,492.5q-14.42-41.19-28.8-82.39-4.73-13.54-9.39-27.09c.24-.76-.26-1.17-.75-1.57l-.21-.95a1.77,1.77,0,0,0-.92-2l-1.48-2c-.43-.59-.2-1.78-1.47-1.6l-4-3c-.4-.5-.79-1-1.56-.81a42.85,42.85,0,0,0-7.94-1.71,1.23,1.23,0,0,0-1.5,0,61.09,61.09,0,0,0-14.88,2.12,4.07,4.07,0,0,0-3.19,3.11c-1.29,4.18-3,8.24-4.51,12.35-.24.47-.83.86-.38,1.51l-43,122.49c7.4,0,14.64,0,21.88,0,2.24,0,5.09.71,6.55-.38s1.76-4.07,2.5-6.23q4.69-13.71,9.35-27.44a3.43,3.43,0,0,1,1.71-.2h45.16a2.55,2.55,0,0,1,1.69.25,6,6,0,0,0,.16.72c3.76,10.71,7.54,21.42,11.25,32.15.43,1.23,1.21,1.12,2.11,1.12h28.22C515.6,504.59,513.4,498.56,511.28,492.5Zm-42.79-37c-11.08-.1-22.15,0-33.23,0-1.2,0-2.28.28-1.62-1.76,6.11-18.9,12.12-37.84,18.16-56.76a5,5,0,0,1,.56-.76l8.56,27.76c3,9.77,6,19.55,9.07,29.3C470.49,454.85,470.6,455.54,468.49,455.52Z" fill="#ee7626"/><path d="M925,510q-9.8-27.87-19.6-55.74c-8.23-23.48-16.49-46.95-24.6-70.47-2.38-6.9-6.44-11.88-13.72-13.58-7.65-1.78-15.13-.5-22.52,1.72-1.22.36-1.39,1.31-1.69,2.16-1.88,5.25-3.67,10.54-5.51,15.8q-6.49,18.53-13,37t-13,37c-3,8.62-6,17.23-9.06,25.84-2.44,7-4.84,14-7.4,20.95a3.4,3.4,0,0,0,.6.13c7.16,0,14.33,0,21.49,0,2.16,0,4.78.62,6.32-.39,1.35-.88,1.47-3.64,2.14-5.56.27-.78.59-1.54.86-2.32q4.4-12.89,8.8-25.78a3.43,3.43,0,0,1,1.71-.2H882a2.55,2.55,0,0,1,1.69.25,6,6,0,0,0,.16.72c3.76,10.71,7.54,21.41,11.24,32.14.42,1.22,1.2,1.14,2.1,1.13h28A8.65,8.65,0,0,0,925,510Zm-84.34-54.63,18.75-58.77.58-.08,18.16,58.85Z" fill="#ee7626"/><path d="M727.32,293c-.19-1.05-.36-2.11-.59-3.16-1.78-8.42-5.39-15.78-12.21-21.35a33.7,33.7,0,0,0-16.8-7.09,31.83,31.83,0,0,0-7,0c-1.22.2-2.45.39-3.67.61a29.92,29.92,0,0,0-20.17,13.38,35.33,35.33,0,0,0-6.26,18.12c-.42,1.37.14,2.82-.36,4.18v1.09c.52,1.53-.09,3.16.37,4.7s.36,3.37.7,5.06A32.46,32.46,0,0,0,674.13,329a28.92,28.92,0,0,0,14.63,5.49c.86.39,1.83,0,2.69.37h5.09c1.2-.48,2.49.06,3.69-.37a57.5,57.5,0,0,0,7.62-2.13c9.65-4,15.8-10.94,18.33-21.36-4.72,0-9.2,0-13.69,0-1,0-1.26.62-1.51,1.26a15,15,0,0,1-6.06,7.57,18.89,18.89,0,0,1-19.3.74c-6.51-3.37-9.28-9.25-9.43-16.45-.78-2.39,1-1.92,2.22-1.92q23.08,0,46.16,0c.88,0,1.83.31,2.65-.3l.1-.94A39.67,39.67,0,0,0,727.32,293Zm-17.18-1-31.47.06c-2.27.07-2.83-.39-2.52-2.8,1.68-13.08,16.5-20.08,27.45-12.79,5.07,3.38,7.15,8.54,8.05,14.33C711.87,292.16,710.94,291.92,710.14,291.92Z" fill="#fff"/><path d="M618.7,299.77q0-1.82,0-3.63c-.49-1.19.06-2.48-.37-3.67-.2-1.14-.36-2.28-.61-3.41-2.14-9.61-6.55-17.61-15.35-22.84-4.58-2.72-9.55-3.84-14.63-4.84a44.63,44.63,0,0,0-8.47,0c-2.29.42-4.62.66-6.85,1.28-9,2.49-15.87,7.53-20.11,16.08a38.56,38.56,0,0,0-4.14,15.75,31.92,31.92,0,0,0,0,7c.39,2,.3,4,.7,6.06a34.8,34.8,0,0,0,8.61,17.36,30.45,30.45,0,0,0,20.29,9.69c.85.35,1.81-.07,2.66.36h6.12c.86-.42,1.83,0,2.69-.37.24-.05.48-.11.73-.15a32.65,32.65,0,0,0,20.79-11.7c4.58-5.61,6.49-12.26,7.58-19.23C618.74,302.24,618.2,301,618.7,299.77Zm-20,14.43c-6.77,11.56-24.14,11.25-31-.26-3-4.94-4.08-10.3-4.11-16.81.16-5.94,1.47-12.33,6.14-17.65,8-9.12,23.24-7.9,29.23,2.69S604.88,303.7,598.74,314.2Z" fill="#fff"/></svg>