<svg id="Calque_1" data-name="Calque 1" xmlns="http://www.w3.org/2000/svg" viewBox="0 0 2500 2500"><title>Plan de travail 1</title><path d="M2151.62,859.79h311.62l-30.62,166.47H2306.09l-29.31,157.14H2390l-28,157.15H2248.81l-121.19,680.54H1942.53l209.09-1161.3Zm-66.6,0h-189.1l-114.55,611.28q-12,61.94-20,79.89c-6.67,10.66-14.67,16-26.65,16-10.64,0-17.3-5.32-18.65-14.64-1.32-10.66,1.35-33.31,8-70.59L1841.25,859.8H1650.84l-91.9,491.41c-17.3,93.23-28,154.5-30.62,183.78-1.32,29.31,2.66,57.27,14.67,83.9,10.64,26.65,31.94,47.95,62.57,63.94,30.65,17.3,66.6,25.3,110.54,25.3,39.95,0,74.58-6.67,106.55-21.31,32-13.32,58.6-34.63,81.24-61.28s38.64-53.27,46.61-78.58c9.33-25.28,18.65-69.23,30.62-133.17l103.9-554Zm-773.75,534.06c8-94.56,20-209.1,37.29-347.6-49.27,158.48-82.58,273-99.89,347.6Zm193.09-534.06-58.6,831H1271.31L1290,1540.33h-66.59l-40,150.48H994.31l266.35-831h243.7Zm-394.19,0H950.36L881.1,1234,843.81,859.79H685.34l-155.82,831H689.33l70.58-378.2,28,378.2H954.34l155.83-831Zm-510.06,6.67L443,1242l38.62,448.79H307.11l-32-297-55.93,297H36.76L227.2,478.91H409.65l-93.23,663.22L432.3,866.46H600.11Z" fill="#496174"/></svg>