<svg id="Calque_4" data-name="Calque 4" xmlns="http://www.w3.org/2000/svg" viewBox="0 0 207.5 123.5"><title>logo-presta-habitat</title><g id="Calque_2" data-name="Calque 2"><text transform="translate(14.01 116.79)" style="font-size:20.493330001831055px;fill:#8ab326;font-family:MyriadPro-Regular, Myriad Pro">Isol<tspan x="29.1" y="0" style="letter-spacing:-0.0040028267730364275em">a</tspan><tspan x="38.9" y="0">tion des habit</tspan><tspan x="156.22" y="0" style="letter-spacing:-0.0040028267730364275em">a</tspan><tspan x="166.01" y="0">ts</tspan></text></g><g id="Calque_2_-_copie" data-name="Calque 2 - copie"><text transform="translate(88.01 60.99)" style="font-size:25px;fill:#8ab326;font-family:MyriadPro-Semibold, Myriad Pro;font-weight:700"><tspan style="letter-spacing:-0.0119921875em">P</tspan><tspan x="13.67" y="0" style="letter-spacing:-0.008984375em">r</tspan><tspan x="22.35" y="0">esta</tspan></text></g><g id="Calque_1" data-name="Calque 1"><path d="M26.4,92.92c-.12.2.18.54-.21.66-1.56.07-3.12,0-4.67,0a5.25,5.25,0,0,0-1.05,0H15.24c-.8,0-.8,0-.8-.81l0-30.12c0-.18,0-.36,0-.54a1.46,1.46,0,0,0,0-.55V36.41a2,2,0,0,1,0-.54,2,2,0,0,1,1-1.58c2.36-1.78,4.72-3.55,7.08-5.34s4.74-3.64,7.12-5.45c1.43-1.1,2.89-2.16,4.33-3.26,1.62-1.23,3.22-2.48,4.84-3.71,1.44-1.1,2.89-2.17,4.33-3.27,1.62-1.23,3.22-2.47,4.84-3.71,1.44-1.09,2.89-2.17,4.33-3.27.68-.51,1.34-1,2-1.52a4.37,4.37,0,0,1,4.79.14L69,12.08l9.52,7,9.68,7.07L93.46,30c.2.15.31.26.09.53q-1.9,2.44-3.79,4.91c-1,1.34-2.05,2.68-3.07,4-.16.21-.28.23-.51,0-1.52-1.15-3.06-2.27-4.59-3.41-1.88-1.39-3.76-2.78-5.63-4.19-1.29-1-2.55-2-3.86-2.92-1.64-1.16-3.23-2.4-4.85-3.59-1.87-1.38-3.73-2.78-5.59-4.17l-4-3a1.31,1.31,0,0,0-1.63.06l-7.07,5.33-8.06,6.06-9.53,7.21c-1.42,1.08-2.84,2.16-4.27,3.22a1.33,1.33,0,0,0-.59,1.11l0,25.08a2.46,2.46,0,0,0,0,.28,1.4,1.4,0,0,0,0,.54q0,12.66,0,25.31A2,2,0,0,1,26.4,92.92Z" style="fill:#8ab326"/><path d="M38.72,45.61a4.36,4.36,0,0,0,1.08-.12c.22-.07.45,0,.67-.06h.67c.25.09.52,0,.76.06a11.32,11.32,0,0,1,2.16.51A4.65,4.65,0,0,1,47,49.57a2,2,0,0,0,.1.35c.08.19,0,.4.07.58,0,4.25,0,8.5,0,12.75a13.68,13.68,0,0,0,0,1.92c.13.09.27,0,.41,0H64.73a.62.62,0,0,0,.4,0,1.23,1.23,0,0,0,0-.54q0-9.06,0-18.12c0-.69,0-.69.67-.8l.23,0c.15-.08.32,0,.47-.07a6.65,6.65,0,0,0,1.18-.12c.25-.07.51,0,.76-.06h.59c.25.09.51,0,.76.06a9.54,9.54,0,0,1,2.39.66A4.61,4.61,0,0,1,74.9,49.9c0,.25.07.5.1.76a1.39,1.39,0,0,1,0,.5V93.21a1,1,0,0,1,0,.54c-3.11,0-6.21,0-9.32,0-.43,0-.49-.13-.49-.52,0-6.58,0-13.16,0-19.74,0-.4-.07-.54-.51-.54q-8.52,0-17,0c-.39,0-.51.08-.51.5,0,6.58,0,13.16,0,19.75,0,.43-.09.55-.54.55-3.09,0-6.18,0-9.28,0-.1-.14,0-.3,0-.45V46.23c0-.15-.05-.31.06-.44a.11.11,0,0,0,.08,0c.15-.07.33,0,.48-.07l.35,0C38.39,45.61,38.57,45.7,38.72,45.61Z" style="fill:#ee7626"/><path d="M175.3,70.23A2.65,2.65,0,0,1,178,67.91a1.41,1.41,0,0,1,.46,0q8.9,0,17.79,0c.16,0,.34-.07.49.06l0,.26c.07.15,0,.33.06.48a9.42,9.42,0,0,1,0,1.19,2.44,2.44,0,0,1-2,2.18l-.39.11c-.22.08-.45,0-.66.07-1.55,0-3.09,0-4.64,0-.26,0-.35.09-.34.35s0,.7,0,1.05c0,6.54,0,13.08,0,19.62,0,.43-.13.52-.54.52-1.59,0-3.18,0-4.78,0a1.45,1.45,0,0,1,0-.55c0-6.79,0-13.59,0-20.39a1.11,1.11,0,0,0,0-.54,1.06,1.06,0,0,0-.5,0c-2.33,0-4.67,0-7,0-.43,0-.66-.08-.6-.55A7.91,7.91,0,0,1,175.3,70.23Z" style="fill:#ee7626"/><path d="M145.09,72.27a1,1,0,0,0-.49,0c-2.34,0-4.67,0-7,0-.42,0-.65-.08-.6-.55a7.91,7.91,0,0,1,0-1.46,2.65,2.65,0,0,1,2.69-2.32,1.35,1.35,0,0,1,.45,0q8.9,0,17.8,0c.16,0,.34-.07.48.06l0,.26c.07.15,0,.33.07.48a11.75,11.75,0,0,1,0,1.19,2.43,2.43,0,0,1-2,2.18l-.39.11c-.22.08-.45,0-.67.07-1.54,0-3.09,0-4.64,0-.26,0-.35.09-.33.35s0,.7,0,1.05q0,9.81,0,19.62c0,.43-.12.52-.53.52-1.6,0-3.19,0-4.78,0a1.27,1.27,0,0,1,0-.55V72.81A1,1,0,0,0,145.09,72.27Z" style="fill:#ee7626"/><path d="M134.25,93.75H129c-.1-.14-.05-.3-.05-.45V68.38c0-.15-.05-.31.05-.45l1.09-.14a4.34,4.34,0,0,1,3.24.72,2.7,2.7,0,0,1,.91,1.63,1.14,1.14,0,0,1,0,.45q0,11.35,0,22.71A.87.87,0,0,1,134.25,93.75Z" style="fill:#ee7626"/><path d="M125.08,85.85c-.21-3.16-2-4.92-5.09-5.74a6.24,6.24,0,0,0,3.89-5.57,1,1,0,0,0,0-.54c0-.3-.07-.61-.1-.91a5,5,0,0,0-2.87-4.15,14.11,14.11,0,0,0-5-1.21c-.24-.08-.51,0-.76-.07h-3.34c-.31.1-.63,0-.94.07l-.8,0c-.19.08-.39,0-.58.06l-.62,0c-.18.08-.39,0-.58.06l-.52,0c-.15.08-.33,0-.49.06l-.72.12c-.11.13-.06.29-.06.44V93.3c0,.15,0,.31.06.45h9.33c.28-.1.57,0,.85-.07l.35,0c.15-.09.32,0,.48-.07a11,11,0,0,0,1.15-.18,9,9,0,0,0,3.15-1.09,5.8,5.8,0,0,0,2.53-2.78,8.83,8.83,0,0,0,.63-3A1.72,1.72,0,0,0,125.08,85.85ZM111.89,75V71.87c0-.25,0-.42.32-.44a12,12,0,0,1,4.1.26,2.62,2.62,0,0,1,2.15,2.84,3.81,3.81,0,0,1-2.19,3.76,4.53,4.53,0,0,1-1.92.37c-.69,0-1.38,0-2.07,0-.34,0-.4-.13-.4-.43C111.9,77.18,111.89,76.1,111.89,75Zm7.72,11.84a3.22,3.22,0,0,1-2.83,2.83,26.44,26.44,0,0,1-4.62.22c-.24,0-.27-.12-.27-.31V82.45c0-.23.09-.29.3-.28.55,0,1.1,0,1.81,0a9.77,9.77,0,0,1,3.19.37,3.16,3.16,0,0,1,2.46,3.28A6.11,6.11,0,0,1,119.61,86.87Z" style="fill:#ee7626"/><path d="M102.56,90.36l-5.3-15.14-1.72-5c0-.14-.05-.21-.14-.29l0-.17a.33.33,0,0,0-.17-.36L94.92,69c-.08-.11,0-.33-.27-.29l-.74-.56c-.07-.09-.14-.18-.28-.14a8.29,8.29,0,0,0-1.46-.32.24.24,0,0,0-.28,0,11.53,11.53,0,0,0-2.73.39.76.76,0,0,0-.59.57c-.23.77-.54,1.52-.82,2.27,0,.09-.16.16-.07.28l-7.9,22.51h4c.41,0,.93.13,1.2-.07s.32-.75.46-1.15q.87-2.52,1.72-5a.67.67,0,0,1,.31,0h8.3a.47.47,0,0,1,.31,0l0,.13c.69,2,1.39,3.94,2.07,5.91.08.23.22.21.39.21h5.18C103.35,92.58,103,91.47,102.56,90.36Zm-7.87-6.8c-2,0-4.07,0-6.1,0-.22,0-.42,0-.3-.33Q90,78,91.63,72.8s0,0,.1-.14c.54,1.75,1,3.43,1.57,5.1s1.1,3.59,1.67,5.39C95.06,83.44,95.08,83.57,94.69,83.56Z" style="fill:#ee7626"/><path d="M178.58,93.58c-1.2-3.42-2.41-6.83-3.6-10.25-1.51-4.31-3-8.62-4.52-12.94a3.46,3.46,0,0,0-2.52-2.5,7.89,7.89,0,0,0-4.14.32c-.23.06-.26.24-.31.39-.35,1-.68,1.94-1,2.91q-1.18,3.4-2.39,6.81c-.79,2.26-1.59,4.53-2.38,6.8q-.84,2.38-1.67,4.75c-.45,1.28-.89,2.57-1.36,3.85l.11,0h3.95c.4,0,.88.11,1.16-.07s.27-.67.4-1l.16-.42,1.61-4.74a.69.69,0,0,1,.32,0h8.3a.49.49,0,0,1,.31,0,.5.5,0,0,0,0,.13q1,3,2.06,5.91c.08.22.22.21.39.21h5.14A1.09,1.09,0,0,0,178.58,93.58Zm-15.5-10c1.15-3.62,2.3-7.21,3.45-10.8l.1,0L170,83.54Z" style="fill:#ee7626"/></g></svg>