<svg id="Calque_1" data-name="Calque 1" xmlns="http://www.w3.org/2000/svg" viewBox="0 0 2834.65 2834.65"><title>Plan de travail 1</title><path d="M2299.56,2506.52V1354.23c0-77.15-63.6-140.28-141.34-140.28H1985c-77.74,0-141.34,63.13-141.34,140.28V2506.52c0,77.15,63.6,140.28,141.34,140.28h173.22C2236,2646.8,2299.56,2583.67,2299.56,2506.52Z" fill="#ee7626" fill-rule="evenodd"/><path d="M1192,1616.93c0,217-.57,209.16-.57,426.21.85,79.3,54.69,144.35,136.79,148.35l170.61-1.72c82.94,1,152.57-63.31,148.59-147.61,0-307.87.49-380.25.49-688.12q-1-65.81-53.3-109.54-34.77-27.8-81.87-30.61l-170.61-.13q-71.87-1.65-116.86,50.14-35.87,44.36-33.25,97.69Z" fill="#ee7626" fill-rule="evenodd"/><path d="M539.78,1616.84c0,217-.06-114.25-.06,102.75v0c2.06,78,55.6,141.63,136.74,145.58l170.6-1.72c80.54,1,148.53-59.65,148.75-140.34v-.65c0-306.87-.14-60.89-.14-368.54q-1-65.81-53.3-109.54-34.77-27.8-81.87-30.61l-170.61-.13Q618,1212,573,1263.81q-35.86,44.36-33.26,97.69Z" fill="#ee7626" fill-rule="evenodd"/><path d="M1526.84,200.16c-76.2-42.27-134.5-34.51-203.81-1.2q-3.73,2-7.48,4.19l-1177,681.31c-78.81,45.62-119.35,124.31-90.08,174.88L113.67,1172c29.27,50.56,117.7,54.61,196.51,9L1423.83,536.35,2537.5,1181c78.81,45.62,167.24,41.57,196.51-9l65.21-112.66c29.27-50.56-11.27-129.26-90.08-174.88l-1177-681.31q-2.65-1.53-5.27-3Z" fill="#8ab326" fill-rule="evenodd"/></svg>