<svg id="Calque_1" data-name="Calque 1" xmlns="http://www.w3.org/2000/svg" viewBox="0 0 1417.32 1417.32"><title>Plan de travail 1</title><path d="M1303.06,749.06c0,5.67-2.66,23.15-6.57,27.56s-13.57,14.83-10.49,23.15,6.08,8.74,1.75,12.66-11,10.49-4.41,11.4,17.07,6.09,14,11.33-3.91,10.91-7.83,13.15-9.66,3.92-11.82,8.74-2.17,7.41-7.9,10.91-18.32,7.41-19.66,14.41,1.75,14.48-2.58,20.14-8.74,11.33-14,7.41-12.73-7.9-17.91-4.4-11.82,4.4-6.57,11,10.91,3.92,11.32,13.08-3.91,4.83.42,9.23,9.23,4.34,4.41,9.58-12.66,7.41-7.41,9.16,15.31,7.41,9.58,12.24-12.24,9.16-12.66,16.64-3.91,10.91.91,17.9,8.67,10.49,6.09,12.66-11.4,3.08-9.58,8.32a53.35,53.35,0,0,1,3,17.07c0,6.51-8.32,31.89-10.91,28.82s-7-10.91-12.24-10.91-11.33,2.17-14.4-3.08-5.25-14-12.24-11.33-25,10.91-26.65,13.5,4.75,23.22-.49,21-14-9.58-20.49-9.16-21.89.49-25.8,5.25-1.33,6.15-9.66,8.32-21.4,4.83-25.8,10.07-10,7.41-7.42,12.66,7.42,9.16,7.42,15.74,0,10.91,2.24,14,9.16,7,3.91,11.4-12.24,8.67-4.83,11.75,14-1.75,15.74,6.15-.42,12.66,5.74,12.24,17.48.42,15.67,4.83-13.08,17-17.91,14-4.75-4.41-12.66-2.66-18.82-2.17-21.89,1.75-12.17,6.57-8.67,14,14.83,29.72,10,30.14-13.5,2.24-15.74,9.23-7.41,12.66,3.08,12.66,17.9-6.57,23.64-.91,10.49,17.06,4.34,18.39-11.33-.49-14,6.51-.42,13.15-4.83,14.9-9.16-.42-9.16,5.25,2.17,11.33-1.33,11.82-7.83,1.33-8.32,3.92,1.82,10.91-2.17,11.4-16.15.42-19.65,5.67-3.91,20.49-7,21.4-4.83.91-7,4.41c-.42.63-1.05,1.54-1.82,2.52-3.43,4.55-9.73,11.54-10.84,10.14-1.33-1.75-4.83-6.57-7.91-8.74s-13.07-6.15-17.9-9.23-10.49-9.58-8.74-14,2.17-17.48-4.41-13.08S921,1341,917.9,1337s-2.58-2.59-3-9.58,0-11.4-7.9-9.65-15.74,4.83-15.74.42-2.66-7.83-4.83-16.58c-.83-3.5-17.9-14.9-21.82-20.07s-6.16-2.66-11-4.83,3.07-13.57,7.9-18.39-9.16-18.75-11.82-22.24-.42-5.31-.42-10.49-30.14-7.9-35.39-7-5.74,10-6.58,14-17.48,0-20.57.42-4.33,3.08-8.25,8.25-7.49-3.92-11.4-9.16-10.49,5.67-17.48,5.25-14,2.24-18.82,5.25-4.33,0-9.16-5.67-12.24-5.25-17.07-7-11.32,7.83-12.24,10.91-4.33,7-10.91,7.9-9.16-3.08-11.33-9.16-7,3.5-11.4,6.09-3.5-4.83-7.41-12.66-10.49-6.57-17.48-9.23-14.48,10.07-18.82,13.57-8.74-6.09-11.82-11.33-2.17-5.25-3-11.4-8.81,5.25-9.65,10.07-4.83.91-12.24-.91-1.75-6.51.91-9.16-4.82-7-9.65-7.41-10.07-6.09-17.07-7-19.23-6.57-22.73-7.9-7.83-.42-12.66,0-7.41-7.41-13.57-15.25-10.91,7-14,12.24-9.58,4.83-19.65,5.67-5.25-7.41-2.17-10.49-10.91-4.83-16.23-3.92-3.5,1.26-10.49,4.34-4.75-3.5-4.34-9.16-14-3.92-22.73-3.5-4.83-3.08-6.58-10.91-24,12.66-28.81,15.32-6.16,1.68-9.66-.49-7,.49-13.5,5.67-16.64,4-22.8,4.83-10-2.17-11.33-4.83-9.16-.84-15.74,1.33-16.16-5.67-23.57-9.16-6.15,1.75-12.31,3.92-9.58-8.25-12.17-13.57-.91-2.59,4.34-9.58-3.08-6.57-6.15-9.16c-2.52-2.24-6.85-.77-8.25-.21.28-.63.56-1.33.84-2,2.66-7,1.75-8.67,4.83-14.83,1.54-3,11.05-2.31,16.92-1.75s7,5.25,11.61,10.49,7-11.05,6.43-18-3.5-9.93-8.18-11.68-2.87-8.74-4.62-18-1.19-12.24-2.94-17.48-2.31-12.24-12.8-22.17-3.5-15.18-2.38-21,7-14.55,11.68-19.79,9.93-10.49,13.43-16.93,1.75-5.25-4.69-9.93-6.43,2.94-10.49,7.62-6.43-1.19-11.05-6.43,7.55-7,11.05-10.49-.56-7.55-7.55-11.68-1.19-5.25,0-9.86S249,933.21,247.81,929.15s1.75-5.25,6.43-9.93,1.12-10.49-1.75-17.48,4.06-9.3,7-14.55,2.87-4.06,8.11-9.3-8.11-7-11.61-4.13-7,1.19-11.68-1.75,4.06-8.11,7.55-11.61,4.13-7.62,4.69-10.49,4.06-4.69,7.55-5.25,2.94-5.25,4.69-12.24,5.81-2.94,11.05-2.94-4.62-11.05-14-21-11.61-41.4-12.24-50.15-13.36-15.11-16.3-22.1-14.55-7.62-21-10.49-16.92-12.24-21-21.61-11.05-8.74-17.48-12.8-4.69-7-7.55-11.68-15.74-10.49-21-15.11-1.75-9.37-4.69-15.74-13.43,3.5-18.67,6.37c-4.83,2.66-8.6-1.47-9.23-2.24,3-2.1,5.95-4.06,8.67-5.88,21-14,26.79-47.84,29.16-60.64s19.79-19.79,30.28-24.48,24.48,9.3,39.66,16.3,1.12-17.48-17.48-32.59-11.68-12.87-24.48-17.48,1.12-30.35,3.5-39.66,7-14,16.3-16.3-4.69-12.87-11.68-17.48,1.19-24.48,3.5-42,8.18-37.35,11.68-45.46,0-7-5.81-22.17S193,323,193,302s9.3-40.78,12.8-65.25-1.19-37.28-4.69-52.45,3.5-12.8,17.48-16.3,32.66-29.16,39.66-33.85,57.14-26.79,73.44-29.1,83.93-15.18,96.73-17.48,44.34-18.67,54.83-21,35-2.38,50.08-2.38,59.45-22.1,59.45-22.1,5.53,10.14,6.43,19-.91,18.32,4.41,24.48,9.58,7,16.58,14,10.49,20.07,7.9,25.32-12.31,7-9.65,16.64,6.15,16.58,5.25,22.66-4.41,8.81-.91,18.39,1.82,21,11.4,19.23S650,197.44,657,199.12s8.74,14.9,14.83,19.3,16.65,11.33,18.39,20.07,3.5,16.58,10.49,17.48,14.9-3.5,22.73,3.5S735.64,277,747,269.06s8.67-25.32,15.67-28,18.39-3.5,28-7.83,10.49-3.5,22.8-5.25,19.16-13.08,27.07-8.74,16.58,19.23,18.39,26.23-7.9,12.24,7.83,14S893,270.88,889.51,277s-8.74,12.24-7,21S897.41,332,897.41,339s-3.5,21,2.59,30.63,29.72,23.64,39.38,23.64,21-2.66,28-7.9,5.18-12.24,15.67-12.24,16.65-1.75,13.15,6.15-11.33,16.58-.84,15.67,19.16-1.68,28.82-.84,21,7,24.48,12.24,10.49,7.9,10.49,20.07,5.25,27.14,1.75,32.38-3.5,12.24-.91,21,14,28.88,17.48,22.73,6.15-18.32,13.15-20.14,41.12-7.83,45.46-2.59,13.15,14,24.48,9.58,27.14-7,35.81-8.67,15.8-2.66,19.3,2.59,10.49,16.58,17.48,18.39,14.83,7.83,15.67,17.48,4.41,18.32,9.65,14.83,6.15-8.74,14.83-7.83,13.15,9.58,10.49,14.83-21.82,18.33-21.82,24.48.84,15.74-3.5,24.48-13.15,24.48-2.66,22.73,21.89-5.25,21.89,0-1.75,10.49,1.75,15.74,9.65,13.15,4.34,20.14-14,8.67-21,17.48-5.18,14-5.18,18.32-5.31,11.33-.91,14.83,15.74.91,18.39,6.15c2.52,5,9.86,6.09,17.42,6.15-1.19,3.5-11.05,21.68-6.09,25.74C1291.66,741.64,1303.06,743.39,1303.06,749.06Z" fill="none" stroke="#4a6275" stroke-miterlimit="10" stroke-width="10"/><path d="M205.8,469.54s7.57.44,11.59,4S231.2,492.71,237,490.48s14.7-6.68,23.17-10.7,18.27-9.8,27.63-4.9,28.07,10.25,31.19,15.6,10.25,12.47,15.15,10.25,5.79-8.47,12-8.47,12,3.57,9.36,7.13-10.24,7.13-7.12,12.48,5.34,5.35,10.69,8.47,8.91,5.35,16.93,7.13,12.92,6.24,15.15,6.68,12,1.34,11.14,5.34-2.23,6.69-1.33,11.14,2.67,15.6,7.57,16,18.27-3.57,19.6,0,2.23,9.8,7.57,6.68,5.79-7.13,10.7-8.91,13.37-3.12,17.83-2.67,7.57,0,12.47-3.12,4-9.36,11.58-3.57,12,8,15.16,4.9,5.34-14.26,9.36-8,2.23,14.71,8.46,10.69S533.75,552,540.43,552s12.92-.45,19.61,4S577,568.9,572.52,572.47s-8.47,8-13.37,9.36-14.25,4-19.16,9.36-13.81,29-10.25,30.3,6.68.45,8.91,4.46,5.35,12.92,8.47,9.36,5.35-22.72,13.81-25,23.17-7.57,24.06-2.67,6.69,14.26,8.47,10.25,0-12.48,6.24-12.92,15.6-9.36,12.48,3.12-12.92,14.26-.44,14.7a67.26,67.26,0,0,1,25,5.34c4,1.78,23.62,9.8,25,4s8-22.28,13.82-16,7.12,8.47,12,8.47,8.47,3.56,6.24,9.8-9.81,15.15-11.59,20.5.44,12.48,5.79,8.91,32.53-20.94,34.31-17.82,9.8,12,6.68,16-11.14,9.8-4.45,12,6.69-4.46,12-4.9,20.05-11.58,25.84-9.8,11.58,5.79,15.15,3.57,15.15-10.7,19.17-8S810,662,814,662s12.92-1.78,15.59,3.56,7.13,6.68,12.92,8.91,18.71,7.13,24.51,4.9,9.36-5.34,12.48-5.79,15.15-3.12,18.27,1.34,15.15,8,20.05,4.45,9.36-11.58,15.59-11.14,25.39,6.24,34.75,7.13,17.38,1.34,23.17-3.57,12.92-16,20.05-15.6,16,6.69,19.16,10.25,5.35,8,10.25,5.8,11.15-4.9,13.82-8.91,16.93-15.15,24.95-12,20.5,7.57,24.06,9.36,12.92,6.24,18.27,5.35,25.39-2.23,25.84,4-2.23,12.92,4,10.7,8-6.68,12.92-7.13,12.92-1.34,16.49-3.12,18.71-9.8,14.7,0-18.27,16.48-5.79,20.94,18.26,4.46,24.51,4.9,13.81,2.67,16,5.79,5.35,4,9.36,2.67,16-6.24,16-6.24" fill="none" stroke="#868686" stroke-miterlimit="10" stroke-width="4"/><path d="M407.2,90.35s22.72,29,30.74,46.79,19.17,46.34,20.05,52.13,2.68,13.37,7.13,18.71,11.58,13.37,18.71,13.37,13.81-3.12,20.05,0,8.46,5.34,13.37,5.34,11.14-3.12,16-.44,10.25,6.68,5.34,8.91-26.29,12.48-25,16,3.57,6.68,8,12,11.59,11.14,8,13.37-8.91,9.36-3.12,9.8,10.25-3.12,13.81,2.23,4.9,8,10.25,10.25,8.46.44,11.58,4.9,11.58,10.69,16.93,8.47,9.8-5.35,12-3.12,4,6.68,12,4.9,17.83-4,20.94-.89,6.69,5.35,12.48,4.9,10.24-2.67,16.49-3.12,12-.89,13.37,2.23,7.57,10.25,11.58,7.57,3.57-8.91,8-9.8,14.26-.89,9.36-5.79-15.59-12.48-7.12-12.92,17.82-6.69,26.29-.45,19.16,19.61,13.37,20.5-11.58-.44-14.7,3.12-19.16,18.71-14.7,20.94,9.36,14.26,7.13,17.38-4,3.12-4.9,7.13-1.78,7.13,5.79,8,26.74-2.67,29-2.67,3.57-.44,3.57,6.24,4.9,17.82,9.36,14.7,13.37-8,17.38-7.57,28.52,12.92,27.18,17.38-4.46,12.92-3.57,16.49,4.45,9.8,9.36,7.13,9.36-7.13,11.14-6.24,6.24,14.7,2.67,15.6-9.8,0-11.14,2.67-6.68,10.7-9.36,12-11.28,2.24-11.58,7.13c-.44,7.13,7.57,19.16,12.92,22.72s9.36,4.46,12,7.57,13.82,13.37,10.7,16.49-11.58,7.57-11.58,11.58-.89,11.59,6.24,12.48,13.82,1.34,19.61,2.23,14.7,1.78,15.59,6.68,1.78,5.79,7.13,8.47,10.24,13.37,5.35,13.81-13.37-1.78-15.15,2.67-4.46,5.34-1.34,9.36,4.9,14.7,3.12,16.49-8.47,3.12-11.14,3.12-7.13.89-4.46,4.46,7.57,8.91,5.79,12.48S825.16,609,826.94,617s7.57,20,2.67,21.38-8,.89-8.46,6.69-.9,16.48-.9,16.48" fill="none" stroke="#868686" stroke-miterlimit="10" stroke-width="4"/><path d="M790,519.89c-3.31.77-4,4.46-3.12,7.13s3.12,4.9,7.13,3.56,4.9-6.24,4.46-8.47S795.75,518.55,790,519.89Z" fill="none" stroke="#868686" stroke-miterlimit="10" stroke-width="0.4"/><path d="M857.24,679.41s-11.14,13.37-4,15.15,14.26,3.12,11.58,5.35-9.8,4-10.7,8.47,1.34,8.91-4,13.37S839,731.1,837.19,736s.45,20.94-4,24.06-14.25,3.56-14.25,8.47,2.67,11.58-2.68,14.26-13.81,8.91-8,11.14,9.36-.44,10.7,5.35,4,10.69,0,14.26-13.82,11.58-5.79,13.37,10.69,2.23,10.69,5.79-2.67,7.13,2.23,15.15,8,11.58,8.47,19.16-.44,8.47,1.34,12.92,4,7.57.44,8.47-12.48,2.67-8,9.8,8,7.57,4,11.14-12,1.78-5.79,8.91,10.69,15.15,11.14,20.5,2.23,33-3.12,34.75-9.36,2.67-7.13,7.58,8.91,13.81,6.24,16-8.46,6.24-2.23,8.91,12.92,2.23,16.93,7.13,12.92,7.57,1.34,10.69-24.51-4.9-25.4,3.57.83,20.18-1.33,26.29c-2.49,7-6,19.27-9.92,22.76s-9.18,13.11-14,10.93-7-7-12.68-4.37-14.43,6.56-14,14-1.31,10.93,7.87,13.55,14.86-2.19,15.3,4.81,2.19,20.11,2.62,23.6,3.06,14.43-3.93,10.93-13.11-5.25-16.61-4.37-7.87-.87-7.87,6.12,1.31,8.74,2.19,14.43-.44,4.81,5.68,7.87,15.74,9.62,17,6.56,1.31-6.12-2.62-9.18-12.24-10.93-7-12.24,7.43-4.37,13.11-.87,11.8,4.81,14.43,9.62,2.62,20.54,7,14.43,9.18-17.92,9.62-11.37-.44,11.8,3.5,14.86,10.93,8.74,7.43,10.49-9.62,2.19-14.42,6.56S813.45,1215,813,1218.53" fill="none" stroke="#868686" stroke-miterlimit="10" stroke-width="4"/><path d="M279.72,829.05s.44,3.5,5.68,4.81,9.18,6.56,12.68,7.87,10.93.87,8.31,6.12-5.68,7.87-2.62,12.24,16.17,10.93,21.42,7.43,15.74-14.86,18.36-10.05,4.81,10.93,9.62,7.87,3.5-5.68,9.18-5.68,21.86.44,24.48,3.93,7,11.37,12.24,10.93,9.18-2.62,14-1.75,14,2.62,16.17.87,7.87-7,11.8-7,26.23-3.93,35.41,1.31,13.11,11.8,18.8,10.49,6.12-2.62,11.8,2.19,11.8,9.62,17.92,10.05,25.79,1.31,28.41,4.81,15.74,22.73,18.8,19.23,4.37-8.74,7.43-7.87,19.67,9.62,21.86,13.55,6.12,9.18,10.05,7,19.23-7,19.67-2.62,2.62,17.92,7.43,18.36,9.18-6.56,9.62-10.05,4.37-21,8.31-21,17.48-2.62,22.29,1.31,11.8,4.81,14,4.81,7-.44,7-5.25-2.62-17,3.06-18.8,13.55.87,16.17-3.06,8.31-17.48,10.93-12.68,5.25,10.05,6.12,4.81-7.43-17.48-.87-17.92,11.8-3.06,15.3,2.62,9.62,19.67,11.37,14.43-1.31-7.43,2.62-10.93,14.42-10.05,17.92-5.25S792.47,879.32,796,878s8.74-3.06,9.18-7.43-1.75-10.05,3.5-10.05,8.31,1.31,8.31,3.93-1.31,9.18,3.06,6.56,9.18-10.05,13.55-8.31" fill="none" stroke="#868686" stroke-miterlimit="10" stroke-width="4"/><circle cx="1015.4" cy="948.39" r="12.94" fill="#4b6376" stroke="#222221"/><circle cx="417.41" cy="1042.8" r="12.94" fill="#4b6376" stroke="#222221"/><circle cx="504.84" cy="752.55" r="12.94" fill="#4b6376" stroke="#222221"/><path d="M839.51,271.17a30.09,30.09,0,1,1-30.09-30.09A30.08,30.08,0,0,1,839.51,271.17Z" fill="#8ab43c" stroke="#8ab43c" stroke-width="10"/><path d="M1043.19,915h4.87v33.61h16.11v4.08h-21Z" fill="#4b6376"/><path d="M1084.42,952.65l-.39-3.41h-.17a10.09,10.09,0,0,1-8.28,4c-5.48,0-8.27-3.86-8.27-7.77,0-6.54,5.81-10.12,16.27-10.07v-.56c0-2.24-.61-6.26-6.15-6.26a13.48,13.48,0,0,0-7,2l-1.12-3.24a16.82,16.82,0,0,1,8.89-2.4c8.28,0,10.29,5.65,10.29,11.07v10.12a38.23,38.23,0,0,0,.45,6.49Zm-.73-13.81c-5.37-.11-11.46.84-11.46,6.1a4.36,4.36,0,0,0,4.64,4.7,6.74,6.74,0,0,0,6.54-4.53,5.23,5.23,0,0,0,.27-1.56Z" fill="#4b6376"/><path d="M1120.9,938.89c0,10-6.93,14.37-13.48,14.37-7.33,0-13-5.37-13-13.92,0-9.06,5.93-14.37,13.42-14.37C1115.64,925,1120.9,930.61,1120.9,938.89Zm-21.47.28c0,5.92,3.41,10.4,8.22,10.4s8.22-4.42,8.22-10.51c0-4.59-2.3-10.4-8.11-10.4S1099.42,934,1099.42,939.17Z" fill="#4b6376"/><path d="M1127.12,932.91c0-2.8-.06-5.09-.23-7.33h4.36l.28,4.47h.11a10,10,0,0,1,8.95-5.09c3.74,0,9.56,2.24,9.56,11.52v16.16h-4.92V937c0-4.36-1.62-8-6.26-8a7,7,0,0,0-6.6,5,7.21,7.21,0,0,0-.33,2.29v16.27h-4.92Z" fill="#4b6376"/><path d="M443.16,1019.61a47.13,47.13,0,0,1,8.89-.79c4.86,0,8,.84,10.35,2.74a7.91,7.91,0,0,1,3.13,6.65c0,3.64-2.4,6.82-6.37,8.28v.11c3.58.89,7.77,3.86,7.77,9.45a10.15,10.15,0,0,1-3.19,7.55c-2.63,2.4-6.88,3.52-13,3.52a56.57,56.57,0,0,1-7.55-.45ZM448,1035h4.41c5.15,0,8.17-2.68,8.17-6.32,0-4.42-3.35-6.15-8.28-6.15a20.82,20.82,0,0,0-4.3.34Zm0,18.06a26,26,0,0,0,4.08.23c5,0,9.68-1.85,9.68-7.32,0-5.15-4.42-7.27-9.73-7.27h-4Z" fill="#4b6376"/><path d="M476.29,1044.15c.11,6.66,4.36,9.4,9.28,9.4a17.8,17.8,0,0,0,7.49-1.4l.84,3.52a21.88,21.88,0,0,1-9,1.68c-8.33,0-13.31-5.48-13.31-13.65s4.81-14.6,12.7-14.6c8.83,0,11.18,7.77,11.18,12.75a18.93,18.93,0,0,1-.16,2.29Zm14.42-3.52c.05-3.13-1.28-8-6.82-8-5,0-7.16,4.59-7.55,8Z" fill="#4b6376"/><path d="M516.57,1056.79l-.39-3.41H516a10.09,10.09,0,0,1-8.28,4c-5.48,0-8.27-3.86-8.27-7.77,0-6.54,5.81-10.12,16.27-10.07V1039c0-2.24-.61-6.26-6.15-6.26a13.48,13.48,0,0,0-7,2l-1.12-3.24a16.83,16.83,0,0,1,8.89-2.4c8.28,0,10.29,5.65,10.29,11.07v10.12a38.21,38.21,0,0,0,.45,6.49Zm-.73-13.81c-5.37-.11-11.46.84-11.46,6.1a4.36,4.36,0,0,0,4.64,4.7,6.74,6.74,0,0,0,6.54-4.53,5.25,5.25,0,0,0,.27-1.56Z" fill="#4b6376"/><path d="M551.19,1049.41c0,2.8.05,5.26.22,7.38h-4.36l-.28-4.42h-.12a10.17,10.17,0,0,1-8.95,5c-4.25,0-9.34-2.35-9.34-11.85v-15.83h4.92v15c0,5.15,1.56,8.61,6,8.61a7.12,7.12,0,0,0,6.49-4.47,7.2,7.2,0,0,0,.44-2.52v-16.61h4.92Z" fill="#4b6376"/><path d="M561.27,1029.72l5.31,15.21a70.07,70.07,0,0,1,2.18,6.94h.17c.61-2.24,1.39-4.47,2.29-6.94l5.26-15.21h5.14L571,1056.79h-4.7L556,1029.72Z" fill="#4b6376"/><path d="M601.05,1056.79l-.39-3.41h-.17a10.09,10.09,0,0,1-8.28,4c-5.48,0-8.27-3.86-8.27-7.77,0-6.54,5.81-10.12,16.27-10.07V1039c0-2.24-.61-6.26-6.15-6.26a13.48,13.48,0,0,0-7,2l-1.12-3.24a16.83,16.83,0,0,1,8.89-2.4c8.28,0,10.29,5.65,10.29,11.07v10.12a38.14,38.14,0,0,0,.45,6.49Zm-.73-13.81c-5.37-.11-11.46.84-11.46,6.1a4.36,4.36,0,0,0,4.64,4.7,6.74,6.74,0,0,0,6.54-4.53,5.24,5.24,0,0,0,.27-1.56Z" fill="#4b6376"/><path d="M618.51,1022.12a3,3,0,0,1-6.09,0,3,3,0,0,1,3.07-3.08A2.92,2.92,0,0,1,618.51,1022.12ZM613,1056.79v-27.07H618v27.07Z" fill="#4b6376"/><path d="M625.45,1051.76a12.89,12.89,0,0,0,6.49,2c3.58,0,5.26-1.79,5.26-4s-1.4-3.63-5-5c-4.86-1.74-7.16-4.42-7.16-7.66,0-4.36,3.52-7.94,9.34-7.94a13.55,13.55,0,0,1,6.66,1.68l-1.24,3.58a10.5,10.5,0,0,0-5.53-1.57c-2.91,0-4.53,1.68-4.53,3.69,0,2.24,1.62,3.24,5.14,4.59,4.7,1.79,7.1,4.14,7.1,8.16,0,4.75-3.69,8.11-10.12,8.11a15.45,15.45,0,0,1-7.61-1.85Z" fill="#4b6376"/><path d="M427.24,802l-3.92,11.86h-5l12.8-37.69H437l12.85,37.69h-5.19l-4-11.86Zm12.35-3.8-3.69-10.85c-.83-2.46-1.39-4.7-2-6.88h-.11c-.56,2.24-1.17,4.53-1.91,6.82l-3.69,10.9Z" fill="#4b6376"/><path d="M455,794.13c0-2.8-.07-5.09-.23-7.33h4.3l.23,4.36h.16a9.34,9.34,0,0,1,8.5-5,8,8,0,0,1,7.66,5.43h.11a11.43,11.43,0,0,1,3-3.52,9.26,9.26,0,0,1,6-1.9c3.58,0,8.89,2.35,8.89,11.74v15.94h-4.81V798.54c0-5.2-1.9-8.33-5.87-8.33a6.36,6.36,0,0,0-5.81,4.47,7.86,7.86,0,0,0-.4,2.46v16.72H472V797.65c0-4.31-1.9-7.44-5.64-7.44-3.09,0-5.31,2.46-6.11,4.92a7,7,0,0,0-.38,2.4v16.33H455Z" fill="#4b6376"/><path d="M507.19,779.19a3,3,0,0,1-6.09,0,3,3,0,0,1,3.07-3.08A2.92,2.92,0,0,1,507.19,779.19Zm-5.48,34.67V786.8h4.92v27.07Z" fill="#4b6376"/><path d="M517.54,801.22c.11,6.66,4.36,9.4,9.28,9.4a17.83,17.83,0,0,0,7.5-1.4l.83,3.52a21.88,21.88,0,0,1-9,1.68c-8.33,0-13.31-5.48-13.31-13.65s4.81-14.6,12.69-14.6c8.84,0,11.19,7.77,11.19,12.75a18.93,18.93,0,0,1-.16,2.29ZM532,797.7c.05-3.13-1.28-8-6.83-8-5,0-7.16,4.59-7.54,8Z" fill="#4b6376"/><path d="M542.83,794.13c0-2.8-.05-5.09-.22-7.33H547l.27,4.47h.12a9.94,9.94,0,0,1,8.95-5.09c3.74,0,9.56,2.24,9.56,11.52v16.16h-4.93v-15.6c0-4.36-1.61-8-6.26-8a7,7,0,0,0-6.6,5,7.18,7.18,0,0,0-.34,2.29v16.27h-4.92Z" fill="#4b6376"/><path d="M573.21,808.83a12.91,12.91,0,0,0,6.49,2c3.58,0,5.26-1.79,5.26-4s-1.39-3.63-5-5c-4.86-1.73-7.16-4.42-7.16-7.66,0-4.36,3.52-7.94,9.33-7.94a13.56,13.56,0,0,1,6.67,1.68l-1.24,3.58a10.48,10.48,0,0,0-5.53-1.57c-2.91,0-4.52,1.68-4.52,3.69,0,2.24,1.61,3.24,5.14,4.59,4.7,1.79,7.1,4.14,7.1,8.16,0,4.75-3.69,8.11-10.12,8.11a15.47,15.47,0,0,1-7.61-1.85Z" fill="#4b6376"/><path d="M745.33,316.72h7.74v36h17.44v6.48H745.33Z" fill="#4b6376"/><path d="M784.1,316.72v42.44h-7.74V316.72Z" fill="#4b6376"/><path d="M793,316.72h7.74v36h17.44v6.48H793Z" fill="#4b6376"/><path d="M824,316.72h7.74v36H849.2v6.48H824Z" fill="#4b6376"/><path d="M878.78,340.33h-16V352.8h17.89v6.36H855V316.72h24.68v6.36H862.78v11h16Z" fill="#4b6376"/><path d="M911.73,1019.53l-1.88,9.7h-8L911,986.78h9.88l8.25,42.44h-8l-1.83-9.7Zm6.87-6.42-1.39-8.88c-.44-2.58-1-6.8-1.38-9.63h-.19c-.44,2.83-1.07,7.24-1.52,9.7l-1.57,8.81Z" fill="#4b6376"/><path d="M941.32,990.25a4.2,4.2,0,0,1-4.34,4.47,4.48,4.48,0,1,1,4.34-4.47Zm-8.25,39V998.43h8.25v30.79Z" fill="#4b6376"/><path d="M946.85,1021.79a11.55,11.55,0,0,0,5.55,1.64c2.14,0,3.33-.95,3.33-2.77,0-1.57-.87-2.58-3.58-4.15-5-2.83-6.24-6-6.24-8.88,0-5.54,4-9.7,10.14-9.7a14.55,14.55,0,0,1,6.24,1.38l-1.45,6a8.59,8.59,0,0,0-4.29-1.26c-2.08,0-3.09,1.26-3.09,2.65s.7,2.14,3.59,3.84c4.53,2.58,6.23,5.8,6.23,9.32,0,6.3-4.52,9.7-10.89,9.7-2.58,0-5.6-.69-7-1.77Z" fill="#4b6376"/><path d="M967.51,1007.69c0-3.4-.19-6.36-.26-9.25h7.12l.38,3.53h.12a8.85,8.85,0,0,1,7.5-4c5.85,0,8.18,4.66,8.18,11.52v19.77H982.3V1010c0-2.64-.63-5.1-3-5.1-1.39,0-2.53.94-3.09,2.77a7.9,7.9,0,0,0-.44,2.83v18.76h-8.25Z" fill="#4b6376"/><path d="M1003.2,1016.75c.12,4.79,2.9,6.55,6.54,6.55a18.2,18.2,0,0,0,5.86-1l1.13,5.92a25.55,25.55,0,0,1-8.51,1.39c-8.37,0-13-5.54-13-15.18,0-10.33,5.35-16.49,12.34-16.49,6.61,0,10.46,5.23,10.46,14.54a21.5,21.5,0,0,1-.26,4.28Zm7.36-5.79c0-4-1-7.05-3.47-7.05-2.7,0-3.77,4-3.84,7.05Z" fill="#4b6376"/><path d="M932.7,1048.6c-3.66,5.73-6.68,13.92-6.68,25.69,0,11.4,3,19.52,6.68,25.43h-5.93c-3.52-4.72-7.24-13.35-7.24-25.5.26-12.28,3.72-20.84,7.24-25.63Z" fill="#4b6376"/><path d="M959.13,1071.51c0,14.67-5.34,21.16-12,21.16-8.95,0-12-10.27-12-20.78,0-11.78,3.77-21.16,12.28-21.16C956.93,1050.74,959.13,1061.76,959.13,1071.51Zm-15.61.19c-.12,9.57,1.08,13.91,3.84,13.91,2.58,0,3.47-4.53,3.47-13.91,0-8.75-.82-13.92-3.47-13.92S943.46,1062.2,943.52,1071.71Z" fill="#4b6376"/><path d="M962.08,1092.17v-5.54l4.1-5.23c5.29-6.74,9.63-12.34,9.63-18.2,0-3.27-1.82-5.6-5.22-5.6a11.63,11.63,0,0,0-6.17,2.08l-1.45-6.42a18.26,18.26,0,0,1,9.13-2.52c8.95,0,11.84,6,11.84,11.84,0,7.68-4.78,13.86-9.51,19.33l-2.46,2.9v.13H984.5v7.24Z" fill="#4b6376"/><path d="M988.46,1099.72c3.65-5.79,6.68-14.23,6.68-25.69s-3-19.64-6.68-25.44h5.91c3.54,4.6,7.24,13,7.24,25.44-.25,12.47-3.7,20.78-7.24,25.69Z" fill="#4b6376"/><path d="M887.88,468.08V425.64h7.55L902,442.27c1.26,3.27,3.33,8.75,4.53,12.4h.13c-.25-4.47-.82-11.84-.82-19.65v-9.38h7.24v42.44h-7.55L899,452a122.49,122.49,0,0,1-4.28-12.78h-.13c.19,4.28.5,10.83.5,19.33v9.57Z" fill="#4b6376"/><path d="M941.76,452.59c0,12.85-7.12,16-11.78,16-7.36,0-11.78-5.8-11.78-15.8,0-11.08,5.79-16,11.9-16C937.36,436.79,941.76,442.9,941.76,452.59Zm-15.36,0c0,5.29.82,9.7,3.78,9.7,2.64,0,3.34-5.16,3.34-9.7,0-4.22-.7-9.57-3.47-9.57C927,443,926.4,448.37,926.4,452.59Z" fill="#4b6376"/><path d="M946.35,446.55c0-3.08-.13-6.42-.25-9.25h7.18l.44,4.47h.19c1.39-3.27,3.84-5,6.11-5a7.07,7.07,0,0,1,1.76.12v8.19A7.38,7.38,0,0,0,960,445c-1.76,0-4.09,1.2-5,4.41a12.42,12.42,0,0,0-.31,3.09v15.61h-8.31Z" fill="#4b6376"/><path d="M987,424.51V459c0,3,.12,6.29.25,9.13h-7.12l-.44-3.46h-.12a7.5,7.5,0,0,1-6.42,4c-6.55,0-9.58-7.24-9.58-15.87,0-10.7,4.66-15.93,9.89-15.93a5.24,5.24,0,0,1,5.16,3.08h.12V424.51Zm-8.25,24.62c0-.57,0-1.2-.06-1.82-.31-1.89-1.32-3.59-3-3.59-2.9,0-4,4.22-4,9.19,0,5.85,1.57,8.94,3.9,8.94,1,0,2.21-.57,2.83-2.71a5.22,5.22,0,0,0,.25-1.89Z" fill="#4b6376"/><path d="M909.19,487.46c-3.65,5.73-6.67,13.92-6.67,25.69,0,11.4,3,19.52,6.67,25.43h-5.92c-3.52-4.72-7.24-13.35-7.24-25.5.25-12.28,3.72-20.84,7.24-25.63Z" fill="#4b6376"/><path d="M933.24,497.28H922.41l-.94,7.3h1.26a13,13,0,0,1,7.68,3.09c2.27,2.2,3.52,5.29,3.52,9.38,0,8-5.29,14.48-14.23,14.48a18.33,18.33,0,0,1-7.68-1.64l1.26-6.55a13.65,13.65,0,0,0,5.86,1.45c4,0,6.67-2.58,6.67-7,0-5.48-4.15-7.3-8.88-7.3a20,20,0,0,0-2.9.13l2.27-20.52h16.94Z" fill="#4b6376"/><path d="M941.73,524.67a18.12,18.12,0,0,0,3.78-.31,10,10,0,0,0,4.79-2.46,15.63,15.63,0,0,0,4-8.25h-.19a7.62,7.62,0,0,1-5.85,2.52c-5.29,0-9.64-4.72-9.64-12.22,0-7.05,4.34-14.36,12.22-14.36,7.62,0,11.58,6.93,11.58,16.81,0,9.25-3,15.74-6.73,19.77a17.49,17.49,0,0,1-10.07,5.16,26.27,26.27,0,0,1-3.85.19Zm5-21.41c.07,4,1.33,7.24,3.85,7.24a3.6,3.6,0,0,0,3.15-2.14c.31-.82.38-1.64.38-4.34,0-5.41-1.51-8.43-3.72-8.43S946.64,498.29,946.7,503.26Z" fill="#4b6376"/><path d="M965,538.58c3.65-5.79,6.67-14.23,6.67-25.69s-3-19.64-6.67-25.44h5.91c3.53,4.6,7.24,13,7.24,25.44-.25,12.47-3.71,20.78-7.24,25.69Z" fill="#4b6376"/><path d="M515.27,1114.74c0,16-5.67,22.48-13.73,22.48-9.63,0-13.41-10.2-13.41-21.85s4.6-21.6,14-21.6C512.38,1093.78,515.27,1105,515.27,1114.74Zm-18.58.76c0,9.63,1.83,14.54,5.16,14.54s4.79-6.3,4.79-14.92c0-7.43-1.13-14.17-4.85-14.17C498.53,1101,496.7,1106.37,496.7,1115.5Z" fill="#4b6376"/><path d="M528.42,1097.74a4.2,4.2,0,0,1-4.34,4.47,4.47,4.47,0,1,1,4.34-4.47Zm-8.25,39v-30.79h8.25v30.79Z" fill="#4b6376"/><path d="M534,1129.29a11.49,11.49,0,0,0,5.54,1.64c2.14,0,3.34-.95,3.34-2.77,0-1.57-.88-2.58-3.59-4.15-5-2.83-6.24-6-6.24-8.88,0-5.54,4-9.7,10.14-9.7a14.52,14.52,0,0,1,6.24,1.38l-1.45,6a8.53,8.53,0,0,0-4.28-1.26c-2.08,0-3.09,1.26-3.09,2.65s.7,2.14,3.59,3.84c4.53,2.58,6.23,5.8,6.23,9.32,0,6.3-4.53,9.7-10.89,9.7-2.58,0-5.6-.69-7-1.77Z" fill="#4b6376"/><path d="M561.47,1124.25c.12,4.79,2.9,6.55,6.55,6.55a18.19,18.19,0,0,0,5.85-1l1.13,5.92a25.5,25.5,0,0,1-8.5,1.39c-8.37,0-13-5.54-13-15.18,0-10.33,5.35-16.49,12.34-16.49,6.61,0,10.46,5.22,10.46,14.54a22.18,22.18,0,0,1-.25,4.28Zm7.37-5.79c0-4-1-7.05-3.47-7.05-2.7,0-3.78,4-3.84,7.05Z" fill="#4b6376"/><path d="M603.27,1093.14c-3.65,5.73-6.67,13.92-6.67,25.69,0,11.4,3,19.52,6.67,25.44h-5.92c-3.52-4.72-7.24-13.35-7.24-25.5.25-12.28,3.72-20.84,7.24-25.63Z" fill="#4b6376"/><path d="M626.69,1102a25.28,25.28,0,0,0-3.4.44c-5.42,1.2-8.12,5.73-9.13,10.89h.19a7.69,7.69,0,0,1,6.3-3.28c5.54,0,9.26,5,9.26,12.72,0,7.18-3.65,14.48-11.65,14.48-7.75,0-12.46-6.74-12.46-16.88,0-8.94,3-15,6.73-19.08a18.62,18.62,0,0,1,10-5.54,28.54,28.54,0,0,1,4.16-.44Zm-4.91,20.72c-.07-3.46-1.2-6.73-3.85-6.73-1.32,0-2.58.88-3.33,2.77a9.39,9.39,0,0,0-.44,3.59c0,5.35,1.51,8.94,4,8.94C620.9,1131.24,621.78,1127.59,621.78,1122.67Z" fill="#4b6376"/><path d="M656.52,1116.06c0,14.67-5.35,21.16-12,21.16-8.94,0-12-10.27-12-20.78,0-11.78,3.78-21.16,12.28-21.16C654.32,1095.29,656.52,1106.31,656.52,1116.06Zm-15.61.19c-.13,9.57,1.07,13.91,3.84,13.91,2.58,0,3.46-4.53,3.46-13.91,0-8.75-.82-13.92-3.46-13.92S640.85,1106.75,640.91,1116.25Z" fill="#4b6376"/><path d="M659,1144.27c3.65-5.79,6.67-14.23,6.67-25.69s-3-19.64-6.67-25.44h5.91c3.53,4.6,7.24,13,7.24,25.44-.25,12.47-3.71,20.78-7.24,25.69Z" fill="#4b6376"/><path d="M333,361a43,43,0,0,1,8.63-.82c4.91,0,8.76.69,11.52,3.28,2.52,2.2,3.65,5.73,3.65,9.32,0,4.6-1.39,7.81-3.59,10.2-2.64,2.77-6.93,4-10.33,4h-1.63v15.8H333Zm8.25,19.26a4.23,4.23,0,0,0,1.32.13c4.16,0,6.05-3,6.05-6.93,0-3.72-1.52-6.61-5.35-6.61a6.16,6.16,0,0,0-2,.31Z" fill="#4b6376"/><path d="M373.84,402.86l-.44-3h-.12a8,8,0,0,1-6.8,3.53c-4.66,0-8.12-3.91-8.12-9.38,0-8.06,7.12-11.4,14.1-11.46v-.69c0-2.39-1.45-4.16-4.34-4.16a11.53,11.53,0,0,0-6.3,1.76l-1.51-5.54a20.07,20.07,0,0,1,9.57-2.33c9.38,0,10.89,6.55,10.89,12.78V395.8a41.48,41.48,0,0,0,.51,7.05Zm-1.13-15c-2.77.06-6.55.94-6.55,5.22,0,3.09,1.7,4.22,3,4.22a3.59,3.59,0,0,0,3.4-2.65,5.47,5.47,0,0,0,.18-1.45Z" fill="#4b6376"/><path d="M386.36,395.42a11.53,11.53,0,0,0,5.55,1.64c2.14,0,3.33-.95,3.33-2.77,0-1.57-.88-2.58-3.59-4.15-5-2.83-6.23-6-6.23-8.88,0-5.54,4-9.7,10.14-9.7a14.52,14.52,0,0,1,6.24,1.38l-1.45,6a8.54,8.54,0,0,0-4.28-1.26c-2.08,0-3.09,1.26-3.09,2.65s.7,2.14,3.59,3.84c4.53,2.58,6.23,5.8,6.23,9.32,0,6.3-4.53,9.7-10.89,9.7-2.58,0-5.61-.69-7.06-1.77Z" fill="#4b6376"/><path d="M418.53,382.52v5.92H406v-5.92Z" fill="#4b6376"/><path d="M446.8,359.28v34.44c0,3,.12,6.29.25,9.13h-7.12l-.44-3.46h-.12a7.5,7.5,0,0,1-6.42,4c-6.55,0-9.58-7.24-9.58-15.87,0-10.7,4.66-15.93,9.89-15.93a5.24,5.24,0,0,1,5.16,3.08h.12V359.28Zm-8.25,24.62c0-.57,0-1.2-.06-1.82-.31-1.89-1.33-3.59-3-3.59-2.9,0-4,4.22-4,9.19,0,5.85,1.57,8.94,3.9,8.94,1,0,2.21-.57,2.83-2.71a5.22,5.22,0,0,0,.25-1.89Z" fill="#4b6376"/><path d="M459.45,390.39c.12,4.79,2.9,6.55,6.55,6.55a18.19,18.19,0,0,0,5.85-1l1.13,5.92a25.53,25.53,0,0,1-8.5,1.39c-8.37,0-13-5.54-13-15.18,0-10.33,5.35-16.49,12.34-16.49,6.61,0,10.46,5.23,10.46,14.54a22.16,22.16,0,0,1-.25,4.28Zm7.36-5.79c0-4-1-7.05-3.46-7.05-2.7,0-3.78,4-3.84,7.05Z" fill="#4b6376"/><path d="M491.17,382.52v5.92H478.65v-5.92Z" fill="#4b6376"/><path d="M518,402.23a16.68,16.68,0,0,1-6.42,1c-10.83,0-16-8.94-16-21,0-16,8.88-22.23,17.13-22.23,2.9,0,4.91.57,5.73,1.13l-1.39,6.93a8.3,8.3,0,0,0-3.84-.82c-4.66,0-8.88,4-8.88,14.54,0,10.14,3.84,14.1,8.88,14.1a14.51,14.51,0,0,0,4-.63Z" fill="#4b6376"/><path d="M535.86,402.86l-.44-3h-.12a8,8,0,0,1-6.8,3.53c-4.66,0-8.12-3.91-8.12-9.38,0-8.06,7.12-11.4,14.1-11.46v-.69c0-2.39-1.45-4.16-4.34-4.16a11.54,11.54,0,0,0-6.3,1.76l-1.51-5.54a20.05,20.05,0,0,1,9.57-2.33c9.38,0,10.89,6.55,10.89,12.78V395.8a40.85,40.85,0,0,0,.51,7.05Zm-1.13-15c-2.77.06-6.55.94-6.55,5.22,0,3.09,1.7,4.22,3,4.22a3.58,3.58,0,0,0,3.39-2.65,5.22,5.22,0,0,0,.19-1.45Z" fill="#4b6376"/><path d="M548.63,359.28h8.25v43.57h-8.25Z" fill="#4b6376"/><path d="M576.59,402.86l-.44-3H576a8,8,0,0,1-6.8,3.53c-4.66,0-8.12-3.91-8.12-9.38,0-8.06,7.12-11.4,14.1-11.46v-.69c0-2.39-1.45-4.16-4.34-4.16a11.54,11.54,0,0,0-6.3,1.76l-1.51-5.54a20.05,20.05,0,0,1,9.57-2.33c9.38,0,10.89,6.55,10.89,12.78V395.8a40.78,40.78,0,0,0,.51,7.05Zm-1.13-15c-2.77.06-6.55.94-6.55,5.22,0,3.09,1.7,4.22,3,4.22a3.58,3.58,0,0,0,3.39-2.65,5.19,5.19,0,0,0,.19-1.45Z" fill="#4b6376"/><path d="M597.61,363.88a4.2,4.2,0,0,1-4.34,4.47,4.48,4.48,0,1,1,4.34-4.47Zm-8.25,39V372.07h8.25v30.79Z" fill="#4b6376"/><path d="M603.14,395.42a11.49,11.49,0,0,0,5.54,1.64c2.14,0,3.34-.95,3.34-2.77,0-1.57-.88-2.58-3.59-4.15-5-2.83-6.24-6-6.24-8.88,0-5.54,4-9.7,10.14-9.7a14.52,14.52,0,0,1,6.24,1.38l-1.45,6a8.54,8.54,0,0,0-4.28-1.26c-2.08,0-3.09,1.26-3.09,2.65s.7,2.14,3.59,3.84c4.53,2.58,6.23,5.8,6.23,9.32,0,6.3-4.53,9.7-10.89,9.7-2.58,0-5.6-.69-7-1.77Z" fill="#4b6376"/><path d="M447.23,422.23c-3.65,5.73-6.67,13.92-6.67,25.69,0,11.4,3,19.52,6.67,25.43h-5.92c-3.52-4.72-7.24-13.35-7.24-25.5.25-12.28,3.72-20.84,7.24-25.63Z" fill="#4b6376"/><path d="M470.65,431a25.41,25.41,0,0,0-3.4.44c-5.42,1.2-8.12,5.73-9.13,10.89h.19a7.69,7.69,0,0,1,6.3-3.27c5.54,0,9.26,5,9.26,12.72,0,7.18-3.65,14.48-11.65,14.48-7.75,0-12.47-6.74-12.47-16.88,0-8.94,3-15,6.73-19.08a18.61,18.61,0,0,1,10-5.54,28.66,28.66,0,0,1,4.16-.44Zm-4.91,20.72c-.07-3.46-1.2-6.73-3.85-6.73-1.32,0-2.58.88-3.33,2.77a9.41,9.41,0,0,0-.44,3.59c0,5.35,1.51,8.94,4,8.94C464.86,460.32,465.74,456.67,465.74,451.76Z" fill="#4b6376"/><path d="M476.62,465.8v-5.54l4.09-5.23c5.29-6.74,9.64-12.34,9.64-18.2,0-3.27-1.82-5.6-5.23-5.6a11.63,11.63,0,0,0-6.17,2.08l-1.45-6.42a18.31,18.31,0,0,1,9.13-2.52c8.94,0,11.84,6,11.84,11.84,0,7.68-4.78,13.86-9.51,19.33l-2.45,2.9v.13H499v7.24Z" fill="#4b6376"/><path d="M503,473.36c3.65-5.79,6.67-14.23,6.67-25.69s-3-19.64-6.67-25.44h5.91c3.53,4.6,7.24,13,7.24,25.44-.25,12.47-3.71,20.78-7.24,25.69Z" fill="#4b6376"/><path d="M589.4,657.62V676.5h19.92V657.62h8.6v47.11h-8.6V684H589.4v20.76h-8.59V657.62Z" fill="#d37335"/><path d="M637.24,691.38l-4.05,13.35h-8.88l15.1-47.11h11l15.31,47.11h-9.23l-4.27-13.35Zm13.5-6.5L647,673.28c-.91-2.87-1.68-6.08-2.38-8.81h-.14c-.7,2.72-1.4,6-2.24,8.81l-3.63,11.6Z" fill="#d37335"/><path d="M678.57,657.62v27.47c0,9.23,3.85,13.49,9.65,13.49,6.22,0,9.92-4.26,9.92-13.49V657.62h8.6v26.91c0,14.54-7.48,21-18.8,21-10.91,0-18-6.08-18-20.9v-27Z" fill="#d37335"/><path d="M725.65,664.82H712.23v-7.2H747.8v7.2H734.25v39.91h-8.6Z" fill="#d37335"/><path d="M752.58,695.37a23.78,23.78,0,0,0,11.39,3c5.53,0,8.6-2.59,8.6-6.43,0-3.56-2.38-5.66-8.39-7.83-7.76-2.8-12.72-6.92-12.72-13.7,0-7.69,6.43-13.56,16.64-13.56a24.86,24.86,0,0,1,11.32,2.38l-2.1,6.92a20,20,0,0,0-9.36-2.24c-5.46,0-7.83,2.94-7.83,5.66,0,3.64,2.72,5.31,9,7.76,8.18,3.08,12.16,7.2,12.16,14,0,7.55-5.73,14.12-17.89,14.12-5,0-10.14-1.4-12.72-2.94Z" fill="#d37335"/><path d="M804.67,683.14v5.94H786.84v-5.94Z" fill="#d37335"/><path d="M811.75,658.25a86.86,86.86,0,0,1,13.7-1c8.8,0,14.88,1.82,19.22,5.45,4.54,3.71,7.34,9.3,7.34,17.34,0,8.39-2.87,14.68-7.34,18.73-4.69,4.27-12.16,6.43-21.32,6.43a94.13,94.13,0,0,1-11.6-.63Zm8.59,39.92a32.27,32.27,0,0,0,4.75.21c11.19.07,17.83-6.08,17.83-18C843,669.93,837,664,826.21,664a27.54,27.54,0,0,0-5.87.49Z" fill="#d37335"/><path d="M885.87,683.84H868.11v13.84H888v7.06H859.52V657.62h27.4v7.06H868.11v12.16h17.76Z" fill="#d37335"/><path d="M910.49,683.14v5.94H892.66v-5.94Z" fill="#d37335"/><path d="M917.56,657.62h27.19v7.06h-18.6v13H943.5v7.06H926.16v20h-8.59Z" fill="#d37335"/><path d="M953.16,658.25a82,82,0,0,1,13-1c6.78,0,11.39,1.12,14.54,3.77a11.92,11.92,0,0,1,4.06,9.44,12.57,12.57,0,0,1-8.53,11.82v.21c3.35,1.26,5.38,4.54,6.57,9.09,1.47,5.87,2.72,11.32,3.7,13.14h-8.87c-.7-1.4-1.82-5.24-3.15-11.12-1.32-6.15-3.57-8.11-8.46-8.25h-4.34v19.36h-8.52Zm8.52,20.83h5.1c5.81,0,9.44-3.08,9.44-7.76,0-5.17-3.63-7.55-9.23-7.55a24.82,24.82,0,0,0-5.31.42Z" fill="#d37335"/><path d="M1002.88,691.38l-4.05,13.35h-8.88l15.1-47.11h11l15.31,47.11h-9.23l-4.27-13.35Zm13.5-6.5-3.71-11.6c-.91-2.87-1.68-6.08-2.38-8.81h-.14c-.7,2.72-1.4,6-2.24,8.81l-3.63,11.6Z" fill="#d37335"/><path d="M1037.92,704.74V657.62h9.78l12.16,20.2a128.87,128.87,0,0,1,8,15.79h.14c-.56-6.29-.77-12.37-.77-19.57V657.62h8v47.11h-8.88L1054.07,684a164.14,164.14,0,0,1-8.46-16.29l-.2.07c.35,6.08.42,12.3.42,20.06v16.85Z" fill="#d37335"/><path d="M1119,703.34c-2,1-6.5,2.1-12.16,2.1-15,0-24-9.37-24-23.7,0-15.52,10.77-24.89,25.17-24.89,5.66,0,9.71,1.19,11.46,2.1l-1.89,6.85a22.89,22.89,0,0,0-9.23-1.82c-9.58,0-16.49,6-16.49,17.33,0,10.34,6.08,17,16.43,17a24.06,24.06,0,0,0,9.36-1.75Z" fill="#d37335"/><path d="M1152.68,683.84h-17.76v13.84h19.86v7.06h-28.45V657.62h27.4v7.06h-18.81v12.16h17.76Z" fill="#d37335"/><path d="M286.19,624.54a15.94,15.94,0,0,0,6.92,1.62c3.87,0,5.74-2,5.74-4.74,0-3.06-1.87-4.55-5.43-6.86-5.74-3.49-7.92-7.92-7.92-11.72,0-6.74,4.49-12.35,13.28-12.35a14.38,14.38,0,0,1,6.61,1.5l-1.31,7a10,10,0,0,0-5.36-1.43c-3.49,0-5.18,2.12-5.18,4.37,0,2.49,1.25,3.81,5.8,6.55,5.55,3.37,7.61,7.61,7.61,12,0,7.67-5.68,12.73-13.91,12.73a18.49,18.49,0,0,1-8-1.68Z" fill="#4b6376"/><path d="M333.77,617.55c0,12.73-7,15.84-11.66,15.84-7.3,0-11.66-5.74-11.66-15.66,0-11,5.74-15.84,11.79-15.84C329.41,601.9,333.77,607.95,333.77,617.55Zm-15.21,0c0,5.24.81,9.61,3.74,9.61,2.62,0,3.3-5.11,3.3-9.61,0-4.18-.69-9.48-3.43-9.48C319.18,608.07,318.55,613.37,318.55,617.55Z" fill="#4b6376"/><path d="M338.38,611.56c0-3.37-.19-6.3-.26-9.17h7.12l.37,3.56h.13A8.79,8.79,0,0,1,353,601.9c3.43,0,5.62,1.56,6.67,4.11h.13a10.3,10.3,0,0,1,3.05-3.06,9,9,0,0,1,4.3-1.06c5.43,0,7.86,4.3,7.86,11.66V632.9h-8.11v-18c0-3.49-.38-6.3-2.87-6.3-1.43,0-2.5,1-3.06,2.81a9.09,9.09,0,0,0-.25,2.12V632.9h-8.11V613.75c0-2.19-.24-5.11-2.8-5.11-1.24,0-2.5.93-3.06,2.74a7.84,7.84,0,0,0-.31,2.31V632.9h-8.11Z" fill="#4b6376"/><path d="M380.77,611.56c0-3.37-.19-6.3-.25-9.17h7.11L388,606h.13a8.79,8.79,0,0,1,7.29-4.05c3.44,0,5.62,1.56,6.68,4.11h.12a10.25,10.25,0,0,1,3.06-3.06,9,9,0,0,1,4.3-1.06c5.43,0,7.86,4.3,7.86,11.66V632.9h-8.11v-18c0-3.49-.37-6.3-2.87-6.3-1.43,0-2.5,1-3.06,2.81a9.15,9.15,0,0,0-.24,2.12V632.9h-8.11V613.75c0-2.19-.25-5.11-2.81-5.11-1.24,0-2.49.93-3.05,2.74a7.84,7.84,0,0,0-.32,2.31V632.9h-8.1Z" fill="#4b6376"/><path d="M430,620.54c.12,4.74,2.87,6.49,6.49,6.49a18,18,0,0,0,5.8-1l1.12,5.86a25.29,25.29,0,0,1-8.42,1.37c-8.29,0-12.85-5.49-12.85-15,0-10.23,5.3-16.34,12.23-16.34,6.55,0,10.36,5.18,10.36,14.41a22,22,0,0,1-.25,4.24Zm7.29-5.74c0-3.93-1-7-3.43-7-2.68,0-3.74,3.93-3.8,7Z" fill="#4b6376"/><path d="M337.35,652.09c-3.61,5.68-6.61,13.79-6.61,25.45,0,11.29,3,19.33,6.61,25.19h-5.86c-3.49-4.67-7.17-13.22-7.17-25.26.25-12.16,3.68-20.65,7.17-25.38Z" fill="#4b6376"/><path d="M339.65,684.71a12.64,12.64,0,0,1,6.12-10.79v-.12a10.71,10.71,0,0,1-5-8.92c0-6.61,5.24-10.67,11.47-10.67,5.8,0,10.49,3.93,10.49,10,0,2.68-1.07,6.3-5.3,9v.13a11.78,11.78,0,0,1,6.24,10.6c0,7.49-5.49,11.85-12.16,11.85C344.58,695.75,339.65,691.32,339.65,684.71Zm16.1-.5a8.35,8.35,0,0,0-4.67-7.49,8.41,8.41,0,0,0-3.5,7c0,3.49,1.43,6.48,4.24,6.48C354.37,690.26,355.75,687.64,355.75,684.21Zm-7.3-19.59a6.73,6.73,0,0,0,4,6.11c1.75-.93,2.81-3.43,2.81-5.8,0-2.74-.93-5.24-3.31-5.24S348.45,662.13,348.45,664.62Z" fill="#4b6376"/><path d="M390.1,674.79c0,14.53-5.3,21-11.85,21-8.86,0-11.85-10.17-11.85-20.58,0-11.66,3.74-21,12.16-21C387.92,654.21,390.1,665.12,390.1,674.79Zm-15.47.19c-.13,9.48,1.06,13.78,3.8,13.78,2.56,0,3.43-4.49,3.43-13.78,0-8.67-.81-13.78-3.43-13.78S374.58,665.56,374.64,675Z" fill="#4b6376"/><path d="M392.59,702.73c3.61-5.74,6.61-14.09,6.61-25.44s-3-19.46-6.61-25.2h5.86c3.5,4.55,7.17,12.85,7.17,25.2-.24,12.35-3.67,20.58-7.17,25.44Z" fill="#4b6376"/><path d="M642.89,458.24l-4,12h-5.1l13-38.18h5.94l13,38.18h-5.26l-4.08-12Zm12.52-3.85-3.74-11c-.85-2.49-1.42-4.76-2-7h-.11c-.57,2.27-1.19,4.59-1.93,6.91l-3.74,11Z" fill="#4b6376"/><path d="M671.07,451.39c0-3.23-.06-6-.23-8.55h4.36l.17,5.38h.23c1.25-3.68,4.25-6,7.59-6a5.26,5.26,0,0,1,1.41.17v4.7a7.38,7.38,0,0,0-1.69-.17c-3.51,0-6,2.66-6.68,6.4a13.55,13.55,0,0,0-.23,2.32v14.62h-4.93Z" fill="#4b6376"/><path d="M689.83,451.39c0-3.23-.06-6-.23-8.55H694l.17,5.38h.23c1.25-3.68,4.25-6,7.59-6a5.27,5.27,0,0,1,1.41.17v4.7a7.39,7.39,0,0,0-1.7-.17c-3.51,0-6,2.66-6.68,6.4a13.56,13.56,0,0,0-.23,2.32v14.62h-4.93Z" fill="#4b6376"/><path d="M723.25,470.25l-.39-3.46h-.17a10.22,10.22,0,0,1-8.39,4.08c-5.55,0-8.38-3.91-8.38-7.87,0-6.63,5.89-10.25,16.48-10.2v-.56c0-2.27-.62-6.34-6.23-6.34a13.65,13.65,0,0,0-7.14,2l-1.13-3.29a17,17,0,0,1,9-2.44c8.39,0,10.42,5.72,10.42,11.22v10.25a38.71,38.71,0,0,0,.46,6.57Zm-.74-14c-5.44-.11-11.61.85-11.61,6.18a4.41,4.41,0,0,0,4.71,4.76,6.83,6.83,0,0,0,6.63-4.59,5.29,5.29,0,0,0,.28-1.58Z" fill="#4b6376"/><path d="M734.71,465.15a13.06,13.06,0,0,0,6.57,2c3.63,0,5.33-1.81,5.33-4.08s-1.42-3.68-5.1-5c-4.93-1.76-7.25-4.48-7.25-7.76,0-4.42,3.57-8,9.46-8a13.72,13.72,0,0,1,6.75,1.7l-1.25,3.63a10.64,10.64,0,0,0-5.6-1.59c-2.95,0-4.59,1.7-4.59,3.74,0,2.27,1.64,3.29,5.21,4.65,4.76,1.81,7.2,4.19,7.2,8.27,0,4.81-3.74,8.22-10.25,8.22a15.65,15.65,0,0,1-7.71-1.87Z" fill="#4b6376"/><circle cx="691.9" cy="493.58" r="12.94" fill="#4b6376" stroke="#222221"/></svg>