<svg id="Calque_3" data-name="Calque 3" xmlns="http://www.w3.org/2000/svg" viewBox="0 0 1417.32 1417.32"><title>Plan de travail 1</title><path d="M234.72,184.66c-.44,1.09-.87,2.17-1.31,3.15,0,.11-.11,0-.11,0-4.24,8.7-10.88,13.16-12.18,24-1.31,12.29-4.68,33.39-8.16,45.57s-7.4,25.12-12.84,32-12.94,12.29-13.7,20.34c-.65,8.26,3.48,17.07-8.05,17.73s-12.94-.65-25.23,4.79-21.1,5.44-24.47,5.44-4-6.85-12.94.65-8.81,18.38-17.62,17-26.54-13.59-23.06,1.41S98.77,390,92.68,399.57s-17.62,25.12-6.74,24.37,36-6.09,29.15,1.41-11.53,8.81-8.16,16.31,6.2,14.25,6.2,18.38" fill="none" stroke="#4b6476" stroke-miterlimit="10" stroke-width="10"/><path d="M796.89,691.12a110.84,110.84,0,0,1-13.59-1.36c-9.52-1.36-11.56-6.8-18.35-14.27a43,43,0,0,1-10.2-22.43c-.68-5.44-25.15,6.12-31.95,8.16s-17,2-22.43,2-19.71,1.36-30.59,0-1.36-8.84-1.36-17-8.84-2-12.92-1.36-10.88-1.36-17.67-5.44-8.84,7.48-9.52,12.92-6.8,4.76-15.63-.68-7.48-10.2-7.48-18.35-10.88-6.12-19-6.8-9.52-8.16-12.24-15.63-2-3.4-10.88-10.2-7.48-5.44-15-10.2-13.59-11.56-23.79-17-2-9.52-1.36-17,2.72-17.67,2-22.43.68-16.31,4.76-26.51,15.63-13.59,22.43-17,21.07-17,26.51-21.07,19-16.31,26.51-19,9.52-9.52,10.88-12.92,15.63,1.36,24.47,3.4,17.67-8.16,22.43-11.56,17,6.8,19.71,12.92,22.43,1.36,35.35,1.36,27.19-15,34.67-22.43,12.24-16.31,15.63-19.71,9.52-4.08,17-6.12,8.16,3.4,8.84,6.12c0,0,3.89,7.87,2.33,14.08s-6.21,10.88-2.33,18.64S812.81,461.47,812,466.9s0,19.43-6.21,26.41-14.76,9.33-14.76,18.65-6.21,5.44,0,9.32,11.66,6.22,10.88,12.43-5.44,6.21-3.1,14.76,5.44,12.43,7,25.64-3.89,32.63,1.55,35.73,13.21,11.65,10.1,16.31-7,7.77-7.76,14,.78,9.33-4.66,14.76-13.2,11.65-10.88,16.31,7.76,31.07,2.33,34.18S774,708.51,774,718.61s9.33,26.41.78,26.41-25.63,3.11-13.2,14,18.64,17.86,12.43,21.75-11.65,3.11-11.65,13.21-2.33,17.09-6.21,23.3-14,23.31-9.33,28.75,10.88,15.54,8.55,22.53-4.66,11.65-4.66,20.2-2.33,41.95,7.76,50.49,19.43,16.31,14,17.87-30.3,2.33-33.4,9.32-3.11,13.21-8.55,14-21,8.54-21.75,13.21.78,23.31-6.21,24.08-24.85,3.11-24.08,17.09" fill="none" stroke="#868686" stroke-miterlimit="10" stroke-width="4"/><path d="M801.94,331.74s-10.88,2.33-7,12.43,9.32,10.88,5.44,17.09-10.1,17.09-14.76,17.86-17.86,11.65-9.32,17.87" fill="none" stroke="#868686" stroke-miterlimit="10" stroke-width="4"/><path d="M650.46,494.87c-6.22,0-17.1,0-22.54,4.66s-15.53,16.31-21.75,16.31-21,1.56-25.63,7-17.87,15.54-9.32,17.87,10.1,2.33,15.54,9.32,20.2,11.65,27.19,16.31,17.86,7,25.64,7,17.86.78,22.53,0,21-7,27.19-4.66,30.29,13.21,33.4,6.21,14.76-17.86,3.1-20.2-23.3,3.88-25.63-2.33-3.89-20.2-6.21-28.75S682.3,498,674.54,496.43,650.46,494.87,650.46,494.87Z" fill="none" stroke="#868686" stroke-miterlimit="10" stroke-width="4"/><path d="M610.06,447.48s1.55.78,10.88,3.89,23.3,3.88,20.2,13.21-6.21,7.76-8.55,15.53-4.66,19.42-4.66,19.42" fill="none" stroke="#868686" stroke-miterlimit="10" stroke-width="4"/><path d="M639.59,573.34s-4.66,8.54-4.66,15.53.78,17.87-1.56,23.31-11.65,16.31-1.55,26.41" fill="none" stroke="#868686" stroke-miterlimit="10" stroke-width="4"/><path d="M574.33,616.06s-17.1-3.11-20.2,2.33,0,11.65-9.32,11.65-24.08,3.11-27.19,7-5.44,7-10.1,7-14,.78-13.2,5.44,3.89,12.43-.78,23.3-11.65,19.42-17.09,21-22.54,2.33-24.09,8.54,3.89,12.43-4.66,16.31-17.86,7.77-10.88,14,8.55.78,16.31,12.43,14.76,18.65,8.55,21.75-12.43.78-13.21,10.88-8.54,30.3-14,33.4-56.72.78-47.39,10.1,25.64,17.09,20.2,19.42-12.43,8.54-14.76,14.76-3.1,28-10.1,31.08-13.2,13.21-6.21,24.86" fill="none" stroke="#868686" stroke-miterlimit="10" stroke-width="4"/><path d="M179.69,327.07a40.69,40.69,0,0,0,12.43,2.33c6.21,0,30.3,0,32.63,7.77s11.65,22.53,18.64,24.08,13.21,3.88,17.87.78.78-9.33,10.88-9.33,18.65,0,21-4.66,10.88-15.54,16.31-14,3.88,7,14,10.1,19.42,7,17.09,12.43-3.88,8.54-3.88,16.31,8.55,21,12.43,15.54,6.22-18.65,14-21.75,14.75,0,16.31,6.21,6.21,8.54,12.43,8.54,27.19,2.33,29.52,7,13.21,17.09,21.75,17.09,29.53-9.33,39.63-10.1,22.53-10.1,22.53-1.55-1.55,18.64,4.66,20.2,25.63,7,26.41,13.21-.79,16.31,6.21,18.64,13.2.78,13.2,10.1,1.55,31.85,1.55,31.85" fill="none" stroke="#868686" stroke-miterlimit="10" stroke-width="4"/><path d="M232.71,188.11s8.84-4.08,13.59,0,17.67,3.4,9.52,14.27-10.88,6.8-6.8,15,9.52,24.47,19,21.07,7.48-11.56,19-6.12S313.6,250,323.79,246.57s22.43-6.12,24.47-2,8.16,8.84,17.67,7.48,25.15.68,35.35-7.48,15.63-12.24,21.07-8.84,7.48,4.76,15,.68,42.14-36,44.86-23.79-3.4,17.67,10.2,17,36-3.4,35.35,5.44-4.08,19,6.8,14.27,8.16-5.44,16.31-6.8,29.91,1.36,25.15,6.12-12.24,17.67,3.4,16.31,25.83-.68,30.59-8.84,12.24-31.27,21.75-19,13.59,24.47,21.07,23.79,14.27-2,19.71,0,24.47,10.88,35.35,12.24,19,10.2,26.51,10.88,19,7.48,15,11.56S736.4,307.07,748,309.79s17.67,8.84,19,1.36,13.59-25.15,15-15.63,0,9.52,4.76,17.67,11.56,23.11,18.35,17.67,18.35-25.15,29.23-21.07,21.07,2,27.19,14.27,4.76,23.79,11.56,19.71,14.27-19,17.67-9.52,7.48,15.63,17.67,14.27,15.63-7.48,17-12.24,11.56-19.71,19-17,19,2,26.51,10.88,6.8,13.59,14.27,8.84,18.35-8.84,29.23-8.16,21.07-16.31,27.19-8.16,11.56,22.43,17.67,14.27,8.16-12.24,12.91-12.92,30.59,5.44,31.95-.68,2-20.39,10.2-21.75,55.06,2.72,55.06,10.88-3.4,10.88.68,16.31,25.83,27.19,18.35,34.67-19.71,25.15-12.24,28.55,10.88-.68,17,7.48,32.63,25.83,34,31.27c3.4,13.58,7.48,19,7.48,25.83s12.24,2,24.47-.68,11.56,4.08,12.24,15,0,8.84,4.76,15,15,.68,25.15-6.12,9.52,13.59,6.8,20.39,6.12,17,13.59,21.75,23.11,10.88,27.87,14.27,10.2,10.88,12.24,13.59" fill="none" stroke="#4b6476" stroke-miterlimit="10" stroke-width="10"/><path d="M113.07,460s-6.12,12.92,1.36,13.59,17.67-1.36,17.67,6.8-4.76,10.2,1.36,15,19,8.84,12.24,15-19,15-8.84,17,17.67,2,20.39,8.84,10.2,27.19,5.44,35.35-7.48,9.52-7.48,22.43-4.76,21.75,7.48,27.19,25.83,19,21.07,25.83-26.51,30.59-19.71,36,12.92,8.16,11.56,15.63-6.12,13.59,0,19.71,17,6.8,21.07,15.63,11.56,25.83,20.39,26.51,33.31,2.72,29.23,10.2-11.56,19-6.12,23.79,29.91-1.36,32.63,5.44,21.75,17.67,18.35,24.47-8.84,14.27-6.12,29.23,8.16,43.5,17,44.86,17-1.36,19,4.76,7.48,17,17.67,18.35,17,4.08,23.79,0,12.24-12.92,17.67-7.48,10.88,11.56,8.16,19.71-17.67,18.35-4.08,21.07,29.23,0,26.51,5.44-4.76,12.92-1.36,16.31,8.84,8.84,4.76,17-7.48,14.27-4.08,21.75,6.8,23.11,2.72,25.15-10.2,8.16-7.48,13.59,8.84,11.56,25.15,10.2,23.11-2,33.31-4.76a189.56,189.56,0,0,0,27.87-9.52c7.48-3.4,6.8,2,17.67,3.4s11.56,6.8,16.31-.68,11.56-10.88,15.63-15.63,8.16-22.43,17-19,22.43,2,22.43,11.56-2,19.71,4.76,17.67,12.24-6.8,15.63-4.76,16.31,9.52,19,.68,8.84-24.47,15.63-15.63,14.27,19,24.47,16.31,15-12.24,24.47-5.44,12.92,8.84,12.92,18.35-8.84,29.23,3.4,34,28.55,2,30.59,8.16,0,10.2,5.44,10.88,15.63,2,17.67,6.8,10.2,25.15,6.12,29.91-9.52-2-8.16,11.56,8.16,22.43-1.36,23.79-15.63-.68-21.07,7.48-27.87,26.51-13.59,27.19,31.95,2,37.39-.68,6.8-15.63,18.35-15.63,14.27-1.36,19,4.08,4.76,8.16,17.67,6.12,21.07-10.2,26.51-4.76,6.8,10.88,21.07,11.56,20.39,1.36,26.51-4.76,2.72-8.16,9.52-8.84,12.92,2.72,13.59-7.48-4.08-15.63,4.76-17,36-6.8,34,.68-3.4,15.63-2.72,21.75,9.52,14.27,17.67,8.16,15-20.39,23.79-21.07,42.14-7.48,42.14-7.48-2.72-13.59,2.72-17.67,14.27-12.24,26.51-20.39,19.71-4.76,22.43-14.27,6.8-23.11,11.56-25.15,10.88-11.56,7.48-17.67-6.12-6.12-8.84-13.59-8.16-22.43-5.44-26.51,6.12-5.44,8.16-18.35,1.36-27.19,9.52-29.23,17-4.76,21.07-2,10.88,6.8,16.31,3.4,8.82-10.51,16.31-10.88c13.82-.68,14.73-6.12,27.41-1.59s13.59,7.25,22.67,7.25,18.12,5.44,25.37,0,14.5-11.78,21.75-10.88,10.88,2.72,20.85,3.62,15.4,4.54,21.75-1.81,10.88-23.56,19-19.94,21.75,7.25,21.75,7.25" fill="none" stroke="#4b6476" stroke-miterlimit="10" stroke-width="10"/><circle cx="479.96" cy="339.12" r="12.94" fill="#4b6376" stroke="#4b6376"/><circle cx="703.15" cy="745.66" r="12.94" fill="#4b6376" stroke="#4b6376"/><circle cx="834.68" cy="833.34" r="12.94" fill="#4b6376" stroke="#4b6376"/><circle cx="515.83" cy="610.14" r="12.94" fill="#4b6376" stroke="#222221"/><path d="M208,862.62a21,21,0,0,1,10.35,2.61l-1.91,5.57a16.34,16.34,0,0,0-8.61-2.44" fill="#222221"/><path d="M600.69,753.18H586.41v12.51h15.92v3.76H581.65V734.76h19.86v3.76H586.41v11h14.28Zm-.92-26.29-6.93,6h-3.93l5.08-6Z" fill="#4b6376"/><path d="M609.82,744.54l5.18,14a63,63,0,0,1,2.12,6.38h.17c.6-2.06,1.36-4.12,2.23-6.38l5.13-14h5l-10.37,24.9h-4.58l-10-24.9Z" fill="#4b6376"/><path d="M634.21,752.3c0-2.93-.05-5.45-.23-7.77h4.2l.17,4.89h.21a7.86,7.86,0,0,1,7.31-5.46,5.55,5.55,0,0,1,1.36.15v4.27a7.61,7.61,0,0,0-1.64-.16c-3.38,0-5.78,2.42-6.43,5.82a12.25,12.25,0,0,0-.21,2.11v13.28h-4.74Z" fill="#4b6376"/><path d="M655.17,744.54,661,759.25c.6,1.65,1.25,3.6,1.68,5.09h.12c.48-1.49,1-3.4,1.69-5.2l5.24-14.61h5.06l-7.19,17.75c-3.44,8.54-5.78,12.92-9.06,15.59a13.31,13.31,0,0,1-5.89,2.93L651.4,777a12.84,12.84,0,0,0,4.2-2.21,13.78,13.78,0,0,0,4-5,3,3,0,0,0,.39-1.08,3.6,3.6,0,0,0-.33-1.18l-9.75-22.95Z" fill="#4b6376"/><path d="M824.63,888.14c-.27-5-.58-11-.53-15.46h-.16c-1.22,4.19-2.71,8.66-4.52,13.6l-6.32,17.37h-3.5L803.8,886.6c-1.7-5-3.13-9.67-4.14-13.92h-.11c-.1,4.46-.37,10.46-.69,15.83l-1,15.35H793.5l2.5-35.8h5.89L808,885.38c1.49,4.41,2.71,8.34,3.61,12.06h.16c.91-3.61,2.18-7.55,3.78-12.06l6.37-17.31h5.9l2.23,35.8h-4.52Z" fill="#4b6376"/><path d="M839.94,891.86c.1,6.32,4.14,8.92,8.82,8.92a16.91,16.91,0,0,0,7.12-1.33l.8,3.35a20.85,20.85,0,0,1-8.55,1.59c-7.91,0-12.64-5.21-12.64-13s4.57-13.86,12.06-13.86c8.39,0,10.62,7.39,10.62,12.11a18,18,0,0,1-.16,2.18Zm13.7-3.34c.05-3-1.22-7.6-6.48-7.6-4.72,0-6.8,4.36-7.17,7.6Z" fill="#4b6376"/><path d="M864,866.15h4.67v37.71H864Z" fill="#4b6376"/><path d="M898,896.85c0,2.65.05,5,.21,7h-4.14l-.27-4.2h-.11a9.66,9.66,0,0,1-8.5,4.78c-4,0-8.87-2.23-8.87-11.26v-15H881v14.23c0,4.88,1.49,8.18,5.73,8.18a6.57,6.57,0,0,0,6.58-6.64V878.16H898Z" fill="#4b6376"/><path d="M905.79,885.12c0-2.66-.05-4.84-.21-7h4.15l.26,4.25h.11a9.45,9.45,0,0,1,8.5-4.84c3.56,0,9.08,2.13,9.08,10.94v15.35H923V889c0-4.14-1.54-7.59-5.95-7.59a6.65,6.65,0,0,0-6.27,4.78,6.88,6.88,0,0,0-.32,2.18v15.46h-4.67Z" fill="#4b6376"/><path d="M278.86,285.79a54.51,54.51,0,0,1,9-.7c4.64,0,8,1.08,10.19,3a9.77,9.77,0,0,1,3.18,7.6,10.71,10.71,0,0,1-2.8,7.76c-2.48,2.64-6.52,4-11.11,4a16.15,16.15,0,0,1-3.77-.32v14.55h-4.69Zm4.69,17.52a15.68,15.68,0,0,0,3.88.38c5.66,0,9.11-2.75,9.11-7.76,0-4.8-3.39-7.12-8.57-7.12a19.59,19.59,0,0,0-4.42.38Z" fill="#4b6376"/><path d="M329.65,308.43c0,9.65-6.69,13.85-13,13.85-7.06,0-12.51-5.18-12.51-13.42,0-8.73,5.71-13.86,12.94-13.86C324.58,295,329.65,300.45,329.65,308.43Zm-20.7.27c0,5.71,3.29,10,7.92,10s7.92-4.26,7.92-10.13c0-4.42-2.21-10-7.82-10S309,303.74,309,308.7Z" fill="#4b6376"/><path d="M335.65,302.66c0-2.7-.05-4.9-.21-7.06h4.2l.27,4.31H340a9.59,9.59,0,0,1,8.62-4.9c3.61,0,9.22,2.16,9.22,11.11v15.58h-4.74v-15c0-4.2-1.56-7.71-6-7.71a7,7,0,0,0-6.69,7.06v15.69h-4.74Z" fill="#4b6376"/><path d="M371.08,288.1v7.49h6.79v3.61h-6.79v14.07c0,3.23.92,5.07,3.56,5.07a10.39,10.39,0,0,0,2.75-.33l.21,3.56a11.57,11.57,0,0,1-4.2.65,6.57,6.57,0,0,1-5.12-2c-1.35-1.4-1.83-3.72-1.83-6.79V299.21h-4V295.6h4v-6.25Z" fill="#4b6376"/><path d="M406.51,308.43c0,9.65-6.69,13.85-13,13.85-7.06,0-12.51-5.18-12.51-13.42,0-8.73,5.71-13.86,12.94-13.86C401.44,295,406.51,300.45,406.51,308.43Zm-20.7.27c0,5.71,3.29,10,7.92,10s7.92-4.26,7.92-10.13c0-4.42-2.21-10-7.82-10S385.81,303.74,385.81,308.7Z" fill="#4b6376"/><path d="M417.79,288.27a2.94,2.94,0,0,1-5.87,0,2.89,2.89,0,0,1,3-3A2.82,2.82,0,0,1,417.79,288.27Zm-5.28,33.42V295.6h4.74v26.09Z" fill="#4b6376"/><path d="M424.48,316.84a12.4,12.4,0,0,0,6.25,1.89c3.45,0,5.07-1.72,5.07-3.88s-1.34-3.5-4.85-4.8c-4.69-1.67-6.9-4.26-6.9-7.38,0-4.21,3.4-7.66,9-7.66a13,13,0,0,1,6.42,1.62l-1.19,3.45a10.13,10.13,0,0,0-5.34-1.51c-2.8,0-4.37,1.62-4.37,3.56,0,2.16,1.56,3.13,5,4.42,4.53,1.73,6.85,4,6.85,7.87,0,4.58-3.55,7.82-9.76,7.82a14.84,14.84,0,0,1-7.33-1.78Z" fill="#4b6376"/><path d="M449.13,309.51c.11,6.42,4.21,9.06,9,9.06a17.12,17.12,0,0,0,7.22-1.35l.82,3.39a21.09,21.09,0,0,1-8.68,1.62c-8,0-12.84-5.28-12.84-13.15S449.23,295,456.84,295c8.52,0,10.78,7.49,10.78,12.29a18.24,18.24,0,0,1-.16,2.21ZM463,306.11c.06-3-1.24-7.71-6.57-7.71-4.8,0-6.9,4.42-7.28,7.71Z" fill="#4b6376"/><path d="M282.82,634.4,270.5,596.65h5.26l5.88,18.6c1.62,5.1,3,9.69,4,14.11h.11c1.06-4.37,2.63-9.13,4.31-14.06l6.39-18.65h5.21l-13.5,37.75Z" fill="#4b6376"/><path d="M306.52,621.74c.11,6.67,4.37,9.41,9.3,9.41a17.83,17.83,0,0,0,7.5-1.4l.84,3.53a22,22,0,0,1-9,1.68c-8.35,0-13.33-5.49-13.33-13.67s4.82-14.62,12.71-14.62c8.85,0,11.2,7.79,11.2,12.77a18.12,18.12,0,0,1-.17,2.29ZM321,618.21c.06-3.14-1.29-8-6.83-8-5,0-7.17,4.59-7.56,8Z" fill="#4b6376"/><path d="M331.85,615.75c0-3.19-.06-5.94-.22-8.46h4.31l.17,5.32h.22c1.23-3.64,4.2-5.94,7.51-5.94a5.46,5.46,0,0,1,1.4.17v4.65a7.31,7.31,0,0,0-1.68-.17c-3.47,0-5.94,2.63-6.61,6.33a13.78,13.78,0,0,0-.23,2.3V634.4h-4.87Z" fill="#4b6376"/><path d="M349.51,629.36a12.89,12.89,0,0,0,6.49,2c3.58,0,5.27-1.79,5.27-4s-1.4-3.64-5-5c-4.87-1.74-7.17-4.43-7.17-7.67,0-4.37,3.53-8,9.35-8a13.53,13.53,0,0,1,6.67,1.68l-1.23,3.58a10.53,10.53,0,0,0-5.54-1.57c-2.91,0-4.54,1.68-4.54,3.7,0,2.24,1.62,3.25,5.15,4.59,4.7,1.79,7.11,4.14,7.11,8.17,0,4.76-3.7,8.12-10.14,8.12a15.44,15.44,0,0,1-7.62-1.85Z" fill="#4b6376"/><path d="M387.38,634.4,387,631h-.17a10.1,10.1,0,0,1-8.29,4c-5.49,0-8.29-3.87-8.29-7.78,0-6.55,5.82-10.14,16.3-10.08v-.56c0-2.24-.62-6.27-6.16-6.27a13.5,13.5,0,0,0-7.06,2l-1.12-3.25a16.82,16.82,0,0,1,8.91-2.41c8.29,0,10.3,5.66,10.3,11.09V627.9a38.29,38.29,0,0,0,.45,6.5Zm-.73-13.83c-5.38-.11-11.48.84-11.48,6.11a4.36,4.36,0,0,0,4.65,4.71,6.74,6.74,0,0,0,6.55-4.54,5.15,5.15,0,0,0,.28-1.57Z" fill="#4b6376"/><path d="M404.86,599.67a3.05,3.05,0,0,1-6.11,0,3,3,0,0,1,3.08-3.08A2.92,2.92,0,0,1,404.86,599.67Zm-5.49,34.72V607.29h4.93V634.4Z" fill="#4b6376"/><path d="M412.48,594.63h4.93V634.4h-4.93Z" fill="#4b6376"/><path d="M425.71,594.63h4.93V634.4h-4.93Z" fill="#4b6376"/><path d="M441.68,621.74c.12,6.67,4.37,9.41,9.3,9.41a17.83,17.83,0,0,0,7.5-1.4l.84,3.53a22,22,0,0,1-9,1.68C442,635,437,629.47,437,621.29s4.82-14.62,12.72-14.62c8.85,0,11.2,7.79,11.2,12.77a17.35,17.35,0,0,1-.17,2.29Zm14.45-3.53c.05-3.14-1.29-8-6.84-8-5,0-7.17,4.59-7.56,8Z" fill="#4b6376"/><path d="M466.34,629.36a12.91,12.91,0,0,0,6.5,2c3.58,0,5.27-1.79,5.27-4s-1.41-3.64-5-5c-4.87-1.74-7.17-4.43-7.17-7.67,0-4.37,3.53-8,9.36-8a13.52,13.52,0,0,1,6.66,1.68l-1.23,3.58a10.53,10.53,0,0,0-5.54-1.57c-2.91,0-4.54,1.68-4.54,3.7,0,2.24,1.63,3.25,5.16,4.59,4.7,1.79,7.11,4.14,7.11,8.17,0,4.76-3.7,8.12-10.14,8.12a15.45,15.45,0,0,1-7.62-1.85Z" fill="#4b6376"/><path d="M463.95,889.4h-9.7v11.46h11V908H446V865.6h18.46v7.18H454.25v9.76h9.7Z" fill="#4b6376"/><path d="M469.81,900.61a11.53,11.53,0,0,0,5.55,1.64c2.14,0,3.34-.95,3.34-2.77,0-1.57-.89-2.58-3.6-4.16-5-2.83-6.23-6-6.23-8.88,0-5.54,4-9.7,10.14-9.7a14.47,14.47,0,0,1,6.24,1.38l-1.45,6a8.55,8.55,0,0,0-4.28-1.26c-2.08,0-3.09,1.26-3.09,2.65s.69,2.14,3.59,3.84c4.54,2.58,6.24,5.8,6.24,9.32,0,6.3-4.54,9.7-10.89,9.7-2.58,0-5.61-.69-7.06-1.76Z" fill="#4b6376"/><path d="M490.23,900.61a11.53,11.53,0,0,0,5.55,1.64c2.14,0,3.34-.95,3.34-2.77,0-1.57-.89-2.58-3.6-4.16-5-2.83-6.23-6-6.23-8.88,0-5.54,4-9.7,10.14-9.7a14.47,14.47,0,0,1,6.24,1.38l-1.45,6a8.55,8.55,0,0,0-4.28-1.26c-2.08,0-3.09,1.26-3.09,2.65s.69,2.14,3.59,3.84c4.54,2.58,6.24,5.8,6.24,9.32,0,6.3-4.54,9.7-10.89,9.7-2.58,0-5.61-.69-7.06-1.76Z" fill="#4b6376"/><path d="M533.38,892.55c0,12.84-7.11,16-11.78,16-7.37,0-11.78-5.8-11.78-15.81,0-11.08,5.79-16,11.9-16C529,876.75,533.38,882.85,533.38,892.55Zm-15.36,0c0,5.29.82,9.7,3.77,9.7,2.65,0,3.34-5.16,3.34-9.7,0-4.22-.69-9.57-3.46-9.57C518.64,883,518,888.33,518,892.55Z" fill="#4b6376"/><path d="M538,886.51c0-3.4-.18-6.36-.25-9.26h7.11l.38,3.53h.12a8.86,8.86,0,0,1,7.5-4c5.85,0,8.18,4.66,8.18,11.52V908h-8.25V888.77c0-2.64-.62-5.1-3-5.1-1.38,0-2.52.94-3.09,2.77a8.22,8.22,0,0,0-.44,2.83V908H538Z" fill="#4b6376"/><path d="M566.9,886.51c0-3.4-.18-6.36-.25-9.26h7.11l.38,3.53h.12a8.86,8.86,0,0,1,7.5-4c5.85,0,8.18,4.66,8.18,11.52V908H581.7V888.77c0-2.64-.62-5.1-3-5.1-1.38,0-2.52.94-3.09,2.77a8.24,8.24,0,0,0-.44,2.83V908H566.9Z" fill="#4b6376"/><path d="M602.63,895.57c.13,4.78,2.9,6.55,6.55,6.55a18.15,18.15,0,0,0,5.86-1l1.14,5.92a25.54,25.54,0,0,1-8.51,1.38c-8.38,0-13-5.54-13-15.17,0-10.33,5.35-16.5,12.34-16.5,6.62,0,10.46,5.23,10.46,14.54a21.39,21.39,0,0,1-.26,4.28Zm7.37-5.8c0-4-1-7.05-3.47-7.05-2.71,0-3.77,4-3.84,7.05Z" fill="#4b6376"/><path d="M502.89,927.47c-3.65,5.73-6.67,13.92-6.67,25.7,0,11.39,3,19.52,6.67,25.44H497c-3.53-4.72-7.25-13.35-7.25-25.5.25-12.28,3.72-20.84,7.25-25.63Z" fill="#4b6376"/><path d="M508.63,964.69a17.81,17.81,0,0,0,3.77-.32,9.94,9.94,0,0,0,4.79-2.45,15.61,15.61,0,0,0,4-8.25H521a7.63,7.63,0,0,1-5.86,2.52c-5.28,0-9.63-4.73-9.63-12.22,0-7.05,4.35-14.36,12.21-14.36,7.62,0,11.59,6.93,11.59,16.81,0,9.26-3,15.74-6.74,19.78a17.51,17.51,0,0,1-10.08,5.16,26.69,26.69,0,0,1-3.84.19Zm5-21.41c.06,4,1.32,7.24,3.85,7.24a3.59,3.59,0,0,0,3.15-2.14c.32-.82.38-1.64.38-4.35,0-5.41-1.51-8.44-3.72-8.44S513.54,938.3,513.6,943.28Z" fill="#4b6376"/><path d="M542.08,937.86H542L535,941.45,533.65,935l9.38-4.85h7.24v40.93h-8.19Z" fill="#4b6376"/><path d="M558.72,978.61c3.65-5.8,6.68-14.23,6.68-25.69s-3-19.65-6.68-25.44h5.92c3.52,4.6,7.25,13,7.25,25.44-.26,12.47-3.72,20.78-7.25,25.69Z" fill="#4b6376"/><path d="M1029.52,814.95a16.22,16.22,0,0,0,7,1.65c3.94,0,5.84-2,5.84-4.82,0-3.11-1.91-4.63-5.52-7-5.84-3.55-8.06-8.06-8.06-11.93,0-6.85,4.56-12.56,13.51-12.56a14.64,14.64,0,0,1,6.73,1.52l-1.33,7.17a10.24,10.24,0,0,0-5.45-1.46c-3.56,0-5.27,2.15-5.27,4.44,0,2.54,1.27,3.87,5.9,6.66,5.64,3.43,7.73,7.74,7.73,12.25,0,7.8-5.78,12.94-14.15,12.94a18.78,18.78,0,0,1-8.18-1.71Z" fill="#4b6376"/><path d="M1062.2,810.89c.12,4.82,2.91,6.6,6.6,6.6a18.24,18.24,0,0,0,5.89-1l1.15,6a25.71,25.71,0,0,1-8.57,1.39c-8.43,0-13.06-5.58-13.06-15.29,0-10.41,5.39-16.62,12.43-16.62,6.66,0,10.54,5.27,10.54,14.65a22.63,22.63,0,0,1-.25,4.32Zm7.42-5.84c0-4-1-7.11-3.49-7.11-2.73,0-3.81,4-3.87,7.11Z" fill="#4b6376"/><path d="M1090.19,784.18a4.22,4.22,0,0,1-4.37,4.5,4.51,4.51,0,1,1,4.37-4.5Zm-8.31,39.27v-31h8.31v31Z" fill="#4b6376"/><path d="M1096,801.75c0-3.43-.19-6.41-.25-9.33h7.16l.39,3.55h.12a8.88,8.88,0,0,1,7.55-4.06c5.9,0,8.24,4.69,8.24,11.61v19.92h-8.31V804c0-2.66-.64-5.14-3-5.14-1.39,0-2.54.95-3.12,2.79a8.25,8.25,0,0,0-.45,2.85v18.91H1096Z" fill="#4b6376"/><path d="M1132,810.89c.12,4.82,2.93,6.6,6.6,6.6a18.35,18.35,0,0,0,5.9-1l1.13,6a25.69,25.69,0,0,1-8.55,1.39c-8.45,0-13.08-5.58-13.08-15.29,0-10.41,5.39-16.62,12.44-16.62,6.66,0,10.52,5.27,10.52,14.65a22.62,22.62,0,0,1-.25,4.32Zm7.42-5.84c0-4-1-7.11-3.49-7.11-2.73,0-3.81,4-3.87,7.11Z" fill="#4b6376"/><path d="M1164,803v6h-12.63v-6Z" fill="#4b6376"/><path d="M1003.91,874.36c.12,4.82,2.91,6.6,6.6,6.6a18.25,18.25,0,0,0,5.89-1l1.15,6a25.71,25.71,0,0,1-8.57,1.39c-8.43,0-13.06-5.58-13.06-15.29,0-10.41,5.39-16.62,12.43-16.62,6.66,0,10.54,5.27,10.54,14.65a22.61,22.61,0,0,1-.25,4.32Zm7.42-5.84c0-4-1-7.11-3.49-7.11-2.73,0-3.81,4-3.87,7.11Z" fill="#4b6376"/><path d="M1033.35,847.52v8.38h6.09v5.9h-6.09v14.14c0,3.61,1.52,4.51,3.18,4.51a11.63,11.63,0,0,0,2.15-.19l.06,6.47a19.61,19.61,0,0,1-5.08.57,8.36,8.36,0,0,1-6-2c-1.72-1.65-2.67-4-2.67-8.88V861.8h-3.69v-5.9H1025v-6.41Z" fill="#4b6376"/><path d="M1054.94,866.43v6h-12.63v-6Z" fill="#4b6376"/><path d="M1086.66,872c-.19-4.06-.5-9.58-.37-14.15h-.2c-.76,4.57-1.89,9.83-2.73,13.13l-3.67,15.29h-5.9l-3.55-15c-.82-3.42-2-8.76-2.6-13.39h-.19c-.12,4.63-.39,10-.64,14.27l-.7,14.85h-7.18l3.12-42.76h8.76l3.42,15.48c1.21,5.39,2.28,10.15,3,15h.14c.64-4.76,1.58-9.58,2.73-15l3.36-15.48h8.76l2.59,42.76h-7.42Z" fill="#4b6376"/><path d="M1114.35,886.92l-.45-3h-.12a8.11,8.11,0,0,1-6.85,3.55c-4.7,0-8.18-3.93-8.18-9.45,0-8.12,7.16-11.48,14.21-11.55v-.7c0-2.41-1.47-4.19-4.39-4.19a11.58,11.58,0,0,0-6.34,1.77l-1.53-5.58a20.25,20.25,0,0,1,9.65-2.35c9.45,0,11,6.6,11,12.88v11.55a40.9,40.9,0,0,0,.51,7.11Zm-1.15-15.1c-2.79.06-6.6.95-6.6,5.27,0,3.11,1.72,4.25,3,4.25a3.61,3.61,0,0,0,3.42-2.67,5.5,5.5,0,0,0,.19-1.46Z" fill="#4b6376"/><path d="M1127.17,865.23c0-3.11-.12-6.47-.25-9.33h7.24l.43,4.5h.2c1.39-3.3,3.86-5,6.15-5a7.05,7.05,0,0,1,1.77.12v8.25a7.35,7.35,0,0,0-1.77-.13c-1.78,0-4.12,1.21-5.08,4.44a12.88,12.88,0,0,0-.31,3.11v15.73h-8.38Z" fill="#4b6376"/><path d="M1145.9,865.23c0-3.43-.2-6.41-.26-9.33h7.18l.37,3.55h.14a8.88,8.88,0,0,1,7.55-4.06c5.89,0,8.24,4.69,8.24,11.61v19.92h-8.31V867.51c0-2.66-.63-5.14-3.05-5.14-1.39,0-2.54.95-3.12,2.79a8.3,8.3,0,0,0-.43,2.85v18.91h-8.31Z" fill="#4b6376"/><path d="M1181.89,874.36c.12,4.82,2.91,6.6,6.6,6.6a18.25,18.25,0,0,0,5.89-1l1.15,6a25.71,25.71,0,0,1-8.57,1.39c-8.43,0-13.06-5.58-13.06-15.29,0-10.41,5.39-16.62,12.43-16.62,6.66,0,10.54,5.27,10.54,14.65a22.63,22.63,0,0,1-.25,4.32Zm7.42-5.84c0-4-1-7.11-3.49-7.11-2.73,0-3.81,4-3.87,7.11Z" fill="#4b6376"/><path d="M1068.23,906.49c-3.69,5.78-6.73,14-6.73,25.89,0,11.48,3,19.67,6.73,25.63h-6c-3.55-4.76-7.3-13.45-7.3-25.69.26-12.37,3.75-21,7.3-25.82Z" fill="#4b6376"/><path d="M1094.25,909.16v5.45l-12.94,35.78h-8.12l12.69-33.81v-.13H1071.8v-7.29Z" fill="#4b6376"/><path d="M1121.29,909.16v5.45l-13,35.78h-8.12l12.69-33.81v-.13h-14.09v-7.29Z" fill="#4b6376"/><path d="M1124.47,958c3.69-5.84,6.73-14.34,6.73-25.88s-3-19.79-6.73-25.63h6c3.55,4.63,7.3,13.07,7.3,25.63-.25,12.56-3.75,20.94-7.3,25.88Z" fill="#4b6376"/><path d="M522.13,354.67l-8.86-39.58h8.51l2.82,17.09c.7,4.23,1.52,9.1,2.06,13.74h.11c.53-4.7,1.17-9.46,1.88-13.92l2.7-16.91h8.47l-9,39.58Z" fill="#4b6376"/><path d="M554.17,354.67l-.41-2.82h-.11a7.5,7.5,0,0,1-6.34,3.29c-4.36,0-7.58-3.64-7.58-8.75,0-7.52,6.63-10.63,13.16-10.69v-.65c0-2.23-1.35-3.88-4.05-3.88a10.78,10.78,0,0,0-5.88,1.64l-1.41-5.17a18.71,18.71,0,0,1,8.92-2.17c8.76,0,10.17,6.11,10.17,11.92V348.1a38.51,38.51,0,0,0,.47,6.57Zm-1-14c-2.59.06-6.11.88-6.11,4.88,0,2.88,1.58,3.93,2.75,3.93a3.34,3.34,0,0,0,3.18-2.47,5.1,5.1,0,0,0,.18-1.35Z" fill="#4b6376"/><path d="M566.09,314h7.69v40.63h-7.69Z" fill="#4b6376"/><path d="M590,335.71v5.52H578.35v-5.52Z" fill="#4b6376"/><path d="M616.39,314v32.12c0,2.76.12,5.87.24,8.51H610l-.41-3.23h-.12a7,7,0,0,1-6,3.7c-6.11,0-8.92-6.75-8.92-14.8,0-10,4.35-14.86,9.22-14.86a4.87,4.87,0,0,1,4.81,2.88h.12V314Zm-7.69,23a15.29,15.29,0,0,0-.07-1.7c-.3-1.76-1.23-3.35-2.76-3.35-2.7,0-3.69,3.93-3.69,8.57,0,5.46,1.46,8.34,3.64,8.34.93,0,2.06-.53,2.64-2.53a4.78,4.78,0,0,0,.25-1.76Z" fill="#4b6376"/><path d="M627.17,314.63,626,329.9h-3.82L621,314.63Z" fill="#4b6376"/><path d="M655.36,334.18c0,14.91-5.28,21-12.8,21-9,0-12.51-9.51-12.51-20.38s4.29-20.14,13-20.14C652.66,314.63,655.36,325.14,655.36,334.18Zm-17.32.7c0,9,1.7,13.57,4.82,13.57s4.45-5.87,4.45-13.92c0-6.93-1.06-13.21-4.52-13.21C639.74,321.32,638,326.37,638,334.89Z" fill="#4b6376"/><path d="M667.62,318.33a3.92,3.92,0,0,1-4.05,4.17,4.17,4.17,0,1,1,4.05-4.17Zm-7.7,36.35V326h7.7v28.71Z" fill="#4b6376"/><path d="M672.77,347.74a10.7,10.7,0,0,0,5.17,1.53c2,0,3.11-.88,3.11-2.58,0-1.47-.83-2.41-3.35-3.87-4.7-2.65-5.81-5.64-5.81-8.28,0-5.17,3.7-9,9.46-9a13.53,13.53,0,0,1,5.81,1.29l-1.35,5.64a8,8,0,0,0-4-1.17c-1.93,0-2.87,1.17-2.87,2.46s.65,2,3.35,3.58c4.22,2.41,5.81,5.4,5.81,8.69,0,5.87-4.23,9-10.16,9-2.41,0-5.23-.65-6.57-1.65Z" fill="#4b6376"/><path d="M698.42,343c.12,4.46,2.7,6.11,6.11,6.11a17,17,0,0,0,5.47-.94l1,5.52a23.69,23.69,0,0,1-7.93,1.29c-7.81,0-12.09-5.17-12.09-14.15,0-9.63,5-15.38,11.5-15.38,6.17,0,9.75,4.88,9.75,13.57a20.08,20.08,0,0,1-.24,4Zm6.88-5.4c0-3.7-.94-6.57-3.23-6.57-2.53,0-3.53,3.7-3.59,6.57Z" fill="#4b6376"/><path d="M587.57,372.73c-3.41,5.34-6.23,13-6.23,24,0,10.63,2.82,18.2,6.23,23.72h-5.52c-3.29-4.4-6.75-12.45-6.75-23.78.23-11.45,3.46-19.44,6.75-23.9Z" fill="#4b6376"/><path d="M592.9,407.43a16.88,16.88,0,0,0,3.53-.29,9.34,9.34,0,0,0,4.46-2.29,14.54,14.54,0,0,0,3.7-7.69h-.18A7.1,7.1,0,0,1,599,399.5c-4.94,0-9-4.4-9-11.39,0-6.57,4.05-13.39,11.4-13.39,7.11,0,10.8,6.46,10.8,15.68,0,8.63-2.76,14.68-6.28,18.44a16.35,16.35,0,0,1-9.4,4.81,24.81,24.81,0,0,1-3.59.18Zm4.65-20c0,3.7,1.23,6.75,3.58,6.75a3.37,3.37,0,0,0,2.94-2c.29-.76.34-1.53.34-4,0-5.05-1.41-7.87-3.46-7.87S597.48,382.83,597.55,387.46Z" fill="#4b6376"/><path d="M635,381.89H624.89L624,388.7h1.18a12.12,12.12,0,0,1,7.16,2.87c2.11,2.05,3.29,4.93,3.29,8.75,0,7.45-4.93,13.51-13.26,13.51a17.11,17.11,0,0,1-7.17-1.53l1.18-6.11a12.68,12.68,0,0,0,5.45,1.35c3.77,0,6.23-2.41,6.23-6.52,0-5.11-3.87-6.81-8.28-6.81a18.33,18.33,0,0,0-2.7.12l2.11-19.14H635Z" fill="#4b6376"/><path d="M639.56,420.4c3.41-5.4,6.22-13.27,6.22-24s-2.82-18.32-6.22-23.72h5.52c3.28,4.29,6.75,12.1,6.75,23.72-.24,11.63-3.47,19.38-6.75,24Z" fill="#4b6376"/><path d="M171.62,468.82V452L162,424.78h9.15l3,10.52c.78,2.81,1.63,6.08,2.29,9.34h.13c.52-3.2,1.24-6.4,2-9.54l2.61-10.33H190l-9.87,26.86v17.18Z" fill="#4b6376"/><path d="M197.29,436.87l2.41,14.24c.46,2.87.92,5.75,1.37,9h.13c.39-3.27.78-5.94,1.24-9l2.48-14.24h8.43l-8.56,31.95h-7.91l-8.69-31.95Z" fill="#4b6376"/><path d="M222.88,455.88c.13,5,3,6.8,6.8,6.8a18.83,18.83,0,0,0,6.08-1l1.17,6.14a26.53,26.53,0,0,1-8.82,1.43c-8.69,0-13.46-5.75-13.46-15.75,0-10.71,5.55-17.12,12.8-17.12,6.86,0,10.85,5.43,10.85,15.1a22.76,22.76,0,0,1-.26,4.44Zm7.65-6c0-4.11-1-7.32-3.59-7.32-2.81,0-3.92,4.11-4,7.32Z" fill="#4b6376"/><path d="M243.12,423.61h8.56v45.21h-8.56Z" fill="#4b6376"/><path d="M266.37,428.38a4.36,4.36,0,0,1-4.51,4.64,4.64,4.64,0,1,1,4.51-4.64Zm-8.56,40.44V436.87h8.56v31.95Z" fill="#4b6376"/><path d="M272.37,446.47c0-3.53-.2-6.6-.26-9.6h7.38l.39,3.66H280a9.16,9.16,0,0,1,7.77-4.18c6.08,0,8.5,4.84,8.5,12v20.51h-8.56v-20c0-2.75-.66-5.29-3.13-5.29-1.44,0-2.62,1-3.21,2.87a8.56,8.56,0,0,0-.46,2.94v19.47h-8.56Z" fill="#4b6376"/><path d="M309.4,455.88c.14,5,3,6.8,6.8,6.8a18.85,18.85,0,0,0,6.08-1l1.17,6.14a26.53,26.53,0,0,1-8.82,1.43c-8.69,0-13.46-5.75-13.46-15.75,0-10.71,5.55-17.12,12.8-17.12,6.86,0,10.85,5.43,10.85,15.1a23,23,0,0,1-.26,4.44Zm7.64-6c0-4.11-1-7.32-3.59-7.32-2.81,0-3.92,4.11-4,7.32Z" fill="#4b6376"/><path d="M329.38,461.11a11.9,11.9,0,0,0,5.76,1.7c2.21,0,3.46-1,3.46-2.87,0-1.63-.92-2.68-3.74-4.31-5.22-2.94-6.47-6.27-6.47-9.21,0-5.75,4.12-10.06,10.53-10.06a15.06,15.06,0,0,1,6.47,1.44l-1.51,6.27a8.85,8.85,0,0,0-4.45-1.31c-2.15,0-3.19,1.31-3.19,2.74s.71,2.22,3.72,4c4.7,2.68,6.47,6,6.47,9.67,0,6.53-4.7,10.06-11.3,10.06-2.68,0-5.82-.72-7.32-1.83Z" fill="#4b6376"/><path d="M226.44,488.91c-3.79,5.94-6.93,14.44-6.93,26.65,0,11.83,3.14,20.26,6.93,26.4H220.3c-3.66-4.9-7.52-13.85-7.52-26.46.26-12.74,3.85-21.63,7.52-26.59Z" fill="#4b6376"/><path d="M253.22,491.65v5.62l-13.33,36.85h-8.36L244.6,499.3v-.13H230.09v-7.51Z" fill="#4b6376"/><path d="M256.67,523.08a13.24,13.24,0,0,1,6.4-11.3v-.13a11.22,11.22,0,0,1-5.23-9.34c0-6.93,5.49-11.17,12-11.17,6.08,0,11,4.11,11,10.45,0,2.81-1.11,6.6-5.55,9.41v.13a12.36,12.36,0,0,1,6.54,11.11c0,7.84-5.75,12.42-12.74,12.42C261.83,534.64,256.67,530,256.67,523.08Zm16.86-.52a8.74,8.74,0,0,0-4.9-7.84A8.81,8.81,0,0,0,265,522.1c0,3.66,1.5,6.8,4.44,6.8C272.09,528.89,273.53,526.15,273.53,522.55ZM265.88,502a7,7,0,0,0,4.18,6.4c1.83-1,2.94-3.59,2.94-6.08,0-2.87-1-5.49-3.46-5.49S265.88,499.42,265.88,502Z" fill="#4b6376"/><path d="M284.28,542c3.79-6,6.92-14.76,6.92-26.65s-3.13-20.38-6.92-26.4h6.14c3.66,4.77,7.52,13.46,7.52,26.4-.27,12.94-3.86,21.56-7.52,26.65Z" fill="#4b6376"/><path d="M736,672.93l7.52,8.68h-6.7l-4.09-4.74h-.14l-4.09,4.74H721.9l7.37-8.68Zm1.17,11.3v49.15h-9V684.23Z" fill="#d37335"/><path d="M747.51,684.23h9v41.64h20.2v7.51H747.51Z" fill="#d37335"/><path d="M811,711.58H792.45V726h20.71v7.36H783.48V684.23h28.59v7.36H792.45v12.69H811Z" fill="#d37335"/><path d="M836.66,710.85V717h-18.6v-6.2Z" fill="#d37335"/><path d="M844,684.89a90.65,90.65,0,0,1,14.29-1c9.19,0,15.53,1.9,20.05,5.69,4.75,3.87,7.66,9.7,7.66,18.09,0,8.75-3,15.31-7.66,19.54-4.88,4.45-12.68,6.71-22.24,6.71a98.28,98.28,0,0,1-12.11-.66Zm9,41.64a33.63,33.63,0,0,0,5,.22c11.66.07,18.59-6.34,18.59-18.81.08-10.86-6.19-17.06-17.43-17.06a28.72,28.72,0,0,0-6.12.51Z" fill="#d37335"/><path d="M921.36,711.58H902.84V726h20.71v7.36H893.87V684.23h28.59v7.36H902.84v12.69h18.52Z" fill="#d37335"/><path d="M947.06,710.85V717h-18.6v-6.2Z" fill="#d37335"/><path d="M954.43,684.23H982.8v7.36H963.4v13.57h18.08v7.36H963.4v20.86h-9Z" fill="#d37335"/><path d="M991.57,684.89a85.47,85.47,0,0,1,13.56-1c7.08,0,11.89,1.17,15.18,3.94a12.45,12.45,0,0,1,4.23,9.84,13.11,13.11,0,0,1-8.9,12.33v.22c3.51,1.31,5.62,4.74,6.86,9.48,1.54,6.12,2.85,11.81,3.87,13.71h-9.26c-.73-1.46-1.89-5.47-3.28-11.6-1.38-6.42-3.72-8.46-8.82-8.6h-4.52v20.2h-8.9Zm8.9,21.73h5.32c6,0,9.84-3.21,9.84-8.09,0-5.4-3.79-7.88-9.62-7.88a25.79,25.79,0,0,0-5.54.44Z" fill="#d37335"/><path d="M1043.44,719.45l-4.23,13.93H1030l15.75-49.15h11.45l16,49.15h-9.63L1059,719.45Zm14.07-6.78-3.86-12.11c-1-3-1.75-6.34-2.48-9.19H1051c-.73,2.84-1.46,6.27-2.33,9.19l-3.79,12.11Z" fill="#d37335"/><path d="M1080,733.38V684.23h10.2l12.69,21.08a134.44,134.44,0,0,1,8.39,16.48h.14c-.58-6.56-.8-12.9-.8-20.42V684.23h8.31v49.15h-9.26l-12.83-21.59a169.63,169.63,0,0,1-8.82-17l-.23.08c.37,6.34.44,12.83.44,20.93v17.57Z" fill="#d37335"/><path d="M1164.55,731.93c-2.12,1.09-6.78,2.19-12.7,2.19-15.6,0-25.08-9.77-25.08-24.72,0-16.19,11.23-26,26.25-26,5.91,0,10.14,1.24,12,2.19l-2,7.15a23.82,23.82,0,0,0-9.62-1.9c-10,0-17.22,6.27-17.22,18.08,0,10.79,6.34,17.72,17.14,17.72a25.07,25.07,0,0,0,9.77-1.82Z" fill="#d37335"/><path d="M1199.73,711.58H1181.2V726h20.71v7.36h-29.68V684.23h28.59v7.36H1181.2v12.69h18.53Z" fill="#d37335"/><path d="M1354.89,538.82s9.62,15.51,9.62,25,3,21.65-2.38,21.65-3,3.46-10.72,3.46-22.63-2.6-16.67,4.33,13.69,16.45,8.33,18.18-11.31.86-14.29,13-5.36,15.59,1.79,15.59,8.34-3.47,9.53,2.6-1.19,12.12,5.36,12.12,7.14,0,8.33,6.06,9.53,32.9,3.57,36.37S1343.07,705,1346.65,718s6.55,9.52,6,17.32,0,13,6,11.26,20.84-14.72,20.84-6.93,0,8.66,6.54,13,10.72,6.93,4.17,10.39-13.7,3.47-14.29,9.53,0,12.12-4.17,13-14.29,8.66-12.5,21.65,4.77,19.92.6,27.71-5.36,13-13.7,8.66-25.6-6.93-16.67,4.33,19.65,22.51,10.72,26.84-22-4.33-16.08,13,10.12,27.71,6.54,31.17-12.5,2.6-6,11.26,13.7,8.66,13.1,14.72-2.38,17.32-2.38,26.85" fill="none" stroke="#4b6476" stroke-miterlimit="10" stroke-width="10"/><path d="M698.28,542.8s11.62,2,16.67,0,11.12-5.05,17.68-5.05,16.17-3,23.24,3,36.88,21.22,37.89,27.28,3,11.12,6.57,12.63a11.18,11.18,0,0,0,6.06,1" fill="none" stroke="#868686" stroke-miterlimit="10" stroke-width="4"/><circle cx="703.74" cy="607.53" r="11.02" fill="#4b6476" stroke="#4b6476"/><path d="M750.8,611.77a20.56,20.56,0,0,1-8.48,1.52c-9,0-15.86-5.71-15.86-16.24,0-10,6.81-16.86,16.76-16.86a17.24,17.24,0,0,1,7.62,1.43l-1,3.38a15.09,15.09,0,0,0-6.48-1.33c-7.53,0-12.53,4.81-12.53,13.24,0,7.86,4.53,12.9,12.33,12.9a16.6,16.6,0,0,0,6.76-1.33Z" fill="#4b6476"/><path d="M755.72,597c0-2.71,0-5-.19-7.19h3.67l.14,4.52h.19a6.92,6.92,0,0,1,6.38-5,4.63,4.63,0,0,1,1.19.14v4a6.24,6.24,0,0,0-1.43-.15c-3,0-5,2.24-5.62,5.38a11.71,11.71,0,0,0-.19,2v12.29h-4.14Z" fill="#4b6476"/><path d="M773.16,602.05c.1,5.67,3.71,8,7.9,8a15.15,15.15,0,0,0,6.38-1.19l.72,3a18.69,18.69,0,0,1-7.67,1.43c-7.09,0-11.33-4.67-11.33-11.62s4.1-12.43,10.81-12.43c7.53,0,9.52,6.62,9.52,10.86a15.43,15.43,0,0,1-.14,2Zm12.29-3c0-2.67-1.1-6.81-5.81-6.81-4.24,0-6.1,3.91-6.43,6.81Zm1-19.24-5.81,6.81h-3l4.19-6.81Z" fill="#4b6476"/><path d="M799.75,583.14v6.62h6V593h-6v12.43c0,2.86.81,4.48,3.14,4.48a9.36,9.36,0,0,0,2.43-.28l.19,3.14a10.23,10.23,0,0,1-3.71.57,5.8,5.8,0,0,1-4.52-1.76c-1.19-1.24-1.62-3.29-1.62-6V593h-3.57v-3.19h3.57v-5.53Z" fill="#4b6476"/><path d="M812.52,602.05c.09,5.67,3.71,8,7.9,8a15.15,15.15,0,0,0,6.38-1.19l.72,3a18.68,18.68,0,0,1-7.67,1.43c-7.1,0-11.34-4.67-11.34-11.62s4.09-12.43,10.81-12.43c7.53,0,9.52,6.62,9.52,10.86a15.43,15.43,0,0,1-.14,2Zm12.28-3c0-2.67-1.09-6.81-5.81-6.81-4.24,0-6.1,3.91-6.43,6.81Z" fill="#4b6476"/><path d="M838.72,583.29a2.6,2.6,0,0,1-5.19,0,2.55,2.55,0,0,1,2.62-2.62A2.49,2.49,0,0,1,838.72,583.29Zm-4.67,29.53v-23h4.19v23Z" fill="#4b6476"/><path d="M845.2,579h4.19v33.81H845.2Z" fill="#4b6476"/><path d="M710.45,662.1l-7.57-33.79h7.27l2.41,14.59c.6,3.61,1.3,7.77,1.75,11.73h.1c.45-4,1-8.07,1.6-11.88l2.31-14.44h7.22l-7.72,33.79Z" fill="#4b6476"/><path d="M737.82,662.1l-.35-2.41h-.1A6.4,6.4,0,0,1,732,662.5c-3.71,0-6.47-3.11-6.47-7.47,0-6.42,5.67-9.07,11.23-9.12v-.55a3.12,3.12,0,0,0-3.46-3.31,9.18,9.18,0,0,0-5,1.4L727,639a16,16,0,0,1,7.62-1.85c7.47,0,8.68,5.21,8.68,10.18v9.13a32.76,32.76,0,0,0,.4,5.62Zm-.9-11.93c-2.21,0-5.21.75-5.21,4.16,0,2.46,1.35,3.36,2.35,3.36a2.85,2.85,0,0,0,2.71-2.11,4.26,4.26,0,0,0,.15-1.15Z" fill="#4b6476"/><path d="M748,627.41h6.57v34.7H748Z" fill="#4b6476"/><path d="M768.44,645.91v4.71h-10v-4.71Z" fill="#4b6476"/><path d="M790.95,627.41v27.43c0,2.35.1,5,.2,7.27h-5.66l-.35-2.76H785a6,6,0,0,1-5.12,3.16c-5.21,0-7.62-5.76-7.62-12.63,0-8.52,3.71-12.68,7.87-12.68a4.17,4.17,0,0,1,4.11,2.46h.1V627.41ZM784.38,647c0-.45,0-1,0-1.45-.25-1.5-1.05-2.86-2.36-2.86-2.31,0-3.16,3.36-3.16,7.32,0,4.66,1.25,7.12,3.11,7.12.8,0,1.75-.45,2.25-2.16a4.14,4.14,0,0,0,.2-1.5Z" fill="#4b6476"/><path d="M801,652.17c.1,3.81,2.31,5.22,5.21,5.22a14.49,14.49,0,0,0,4.66-.8l.9,4.71a20.3,20.3,0,0,1-6.77,1.1c-6.67,0-10.33-4.41-10.33-12.08,0-8.22,4.26-13.13,9.82-13.13,5.27,0,8.32,4.16,8.32,11.58a17.2,17.2,0,0,1-.2,3.41Zm5.87-4.61c0-3.16-.8-5.62-2.76-5.62-2.16,0-3,3.16-3.06,5.62Z" fill="#4b6476"/><path d="M826.28,645.91v4.71h-10v-4.71Z" fill="#4b6476"/><path d="M851.35,650.27c-.15-3.21-.4-7.57-.3-11.18h-.15c-.6,3.61-1.5,7.77-2.16,10.38l-2.91,12.08h-4.66l-2.81-11.88c-.65-2.71-1.55-6.92-2.06-10.58h-.15c-.1,3.66-.3,7.92-.5,11.28l-.55,11.73h-5.67l2.46-33.79h6.92l2.71,12.23c1,4.26,1.81,8,2.41,11.83h.1c.5-3.76,1.25-7.57,2.16-11.83l2.66-12.23h6.92l2.06,33.79h-5.87Z" fill="#4b6476"/><path d="M873.2,662.1l-.35-2.41h-.1a6.4,6.4,0,0,1-5.41,2.81c-3.71,0-6.47-3.11-6.47-7.47,0-6.42,5.67-9.07,11.23-9.12v-.55a3.12,3.12,0,0,0-3.46-3.31,9.18,9.18,0,0,0-5,1.4l-1.2-4.41a16,16,0,0,1,7.62-1.85c7.47,0,8.68,5.21,8.68,10.18v9.13a32.76,32.76,0,0,0,.4,5.62Zm-.9-11.93c-2.21,0-5.21.75-5.21,4.16,0,2.46,1.35,3.36,2.35,3.36a2.85,2.85,0,0,0,2.71-2.11,4.26,4.26,0,0,0,.15-1.15Z" fill="#4b6476"/><path d="M883.32,645c0-2.46-.1-5.11-.2-7.37h5.72l.35,3.56h.15c1.1-2.61,3.06-4,4.86-4a5.66,5.66,0,0,1,1.4.1v6.52a5.93,5.93,0,0,0-1.4-.1c-1.41,0-3.26,1-4,3.51a9.86,9.86,0,0,0-.25,2.46V662.1h-6.62Z" fill="#4b6476"/><path d="M898.1,645c0-2.71-.15-5.06-.2-7.37h5.67l.3,2.81h.1a7,7,0,0,1,6-3.21c4.66,0,6.52,3.71,6.52,9.18V662.1h-6.57V646.76c0-2.11-.5-4.06-2.41-4.06-1.1,0-2,.75-2.46,2.2a6.46,6.46,0,0,0-.35,2.26V662.1H898.1Z" fill="#4b6476"/><path d="M926.52,652.17c.1,3.81,2.31,5.22,5.21,5.22a14.5,14.5,0,0,0,4.66-.8l.9,4.71a20.31,20.31,0,0,1-6.77,1.1c-6.67,0-10.33-4.41-10.33-12.08,0-8.22,4.26-13.13,9.83-13.13,5.26,0,8.32,4.16,8.32,11.58a17.26,17.26,0,0,1-.2,3.41Zm5.87-4.61c0-3.16-.8-5.62-2.76-5.62-2.16,0-3,3.16-3.06,5.62Z" fill="#4b6476"/><path d="M959.81,627.41c-2.91,4.56-5.31,11.08-5.31,20.46,0,9.07,2.41,15.54,5.31,20.26h-4.71c-2.81-3.76-5.77-10.63-5.77-20.31.2-9.78,3-16.59,5.77-20.41Z" fill="#4b6476"/><path d="M964.36,657a14.48,14.48,0,0,0,3-.25,8,8,0,0,0,3.81-2,12.42,12.42,0,0,0,3.16-6.57h-.15a6.07,6.07,0,0,1-4.66,2c-4.21,0-7.67-3.76-7.67-9.73,0-5.62,3.46-11.43,9.72-11.43,6.07,0,9.23,5.51,9.23,13.39,0,7.37-2.36,12.53-5.37,15.74a13.91,13.91,0,0,1-8,4.11,21.35,21.35,0,0,1-3.06.15Zm4-17c0,3.16,1.05,5.77,3.06,5.77a2.86,2.86,0,0,0,2.5-1.7,9.54,9.54,0,0,0,.3-3.46c0-4.31-1.2-6.72-3-6.72S968.28,636,968.33,640Z" fill="#4b6476"/><path d="M993.74,662.1v-7.77H982.56v-4.51l10.68-20.31h6.32v19.55h3.26v5.26h-3.26v7.77Zm0-13V642.4c0-1.75.2-3.66.35-5.37h-.2c-.75,1.81-1.41,3.26-2.26,5.06L988.12,649v.1Z" fill="#4b6476"/><path d="M1004.21,668.12c2.91-4.61,5.32-11.33,5.32-20.46s-2.41-15.64-5.32-20.26h4.72c2.81,3.66,5.77,10.33,5.77,20.26-.2,9.93-3,16.54-5.77,20.46Z" fill="#4b6476"/><circle cx="722.35" cy="515.26" r="12.33" fill="#4b6476" stroke="#4b6476"/><path d="M768.3,493.13a39,39,0,0,1,7.37-.65c4,0,6.63.7,8.58,2.27a6.55,6.55,0,0,1,2.6,5.52c0,3-2,5.66-5.29,6.87v.09c3,.74,6.45,3.2,6.45,7.84a8.44,8.44,0,0,1-2.64,6.26c-2.18,2-5.71,2.92-10.81,2.92a46.82,46.82,0,0,1-6.26-.37Zm4,12.8H776c4.27,0,6.77-2.23,6.77-5.24,0-3.67-2.78-5.1-6.86-5.1a17.37,17.37,0,0,0-3.57.28Zm0,15a21.52,21.52,0,0,0,3.39.19c4.17,0,8-1.53,8-6.08,0-4.27-3.66-6-8.07-6h-3.34Z" fill="#4b6476"/><path d="M813.82,512.57c0,8.3-5.75,11.92-11.18,11.92-6.08,0-10.76-4.45-10.76-11.55,0-7.52,4.92-11.92,11.13-11.92C809.46,501,813.82,505.7,813.82,512.57ZM796,512.8c0,4.92,2.83,8.63,6.82,8.63s6.82-3.66,6.82-8.72c0-3.8-1.9-8.63-6.73-8.63S796,508.53,796,512.8Z" fill="#4b6476"/><path d="M818.8,524c.09-1.53.18-3.8.18-5.8V491h4v14.1h.09a8.36,8.36,0,0,1,7.65-4.13c5.57,0,9.51,4.64,9.46,11.46,0,8-5.06,12-10.07,12a8,8,0,0,1-7.52-4.22h-.14l-.19,3.71Zm4.22-9a7.82,7.82,0,0,0,.18,1.48,6.3,6.3,0,0,0,6.13,4.78c4.27,0,6.82-3.48,6.82-8.63,0-4.5-2.32-8.35-6.68-8.35a6.51,6.51,0,0,0-6.22,5,8,8,0,0,0-.23,1.67Z" fill="#4b6476"/><path d="M849.94,495.22a2.53,2.53,0,0,1-5.06,0,2.49,2.49,0,0,1,2.55-2.55A2.42,2.42,0,0,1,849.94,495.22ZM845.39,524V501.53h4.08V524Z" fill="#4b6476"/><path d="M875.6,501.53c-.09,1.62-.19,3.43-.19,6.17v13c0,5.15-1,8.3-3.2,10.25s-5.33,2.69-8.16,2.69a14.49,14.49,0,0,1-7.47-1.86l1-3.11a12.65,12.65,0,0,0,6.59,1.76c4.18,0,7.24-2.18,7.24-7.84v-2.5h-.09a8,8,0,0,1-7.14,3.76c-5.56,0-9.56-4.73-9.56-10.95,0-7.61,5-11.92,10.11-11.92a7.47,7.47,0,0,1,7,3.9h.09l.19-3.39Zm-4.22,8.86a6,6,0,0,0-5.94-6.17c-3.9,0-6.68,3.29-6.68,8.49,0,4.41,2.23,8.07,6.63,8.07a6,6,0,0,0,5.66-4.18,7.09,7.09,0,0,0,.33-2.18Z" fill="#4b6476"/><path d="M881.92,507.61c0-2.32,0-4.22-.18-6.08h3.62l.23,3.71h.09A8.25,8.25,0,0,1,893.1,501c3.11,0,7.93,1.86,7.93,9.56V524H897V511c0-3.62-1.35-6.63-5.2-6.63a6,6,0,0,0-5.75,6.08V524h-4.08Z" fill="#4b6476"/><path d="M908.56,501.53l4.92,13.27c.51,1.48,1.07,3.25,1.44,4.59H915c.42-1.35.88-3.06,1.44-4.69l4.45-13.17h4.31l-6.12,16c-2.92,7.7-4.92,11.64-7.7,14.05a11.06,11.06,0,0,1-5,2.65l-1-3.43a10.76,10.76,0,0,0,3.57-2,12.36,12.36,0,0,0,3.43-4.55,2.9,2.9,0,0,0,.33-1,3.56,3.56,0,0,0-.28-1.07l-8.3-20.69Z" fill="#4b6476"/><path d="M727.49,460.14a12.76,12.76,0,0,0,5.54,1.3c3.1,0,4.6-1.6,4.6-3.8,0-2.45-1.5-3.64-4.34-5.49-4.6-2.8-6.34-6.34-6.34-9.39,0-5.39,3.6-9.89,10.64-9.89a11.52,11.52,0,0,1,5.3,1.2l-1.05,5.64a8,8,0,0,0-4.29-1.15c-2.8,0-4.15,1.7-4.15,3.5,0,2,1,3,4.65,5.24,4.45,2.7,6.09,6.09,6.09,9.64,0,6.14-4.54,10.19-11.14,10.19a14.78,14.78,0,0,1-6.44-1.35Z" fill="#4b6476"/><path d="M753.2,456.95c.1,3.8,2.3,5.2,5.19,5.2a14.45,14.45,0,0,0,4.65-.8l.9,4.69a20.24,20.24,0,0,1-6.74,1.1c-6.64,0-10.29-4.4-10.29-12,0-8.19,4.24-13.08,9.79-13.08,5.24,0,8.29,4.14,8.29,11.54a17.14,17.14,0,0,1-.2,3.39Zm5.84-4.59c0-3.14-.8-5.59-2.75-5.59-2.15,0-3,3.15-3,5.59Z" fill="#4b6476"/><path d="M775.22,435.92a3.33,3.33,0,0,1-3.45,3.55,3.55,3.55,0,1,1,3.45-3.55Zm-6.54,30.91V442.41h6.54v24.42Z" fill="#4b6476"/><path d="M779.81,449.75c0-2.69-.15-5-.2-7.34h5.64l.3,2.8h.1a7,7,0,0,1,5.94-3.2c4.65,0,6.49,3.69,6.49,9.14v15.68h-6.54V451.55c0-2.1-.5-4-2.4-4-1.1,0-2,.75-2.45,2.2a6.38,6.38,0,0,0-.35,2.25v14.88h-6.54Z" fill="#4b6476"/><path d="M808.12,456.95c.1,3.8,2.3,5.2,5.19,5.2a14.46,14.46,0,0,0,4.65-.8l.9,4.69a20.24,20.24,0,0,1-6.74,1.1c-6.64,0-10.29-4.4-10.29-12,0-8.19,4.24-13.08,9.79-13.08,5.24,0,8.29,4.14,8.29,11.54a17.14,17.14,0,0,1-.2,3.39Zm5.84-4.59c0-3.14-.8-5.59-2.75-5.59-2.15,0-3,3.15-3,5.59Z" fill="#4b6476"/><path d="M833.28,450.71v4.69h-9.94v-4.69Z" fill="#4b6476"/><path d="M836.92,460.14a12.77,12.77,0,0,0,5.54,1.3c3.1,0,4.6-1.6,4.6-3.8,0-2.45-1.5-3.64-4.34-5.49-4.6-2.8-6.34-6.34-6.34-9.39,0-5.39,3.6-9.89,10.64-9.89a11.52,11.52,0,0,1,5.3,1.2l-1.05,5.64a8,8,0,0,0-4.29-1.15c-2.8,0-4.15,1.7-4.15,3.5,0,2,1,3,4.65,5.24,4.44,2.7,6.09,6.09,6.09,9.64,0,6.14-4.54,10.19-11.14,10.19a14.78,14.78,0,0,1-6.44-1.35Z" fill="#4b6476"/><path d="M868.67,466.84l-.35-2.4h-.1a6.37,6.37,0,0,1-5.39,2.8c-3.7,0-6.44-3.1-6.44-7.44,0-6.39,5.64-9,11.19-9.09v-.55a3.11,3.11,0,0,0-3.45-3.3,9.14,9.14,0,0,0-5,1.4l-1.2-4.39a15.91,15.91,0,0,1,7.59-1.85c7.44,0,8.64,5.19,8.64,10.14v9.09a32.63,32.63,0,0,0,.4,5.59Zm-.9-11.89c-2.2,0-5.19.75-5.19,4.14,0,2.45,1.35,3.35,2.35,3.35a2.84,2.84,0,0,0,2.7-2.1,4.23,4.23,0,0,0,.15-1.15Z" fill="#4b6476"/><path d="M885.35,435.92a3.33,3.33,0,0,1-3.45,3.55,3.55,3.55,0,1,1,3.45-3.55Zm-6.54,30.91V442.41h6.54v24.42Z" fill="#4b6476"/><path d="M889.94,449.75c0-2.69-.15-5-.2-7.34h5.64l.3,2.8h.1a7,7,0,0,1,5.94-3.2c4.65,0,6.49,3.69,6.49,9.14v15.68h-6.54V451.55c0-2.1-.5-4-2.4-4-1.1,0-2,.75-2.45,2.2a6.38,6.38,0,0,0-.35,2.25v14.88h-6.54Z" fill="#4b6476"/><path d="M920.5,435.82v6.59h4.79v4.65H920.5V458.2c0,2.85,1.2,3.55,2.49,3.55a8.91,8.91,0,0,0,1.7-.15l.05,5.09a15.42,15.42,0,0,1-4,.45,6.59,6.59,0,0,1-4.69-1.55c-1.35-1.3-2.1-3.15-2.1-7V447.06h-2.9v-4.65H914v-5Z" fill="#4b6476"/><path d="M937.47,450.71v4.69h-9.94v-4.69Z" fill="#4b6476"/><path d="M941.86,433.67a30.2,30.2,0,0,1,6.64-.65c4.24,0,7.19,1,9.34,3,2.9,2.6,4.4,7,4.4,13.58,0,6.79-1.75,11.64-4.69,14.23-2.25,2.2-5.59,3.24-10.29,3.24a48.94,48.94,0,0,1-5.4-.35Zm6.54,28a4.4,4.4,0,0,0,1.15.1c3.14,0,5.89-3.1,5.89-12.38,0-6.89-1.8-11.09-5.74-11.09a3.73,3.73,0,0,0-1.3.15Z" fill="#4b6476"/><path d="M971.22,456.95c.1,3.8,2.3,5.2,5.19,5.2a14.46,14.46,0,0,0,4.65-.8L982,466a20.24,20.24,0,0,1-6.74,1.1c-6.64,0-10.29-4.4-10.29-12,0-8.19,4.24-13.08,9.79-13.08,5.24,0,8.29,4.14,8.29,11.54a17.19,17.19,0,0,1-.2,3.39Zm5.84-4.59c0-3.14-.8-5.59-2.75-5.59-2.15,0-3,3.15-3,5.59Z" fill="#4b6476"/><path d="M986.69,449.75c0-2.69-.15-5-.2-7.34h5.64l.3,2.8h.1a7,7,0,0,1,5.94-3.2c4.65,0,6.49,3.69,6.49,9.14v15.68h-6.54V451.55c0-2.1-.5-4-2.4-4-1.1,0-2,.75-2.45,2.2a6.38,6.38,0,0,0-.35,2.25v14.88h-6.54Z" fill="#4b6476"/><path d="M1016.1,435.92a3.33,3.33,0,0,1-3.45,3.55,3.55,3.55,0,1,1,3.45-3.55Zm-6.54,30.91V442.41h6.54v24.42Z" fill="#4b6476"/><path d="M1020.49,460.94a9.13,9.13,0,0,0,4.4,1.3c1.7,0,2.65-.75,2.65-2.2,0-1.25-.7-2-2.85-3.3-4-2.25-4.94-4.79-4.94-7,0-4.4,3.14-7.69,8-7.69a11.52,11.52,0,0,1,4.95,1.1l-1.15,4.79a6.77,6.77,0,0,0-3.39-1,2.16,2.16,0,0,0-2.45,2.1c0,1.1.55,1.7,2.85,3,3.6,2,4.95,4.59,4.95,7.39,0,5-3.6,7.69-8.64,7.69a10.74,10.74,0,0,1-5.59-1.4Z" fill="#4b6476"/><path d="M1054.54,432.28c-2.9,4.55-5.29,11-5.29,20.38,0,9,2.4,15.48,5.29,20.18h-4.69c-2.8-3.75-5.74-10.59-5.74-20.23.2-9.74,2.95-16.53,5.74-20.33Z" fill="#4b6476"/><path d="M1059.08,461.79a14.45,14.45,0,0,0,3-.25,7.94,7.94,0,0,0,3.79-1.95,12.36,12.36,0,0,0,3.14-6.54h-.15a6,6,0,0,1-4.65,2c-4.19,0-7.64-3.75-7.64-9.69,0-5.59,3.45-11.39,9.69-11.39,6,0,9.19,5.49,9.19,13.33,0,7.34-2.35,12.48-5.34,15.68a13.85,13.85,0,0,1-8,4.1,21.18,21.18,0,0,1-3,.15Zm3.95-17c0,3.15,1,5.74,3,5.74a2.85,2.85,0,0,0,2.49-1.7,9.51,9.51,0,0,0,.3-3.45c0-4.29-1.2-6.69-2.95-6.69S1063,440.87,1063,444.81Z" fill="#4b6476"/><path d="M1078.81,460.64a10.12,10.12,0,0,0,4.84,1.25c3.15,0,4.89-1.95,4.89-4.69,0-3.6-2.75-5.14-6.09-5.14h-.9v-4.79h.65c2.4-.05,5.49-1.05,5.49-4.2a3.5,3.5,0,0,0-3.8-3.75,8,8,0,0,0-4.09,1.3l-.85-4.94a13.81,13.81,0,0,1,6.69-1.7c5.69,0,8.54,3.7,8.54,7.84a7.93,7.93,0,0,1-4.65,7.29v.1c3.14,1,5.54,3.84,5.54,8.24,0,4.94-3.79,9.79-10.83,9.79a13.73,13.73,0,0,1-6.39-1.45Z" fill="#4b6476"/><path d="M1098.77,472.83c2.9-4.6,5.29-11.29,5.29-20.38s-2.4-15.58-5.29-20.18h4.7c2.8,3.65,5.74,10.29,5.74,20.18-.2,9.89-2.95,16.48-5.74,20.38Z" fill="#4b6476"/><circle cx="573.39" cy="506" r="11.02" fill="#4b6476" stroke="#222221"/><path d="M521.92,482.79v-30h4.23L535.76,468a84.88,84.88,0,0,1,5.38,9.75l.09,0c-.36-4-.44-7.66-.44-12.33V452.79h3.65v30h-3.92L531,467.57a94.54,94.54,0,0,1-5.61-10l-.13,0c.22,3.78.31,7.39.31,12.37v12.82Z" fill="#4b6476"/><path d="M563,482.79l-.31-2.71h-.13a8,8,0,0,1-6.58,3.2c-4.36,0-6.59-3.07-6.59-6.19,0-5.21,4.63-8.06,12.95-8v-.44c0-1.78-.49-5-4.89-5a10.72,10.72,0,0,0-5.61,1.6l-.89-2.58a13.38,13.38,0,0,1,7.08-1.91c6.58,0,8.19,4.49,8.19,8.81v8.05a30.43,30.43,0,0,0,.36,5.16Zm-.58-11c-4.27-.09-9.12.67-9.12,4.85a3.47,3.47,0,0,0,3.69,3.74,5.36,5.36,0,0,0,5.21-3.61,4.07,4.07,0,0,0,.22-1.24Z" fill="#4b6476"/><path d="M572.55,467.08c0-2.23,0-4-.18-5.83h3.47l.22,3.56h.09a7.92,7.92,0,0,1,7.12-4c3,0,7.61,1.78,7.61,9.17v12.86H587V470.37c0-3.47-1.29-6.36-5-6.36a5.75,5.75,0,0,0-5.52,5.83v12.95h-3.92Z" fill="#4b6476"/><path d="M601.79,455.06v6.19h5.61v3h-5.61v11.62c0,2.67.76,4.18,2.94,4.18a8.58,8.58,0,0,0,2.27-.27l.18,2.94a9.57,9.57,0,0,1-3.47.54,5.42,5.42,0,0,1-4.23-1.65c-1.11-1.16-1.51-3.07-1.51-5.61V464.23h-3.34v-3H598v-5.16Z" fill="#4b6476"/><path d="M613.73,472.73c.09,5.3,3.47,7.48,7.39,7.48a14.16,14.16,0,0,0,6-1.11l.67,2.8a17.41,17.41,0,0,1-7.16,1.34c-6.63,0-10.59-4.36-10.59-10.86s3.83-11.61,10.1-11.61c7,0,8.9,6.19,8.9,10.15a14.39,14.39,0,0,1-.13,1.82Zm11.48-2.8c0-2.49-1-6.36-5.43-6.36-4,0-5.7,3.65-6,6.36Z" fill="#4b6476"/><path d="M633.85,468c0-2.54,0-4.72-.18-6.72h3.43l.13,4.23h.18a6.47,6.47,0,0,1,6-4.72,4.21,4.21,0,0,1,1.11.14v3.69a5.84,5.84,0,0,0-1.33-.13c-2.76,0-4.72,2.09-5.25,5a10.94,10.94,0,0,0-.18,1.82v11.48h-3.87Z" fill="#4b6476"/><path d="M648.59,468c0-2.54,0-4.72-.18-6.72h3.43l.13,4.23h.18a6.47,6.47,0,0,1,6-4.72,4.21,4.21,0,0,1,1.11.14v3.69a5.85,5.85,0,0,0-1.33-.13c-2.76,0-4.72,2.09-5.25,5a11.26,11.26,0,0,0-.18,1.82v11.48h-3.87Z" fill="#4b6476"/><path d="M664.89,472.73c.09,5.3,3.47,7.48,7.39,7.48a14.16,14.16,0,0,0,6-1.11l.67,2.8a17.42,17.42,0,0,1-7.17,1.34c-6.63,0-10.59-4.36-10.59-10.86s3.83-11.61,10.1-11.61c7,0,8.9,6.19,8.9,10.15a14.39,14.39,0,0,1-.13,1.82Zm11.48-2.8c0-2.49-1-6.36-5.43-6.36-4,0-5.7,3.65-6,6.36Z" fill="#4b6476"/><path d="M388.24,455.26v12.84h6.52V455.26H401v32.06h-6.23V473.91h-6.52v13.41H382V455.26Z" fill="#4b6476"/><path d="M416.34,487.32,416,485h-.1a6.07,6.07,0,0,1-5.14,2.66c-3.52,0-6.14-3-6.14-7.09,0-6.09,5.38-8.61,10.65-8.66v-.52A3,3,0,0,0,412,468.3a8.71,8.71,0,0,0-4.76,1.33l-1.14-4.18a15.15,15.15,0,0,1,7.23-1.76c7.09,0,8.23,4.95,8.23,9.65V482a31.08,31.08,0,0,0,.38,5.33ZM415.49,476c-2.09,0-4.95.71-4.95,3.95,0,2.33,1.28,3.19,2.23,3.19a2.71,2.71,0,0,0,2.57-2,4,4,0,0,0,.14-1.09Z" fill="#4b6476"/><path d="M443,480.23c0,2.47.1,4.9.19,7.09h-5.37l-.33-2.47h-.1A6.56,6.56,0,0,1,432,487.7c-4.42,0-6.23-3.28-6.23-9.56V464.06h6.28v13.41c0,3,.57,5,2.33,5a2.21,2.21,0,0,0,2-1.57,4.67,4.67,0,0,0,.38-2V464.06H443Z" fill="#4b6476"/><path d="M454.81,457.78v6.28h4.57v4.42h-4.57v10.61c0,2.71,1.14,3.38,2.38,3.38a8.48,8.48,0,0,0,1.62-.14l0,4.85a14.71,14.71,0,0,1-3.8.43,6.27,6.27,0,0,1-4.47-1.48c-1.28-1.24-2-3-2-6.66v-11h-2.76v-4.42h2.76v-4.8Z" fill="#4b6476"/><path d="M462.08,481.71a8.69,8.69,0,0,0,4.19,1.24c1.62,0,2.52-.71,2.52-2.09,0-1.19-.67-1.95-2.71-3.14-3.8-2.14-4.71-4.57-4.71-6.71,0-4.19,3-7.32,7.66-7.32a11,11,0,0,1,4.71,1l-1.1,4.57a6.45,6.45,0,0,0-3.23-1,2.05,2.05,0,0,0-2.33,2c0,1,.52,1.62,2.71,2.9,3.43,2,4.71,4.38,4.71,7,0,4.76-3.43,7.33-8.23,7.33a10.23,10.23,0,0,1-5.33-1.33Z" fill="#4b6476"/><path d="M486.38,472v4.47h-9.46V472Z" fill="#4b6476"/><path d="M436.6,502v26c0,2.23.1,4.75.19,6.9h-5.37l-.33-2.62H431a5.67,5.67,0,0,1-4.85,3c-4.95,0-7.23-5.47-7.23-12,0-8.08,3.52-12,7.47-12a4,4,0,0,1,3.9,2.33h.1V502Zm-6.23,18.6c0-.43,0-.9,0-1.38-.24-1.43-1-2.71-2.24-2.71-2.19,0-3,3.19-3,6.94,0,4.42,1.19,6.75,2.95,6.75.76,0,1.66-.43,2.14-2a3.94,3.94,0,0,0,.19-1.43Z" fill="#4b6476"/><path d="M446.16,525.45c.1,3.62,2.19,4.95,4.95,4.95a13.76,13.76,0,0,0,4.42-.76l.86,4.47a19.26,19.26,0,0,1-6.42,1c-6.33,0-9.8-4.19-9.8-11.46,0-7.8,4-12.46,9.32-12.46,5,0,7.9,3.95,7.9,11a16.37,16.37,0,0,1-.19,3.23Zm5.56-4.38c0-3-.76-5.33-2.62-5.33-2,0-2.85,3-2.9,5.33Z" fill="#4b6476"/><path d="M470.12,519.51V524h-9.46v-4.47Z" fill="#4b6476"/><path d="M473.59,528.5a12.15,12.15,0,0,0,5.28,1.24c3,0,4.38-1.52,4.38-3.61,0-2.33-1.43-3.47-4.14-5.23-4.38-2.66-6-6-6-8.94,0-5.14,3.42-9.42,10.13-9.42a11,11,0,0,1,5,1.14l-1,5.37a7.64,7.64,0,0,0-4.09-1.09c-2.66,0-3.95,1.62-3.95,3.33,0,1.9,1,2.9,4.42,5,4.23,2.57,5.8,5.8,5.8,9.18,0,5.85-4.33,9.7-10.61,9.7a14.09,14.09,0,0,1-6.13-1.28Z" fill="#4b6476"/><path d="M498.08,525.45c.1,3.62,2.19,4.95,4.95,4.95a13.78,13.78,0,0,0,4.42-.76l.86,4.47a19.26,19.26,0,0,1-6.42,1c-6.33,0-9.8-4.19-9.8-11.46,0-7.8,4-12.46,9.32-12.46,5,0,7.9,3.95,7.9,11a16.33,16.33,0,0,1-.19,3.23Zm5.56-4.38c0-3-.76-5.33-2.62-5.33-2,0-2.85,3-2.9,5.33Z" fill="#4b6476"/><path d="M519,505.43a3.17,3.17,0,0,1-3.28,3.38,3.38,3.38,0,1,1,3.28-3.38Zm-6.23,29.44V511.61H519v23.26Z" fill="#4b6476"/><path d="M523.42,518.6c0-2.57-.14-4.8-.19-7h5.38l.28,2.66h.1a6.68,6.68,0,0,1,5.66-3c4.42,0,6.18,3.52,6.18,8.7v14.93H534.6V520.32c0-2-.47-3.85-2.28-3.85-1,0-1.9.71-2.33,2.09a6.14,6.14,0,0,0-.33,2.14v14.17h-6.23Z" fill="#4b6476"/><path d="M550.38,525.45c.1,3.62,2.19,4.95,4.95,4.95a13.76,13.76,0,0,0,4.42-.76l.86,4.47a19.26,19.26,0,0,1-6.42,1c-6.33,0-9.8-4.19-9.8-11.46,0-7.8,4-12.46,9.32-12.46,5,0,7.9,3.95,7.9,11a16.33,16.33,0,0,1-.19,3.23Zm5.56-4.38c0-3-.76-5.33-2.62-5.33-2,0-2.85,3-2.9,5.33Z" fill="#4b6476"/><path d="M484.29,549.51c-2.76,4.33-5,10.51-5,19.41,0,8.61,2.28,14.74,5,19.21h-4.47c-2.66-3.57-5.47-10.08-5.47-19.26.19-9.27,2.81-15.74,5.47-19.36Z" fill="#4b6476"/><path d="M488.61,577.62a13.77,13.77,0,0,0,2.86-.24,7.56,7.56,0,0,0,3.61-1.85,11.77,11.77,0,0,0,3-6.23h-.14a5.75,5.75,0,0,1-4.42,1.9c-4,0-7.28-3.57-7.28-9.23,0-5.33,3.28-10.84,9.23-10.84,5.76,0,8.75,5.23,8.75,12.7,0,7-2.24,11.89-5.09,14.93a13.19,13.19,0,0,1-7.61,3.9,19.8,19.8,0,0,1-2.9.14Zm3.76-16.17c0,3,1,5.47,2.9,5.47a2.72,2.72,0,0,0,2.38-1.62,9.12,9.12,0,0,0,.28-3.28c0-4.09-1.14-6.37-2.81-6.37S492.32,557.69,492.37,561.44Z" fill="#4b6476"/><path d="M506.49,582.42v-4.18l3.09-3.95c4-5.09,7.28-9.32,7.28-13.74,0-2.47-1.38-4.23-3.95-4.23a8.76,8.76,0,0,0-4.66,1.57L507.16,553a13.81,13.81,0,0,1,6.9-1.9c6.75,0,8.94,4.52,8.94,8.94,0,5.8-3.61,10.47-7.18,14.6L514,576.86v.1h9.46v5.47Z" fill="#4b6476"/><path d="M526.41,588.13c2.76-4.38,5-10.75,5-19.4s-2.28-14.84-5-19.22h4.47c2.66,3.47,5.47,9.8,5.47,19.22-.19,9.42-2.81,15.69-5.47,19.4Z" fill="#4b6476"/><path d="M753.77,509.45a30.09,30.09,0,1,1-30.09-30.09A30.08,30.08,0,0,1,753.77,509.45Z" fill="#8ab43c" stroke="#8ab43c" stroke-width="10"/></svg>