<svg id="Calque_1" data-name="Calque 1" xmlns="http://www.w3.org/2000/svg" viewBox="0 0 2500 2500"><title>Plan de travail 1</title><path d="M792.21,1326.61c-18.51,0-39-8.74-50.14-22.22-12.11-14.8-19.52-35-19.52-64.28,0-25.9,11.78-40.71,24.9-54.51,17.83-18.51,63.25-22.88,86.47-13.46,8.42,3.37,44.08,19.52,50.48,25.91v-87.49c-9.43-9.08-43.07-24.23-101.29-24.56-43.75-6.06-80.76,13.13-109.7,39.7-31.63,29.27-47.44,69-47.44,119.45,0,50.82,16.15,90.18,48.44,118.45C702,1387.82,736,1406.66,777,1406.66a199.53,199.53,0,0,0,33-2.68c9.75-2,66.63-18.85,76-22.54v-81.09c-15.46,11.12-69.3,31.31-93.85,26.26Zm-541.76-70.67c14.81-6.06,17.83-6.06,28.26-20.86,9.43-13.79,13.8-31.3,13.8-52.5,0-31.62-11.44-55.17-34-70.66-19.52-13.13-54.85-18.85-95.22-20.53q-15.14-.6-30.28-.67H36.77V1394.9H136V1277.46c10.43-.66,19.51,1.35,27.25,5.72,22.88,13.13,36,49.47,54.17,115.08H322.79q-6.7-14.84-12.79-29.95c-17.16-41.7-33.64-82.41-59.56-112.37Zm-87.16-37c-8.08.67-16.82.32-25.58.32v-64.6c7.06,0,16.48-.67,25.58,1.35,13.13,2.36,24.9,9.42,25.58,29.95.67,24.23-10.76,31-25.58,33Z" fill="#496174"/><path d="M457.73,1088.37c-66.29,0-123.16,41.39-147.73,99.95a167.79,167.79,0,0,0,0,126.86c24.56,58.57,81.44,99.93,147.73,99.93,88.16,0,160.18-73.33,160.18-163.19C617.89,1161.73,545.88,1088.37,457.73,1088.37Zm0,227.8c-31.62,0-57.55-31-57.55-68.31,0-37.69,25.91-68.31,57.55-68.31s57.55,30.62,57.55,68.31C515.26,1285.23,489.35,1316.17,457.73,1316.17Zm1894.45,7.07V1090.73h-99.24v304.18h210.3v-71.67H2352.18ZM2087,1088.37c-88.18,0-160.18,73.36-160.18,163.54,0,89.85,72,163.19,160.18,163.19s160.18-73.33,160.18-163.19C2247.22,1161.73,2175.2,1088.37,2087,1088.37Zm0,227.8c-31.63,0-57.56-31-57.56-68.31,0-37.69,25.91-68.31,57.56-68.31s57.53,30.62,57.53,68.31C2144.58,1285.23,2118.66,1316.17,2087,1316.17Zm-325-227.8c-69.66,0-129.57,46.09-151.44,109.7a167.25,167.25,0,0,0-8.74,53.84,164.79,164.79,0,0,0,8.74,53.5c21.87,63.94,81.77,109.69,151.44,109.69,88.16,0,160.18-73.33,160.18-163.19C1922.16,1161.73,1850.14,1088.37,1762,1088.37Zm0,227.8c-31.63,0-57.56-31-57.56-68.31,0-37.69,25.91-68.31,57.56-68.31s57.53,30.62,57.53,68.31C1819.52,1285.23,1793.6,1316.17,1762,1316.17Zm-142.34-225.44h-97.93L1479,1241.48l-37-150.75h-68.65l-37.69,151.76-46.76-151.76h-74l-7.74,9.75-3.33,4.31,3.33,11.52,83.45,278.6H1370l38.7-130.55c10.08,64.29,14.14,67.3,28.27,130.55h83.45l90.18-276.59,9.09-27.59Z" fill="#496174"/><path d="M1110.19,1090.73,995.78,1219.95V1090.73H896.51v304.18h99.27l1-139.63,102,139.63h106.34l-104-157.8,102.66-132.32-4.06-14.06h-89.52Z" fill="#496174"/></svg>