<svg id="Calque_1" data-name="Calque 1" xmlns="http://www.w3.org/2000/svg" viewBox="0 0 2500 2500"><title>Plan de travail 1</title><rect x="404.88" y="1498.7" width="45.24" height="244.14" fill="#496174"/><path d="M285.46,1194.33c-13.9-11.59-30.47-16.59-47.62-22.53-14.58-5-31.13-11.95-30.79-29.84-.34-14.63,9.27-25.9,24.16-25.9,14.23,0,26.77,10.27,27.43,25.51h46.67c.31-38.44-33.75-69.63-71.44-69.63-39,0-72.12,29.52-72.12,69.63a70,70,0,0,0,19.17,47.13c12.26,12.61,26.15,17.26,42.36,22.53,20.18,6.65,42.66,14.63,42.66,41.49,0,17.94-14.55,30.83-31.74,30.83-18.17,0-34-11.27-34-30.83H152.81c0,42.81,37.38,75,79,75,43.34,0,79.4-33.84,79.4-77.64C311.25,1226.19,303,1208.26,285.46,1194.33Z" fill="#496174"/><rect x="563.41" y="1076.58" width="45.3" height="245.12" fill="#496174"/><path d="M550.57,1321.7,447.69,1076.58H412.3L310.39,1321.7h50l27.12-63.36h86.68l26.46,63.36ZM404,1214.27l26.12-74.33,26.15,74.33Z" fill="#496174"/><path d="M1803,1140.92c0-22.89-14.21-44.8-34.4-55-20.54-10.3-43-9.31-65.15-9.31h-44.3V1321.7h61.19c23.44-.64,48.26-2,67.77-16.26,18.85-14.24,29.74-34.47,29.74-58.36,0-27.87-14.85-50.74-41.65-59.38C1794.12,1179.08,1803,1160.16,1803,1140.92Zm-98.62,29.87h0v-50.1h8.34c9.57,0,21.13-1.66,29.77,2.35,8.9,3.64,15.17,11.59,15.17,21.58,0,9.25-5.27,18.53-13.88,22.53s-21.18,3.66-30.75,3.66h-8.65ZM1760.7,1269c-11.93,8-24.16,8.61-37.39,8.61h-18.9v-62.68h19.88c10.92,0,21.84-.32,32,5,10.64,6,16.26,13.24,16.26,25.19C1772.6,1255.38,1769,1263.35,1760.7,1269Z" fill="#496174"/><path d="M1815.51,1321.7h49.93l27.16-63.36h86.61l26.5,63.36h49.93l-102.88-245.12h-35.39Zm119.72-181.76,26.12,74.33h-52.24Z" fill="#496174"/><polygon points="946.91 1321.7 946.91 1120.69 992.55 1120.69 992.55 1076.58 856.59 1076.58 856.59 1120.69 901.57 1120.69 901.57 1321.7 946.91 1321.7" fill="#496174"/><path d="M712.47,938.41s2.19-41.53,48.09-41.53c51.33,0,51.33,41.53,51.33,41.53v59h57.92V896.89s-9-41.09,47-41.09c52.06,0,49.12,41.09,49.12,41.09V997.41h59V861.94s2.19-37.13,48.08-37.13,50.26,37.13,50.26,37.13V997.43h61.18V835.72s6.55-54.62,64.45-54.62c59,0,64.46,52.44,64.46,52.44V997.41h59V861.94s0-37.13,48.08-37.13,51.32,37.13,51.32,37.13V997.43h57.91V896.9s2.18-40.39,48.08-40.39c48.08,0,49.17,40.39,49.17,40.39V997.43h56.79V937.34s-.18-41.49,48.08-40.44c49.83,1.09,49.19,41.53,49.19,41.53v59h63.36V892.5L1250,709,655.65,883.8V997.41h56.82Z" fill="#496174"/><rect x="1002.43" y="1196.66" width="91.64" height="39.13" fill="#496174"/><path d="M1375.51,1196.66H1216.07v42.77h102.2c-13.24,26.21-42.68,44.12-71.45,44.12a87.29,87.29,0,0,1-63.18-27.53c-14.2-14.57-23.49-36.46-23.49-57.05,0-22.53,11.24-46.77,28.13-61.67a86,86,0,0,1,56.54-21.23c24.49,0,49.62,12.3,64.19,32.53h54.25c-18.55-47.12-68.8-76.65-118.41-76.65-70.11,0-130,56.42-130,128.72,0,71.94,60.19,127,130.62,127,69.83,0,130-54.08,130-125.73Z" fill="#496174"/><path d="M1508.06,1071.94h0c-70.45,0-127.36,57-127.36,128.35,0,71,57.88,127.42,127.36,127.42s127.34-56.42,127.34-127.42C1635.41,1129,1578.49,1071.94,1508.06,1071.94Zm0,211.61c-44.65,0-82-38.81-82-84.24,0-46.09,36.35-83.25,82-83.25h0c45.65,0,82,37.16,82,83.25,0,45.44-37.4,84.24-82,84.24Z" fill="#496174"/><path d="M1747.88,1494.08h0c-70.37,0-127.17,56.79-127.17,127.8,0,70.7,57.83,126.86,127.17,126.86S1875,1692.58,1875,1621.88C1875,1550.87,1818.24,1494.08,1747.88,1494.08Zm0,210.75c-44.6,0-81.89-38.64-81.89-83.93,0-45.9,36.29-82.89,81.89-82.89s81.94,37,81.94,82.89c0,45.29-37.36,83.92-81.94,83.92Z" fill="#496174"/><path d="M611.9,1616c-13.88-11.58-30.4-16.51-47.56-22.46-14.55-4.94-31.06-11.88-30.73-29.69-.34-14.54,9.23-25.78,24.1-25.78,14.23,0,26.77,10.21,27.43,25.43h46.6c.31-38.33-33.72-69.36-71.37-69.36-39,0-72,29.39-72,69.36a69.39,69.39,0,0,0,19.18,46.91c12.18,12.57,26.08,17.17,42.24,22.44,20.16,6.59,42.62,14.54,42.62,41.3,0,17.86-14.53,30.73-31.7,30.73-18.16,0-34-11.22-34-30.73H479.44c0,42.63,37.32,74.64,78.92,74.64,43.32,0,79.3-33.7,79.3-77.31C637.66,1647.64,629.4,1629.83,611.9,1616Z" fill="#496174"/><polygon points="1992.31 1610.99 1939.16 1498.69 1889.25 1498.69 1969.52 1652.63 1969.52 1742.84 1969.55 1742.84 1969.55 1742.84 2014.79 1742.84 2014.79 1652.63 2095.06 1498.69 2045.51 1498.69 1992.31 1610.99" fill="#496174"/><polygon points="2301.87 1076.58 2301.87 1255.68 2199.97 1076.58 2149.05 1076.58 2149.05 1321.7 2194.39 1321.7 2194.39 1143.26 2296.91 1321.7 2347.16 1321.7 2347.16 1076.58 2301.87 1076.58" fill="#496174"/><rect x="2068.47" y="1076.58" width="45.32" height="245.12" fill="#496174"/><polygon points="1039.88 1684.32 974.16 1498.7 926.6 1498.7 1021.39 1742.84 1021.39 1742.84 1058.73 1742.84 1153.21 1498.69 1105.65 1498.69 1039.88 1684.32" fill="#496174"/><path d="M783.54,1494.08h0c-70.34,0-127.16,56.79-127.16,127.8,0,70.7,57.79,126.86,127.16,126.86s127.21-56.16,127.21-126.86C910.74,1550.87,853.92,1494.08,783.54,1494.08Zm0,210.75c-44.58,0-81.92-38.64-81.92-83.93,0-45.9,36.34-82.89,81.92-82.89h0c45.61,0,81.92,37,81.92,82.89,0,45.29-37.3,83.92-81.92,83.92Z" fill="#496174"/><polygon points="689.28 1143.26 791.82 1321.7 842.1 1321.7 842.1 1076.58 796.76 1076.58 796.76 1255.68 694.92 1076.58 643.99 1076.58 643.99 1321.7 689.28 1321.7 689.28 1143.26" fill="#496174"/><polygon points="1177.67 1742.84 1177.67 1742.84 1308.81 1742.84 1308.81 1698.86 1222.89 1698.86 1222.89 1642.7 1305.12 1642.7 1305.12 1598.77 1222.89 1598.77 1222.89 1542.61 1308.81 1542.61 1308.81 1498.68 1177.67 1498.68 1177.67 1742.84" fill="#496174"/><path d="M1491.67,1629.15c11.88-13.2,20.14-35.32,20.14-53.15a79.72,79.72,0,0,0-28.39-60.14c-18.47-15.55-40.3-16.85-63.44-17.17h-70.67v244.16h45.26v-93.52l64.08,93.52h55.83l-66.09-90.2C1464.93,1649,1479.76,1642.05,1491.67,1629.15Zm-97.1-14.18v-72.35h25.08c12.57-.32,23.14.34,33.7,8.26,8.6,6.28,13.2,16.85,13.2,27.41a36.12,36.12,0,0,1-11.19,26.45c-8.88,8.56-24.14,10.23-36,10.23Z" fill="#496174"/><path d="M148.54,1387.44H2351.46V1406H148.54Z" fill="#496174"/><path d="M36.76,607.14H2463.23V1892.85H36.76Zm32.79,32.79V1860.07H2430.46V639.93Z" fill="#496174"/></svg>