<svg id="Calque_1" data-name="Calque 1" xmlns="http://www.w3.org/2000/svg" viewBox="0 0 500 500"><defs><style>.cls-1{fill:#ee7626;}.cls-2{fill:#fff;}.cls-3{fill:#2064ab;}</style></defs><title>icon-porcentage-combles-orange</title><path class="cls-1" d="M189.86,312.58a3.54,3.54,0,0,1,3.71,3.6v4.94a3.54,3.54,0,0,1-3.71,3.61H149.65a3.34,3.34,0,0,1-3.52-3.42v-4.56a14.44,14.44,0,0,1,1.17-6.07c12.69-29.8,33.58-51.63,33.58-78,0-14-3.71-18.79-11.13-18.79-9.18,0-10.54,8-9.95,17.27.19,4-1,6.27-3.91,6.27h-4.68c-2.54,0-4.89-1.33-4.89-5.13,0-23.16,8.4-30.37,24-30.37,15.81,0,24.59,9.5,24.59,32.65,0,27-23.81,51.25-34.55,78Z"/><path class="cls-1" d="M258.41,231c0-19.75,6.45-29.81,19.34-29.81,13.27,0,19.32,10.06,19.32,29.81,0,19.55-6.05,29.8-19.32,29.8C264.86,260.76,258.41,250.51,258.41,231Zm8.21,90.16,54.85-114.46c1-2.09,2.74-3.61,4.89-3.61h3.9c2.15,0,3.52,1.52,2.54,3.61L277.94,321.12c-1,2.09-2.73,3.61-4.88,3.61h-3.9C267,324.73,265.64,323.21,266.62,321.12ZM285.56,231c0-12.91-1.37-19.55-7.81-19.55-6.26,0-7.81,6.64-7.81,19.55,0,12.71,1.55,19.55,7.81,19.55C284.19,250.51,285.56,243.67,285.56,231Zm16.78,65.86c0-19.74,6.45-29.8,19.34-29.8C335,267,341,277.08,341,296.82c0,19.55-6.05,29.8-19.32,29.8C308.79,326.62,302.34,316.37,302.34,296.82Zm27.15,0c0-12.91-1.38-19.55-7.81-19.55-6.26,0-7.81,6.64-7.81,19.55,0,12.72,1.55,19.55,7.81,19.55C328.11,316.37,329.49,309.54,329.49,296.82Z"/><rect class="cls-1" x="87.61" y="261" width="51.83" height="10.46"/><path class="cls-1" d="M201.91,263c0-49.07,9.26-59.25,26.32-59.25s26.32,10.18,26.32,59.25-9.25,59.45-26.32,59.45S201.91,312.07,201.91,263Zm39.18.46c0-43.77-4.06-47.8-11.38-47.8s-11.37,4-11.37,47.8,4.07,48,11.37,48S241.09,307.22,241.09,263.44Z"/><path class="cls-1" d="M230.94,499C105.26,499,3,395.89,3,269.16S105.26,39.31,230.94,39.31s228,103.11,228,229.85S356.63,499,230.94,499Zm0-443.56C114.07,55.44,19,151.31,19,269.16s95.07,213.71,211.94,213.71,212-95.87,212-213.71S347.81,55.44,230.94,55.44Z"/><path class="cls-1" d="M398.33,214.27C374.71,141,307.45,91.73,230.94,91.73V3C345.68,3,446.57,76.9,482,186.87Z"/><path class="cls-2" d="M189.86,312.58a3.54,3.54,0,0,1,3.71,3.6v4.94a3.54,3.54,0,0,1-3.71,3.61H149.65a3.34,3.34,0,0,1-3.52-3.42v-4.56a14.44,14.44,0,0,1,1.17-6.07c12.69-29.8,33.58-51.63,33.58-78,0-14-3.71-18.79-11.13-18.79-9.18,0-10.54,8-9.95,17.27.19,4-1,6.27-3.91,6.27h-4.68c-2.54,0-4.89-1.33-4.89-5.13,0-23.16,8.4-30.37,24-30.37,15.81,0,24.59,9.5,24.59,32.65,0,27-23.81,51.25-34.55,78Z"/><path class="cls-2" d="M258.41,231c0-19.75,6.45-29.81,19.34-29.81,13.27,0,19.32,10.06,19.32,29.81,0,19.55-6.05,29.8-19.32,29.8C264.86,260.76,258.41,250.51,258.41,231Zm8.21,90.16,54.85-114.46c1-2.09,2.74-3.61,4.89-3.61h3.9c2.15,0,3.52,1.52,2.54,3.61L277.94,321.12c-1,2.09-2.73,3.61-4.88,3.61h-3.9C267,324.73,265.64,323.21,266.62,321.12ZM285.56,231c0-12.91-1.37-19.55-7.81-19.55-6.26,0-7.81,6.64-7.81,19.55,0,12.71,1.55,19.55,7.81,19.55C284.19,250.51,285.56,243.67,285.56,231Zm16.78,65.86c0-19.74,6.45-29.8,19.34-29.8C335,267,341,277.08,341,296.82c0,19.55-6.05,29.8-19.32,29.8C308.79,326.62,302.34,316.37,302.34,296.82Zm27.15,0c0-12.91-1.38-19.55-7.81-19.55-6.26,0-7.81,6.64-7.81,19.55,0,12.72,1.55,19.55,7.81,19.55C328.11,316.37,329.49,309.54,329.49,296.82Z"/><rect class="cls-2" x="87.61" y="261" width="51.83" height="10.46"/><path class="cls-2" d="M201.91,263c0-49.07,9.26-59.25,26.32-59.25s26.32,10.18,26.32,59.25-9.25,59.45-26.32,59.45S201.91,312.07,201.91,263Zm39.18.46c0-43.77-4.06-47.8-11.38-47.8s-11.37,4-11.37,47.8,4.07,48,11.37,48S241.09,307.22,241.09,263.44Z"/><path class="cls-2" d="M230.94,499C105.26,499,3,395.89,3,269.16S105.26,39.31,230.94,39.31s228,103.11,228,229.85S356.63,499,230.94,499Zm0-443.56C114.07,55.44,19,151.31,19,269.16s95.07,213.71,211.94,213.71,212-95.87,212-213.71S347.81,55.44,230.94,55.44Z"/><path class="cls-3" d="M398.33,214.27C374.71,141,307.45,91.73,230.94,91.73V3C345.68,3,446.57,76.9,482,186.87Z"/></svg>