<svg id="Calque_1" data-name="Calque 1" xmlns="http://www.w3.org/2000/svg" viewBox="0 0 500 500"><defs><style>.cls-1{fill:#ee7626;}.cls-2{fill:#fff;}</style></defs><title>icon-porcentage-combles-orange</title><path class="cls-1" d="M187,312.58a3.49,3.49,0,0,1,3.6,3.6v4.94a3.49,3.49,0,0,1-3.6,3.61h-39.1a3.29,3.29,0,0,1-3.43-3.42v-4.56a14.85,14.85,0,0,1,1.14-6.07c12.34-29.8,32.65-51.63,32.65-78,0-14-3.61-18.79-10.82-18.79-8.92,0-10.25,8-9.68,17.27.19,4-.95,6.27-3.79,6.27h-4.56c-2.47,0-4.75-1.33-4.75-5.13,0-23.16,8.17-30.37,23.35-30.37,15.38,0,23.92,9.5,23.92,32.65,0,27-23.16,51.25-33.6,78Z"/><path class="cls-1" d="M206.78,203.05h35.5a3.49,3.49,0,0,1,3.6,3.61v4.93a3.49,3.49,0,0,1-3.6,3.61H216.46v34.17c1.71-1.9,6.45-3.61,9.87-3.61,14.62,0,20.5,12.34,20.5,40.05s-6.26,40.06-23,40.06c-17.84,0-22.78-10.82-22.78-30.37,0-3.8,2.28-5.13,4.75-5.13h4.56c2.84,0,4,2.28,3.79,6.26-.38,5.89-1.52,17.47,9.11,17.47,6.27,0,10.64-4.37,10.64-28.29,0-23.72-3.43-28.66-10.45-28.66-6.45,0-9.11,5.31-9.11,11.39,0,3.61-.76,5.69-3.41,5.69h-3.23c-2.28,0-4.56-1.13-4.56-4.55v-63A3.49,3.49,0,0,1,206.78,203.05Z"/><path class="cls-1" d="M253.68,231c0-19.75,6.26-29.81,18.79-29.81,12.91,0,18.79,10.06,18.79,29.81,0,19.55-5.88,29.8-18.79,29.8C259.94,260.76,253.68,250.51,253.68,231Zm8,90.16L315,206.66c.95-2.09,2.65-3.61,4.75-3.61h3.8c2.08,0,3.41,1.52,2.46,3.61L272.66,321.12c-.94,2.09-2.66,3.61-4.74,3.61h-3.8C262,324.73,260.7,323.21,261.65,321.12ZM280.07,231c0-12.91-1.33-19.55-7.6-19.55-6.07,0-7.59,6.64-7.59,19.55,0,12.71,1.52,19.55,7.59,19.55C278.74,250.51,280.07,243.67,280.07,231Zm16.32,65.86c0-19.74,6.26-29.8,18.79-29.8,12.91,0,18.79,10.06,18.79,29.8,0,19.55-5.88,29.8-18.79,29.8C302.65,326.62,296.39,316.37,296.39,296.82Zm26.39,0c0-12.91-1.34-19.55-7.6-19.55-6.07,0-7.59,6.64-7.59,19.55,0,12.72,1.52,19.55,7.59,19.55C321.44,316.37,322.78,309.54,322.78,296.82Z"/><rect class="cls-1" x="87.61" y="261" width="50.39" height="10.46"/><rect class="cls-1" x="107.57" y="241.03" width="10.46" height="50.39"/><path class="cls-1" d="M231.35,496c-125.72,0-228-102.28-228-228s102.28-228,228-228,228,102.28,228,228S357.07,496,231.35,496Zm0-440c-116.9,0-212,95.1-212,212s95.1,212,212,212,212-95.1,212-212S348.25,56,231.35,56Z"/><path class="cls-1" d="M495.35,268h-88c0-97.05-79-176-176-176V4C376.92,4,495.35,122.43,495.35,268Z"/><path class="cls-2" d="M187,312.58a3.49,3.49,0,0,1,3.6,3.6v4.94a3.49,3.49,0,0,1-3.6,3.61h-39.1a3.29,3.29,0,0,1-3.43-3.42v-4.56a14.85,14.85,0,0,1,1.14-6.07c12.34-29.8,32.65-51.63,32.65-78,0-14-3.61-18.79-10.82-18.79-8.92,0-10.25,8-9.68,17.27.19,4-.95,6.27-3.79,6.27h-4.56c-2.47,0-4.75-1.33-4.75-5.13,0-23.16,8.17-30.37,23.35-30.37,15.38,0,23.92,9.5,23.92,32.65,0,27-23.16,51.25-33.6,78Z"/><path class="cls-2" d="M206.78,203.05h35.5a3.49,3.49,0,0,1,3.6,3.61v4.93a3.49,3.49,0,0,1-3.6,3.61H216.46v34.17c1.71-1.9,6.45-3.61,9.87-3.61,14.62,0,20.5,12.34,20.5,40.05s-6.26,40.06-23,40.06c-17.84,0-22.78-10.82-22.78-30.37,0-3.8,2.28-5.13,4.75-5.13h4.56c2.84,0,4,2.28,3.79,6.26-.38,5.89-1.52,17.47,9.11,17.47,6.27,0,10.64-4.37,10.64-28.29,0-23.72-3.43-28.66-10.45-28.66-6.45,0-9.11,5.31-9.11,11.39,0,3.61-.76,5.69-3.41,5.69h-3.23c-2.28,0-4.56-1.13-4.56-4.55v-63A3.49,3.49,0,0,1,206.78,203.05Z"/><path class="cls-2" d="M253.68,231c0-19.75,6.26-29.81,18.79-29.81,12.91,0,18.79,10.06,18.79,29.81,0,19.55-5.88,29.8-18.79,29.8C259.94,260.76,253.68,250.51,253.68,231Zm8,90.16L315,206.66c.95-2.09,2.65-3.61,4.75-3.61h3.8c2.08,0,3.41,1.52,2.46,3.61L272.66,321.12c-.94,2.09-2.66,3.61-4.74,3.61h-3.8C262,324.73,260.7,323.21,261.65,321.12ZM280.07,231c0-12.91-1.33-19.55-7.6-19.55-6.07,0-7.59,6.64-7.59,19.55,0,12.71,1.52,19.55,7.59,19.55C278.74,250.51,280.07,243.67,280.07,231Zm16.32,65.86c0-19.74,6.26-29.8,18.79-29.8,12.91,0,18.79,10.06,18.79,29.8,0,19.55-5.88,29.8-18.79,29.8C302.65,326.62,296.39,316.37,296.39,296.82Zm26.39,0c0-12.91-1.34-19.55-7.6-19.55-6.07,0-7.59,6.64-7.59,19.55,0,12.72,1.52,19.55,7.59,19.55C321.44,316.37,322.78,309.54,322.78,296.82Z"/><rect class="cls-2" x="87.61" y="261" width="50.39" height="10.46"/><rect class="cls-2" x="107.57" y="241.03" width="10.46" height="50.39"/><path class="cls-2" d="M231.35,496c-125.72,0-228-102.28-228-228s102.28-228,228-228,228,102.28,228,228S357.07,496,231.35,496Zm0-440c-116.9,0-212,95.1-212,212s95.1,212,212,212,212-95.1,212-212S348.25,56,231.35,56Z"/><path class="cls-1" d="M495.35,268h-88c0-97.05-79-176-176-176V4C376.92,4,495.35,122.43,495.35,268Z"/></svg>