<svg id="Calque_4" data-name="Calque 4" xmlns="http://www.w3.org/2000/svg" viewBox="0 0 2267.72 1417.32"><defs><style>.cls-1{fill:#93caeb;}.cls-2{fill:#fff;}</style></defs><title>icon-economie-sol</title><path class="cls-1" d="M1098.38,1228.47c-276.8,0-502-225.19-502-502s225.2-502,502-502,502,225.19,502,502S1375.18,1228.47,1098.38,1228.47Zm0-968.77C841,259.7,631.61,469.09,631.61,726.47S841,1193.25,1098.38,1193.25s466.77-209.39,466.77-466.78S1355.76,259.7,1098.38,259.7Z"/><g id="Calque_3" data-name="Calque 3"><path class="cls-2" d="M934.6,845.85c5.86,0,10.11,4.15,10.11,9.84v13.48c0,5.69-4.25,9.84-10.11,9.84H824.81c-5.88,0-9.61-4.15-9.61-9.33V857.25c0-4.66.53-10.88,3.2-16.59,34.64-81.35,91.67-140.94,91.67-213,0-38.35-10.13-51.3-30.38-51.3-25.05,0-28.78,21.76-27.18,47.15.53,10.89-2.67,17.11-10.66,17.11H829.06c-6.93,0-13.33-3.63-13.33-14,0-63.23,22.92-82.92,65.56-82.92,43.17,0,67.15,25.92,67.15,89.14,0,73.58-65,139.91-94.32,213Z"/><path class="cls-2" d="M1121.74,623c0-53.89,17.59-81.36,52.78-81.36,36.23,0,52.75,27.47,52.75,81.36,0,53.37-16.52,81.36-52.75,81.36C1139.33,704.38,1121.74,676.39,1121.74,623Zm22.39,246.15,149.76-312.48c2.68-5.7,7.46-9.85,13.34-9.85h10.66c5.86,0,9.59,4.15,6.93,9.85L1175,869.17c-2.65,5.69-7.46,9.84-13.31,9.84h-10.66C1145.21,879,1141.46,874.86,1144.13,869.17ZM1195.84,623c0-35.24-3.73-53.37-21.32-53.37-17.07,0-21.33,18.13-21.33,53.37,0,34.71,4.26,53.37,21.33,53.37C1192.11,676.39,1195.84,657.73,1195.84,623Zm45.82,179.82c0-53.9,17.6-81.37,52.78-81.37,36.24,0,52.76,27.47,52.76,81.37,0,53.37-16.52,81.35-52.76,81.35C1259.26,884.19,1241.66,856.21,1241.66,802.84Zm74.1,0c0-35.25-3.75-53.38-21.32-53.38-17.07,0-21.32,18.13-21.32,53.38,0,34.72,4.25,53.37,21.32,53.37C1312,856.21,1315.76,837.56,1315.76,802.84Z"/><path class="cls-2" d="M967.49,710.46c0-134,25.28-161.77,71.85-161.77s71.84,27.79,71.84,161.77-25.24,162.28-71.84,162.28S967.49,844.45,967.49,710.46Zm107,1.25c0-119.5-11.09-130.51-31.06-130.51s-31,11-31,130.51,11.09,131,31,131S1074.45,831.22,1074.45,711.71Z"/><path class="cls-2" d="M1455.53,604C1404,444,1257.12,336.47,1090.09,336.47V142.79c250.5,0,470.76,161.3,548.11,401.37Z"/></g></svg>