<svg id="Vrstva_1" data-name="Vrstva 1" xmlns="http://www.w3.org/2000/svg" viewBox="0 0 841.89 595.28"><defs><style>.cls-1{fill:#0863b5;}.cls-2{fill:#ee7626;}.cls-3{fill:#fff;}.cls-4{fill:#8ab326;}.cls-5{fill:none;}</style></defs><title>icon-iso-placher-garage</title><polygon class="cls-1" points="612.79 166.67 432.49 95.08 254.84 166.67 254.84 199.46 612.79 198.51 612.79 166.67"/><rect class="cls-1" x="254.84" y="166.91" width="357.96" height="229.13"/><rect class="cls-2" x="255.2" y="394.88" width="357.96" height="193.56"/><rect class="cls-3" x="292.51" y="237.94" width="50.96" height="77.58"/><rect class="cls-3" x="349.55" y="237.94" width="50.96" height="77.58"/><rect class="cls-3" x="467.12" y="237.94" width="50.96" height="77.58"/><rect class="cls-3" x="524.16" y="237.94" width="50.96" height="77.58"/><rect class="cls-3" x="285.29" y="406.03" width="303.36" height="182.4"/><path class="cls-1" d="M442.42,49.68c-2.17-5.29-8.54-7.67-14.23-5.34L210.28,133.91c0,.22,0,22.22,0,22.22L436.06,63.47C441.74,61.14,444.59,55,442.42,49.68Z"/><path class="cls-1" d="M666,142.34,436.89,44.15a10.53,10.53,0,0,0-13.73,5.73h0a10.52,10.52,0,0,0,5.73,13.72l237.74,99.52"/><polygon class="cls-1" points="560.32 107.37 497.2 79.01 497.16 29.35 560.32 29.35 560.32 107.37"/><rect class="cls-1" x="488.3" y="5.93" width="80.87" height="15.74"/><path d="M226.13,167.17a15.24,15.24,0,0,1-30.48,0Z"/><path class="cls-1" d="M231.42,212.66l-22.71-9.85a6,6,0,0,1-3.59-5.31h0l-.49-18.36-.16-6,11.92-.32.56,20.52,22.81,9.89a6,6,0,0,1,3.59,5.47h0L243.52,397H231.58l-.16-184.33Z"/><path class="cls-1" d="M226.13,167.17a15.24,15.24,0,0,1-30.48,0Z"/><path class="cls-1" d="M239.76,393.1a6,6,0,0,1,3.59,5.47h0l.17,188.23H231.58V380.65"/><rect class="cls-4" x="255.2" y="387.32" width="357.96" height="18.71"/><path class="cls-5" d="M375.55,474.13c8.1-.64,26.41-1.63,61.72-1.64h.59c34.94,0,53.1,1,61.15,1.6l-13.92-24.24c-5.81-.58-24.8-2.28-47.78-2.28s-42,1.72-47.83,2.31Z"/><path class="cls-2" d="M500.26,553v20.59a3.62,3.62,0,0,0,3.62,3.62h32.66a3.62,3.62,0,0,0,3.61-3.62V553H500.26Z"/><path class="cls-2" d="M335.71,553.05h0v20.52h0v0a2.41,2.41,0,0,0,.19.93,3.59,3.59,0,0,0,.87,1.57,3.55,3.55,0,0,0,2.55,1.06H372a3.61,3.61,0,0,0,3.61-3.62V553H335.71Z"/><path class="cls-2" d="M335.7,517.69v31.63H538.89V517.63a36.42,36.42,0,0,0,.77-7.5c0-13.14-7-21.29-17.55-27.56h4.69a7.89,7.89,0,0,0,0-15.78h-9.43a7.85,7.85,0,0,0-5.66,2.42l-17.6-25a4.69,4.69,0,0,0-4.08-2.36h0s-18.67-2.49-52.72-2.49-52.79,2.52-52.79,2.52a4.73,4.73,0,0,0-4.09,2.37l-17.59,25a7.77,7.77,0,0,0-5.64-2.42h-9.42a7.89,7.89,0,0,0,0,15.77h4.67c-10.49,6.28-17.53,14.43-17.53,27.58A35.58,35.58,0,0,0,335.7,517.69ZM527,509.64c0,5.36-9.33,9.71-20.83,9.71s-20.84-4.35-20.84-9.71,9.33-9.71,20.84-9.71S527,504.27,527,509.64ZM387.24,446.43a501.15,501.15,0,0,1,100.09,0l18.3,31.87c-.57,0-1.18,0-1.77,0h0s-15.31-2.07-66-2.07h-.59c-51.15,0-66.57,2.12-66.57,2.12-.6,0-1.19,0-1.77.05Zm-18.33,53.5c11.5,0,20.83,4.34,20.83,9.71s-9.33,9.71-20.83,9.71-20.84-4.35-20.84-9.71S357.4,499.93,368.91,499.93Z"/></svg>