<svg id="Vrstva_1" data-name="Vrstva 1" xmlns="http://www.w3.org/2000/svg" xmlns:xlink="http://www.w3.org/1999/xlink" viewBox="0 0 841.89 595.28"><defs><clipPath id="clip-path"><rect width="841.89" height="595.28" fill="none"/></clipPath></defs><title>Plan de travail 2</title><g clip-path="url(#clip-path)"><polygon points="584.77 333.12 421.4 268.25 260.43 333.12 260.43 333.36 584.77 333.36 584.77 333.12" fill="#0863b5"/><rect x="260.43" y="333.34" width="324.34" height="207.61" fill="#0863b5"/><rect x="294.56" y="397.69" width="46.17" height="70.29" fill="#fff"/><rect x="346.25" y="397.69" width="46.17" height="70.29" fill="#fff"/><rect x="452.78" y="397.69" width="46.17" height="70.29" fill="#fff"/><rect x="504.46" y="397.69" width="46.17" height="70.29" fill="#fff"/><path d="M430.4,227.11c-2-4.79-7.74-7-12.89-4.83L220.05,303.43c0,.2,0,20.13,0,20.13l204.58-84C429.78,237.49,432.36,231.9,430.4,227.11Z" fill="#0863b5"/><path d="M621.93,303.67,425.38,222.11a9.53,9.53,0,0,0-12.43,5.19h0c-2,4.87.32,10.43,6.53,13L621.8,322.59" fill="#0863b5"/><polygon points="537.22 279.38 480.03 253.69 480 208.69 537.22 208.69 537.22 279.38" fill="#0863b5"/><rect x="471.97" y="187.47" width="73.28" height="14.26" fill="#0863b5"/><path d="M234.42,333.57a13.81,13.81,0,0,1-27.62,0Z"/><path d="M239.21,374.79l-20.57-8.93a5.4,5.4,0,0,1-3.25-4.81h0l-.45-16.63-.14-5.4,10.81-.29.5,18.59,20.67,9a5.41,5.41,0,0,1,3.25,5h0l.15,170.56H239.36l-.15-167Z" fill="#0863b5"/><path d="M234.42,333.57a13.81,13.81,0,0,1-27.62,0Z" fill="#0863b5"/><polygon points="585.62 333.14 259.27 334.14 303.59 315.36 541.36 316.23 585.62 333.14" fill="#8ab326"/></g></svg>