<svg id="Calque_3" data-name="Calque 3" xmlns="http://www.w3.org/2000/svg" viewBox="0 0 560.74 560.93"><defs><style>.cls-1{fill:#496174;}.cls-2{fill:#fff;}.cls-3{fill:#ee7626;}</style></defs><title>icon-porcentage-precarite2</title><path class="cls-1" d="M233.15,249.48c0,3.78-2.27,5.1-4.73,5.1h-4.34c-2.84,0-4-2.26-3.79-6.23.57-9.26-1.13-17.2-9.07-17.2-10.77,0-12.09,13.23-12.09,45.93,2.64-5.1,8.69-7.37,13.42-7.37,13.6,0,21.92,9.26,21.92,36.47s-9.07,36.49-23.81,36.49c-19.09,0-24.58-14.94-24.58-53.12,0-45.36.76-70.31,25.14-70.31C225,219.24,233.15,226.42,233.15,249.48Zm-12.29,56.7c0-21.92-4.35-25.13-10.2-25.13s-11.35,3.21-11.35,25.13,5.49,25.15,11.35,25.15S220.86,328.11,220.86,306.18Z"/><path class="cls-1" d="M282.68,329.44a3.47,3.47,0,0,1,3.59,3.59v4.91a3.47,3.47,0,0,1-3.59,3.59H243.74a3.27,3.27,0,0,1-3.4-3.4V333.6a14.71,14.71,0,0,1,1.14-6.05C253.76,297.87,274,276.13,274,249.86c0-14-3.6-18.71-10.78-18.71-8.88,0-10.2,7.94-9.64,17.2.19,4-.94,6.23-3.78,6.23h-4.53c-2.46,0-4.73-1.32-4.73-5.1,0-23.06,8.13-30.24,23.25-30.24,15.31,0,23.81,9.45,23.81,32.51,0,26.84-23,51-33.45,77.69Z"/><path class="cls-1" d="M293.65,248.16c0-19.66,6.24-29.67,18.72-29.67,12.85,0,18.71,10,18.71,29.67,0,19.47-5.86,29.68-18.71,29.68C299.89,277.84,293.65,267.63,293.65,248.16Zm8,89.78,53.11-114c.94-2.08,2.64-3.59,4.72-3.59h3.79c2.07,0,3.4,1.51,2.45,3.59l-53.11,114c-.94,2.08-2.65,3.59-4.73,3.59h-3.78C302,341.53,300.65,340,301.6,337.94Zm18.33-89.78c0-12.85-1.32-19.47-7.56-19.47-6.05,0-7.56,6.62-7.56,19.47,0,12.66,1.51,19.47,7.56,19.47C318.61,267.63,319.93,260.82,319.93,248.16Zm16.25,65.59c0-19.66,6.24-29.67,18.72-29.67,12.85,0,18.71,10,18.71,29.67,0,19.47-5.86,29.67-18.71,29.67C342.42,343.42,336.18,333.22,336.18,313.75Zm26.28,0c0-12.86-1.33-19.47-7.56-19.47-6,0-7.56,6.61-7.56,19.47,0,12.66,1.51,19.47,7.56,19.47C361.13,333.22,362.46,326.41,362.46,313.75Z"/><path class="cls-2" d="M278.34,510.08c-125.18,0-227-101.85-227-227s101.85-227,227-227,227,101.84,227,227S403.53,510.08,278.34,510.08Zm0-438.13c-116.4,0-211.09,94.7-211.09,211.1s94.69,211.1,211.09,211.1,211.1-94.7,211.1-211.1S394.75,72,278.34,72Z"/><path class="cls-1" d="M278.57,514.93c-125.72,0-228-102.29-228-228s102.28-228,228-228,228,102.28,228,228S404.29,514.93,278.57,514.93Zm0-440c-116.9,0-212,95.1-212,212s95.1,212,212,212,212-95.11,212-212S395.47,74.93,278.57,74.93Z"/><path class="cls-3" d="M278.34,545.93A261.84,261.84,0,0,1,98.4,474.69l60-63.87a174.54,174.54,0,0,0,120,47.48c96.64,0,175.26-78.62,175.26-175.25S375,107.8,278.34,107.8V20.17c145,0,262.88,117.93,262.88,262.88S423.3,545.93,278.34,545.93Z"/></svg>