<svg id="Vrstva_1" data-name="Vrstva 1" xmlns="http://www.w3.org/2000/svg" viewBox="0 0 841.89 595.28"><defs><style>.cls-1{fill:#0863b5;}.cls-2{fill:#ee7626;}.cls-3{fill:#fff;}.cls-4{fill:#8ab326;}</style></defs><title>icon-iso-plancher-caves</title><polygon class="cls-1" points="612.79 166.67 432.49 95.08 254.84 166.67 254.84 199.46 612.79 198.51 612.79 166.67"/><rect class="cls-1" x="254.84" y="166.91" width="357.96" height="229.13"/><rect class="cls-2" x="255.2" y="394.88" width="357.96" height="193.56"/><rect class="cls-3" x="292.51" y="237.94" width="50.96" height="77.58"/><rect class="cls-3" x="349.55" y="237.94" width="50.96" height="77.58"/><rect class="cls-3" x="467.12" y="237.94" width="50.96" height="77.58"/><rect class="cls-3" x="524.16" y="237.94" width="50.96" height="77.58"/><rect class="cls-3" x="332.11" y="430.92" width="210.92" height="19.89"/><rect class="cls-3" x="332.11" y="456.12" width="210.92" height="19.88"/><rect class="cls-3" x="332.11" y="481.3" width="210.92" height="19.89"/><rect class="cls-3" x="332.11" y="506.5" width="210.92" height="19.88"/><rect class="cls-3" x="332.11" y="531.68" width="210.92" height="19.89"/><rect class="cls-3" x="332.11" y="556.87" width="210.92" height="19.89"/><path class="cls-1" d="M442.42,49.68c-2.17-5.29-8.54-7.67-14.23-5.34L210.28,133.91c0,.22,0,22.22,0,22.22L436.06,63.47C441.74,61.14,444.59,55,442.42,49.68Z"/><path class="cls-1" d="M666,142.34,436.89,44.15a10.53,10.53,0,0,0-13.73,5.73h0a10.52,10.52,0,0,0,5.73,13.72l237.74,99.52"/><polygon class="cls-1" points="560.32 107.37 497.2 79.01 497.16 29.35 560.32 29.35 560.32 107.37"/><rect class="cls-1" x="488.3" y="5.93" width="80.87" height="15.74"/><path d="M226.13,167.17a15.24,15.24,0,0,1-30.48,0Z"/><path class="cls-1" d="M231.42,212.66l-22.71-9.85a6,6,0,0,1-3.59-5.31h0l-.49-18.36-.16-6,11.92-.32.56,20.52,22.81,9.89a6,6,0,0,1,3.59,5.47h0L243.52,397H231.58l-.16-184.33Z"/><path class="cls-1" d="M226.13,167.17a15.24,15.24,0,0,1-30.48,0Z"/><path class="cls-1" d="M239.76,393.1a6,6,0,0,1,3.59,5.47h0l.17,188.23H231.58V380.65"/><rect class="cls-4" x="255.2" y="394.88" width="357.96" height="11.16"/></svg>