<svg id="Calque_4" data-name="Calque 4" xmlns="http://www.w3.org/2000/svg" viewBox="0 0 2267.72 1417.32"><title>Plan de travail 1</title><path d="M2107.73,699.8l-61.88,16.59,48,27.74-21.53,37.29-48.06-27.76,16.59,61.92L2013.15,823l-24-89.66-38.59-22.3,24,89.67-27.72,7.42-31.47-117.38-121.51-70.15V761l85.92,85.89-20.32,20.3-65.6-65.61v44.56l65.62,65.62L1839.17,932l-45.31-45.31V942.2h-43V886.7L1705.48,932l-20.3-20.3,65.64-65.64V801.56l-65.64,65.61-20.3-20.3,85.95-85.93V620.63l-121.56,70.16-31.44,117.35-27.73-7.4,24-89.64-38.59,22.3-24,89.61-27.74-7.42,16.59-61.9-48,27.74-21.52-37.29,48-27.74-61.91-16.59,7.42-27.74,89.65,24,38.59-22.28-89.63-24,7.42-27.73,117.37,31.45,121.52-70.16-121.54-70.17-117.35,31.45L1483,516.89l89.62-24-38.6-22.3-89.63,24-7.42-27.72,61.88-16.59-48-27.74,21.53-37.29,48,27.76-16.62-61.92,27.74-7.45,24,89.67,38.57,22.28-24-89.66,27.72-7.42,31.47,117.38L1750.82,546V405.7l-85.92-85.91,20.3-20.3,65.62,65.64V320.55l-65.62-65.63,20.3-20.3,45.32,45.32V224.46h43v55.48l45.31-45.32,20.31,20.3-65.62,65.63v44.59l65.62-65.64,20.3,20.3-85.93,85.91V546l121.54-70.17,31.44-117.37,27.73,7.43-24,89.64,38.58-22.3,24-89.63,27.74,7.44L2024.32,413l48-27.74,21.53,37.29-48,27.74,61.89,16.59-7.42,27.74-89.66-24-38.59,22.28,89.64,24-7.42,27.72-117.37-31.45L1815.4,583.33l121.54,70.16,117.34-31.44,7.43,27.74-89.62,24,38.59,22.28,89.63-24Z" fill="#fff"/><path d="M105,1163a23.1,23.1,0,0,1-7,4.42,48.89,48.89,0,0,1-10.27,3.16,62.65,62.65,0,0,1-12.09,1.11q-23.7,0-36.5-14.38t-12.8-40.61q0-17.22,6-29.86a43.14,43.14,0,0,1,17.06-19.2q11.06-6.55,26.39-6.56a52.71,52.71,0,0,1,17.06,2.69,36,36,0,0,1,12.64,7q3.47,3.16,3.48,6.79,0,4.9-7.58,12.17a38.59,38.59,0,0,0-11.69-8.37,31.94,31.94,0,0,0-12.8-2.53q-13.75,0-21.09,10t-7.35,27.33q0,18.17,7.58,28t21.8,9.8a31.32,31.32,0,0,0,10.51-1.9,31.77,31.77,0,0,0,7.66-4.11q3.16-2.37,5.06-4.11,7.27,8.69,7.27,12.64a7.33,7.33,0,0,1-.71,3.32A13.77,13.77,0,0,1,105,1163Z" fill="#fff"/><path d="M171.54,1125.41q0-7.42-1-10.43a7.49,7.49,0,0,0-3.48-4.34,14.08,14.08,0,0,0-6.72-1.34,19.44,19.44,0,0,0-10.11,2.45q-4.11,2.45-4.11,6.08V1169H124.62V1057.63a20.31,20.31,0,0,1,2.84-.4q2.37-.24,4.42-.24,14.22,0,14.22,12.48v31.44q7.74-8.85,22.12-8.85,10.11,0,16,4t7.58,12.17q1.26,5.53,1.26,16.27V1169H171.54Z" fill="#fff"/><path d="M274.71,1150.69q0,12.32,3.63,18.17a30,30,0,0,1-10.43,2.05q-5.37,0-8.37-2.05a10,10,0,0,1-3.95-6.48,25.24,25.24,0,0,1-9.87,6.48,37.51,37.51,0,0,1-13.19,2.21q-10.75,0-17.46-6.08t-6.72-17.14q0-24.49,38.71-26.54,2.53-.16,7.11-.16v-2.84q0-5.84-3.16-8.45t-10.59-2.61a35,35,0,0,0-9.8,1.42,62.36,62.36,0,0,0-12.64,5.85,21.59,21.59,0,0,1-3.48-5.69,14.29,14.29,0,0,1-1.42-5.06q0-3,4.66-5.77a40.31,40.31,0,0,1,11.61-4.34,64.76,64.76,0,0,1,14.38-1.58q16.43,0,23.7,6.79t7.27,22.12Zm-20.22-18.33h-2.21a15.88,15.88,0,0,0-2.21.16q-11.38.79-16.43,4.19a10.86,10.86,0,0,0-5.06,9.56q0,5.06,2.84,7.82t8.22,2.76a19.61,19.61,0,0,0,10.19-2.76q4.66-2.76,4.66-5.61Z" fill="#fff"/><path d="M361.77,1169H347.4q-3.32,0-4.66-1.66t-1.34-6.71q-7.27,9.8-23.23,9.8-10.11,0-16-4t-7.58-12.17q-1.27-5.53-1.26-16.27v-43.77a20.55,20.55,0,0,1,2.84-.39q2.37-.24,4.42-.24,14.22,0,14.22,12.48v31q0,7.43,1,10.43a7.46,7.46,0,0,0,3.48,4.35,14.05,14.05,0,0,0,6.71,1.34,19.42,19.42,0,0,0,10.11-2.45q4.11-2.45,4.11-6.08v-50.4a20.52,20.52,0,0,1,2.84-.39q2.37-.24,4.42-.24,7,0,10.59,3.4t3.63,9.88Z" fill="#fff"/><path d="M436,1169a5.47,5.47,0,0,1-4.27-1.74,6.77,6.77,0,0,1-1.58-4.74,22,22,0,0,1-8.77,6.08,32.12,32.12,0,0,1-12.25,2.29q-14.54,0-22.44-9.8t-7.9-28.44q0-13,3.87-22a30.36,30.36,0,0,1,11-13.83,28.92,28.92,0,0,1,16.43-4.74,27.82,27.82,0,0,1,10.43,1.9,22.56,22.56,0,0,1,8.06,5.37v-41.71a15,15,0,0,1,2.76-.4q2.45-.24,4.5-.24,14.22,0,14.22,12.64V1169ZM401,1131.58q0,12.8,4,18.57t12.56,5.77a14.55,14.55,0,0,0,8-2,6,6,0,0,0,3.08-5.29v-35.55a16.32,16.32,0,0,0-5.21-3.4,16.08,16.08,0,0,0-6.32-1.34Q401,1108.35,401,1131.58Z" fill="#fff"/><path d="M540.78,1155.59a25,25,0,0,0,8.93-1.42,24,24,0,0,0,6.24-3.4q2.53-2,4.42-3.71a39.77,39.77,0,0,1,4.19,6.56,13.54,13.54,0,0,1,1.82,5.61q0,3.48-4,6.32a29.12,29.12,0,0,1-10.11,4.5,53.41,53.41,0,0,1-13.59,1.66q-19.28,0-29.62-10.59t-10.35-30.81q0-12,4.66-20.54a32.37,32.37,0,0,1,13-13.11,37.75,37.75,0,0,1,18.56-4.58q15.48,0,23.94,8.93t8.45,24.57a60.77,60.77,0,0,1-.47,9.8H520.4q.63,9.8,5.85,15T540.78,1155.59Zm7.11-32.07q0-17.06-13.43-17.06A12.81,12.81,0,0,0,524,1111q-3.79,4.58-3.79,12.48Z" fill="#fff"/><path d="M604.77,1169H583.13v-74.73l1.9-.32a42.12,42.12,0,0,1,5.21-.32q11.69,0,13.43,8.22,7.27-9.79,23.23-9.8,10.11,0,16,4t7.58,12.17q1.26,5.53,1.26,16.27V1169H630.21v-43.61q0-7.42-1-10.43a7.49,7.49,0,0,0-3.48-4.34,14.08,14.08,0,0,0-6.71-1.34,19.44,19.44,0,0,0-10.11,2.45q-4.11,2.45-4.11,6.08Z" fill="#fff"/><path d="M725.17,1106.14H765v-42.82a49.78,49.78,0,0,1,7.9-.79q6.48,0,10.11,3.08t3.63,9.24V1169H765V1123.2H725.17V1169H703.52v-105.7a54.14,54.14,0,0,1,7.58-.79q14.06,0,14.06,12.32Z" fill="#fff"/><path d="M836.4,1069a10.9,10.9,0,0,1-3.32,8.14,12.14,12.14,0,0,1-16.51,0,11,11,0,0,1-3.24-8.14,11.3,11.3,0,0,1,3.24-8.22A11.57,11.57,0,0,1,836.4,1069Zm-.16,101q-1.11.63-7.58.63-7.43,0-10.67-3.16t-3.24-10v-63.2a20.51,20.51,0,0,1,2.84-.39q2.37-.24,4.42-.24,14.22,0,14.22,12.48Z" fill="#fff"/><path d="M904.18,1169.81H881.27l-26.07-74.1a30,30,0,0,1,11.38-2.05,16.1,16.1,0,0,1,6.71,1.26,10.7,10.7,0,0,1,4.58,4.11,38.59,38.59,0,0,1,3.71,9.48L893,1149.27,905,1108a36.63,36.63,0,0,1,3.32-8.61,11.45,11.45,0,0,1,4.34-4.35,13.59,13.59,0,0,1,6.56-1.42,26.79,26.79,0,0,1,10.74,2.05Z" fill="#fff"/><path d="M985.39,1155.59a25,25,0,0,0,8.93-1.42,24.06,24.06,0,0,0,6.24-3.4q2.53-2,4.42-3.71a39.77,39.77,0,0,1,4.19,6.56,13.54,13.54,0,0,1,1.82,5.61q0,3.48-4,6.32a29.13,29.13,0,0,1-10.11,4.5,53.4,53.4,0,0,1-13.59,1.66q-19.28,0-29.62-10.59t-10.35-30.81q0-12,4.66-20.54a32.36,32.36,0,0,1,13-13.11,37.75,37.75,0,0,1,18.56-4.58q15.48,0,23.94,8.93t8.45,24.57a60.75,60.75,0,0,1-.47,9.8H965q.63,9.8,5.85,15T985.39,1155.59Zm7.11-32.07q0-17.06-13.43-17.06a12.81,12.81,0,0,0-10.43,4.58q-3.79,4.58-3.79,12.48Z" fill="#fff"/><path d="M1056.17,1101.71a23.68,23.68,0,0,1,7.66-7,19.19,19.19,0,0,1,9.72-2.69q5.53,0,8.77,2a6.23,6.23,0,0,1,3.24,5.61,19.31,19.31,0,0,1-.71,4.66,44.84,44.84,0,0,1-1.9,5.69,38,38,0,0,1-2.61,5.29,20.47,20.47,0,0,0-5.69-3.56,16.73,16.73,0,0,0-6-1,12.26,12.26,0,0,0-8.14,2.84,8.6,8.6,0,0,0-3.4,6.79V1169h-21.49v-74.73l1.9-.32a42.11,42.11,0,0,1,5.21-.32,17.65,17.65,0,0,1,8.93,2.05A9.15,9.15,0,0,1,1056.17,1101.71Z" fill="#fff"/><path d="M1412.25,1104.72h34v16.91h-34V1169H1390.6V1063.16H1457a30.5,30.5,0,0,1,.47,5.85q0,11.06-12.8,11.06h-32.39Z" fill="#fff"/><path d="M1490.62,1101.71a23.7,23.7,0,0,1,7.66-7,19.19,19.19,0,0,1,9.72-2.69q5.53,0,8.77,2a6.23,6.23,0,0,1,3.24,5.61,19.31,19.31,0,0,1-.71,4.66,45,45,0,0,1-1.9,5.69,38.11,38.11,0,0,1-2.61,5.29,20.48,20.48,0,0,0-5.69-3.56,16.73,16.73,0,0,0-6-1,12.26,12.26,0,0,0-8.14,2.84,8.6,8.6,0,0,0-3.4,6.79V1169h-21.49v-74.73l1.9-.32a42.11,42.11,0,0,1,5.21-.32,17.64,17.64,0,0,1,8.93,2.05A9.14,9.14,0,0,1,1490.62,1101.71Z" fill="#fff"/><path d="M1591.58,1150.69q0,12.32,3.63,18.17a30,30,0,0,1-10.43,2.05q-5.37,0-8.37-2.05a10,10,0,0,1-4-6.48,25.23,25.23,0,0,1-9.87,6.48,37.51,37.51,0,0,1-13.19,2.21q-10.75,0-17.46-6.08t-6.72-17.14q0-24.49,38.71-26.54,2.53-.16,7.11-.16v-2.84q0-5.84-3.16-8.45t-10.59-2.61a35,35,0,0,0-9.8,1.42,62.36,62.36,0,0,0-12.64,5.85,21.59,21.59,0,0,1-3.48-5.69,14.3,14.3,0,0,1-1.42-5.06q0-3,4.66-5.77a40.31,40.31,0,0,1,11.61-4.34,64.76,64.76,0,0,1,14.38-1.58q16.43,0,23.7,6.79t7.27,22.12Zm-20.22-18.33h-2.21a15.89,15.89,0,0,0-2.21.16q-11.38.79-16.43,4.19a10.86,10.86,0,0,0-5.06,9.56q0,5.06,2.84,7.82t8.22,2.76a19.61,19.61,0,0,0,10.19-2.76q4.66-2.76,4.66-5.61Z" fill="#fff"/><path d="M1633.45,1069a10.9,10.9,0,0,1-3.32,8.14,12.14,12.14,0,0,1-16.51,0,11,11,0,0,1-3.24-8.14,11.3,11.3,0,0,1,3.24-8.22,11.57,11.57,0,0,1,19.83,8.22Zm-.16,101q-1.11.63-7.58.63-7.43,0-10.67-3.16t-3.24-10v-63.2a20.53,20.53,0,0,1,2.84-.39q2.37-.24,4.42-.24,14.22,0,14.22,12.48Z" fill="#fff"/><path d="M1705.49,1103q0,4.11-4.74,11.69a37,37,0,0,0-10.11-5.61,31.29,31.29,0,0,0-11.06-2.29q-10.59,0-10.59,6.79,0,5.37,11.53,7.9,9.64,1.9,15.09,5a21.89,21.89,0,0,1,8.22,7.66,21,21,0,0,1,2.76,11.06q0,12-8.69,19.12t-23.07,7.11q-11.85,0-19.75-3.48-7.43-3.16-7.43-7.74a11.8,11.8,0,0,1,1.58-5.61q1.58-2.92,3.63-6.08a32.47,32.47,0,0,0,9.64,5.61,30.7,30.7,0,0,0,11.22,2.29q12,0,12-8.22a7.15,7.15,0,0,0-2.84-6.08q-2.84-2.13-11.38-3.87-12.32-2.53-18-8.14t-5.69-14.77q0-10.43,8.69-16.83t21.8-6.4q11.69,0,19.91,3.48Q1705.18,1098.4,1705.49,1103Z" fill="#fff"/><path d="M1791.92,1155.59a25,25,0,0,0,8.93-1.42,24,24,0,0,0,6.24-3.4q2.53-2,4.42-3.71a39.77,39.77,0,0,1,4.19,6.56,13.54,13.54,0,0,1,1.82,5.61q0,3.48-4,6.32a29.13,29.13,0,0,1-10.11,4.5,53.4,53.4,0,0,1-13.59,1.66q-19.28,0-29.62-10.59t-10.35-30.81q0-12,4.66-20.54a32.37,32.37,0,0,1,13-13.11,37.75,37.75,0,0,1,18.57-4.58q15.48,0,23.94,8.93t8.45,24.57a60.79,60.79,0,0,1-.47,9.8h-46.45q.63,9.8,5.85,15T1791.92,1155.59Zm7.11-32.07q0-17.06-13.43-17.06a12.81,12.81,0,0,0-10.43,4.58q-3.79,4.58-3.79,12.48Z" fill="#fff"/><path d="M1855.91,1169h-21.65v-74.73l1.9-.32a42.11,42.11,0,0,1,5.21-.32q11.69,0,13.43,8.22,7.27-9.79,23.23-9.8,10.11,0,16,4t7.58,12.17q1.26,5.53,1.26,16.27V1169h-21.49v-43.61q0-7.42-1-10.43a7.49,7.49,0,0,0-3.48-4.34,14.08,14.08,0,0,0-6.71-1.34,19.43,19.43,0,0,0-10.11,2.45q-4.11,2.45-4.11,6.08Z" fill="#fff"/><path d="M2010.43,1152.27q6.32,0,9.72,2.92t3.4,8.29q0,1.74-.08,2.92t-.24,2.61h-68.41V1063.16h65.89a30.42,30.42,0,0,1,.47,5.85q0,6-3.08,8.53t-10.35,2.53h-31.13v26.07h33.5V1123h-33.5v29.23Zm-14.69-100.49a15.15,15.15,0,0,1-7.43,2.53q-4.74,0-9.8-5.69l17.54-14.22q4.58-3.63,8.06-3.63,6.16,0,11.53,8.53Z" fill="#fff"/><path d="M2037.92,1157.65a43.88,43.88,0,0,1-1.74-13.59v-73.31l2.37-.32a45.43,45.43,0,0,1,4.9-.32q14.22,0,14.22,12.64v11.06h22.12v16.12h-22.12v33.81q0,11.06,9,11.06a15,15,0,0,0,6.48-1.58,20.25,20.25,0,0,0,5.69-4,41.75,41.75,0,0,1,3.87,6.48,10.88,10.88,0,0,1,1,4.27q0,3-3.32,5.69a23.92,23.92,0,0,1-8.45,4.19,39.58,39.58,0,0,1-11.14,1.5Q2043,1171.39,2037.92,1157.65Z" fill="#fff"/><path d="M2132.72,1155.59a25,25,0,0,0,8.93-1.42,24.06,24.06,0,0,0,6.24-3.4q2.53-2,4.42-3.71a39.77,39.77,0,0,1,4.19,6.56,13.54,13.54,0,0,1,1.82,5.61q0,3.48-4,6.32a29.13,29.13,0,0,1-10.11,4.5,53.4,53.4,0,0,1-13.59,1.66q-19.28,0-29.62-10.59t-10.35-30.81q0-12,4.66-20.54a32.36,32.36,0,0,1,13-13.11,37.75,37.75,0,0,1,18.56-4.58q15.48,0,23.94,8.93t8.45,24.57a60.75,60.75,0,0,1-.47,9.8h-46.45q.63,9.8,5.85,15T2132.72,1155.59Zm7.11-32.07q0-17.06-13.43-17.06A12.81,12.81,0,0,0,2116,1111q-3.79,4.58-3.79,12.48Zm-3.79-43.61a11.38,11.38,0,0,1-8.85,4.11,17.33,17.33,0,0,1-5.29-.95,12.24,12.24,0,0,1-4.35-2.21l13-18.33a15.72,15.72,0,0,1,4.74-4.66,10.72,10.72,0,0,1,5.37-1.34,15.55,15.55,0,0,1,6.08,1.58,23.73,23.73,0,0,1,5.92,3.63Z" fill="#fff"/><path d="M554.35,823.93c13.14,22,22.45,39.49,22.45,63.42,0,34.5-10.17,69.3-32.85,69.31s-32.86-34.83-32.86-69.31c0-23.94,9.32-41.39,22.46-63.42l10.4-17.43Z" fill="#fff"/><path d="M533.55,342.71c-13.14-22-22.46-39.48-22.46-63.42,0-34.49,10.15-69.31,32.85-69.31s32.86,34.82,32.86,69.31c0,23.94-9.31,41.39-22.45,63.42l-10.41,17.43Z" fill="#fff"/><path d="M636,805.86c19.87,16.2,34.61,29.42,42.78,51.91,11.8,32.41,14.15,68.59-7.15,76.37s-42.79-21.47-54.59-53.89c-8.21-22.5-5.41-42.1-.58-67.28l3.8-19.93Z" fill="#fff"/><path d="M451.89,360.8c-19.9-16.21-34.59-29.43-42.79-51.93-11.78-32.42-14.16-68.59,7.17-76.36S459,254,470.86,286.39c8.17,22.5,5.4,42.09.57,67.28L467.6,373.6Z" fill="#fff"/><path d="M706.56,761c24.25,8.42,42.59,15.8,58,34.16,22.16,26.41,36.76,59.6,19.39,74.21s-47.57-5.58-69.73-32c-15.4-18.34-19.48-37.68-23.58-63l-3.22-20Z" fill="#fff"/><path d="M381.34,405.7c-24.25-8.44-42.57-15.81-58-34.16-22.2-26.42-36.77-59.61-19.4-74.21s47.55,5.56,69.72,32c15.4,18.35,19.48,37.69,23.56,63l3.22,20Z" fill="#fff"/><path d="M757.51,694.62c25.65-.35,45.44.3,66.15,12.28,29.88,17.25,54.95,43.46,43.62,63.09S820.7,781,790.8,763.8c-20.74-12-31.17-28.75-43.68-51.17l-9.89-17.7Z" fill="#fff"/><path d="M330.37,472c-25.64.37-45.41-.31-66.14-12.28-29.86-17.25-54.93-43.45-43.58-63.09s46.57-11.06,76.47,6.19c20.72,12,31.15,28.77,43.67,51.16l9.88,17.7Z" fill="#fff"/><path d="M782.69,614.87c24-9.12,42.79-15.24,66.37-11.09,34,6,66.48,22,62.57,44.38s-40,26.34-74,20.34c-23.58-4.15-39.14-16.36-58.55-33.12l-15.34-13.29Z" fill="#fff"/><path d="M305.21,551.79c-24,9.13-42.79,15.23-66.36,11.09-34-6-66.49-22-62.56-44.39s40-26.32,74-20.33c23.59,4.16,39.16,16.37,58.57,33.15l15.33,13.26Z" fill="#fff"/><path d="M779.09,531.32c19.41-16.79,35-29,58.55-33.14,34-6,70-2,74,20.32S883,556.92,849.06,562.9c-23.58,4.18-42.36-2-66.36-11.1l-19-7.21Z" fill="#fff"/><path d="M308.81,635.37c-19.41,16.76-35,28.95-58.57,33.09-34,6-70,2-74-20.31s28.59-38.42,62.57-44.39c23.57-4.15,42.36,2,66.35,11.09l19,7.22Z" fill="#fff"/><path d="M747.14,454c12.5-22.39,23-39.21,43.67-51.16,29.9-17.25,65.12-25.86,76.48-6.21s-13.74,45.86-43.6,63.1c-20.73,12-40.5,12.65-66.16,12.26l-20.27-.31Z" fill="#fff"/><path d="M340.78,712.63c-12.52,22.43-23,39.18-43.69,51.16C267.2,781,232,789.63,220.65,770s13.71-45.84,43.58-63.09c20.73-12,40.51-12.62,66.14-12.28l20.3.33Z" fill="#fff"/><path d="M690.68,392.34c4.05-25.33,8.15-44.68,23.54-63,22.17-26.42,52.34-46.56,69.73-32s2.79,47.82-19.39,74.24c-15.41,18.33-33.73,25.7-58,34.13l-19.17,6.66Z" fill="#fff"/><path d="M397.25,774.33c-4.06,25.33-8.16,44.66-23.56,63-22.17,26.42-52.34,46.56-69.71,32s-2.81-47.79,19.39-74.22c15.37-18.34,33.73-25.71,58-34.15l19.18-6.65Z" fill="#fff"/><path d="M616.5,353.7c-4.84-25.2-7.61-44.8.57-67.3,11.8-32.42,33.27-61.64,54.59-53.9s19,44,7.18,76.38c-8.2,22.5-22.93,35.71-42.8,51.91l-15.73,12.8Z" fill="#fff"/><path d="M471.43,813c4.82,25.21,7.6,44.78-.57,67.28-11.81,32.42-33.27,61.65-54.6,53.89s-19-43.95-7.17-76.37c8.19-22.5,22.93-35.72,42.8-51.92l15.75-12.79Z" fill="#fff"/><path d="M731.71,583.33c0,103.7-84.06,187.75-187.74,187.75S356.2,687,356.2,583.33,440.26,395.58,544,395.58,731.71,479.65,731.71,583.33Z" fill="#fff"/></svg>