<svg id="Calque_1" data-name="Calque 1" xmlns="http://www.w3.org/2000/svg" viewBox="0 0 2500 2500"><title>Plan de travail 1</title><path d="M1581.86,1432.15c-44.29-7.7-79.23-10.41-109.23,29.69-12.59,19.27-16.2,48.46-5.32,78.09,9,24.53,59.78,75.26,101.4,75.51,239-.21,478.13.45,717.14.26,6.74.23,6.48-4,4-5.47-3.79-1.67-7.15-3.27-8.61-10,0-18.66.1-37.5.09-56.16.06-5.9.95-11.7,9.95-5.37,9.33,6.59,17.46,4.41,23.49-4,4.49-9.81.16-17.41-5.76-24.29-11.82-11.17-23.88-23.15-35.69-34.32-7.7-6.54-20.6-1.32-24,2.92-.62.35-2.89-2.1-5.68-5l-50,.05c-4.86.1-9.26,7.17-4.92,11.37,3.16,3.45,4.33,5.53,7.52,8.94,2.08,2.61,1.19,7.6-2.67,5.24-7.21-10.34-17.42-21-31.65-23.79-16.85-2.89-34.28-2.76-53.37,21.21-22.37-21.71-46.44-43.62-68.9-65.3-1.48-1.57-3.87-1.89-6.55-1.85-17.78.13-30.06,0-47.85.13-4.16-.45-5.69,8.4-1.52,12,8.9,5.77,12.15,16.74,6.82,15.78-2-2.31-3.71-3.8-5.8-6a152.47,152.47,0,0,0-19.31-17.3c-10.34-6.41-23.11-10.76-39.74-10.66-25.29.16-45.2,8.26-56.66,28-7.28-6.78-13.93-14.21-21.21-21-.86-.8-2.08-1.83-3.2-1.83-17.79-.13-35.17.18-53,.05-1.27.05-.06,4.57-3.76,4.54-2.37,0-3.26-4.63-5.91-4.73-17.91-.1-35.69,0-53.6-.13-4.38.08-5.15,8.48-1.89,11.43,3.31,3.16,8.59,7.65,11.89,10.84.14,14-.38,27.94-.25,41.92-4.25-4.31-11.26-10.52-15.65-14.64-3-2.81-5.82-3-8.66-3.06l-67.33.08q-21.73-22.45-43.49-44.94c-10.36-5.32-6.85,6.11-21.1,1.78Zm18.92,46.22c.26,2.53-2.66.51-3.51-.26-7.28-14-16.06-27.64-31.17-34.18-6.73-2.56-14.75-4-21.88-2.58a34.9,34.9,0,0,0-11.66,5.4,47.79,47.79,0,0,0-4.77,4.38l-1.44,1.7a55,55,0,0,0-7.83,15.07,105.18,105.18,0,0,0-2.78,10.92,159.9,159.9,0,0,0-1.63,34.23c.17,5.69.52,11.32,1.19,17l.3,2.26c1.76,11.48,4.71,22.22,12.14,31.39l2.46,2.63c2.75,2.5,5.59,4.84,9.13,6.06,5,1.52,10.18,2.58,15.47,1.25l.93-.32.88-.35c5-2.58,6.81-6.91,7.06-12.33l.14-40.83a17.64,17.64,0,0,0-1.85-7.63,13.51,13.51,0,0,0-6.12-5.4l-.67-.3-.71-.3a58.09,58.09,0,0,0-6.43-2.08c-.66-.23-.7-2.5,0-2.58h6.34l48.08-.05h12.74c1.31.08.38,2.5-.48,2.94a26.63,26.63,0,0,0-5.59,3.06c-4,3.29-4.16,7.81-4.14,12.62.05,2.45.09,4.89.1,7.34.06,9.49-.05,19,0,28.49v1.27c0,4.15,1.23,11.91-4.46,13.2l-.65.08c-9.44,1.49-18.7,3.77-28.08,5.65a145.23,145.23,0,0,1-31.62,2.56,89.41,89.41,0,0,1-19.78-2.92,81.24,81.24,0,0,1-37.44-23.71,66.46,66.46,0,0,1-13-24.88,94.2,94.2,0,0,1-2-10.34l-.26-2.68a98.81,98.81,0,0,1,1.43-24.5,80.65,80.65,0,0,1,6.81-19.27,73.42,73.42,0,0,1,19-22.42,93,93,0,0,1,16-9.7c19.38-8.66,42-6.64,62-1.3,6.45,1.83,12.55,4.84,19.43,3.59,2.49-.56,4.67-1.6,5.86-4,.26-.51,1.62-.27,2,0,.27,8.24.18,16.45.12,24.67l.25,17.11Zm26.72,79.52c.06,1.09.13,2.18.27,3.27,1,11.75,13.72,17,23.92,18.47l3,.27c10.41.43,18.11-6.36,25.73-12.57a8.71,8.71,0,0,1,2,5.4,40.08,40.08,0,0,0,.39,4.33c.25,1.06.39,1.62,1.56,1.57l42,0a.92.92,0,0,0,.79-.61c.8-2.15-2.09-2.56-3.4-3.19-4.31-2.2-6-6-6.13-10.66-.05-10.08,0-20.19,0-30.27v-44.17a31.06,31.06,0,0,0-.19-3.8c-.31-2-.84-3.64-3.18-3.75-9.95.18-19.86.1-29.79.1l-13.2.1c-.71.51-.4,1.65.06,2.2a16.86,16.86,0,0,1,6.6,3.16,9.68,9.68,0,0,1,3,6.86l0,.53v.56q.27,17.18.51,34.4l0,1.73.27,19c-.21,7-4,15.91-11.88,14.92-7.17-1.95-6.89-10.87-6.85-16.8l.29-59.35c0-.93,0-1.88.05-2.79.09-5.34-3.26-4.36-7.78-4.38-12.14-.05-24.29.08-36.43.08l.38,2.68,5.27,2.56c2.13,2.5,2.15,6,2.08,9.09-.29,20.34-.35,40.8.67,61.06Zm575.74-67.2a34.75,34.75,0,0,1,.23,3.48c0,4.73,0,9.49,0,14.24l0,2,.39,42.74c0,3.85.09,7.73-.29,11.56-.53,4.36-1.95,8.18-6.33,10.29l-.67.27c-1.44.48-1.93.18-2.22,1.57a2.12,2.12,0,0,0,.14,1.36c9,0,18-.05,26.91-.1s17.89-.08,26.82-.1a2.08,2.08,0,0,0-.16-2.36c-6.55-1.19-8.15-8.48-8.6-14.54l-.05-.74,0-.77-.06-42.81v-2.17c.22-5.6,1-12.49,4.72-17,2.57-2.81,6.56-3.09,9,.23a16.37,16.37,0,0,0,2.8,3.24l.8.64a13.07,13.07,0,0,0,10.91,2.08c5.91-1.89,8.05-6.94,7.37-12.89-.74-4.94-2.08-10.05-7.29-11.8l-.66-.18a19.55,19.55,0,0,0-13.18,2.68c-3.24,2.31-5.72,5.55-8,8.77l-.4.56-.42.61c-1.08,1.54-2.84,2.41-4.59,1.3a2,2,0,0,1-.62-1.3c0-2.94-.12-5.9-.14-8.85,0-3.42-2.87-3-5.84-3.09-13,0-25.94.08-38.91.05a2,2,0,0,0-.14,3.24l4.73,1.83c2.5,1.36,3.31,3.22,3.75,5.93Zm-71-6.87-3.5,1.8c-9,5.55-14.24,12.81-18,22.57a82.35,82.35,0,0,0-3.26,13.07c-.32,2.44-.58,4.81-.78,7.25.22,9.27,1.06,17.89,4,26.7a39.5,39.5,0,0,0,7.52,12.71,38,38,0,0,0,5.77,4.73l1.6.93A47.25,47.25,0,0,0,2154,1578l1.36-.26a40.47,40.47,0,0,0,17.82-8.46,54.79,54.79,0,0,0,6.83-7c2.24-2.87,5-6,4.75-10-.48-.61-.83-.23-1.14.3a23.56,23.56,0,0,1-34.4,2.43c-6.68-7-7.91-16.11-7.34-25.41l.22-2.5h2.54l1.44,0c14.25-.08,28.51,0,42.76,0,.25-15.3-5.2-34-19.29-42.23l-1-.56a42.75,42.75,0,0,0-21.39-4.25,48.43,48.43,0,0,0-14.9,3.86Zm9,7.44c1.28-2.71,2.66-4.59,5.38-6,4.54-1.7,8.17.23,10.87,4a18,18,0,0,1,2.11,5,93.22,93.22,0,0,1,1.87,17.7v1.27q0,2.1-.16,4.2c-.4,5-4.49,4.1-8.05,4.12H2143c-3.57-.77-3.5-3.42-3.75-6.38l0-.26,0-.26,0-.32c-.1-7.54-.64-15.93,2.17-23.13Zm-123,77.25a37.31,37.31,0,0,0,12,7.73c13.77,5.12,31,3,43.49-4a36.8,36.8,0,0,0,14.55-15.41c1-2.23,1.88-4.44,2.67-6.74a69.75,69.75,0,0,0,2.45-31.93c-1.91-12.33-5.6-25.23-15.45-33.62-5.28-4.1-10.53-5.45-17.16-5-7.51.83-14.21,4.84-20,9.6-.67.21-1.27.53-1.93.74-1.88.23-2.56-1.19-3.4-2.58l-.35-42.66v-7.17c0-3.06-1.85-3.24-4.62-3.27h-6.55l-28.95,0h-1.31c-1.87,0-5.8-.58-6.48,1.95-.49,2.87,2.36,2.61,4.25,3.09,2.46.77,4.1,1.83,5.2,4.2s1,5.32,1.1,8c0,41.09-.27,82.23,0,123.29.08,2.56.48,3.67,3.22,3.75.83,0,1.6-.8,2.18-1.35,3.2-2.84,6.38-5.75,9.62-8.53,1.76-.93,3.59-1.26,5.37,0Zm17-66.81.06-.45.06-.45c.73-3.7,2.83-7.15,6.63-8.24a10.69,10.69,0,0,1,4.4,0l.58.13c4.49,1.35,6.54,4.89,7.86,9.12l.16.53a46,46,0,0,1,.91,4.76,140.38,140.38,0,0,1,1.45,24.24l-.05,1.7c-.32,7.57-1.14,15-2.15,22.54-.86,6-1.6,15.38-7.26,19.05-2.83,1.54-5.58.8-8-.88-3.51-2.76-4.81-7-5.34-11.27-.16-3.75-.29-7.52-.39-11.3l0-1.85q-.25-10.27-.1-20.54.25-13.57,1.19-27.11Zm-50.92,76.81-1-1.85c-6.29-1.32-8.2-5.77-8-12v-21.18l0-37.31v-16.24c0-4.1.3-6.33-5.16-6.43-9,0-18.05-.05-27.07-.05h-1.21l-11.56,0-.4,4.18,6.55,2.56c2.57,1.95,2.57,4.41,2.72,7.37l0,72.53c-.21,4.71-2.93,6.28-7.42,6.46-.66.16-1.3,1.47-.83,2l53.36,0Zm-110.26.05,34.43-.05c4.07,0,8.16,0,12.23,0,.23-.26-.58-1.36-.8-1.49a9.52,9.52,0,0,0-1.7-.4l-.35-.08c-2.84-.64-5.29-1.49-6.76-4.18a8.08,8.08,0,0,1-.69-3c0-15.2.17-30.38.29-45.52v-2.31l.12-24.85c.14-4.6,1.69-5.85,7.17-6,3.2-.05,6.78.66,7.06-3.54,0-2.48-1.3-4.25-3.92-4.12s-6.5.66-8.75-.91a3.48,3.48,0,0,1-1.31-2.44c-.09-7.76.05-15.5.1-23.23v-1l0-8.11c.38-4.68,3.1-7.31,7.26-9.14,5.58-2,13.85-1.89,15.07,5.4l0,1.27c-2,4-3.53,7.9-3.36,12.44,1,10.16,11.62,12,20.05,11.65,8.25-.58,17.09-3.77,19.29-12.65a17.24,17.24,0,0,0-3.4-13.63c-3.09-3.85-7-6.11-11.41-8.08-11.85-4.89-25-6.41-37.77-5.47a69.41,69.41,0,0,0-22.14,5.85c-11,5.47-17.55,12.54-20.26,23.84-1.28,6.76-1,13.85-1.14,20.8-.14,2.5-2.66,3.09-4.71,3.37a57.82,57.82,0,0,1-7.5.13c-1.93,0-2.39,2.71-2.39,4.2.27,4,2.57,3.35,5.64,3.16,5.38-.21,8.15,1.36,8.44,6.67l.06,69.23c-.22,6.81-4.27,8.37-9.75,9.86a2.29,2.29,0,0,0-1.56.91c-.26.4-.58,1.25,0,1.52,4.15,0,8.29,0,12.41,0Zm-67.57-127.44,0,26.8,0,23,0,45.9,0,23c-.54,4.31-2.89,4.84-6.21,5.47a2.59,2.59,0,0,0-2.2,1.47c-1.36,2.84,1.39,1.95,3.54,1.95l34.32,0h14.54c3.5,0,3.48-.58,1.32-2.74-5.68-1.39-7.21-4.76-7.15-10.18,0-1.6,0-3.19,0-4.81v-23.44l0-31.26v-23.46l0-39.09c0-2.58.21-5.4-.79-7.85-1.66-3.62-6.28-2.66-9.52-2.66-10.48,0-20.93.05-31.41.08h-1.32c-1.63,0-5.08-.56-5.56,1.75-.27,2.1,1.34,2,3,2.56,2.19.71,4.29,1.52,5.84,3.29,2.09,2.78,1.63,7.08,1.63,10.25Zm-62.94,0,0,26.8,0,23,0,45.9,0,23c-.54,4.31-2.89,4.84-6.21,5.47a2.59,2.59,0,0,0-2.2,1.47c-1.36,2.84,1.39,1.95,3.54,1.95l34.32,0h14.54c3.5,0,3.48-.58,1.32-2.74-5.68-1.39-7.2-4.76-7.15-10.18,0-1.6,0-3.19,0-4.81l0-23.44,0-31.26v-23.46l0-39.09c0-2.58.21-5.4-.79-7.85-1.65-3.62-6.28-2.66-9.52-2.66-10.47,0-20.93.05-31.41.08h-1.32c-1.62,0-5.07-.56-5.56,1.75-.27,2.1,1.34,2,3,2.56,2.2.71,4.31,1.52,5.85,3.29,2.08,2.78,1.62,7.08,1.62,10.25Zm407.65-522c3.24,147.14-1.75,292.66-13.58,436.83h140.18l1.13-226.17c16.91-113.43,86-141.6,184.26-122V920.22c-69.91-13.68-133.21,2.2-182,83.16l1.13-75.39-131.12,1.1ZM2117.34,1158c19.92-156.58-64.37-231.13-221.55-234-192.37,7.52-258.31,97.95-266.76,226.08q-1.69,189.31,213.65,215.89,114.16,2.84,219.28-17l18.09-91.55c-200.81,64-316.5,26.37-313.12-99.48Zm-349.28-18.09q-4-120.95,100.59-142.42,120.39-14.12,118.69,98.35C1910,1097.76,1836.35,1110.77,1768.06,1139.86ZM1137.31,928.49H1282l111.9,322.16,128.87-321h147l-209.14,435.2H1318.17ZM720.15,1345.66c170.58,53.82,304.82-38,335.59-154l134.33-28.05c-.13,3.57-.34,7.13-.67,10.69l-136.68,41.68,134.92-28.17c-.8,4.89-1.79,9.78-3,14.63l-112.84,29.73,109.87-18.74c-1.7,5.62-3.61,11.19-5.77,16.72l-74.85,21.19,70.32-10.51q-4.51,9.95-9.91,19.45l-43.2,9,40.76-4.84c-71.7,121-256.28,200-438.91,81.24Zm336.8-158.72a200.27,200.27,0,0,0,3.92-21.44l128.37-26.81c.39,3.77.66,7.54.82,11.31l-133.11,36.94Zm4.5-26.58q.88-8.72.95-17.54l122.86-27.09c.79,3.23,1.48,6.45,2.08,9.69l-125.88,34.94Zm.87-25.1q-.26-8.41-1.26-16.78l116.78-26c1.36,3.42,2.62,6.86,3.75,10.32Zm-2.44-25.2q-1.17-7.1-2.88-14.15l110.71-24.62c1.65,3,3.23,5.94,4.7,8.92Zm-5.1-22.49q-2.09-7.22-4.76-14.25l104.86-21.85c2,2.67,3.85,5.36,5.65,8.07l-105.76,28Zm-8.22-22.85q-2.78-6.45-6-12.7l97.71-20.36c2.46,2.61,4.85,5.23,7.13,7.87l-98.83,25.19Zm-10.62-21.15q-3.9-6.75-8.27-13.2l89.18-18.59c3.45,2.84,6.77,5.71,10,8.64l-90.87,23.15Zm-14.2-21.5q-5.22-7-11-13.58l78.77-16.42q7.1,4.51,13.66,9.23Zm-18.4-21.74q-5.19-5.45-10.89-10.75l67.79-14.12c4.54,2.28,8.94,4.6,13.22,7Zm-20.14-19q-6.52-5.53-13.36-10.67l54-11.26q8.95,3.46,17.38,7.15l-58.07,14.79Zm-24.63-18.77q-6.82-4.67-13.88-9l31.09-10q13.54,3.74,26.13,7.91ZM1055,939c-171.72-50.1-303.92,44.62-332.16,161.32l-133.69,31c.05-3.57.18-7.13.44-10.71l135.73-44.65L591,1107q1.05-7.35,2.66-14.68l112.16-32.18-109.43,21.13c1.57-5.65,3.36-11.27,5.41-16.85l74.36-22.81-70.09,12q4.29-10,9.48-19.66l43-10-40.66,5.72C687,907.18,869.8,824.22,1055,939ZM721.73,1105a198.29,198.29,0,0,0-3.44,21.53l-127.77,29.6c-.48-3.76-.83-7.51-1.06-11.28Zm-3.92,26.67q-.68,8.74-.56,17.55L595,1179q-1.28-4.78-2.28-9.64l125.08-37.69Zm-.32,25.12c.29,5.59.84,11.17,1.62,16.74L602.93,1202q-2.15-5.06-4-10.25Zm3,25.12q1.32,7.06,3.19,14.09l-110.15,27q-2.56-4.34-4.89-8.82Zm5.59,22.39q2.22,7.1,5.07,14.15l-104.35,24.12q-3-3.89-5.82-7.94l105.11-30.34Zm8.72,22.66c1.92,4.23,4,8.4,6.29,12.57L643.82,1262q-3.74-3.77-7.29-7.73Zm11.09,20.91q4,6.6,8.57,13l-88.75,20.54c-3.51-2.76-6.9-5.58-10.14-8.4l90.32-25.16ZM760.52,1269c3.51,4.51,7.29,9,11.26,13.35l-78.39,18.11q-7.2-4.34-13.84-8.92Zm18.88,21.32q5.31,5.35,11.12,10.52l-67.46,15.6q-6.75-3.22-13.36-6.72ZM800,1308.91q6.52,5.31,13.59,10.39l-53.79,12.44c-6-2.18-11.87-4.41-17.54-6.76Zm25,18.24c4.53,3,9.21,5.85,14.06,8.69l-30.87,10.64q-13.25-3.32-26.3-7.34l43.11-12ZM584.56,944.32l6.78,89.3c-48.61-14.71-95.33-23.75-137.91-20.35q-63.85,6.21-41.81,57.65c31.46,31.08,84.21,62,130,98.35,72,69.61,63.67,127.82,0,176.32-93.25,37.11-194.24,35.62-299.55,12.44l-9-88.16c65,20.73,125.29,32,175.21,22.59,47.68-20.34,41.65-45.6,11.31-78-47.48-36.94-125.47-76.12-142.42-110.77-38.91-65-18.74-112.11,41.83-147C398.52,923.93,489.89,928.84,584.56,944.32ZM60.26,929.26H203.51a4118.06,4118.06,0,0,0-14.62,438.52H36.77c19.78-102.8,27.12-250,23.49-438.52Z" fill="#496174"/></svg>